# Blender 5.2.0 LTS
# www.blender.org
o hangar_midorian_add_WELDED
v 41.028954 -10.418554 -158.614426
v 43.028946 -10.418554 -158.614426
v 43.028946 -8.418554 -158.614426
v 41.028954 -8.418554 -158.614426
v 20.548954 -10.418554 -158.614426
v 22.548954 -10.418554 -158.614426
v 22.548954 -8.418554 -158.614426
v 20.548954 -8.418554 -158.614426
v 0.068955 -10.418554 -158.614426
v 2.068955 -10.418554 -158.614426
v 2.068955 -8.418554 -158.614426
v 0.068955 -8.418554 -158.614426
v -20.411045 -10.418554 -158.614426
v -18.411045 -10.418554 -158.614426
v -18.411045 -8.418554 -158.614426
v -20.411045 -8.418554 -158.614426
v -40.891045 -10.418554 -158.614426
v -38.891033 -10.418554 -158.614426
v -38.891033 -8.418554 -158.614426
v -40.891045 -8.418554 -158.614426
v 41.028954 8.618345 -158.463318
v 43.028946 8.618345 -158.463318
v 43.028946 10.618342 -158.463318
v 41.028954 10.618342 -158.463318
v 20.548954 8.618345 -158.463318
v 22.548954 8.618345 -158.463318
v 22.548954 10.618342 -158.463318
v 20.548954 10.618342 -158.463318
v 0.068955 8.618345 -158.463318
v 2.068955 8.618345 -158.463318
v 2.068955 10.618342 -158.463318
v 0.068955 10.618342 -158.463318
v -20.411045 8.618345 -158.463318
v -18.411045 8.618345 -158.463318
v -18.411045 10.618342 -158.463318
v -20.411045 10.618342 -158.463318
v -40.891033 8.618345 -158.463318
v -38.891033 8.618345 -158.463318
v -38.891033 10.618342 -158.463318
v -40.891033 10.618342 -158.463318
v 40.294151 -10.418554 -158.614426
v 42.294140 -10.418554 -158.614426
v 42.294140 -8.418554 -158.614426
v 40.294151 -8.418554 -158.614426
v 19.814159 -10.418554 -158.614426
v 21.814159 -10.418554 -158.614426
v 21.814159 -8.418554 -158.614426
v 19.814159 -8.418554 -158.614426
v -0.665840 -10.418554 -158.614426
v 1.334160 -10.418554 -158.614426
v 1.334160 -8.418554 -158.614426
v -0.665840 -8.418554 -158.614426
v -21.145840 -10.418554 -158.614426
v -19.145840 -10.418554 -158.614426
v -19.145840 -8.418554 -158.614426
v -21.145840 -8.418554 -158.614426
v -41.625828 -10.418554 -158.614426
v -39.625839 -10.418554 -158.614426
v -39.625839 -8.418554 -158.614426
v -41.625828 -8.418554 -158.614426
v 40.294151 8.618345 -158.463318
v 42.294140 8.618345 -158.463318
v 42.294140 10.618342 -158.463318
v 40.294151 10.618342 -158.463318
v 19.814159 8.618345 -158.463318
v 21.814159 8.618345 -158.463318
v 21.814159 10.618342 -158.463318
v 19.814159 10.618342 -158.463318
v -0.665840 8.618345 -158.463318
v 1.334160 8.618345 -158.463318
v 1.334160 10.618342 -158.463318
v -0.665840 10.618342 -158.463318
v -21.145840 8.618345 -158.463318
v -19.145840 8.618345 -158.463318
v -19.145840 10.618342 -158.463318
v -21.145840 10.618342 -158.463318
v -41.625828 8.618345 -158.463318
v -39.625839 8.618345 -158.463318
v -39.625839 10.618342 -158.463318
v -41.625828 10.618342 -158.463318
vn -0.0000 -0.0000 1.0000
vt 0.502441 0.483398
vt 0.521973 0.483398
vt 0.521973 0.502930
vt 0.502441 0.502930
s 0
f 1/1/1 2/2/1 3/3/1
f 3/3/1 4/4/1 1/1/1
f 5/1/1 6/2/1 7/3/1
f 7/3/1 8/4/1 5/1/1
f 9/1/1 10/2/1 11/3/1
f 11/3/1 12/4/1 9/1/1
f 13/1/1 14/2/1 15/3/1
f 15/3/1 16/4/1 13/1/1
f 17/1/1 18/2/1 19/3/1
f 19/3/1 20/4/1 17/1/1
f 21/1/1 22/2/1 23/3/1
f 23/3/1 24/4/1 21/1/1
f 25/1/1 26/2/1 27/3/1
f 27/3/1 28/4/1 25/1/1
f 29/1/1 30/2/1 31/3/1
f 31/3/1 32/4/1 29/1/1
f 33/1/1 34/2/1 35/3/1
f 35/3/1 36/4/1 33/1/1
f 37/1/1 38/2/1 39/3/1
f 39/3/1 40/4/1 37/1/1
f 41/1/1 42/2/1 43/3/1
f 43/3/1 44/4/1 41/1/1
f 45/1/1 46/2/1 47/3/1
f 47/3/1 48/4/1 45/1/1
f 49/1/1 50/2/1 51/3/1
f 51/3/1 52/4/1 49/1/1
f 53/1/1 54/2/1 55/3/1
f 55/3/1 56/4/1 53/1/1
f 57/1/1 58/2/1 59/3/1
f 59/3/1 60/4/1 57/1/1
f 61/1/1 62/2/1 63/3/1
f 63/3/1 64/4/1 61/1/1
f 65/1/1 66/2/1 67/3/1
f 67/3/1 68/4/1 65/1/1
f 69/1/1 70/2/1 71/3/1
f 71/3/1 72/4/1 69/1/1
f 73/1/1 74/2/1 75/3/1
f 75/3/1 76/4/1 73/1/1
f 77/1/1 78/2/1 79/3/1
f 79/3/1 80/4/1 77/1/1
