# Blender 5.2.0 LTS
# www.blender.org
o hangar_midorian_x6_shadow_alpha_WELDED
v -25.605776 -10.308667 -103.009285
v -18.531416 -10.308667 -103.009285
v -18.531416 -10.308667 -108.555176
v -25.605776 -10.308667 -108.555183
v -22.851240 -10.257565 -102.568375
v -15.776882 -10.257565 -102.568375
v -15.776882 -10.257565 -108.996094
v -22.851240 -10.257565 -108.996094
v -67.801369 -10.308667 -128.697403
v -62.269646 -10.308666 -124.287567
v -58.812588 -10.308666 -128.624115
v -64.344307 -10.308667 -133.033951
v -65.922325 -10.257565 -126.635582
v -60.390606 -10.257565 -122.225746
v -56.383865 -10.257565 -127.251831
v -61.915585 -10.257565 -131.661667
v -84.971367 -10.308666 -34.311146
v -79.439644 -10.308667 -29.901318
v -75.982590 -10.308666 -34.237869
v -81.514305 -10.308666 -38.647705
v -83.092323 -10.257565 -32.249329
v -77.560600 -10.257565 -27.839500
v -73.553864 -10.257565 -32.865585
v -79.085587 -10.257565 -37.275417
vn -0.0000 1.0000 -0.0000
vt 0.508823 0.426409
vt 0.538193 0.426409
vt 0.538193 0.456758
vt 0.508823 0.456758
s 0
f 1/1/1 2/2/1 3/3/1
f 3/3/1 4/4/1 1/1/1
f 5/1/1 6/2/1 7/3/1
f 7/3/1 8/4/1 5/1/1
f 9/1/1 10/2/1 11/3/1
f 11/3/1 12/4/1 9/1/1
f 13/1/1 14/2/1 15/3/1
f 15/3/1 16/4/1 13/1/1
f 17/1/1 18/2/1 19/3/1
f 19/3/1 20/4/1 17/1/1
f 21/1/1 22/2/1 23/3/1
f 23/3/1 24/4/1 21/1/1
