# Blender 5.2.0 LTS
# www.blender.org
o hangar_midorian_x4_WELDED
v -1.072422 -9.218087 -97.127342
v -1.147715 -9.218087 -96.050552
v -0.070930 -9.218087 -95.975258
v 0.004360 -9.218087 -97.052040
v -1.068240 -9.278054 -97.187157
v -1.132241 -9.278054 -97.131523
v -1.207534 -9.278054 -96.054741
v -1.151904 -9.278054 -95.990723
v -0.075122 -9.278054 -95.915436
v -0.011111 -9.278054 -95.971069
v 0.064185 -9.278054 -97.047867
v 0.008545 -9.278054 -97.111862
v -1.068240 -10.357466 -97.187157
v -1.132241 -10.357466 -97.131523
v -1.207534 -10.357466 -96.054741
v -1.151904 -10.357466 -95.990723
v -0.075122 -10.357466 -95.915436
v -0.011111 -10.357466 -95.971069
v 0.064185 -10.357466 -97.047867
v 0.008545 -10.357466 -97.111862
v -1.072422 -10.417433 -97.127342
v -1.147715 -10.417433 -96.050552
v -0.070930 -10.417433 -95.975258
v 0.004360 -10.417433 -97.052040
v -2.792495 -9.218087 -97.371109
v -2.867786 -9.218087 -96.294327
v -1.791003 -9.218087 -96.219032
v -1.715713 -9.218087 -97.295815
v -2.788311 -9.278054 -97.430923
v -2.852314 -9.278054 -97.375290
v -2.927605 -9.278054 -96.298515
v -2.871978 -9.278054 -96.234489
v -1.795193 -9.278054 -96.159210
v -1.731184 -9.278054 -96.214844
v -1.655886 -9.278054 -97.291641
v -1.711528 -9.278054 -97.355644
v -2.788311 -10.357466 -97.430923
v -2.852314 -10.357466 -97.375290
v -2.927605 -10.357466 -96.298515
v -2.871978 -10.357466 -96.234489
v -1.795193 -10.357466 -96.159210
v -1.731184 -10.357466 -96.214844
v -1.655886 -10.357466 -97.291641
v -1.711528 -10.357466 -97.355644
v -2.792495 -10.417433 -97.371109
v -2.867786 -10.417433 -96.294327
v -1.791003 -10.417433 -96.219032
v -1.715713 -10.417433 -97.295815
v -2.596716 -9.218087 -93.675850
v -1.559121 -9.218087 -93.973373
v -1.856648 -9.218087 -95.010971
v -2.894243 -9.218087 -94.713448
v -2.654356 -9.278054 -93.659325
v -2.580190 -9.278054 -93.618202
v -1.542593 -9.278054 -93.915741
v -1.501462 -9.278054 -93.989899
v -1.798999 -9.278054 -95.027496
v -1.873174 -9.278054 -95.068619
v -2.910781 -9.278054 -94.771095
v -2.951892 -9.278054 -94.696915
v -2.654356 -10.357466 -93.659325
v -2.580190 -10.357466 -93.618202
v -1.542593 -10.357466 -93.915741
v -1.501462 -10.357466 -93.989899
v -1.798999 -10.357466 -95.027496
v -1.873174 -10.357466 -95.068619
v -2.910781 -10.357466 -94.771095
v -2.951892 -10.357466 -94.696915
v -2.596716 -10.417433 -93.675850
v -1.559121 -10.417433 -93.973373
v -1.856648 -10.417433 -95.010971
v -2.894243 -10.417433 -94.713448
v 0.420081 -9.218087 -94.897461
v -0.629504 -9.218087 -94.645470
v -0.377522 -9.218087 -93.595879
v 0.672065 -9.218087 -93.847870
v 0.478386 -9.278054 -94.911453
v 0.406084 -9.278054 -94.955757
v -0.643503 -9.278054 -94.703773
v -0.687830 -9.278054 -94.631470
v -0.435837 -9.278054 -93.581886
v -0.363525 -9.278054 -93.537567
v 0.686074 -9.278054 -93.789558
v 0.730378 -9.278054 -93.861862
v 0.478386 -10.357466 -94.911453
v 0.406084 -10.357466 -94.955757
v -0.643503 -10.357466 -94.703773
v -0.687830 -10.357466 -94.631470
v -0.435837 -10.357466 -93.581886
v -0.363525 -10.357466 -93.537567
v 0.686074 -10.357466 -93.789558
v 0.730378 -10.357466 -93.861862
v 0.420081 -10.417433 -94.897461
v -0.629504 -10.417433 -94.645470
v -0.377522 -10.417433 -93.595879
v 0.672065 -10.417433 -93.847870
v -16.116789 -9.218086 -45.343418
v -15.171989 -9.218086 -44.821415
v -14.649987 -9.218086 -45.766216
v -15.594788 -9.218086 -46.288212
v -16.169275 -9.278054 -45.372410
v -16.145794 -9.278054 -45.290928
v -15.200994 -9.278054 -44.768929
v -15.119494 -9.278054 -44.792400
v -14.597497 -9.278054 -45.737206
v -14.620989 -9.278054 -45.818699
v -15.565793 -9.278054 -46.340706
v -15.647278 -9.278054 -46.317215
v -16.169275 -10.357465 -45.372410
v -16.145794 -10.357465 -45.290928
v -15.200994 -10.357465 -44.768929
v -15.119494 -10.357465 -44.792400
v -14.597497 -10.357465 -45.737206
v -14.620989 -10.357465 -45.818699
v -15.565793 -10.357465 -46.340706
v -15.647278 -10.357465 -46.317215
v -16.116789 -10.417433 -45.343418
v -15.171989 -10.417433 -44.821415
v -14.649987 -10.417433 -45.766216
v -15.594788 -10.417433 -46.288212
v -17.062643 -9.218086 -43.886215
v -16.117844 -9.218086 -43.364212
v -15.595842 -9.218086 -44.309013
v -16.540642 -9.218086 -44.831009
v -17.115124 -9.278054 -43.915215
v -17.091642 -9.278054 -43.833729
v -16.146843 -9.278054 -43.311729
v -16.065350 -9.278054 -43.335205
v -15.543352 -9.278054 -44.280003
v -15.566838 -9.278054 -44.361500
v -16.511648 -9.278054 -44.883511
v -16.593132 -9.278054 -44.860012
v -17.115124 -10.357465 -43.915215
v -17.091642 -10.357465 -43.833729
v -16.146843 -10.357465 -43.311729
v -16.065350 -10.357465 -43.335205
v -15.543352 -10.357465 -44.280003
v -15.566838 -10.357465 -44.361500
v -16.511648 -10.357465 -44.883511
v -16.593132 -10.357465 -44.860012
v -17.062643 -10.417433 -43.886215
v -16.117844 -10.417433 -43.364212
v -15.595842 -10.417433 -44.309013
v -16.540642 -10.417433 -44.831009
v -13.628947 -9.218086 -43.385067
v -13.461570 -9.218086 -44.451424
v -14.527926 -9.218086 -44.618809
v -14.695305 -9.218086 -43.552452
v -13.638249 -9.278054 -43.325832
v -13.569709 -9.278054 -43.375767
v -13.402331 -9.278054 -44.442123
v -13.452263 -9.278054 -44.510677
v -14.518620 -9.278054 -44.678051
v -14.587165 -9.278054 -44.628109
v -14.754553 -9.278054 -43.561741
v -14.704607 -9.278054 -43.493206
v -13.638249 -10.357465 -43.325832
v -13.569709 -10.357465 -43.375767
v -13.402331 -10.357466 -44.442123
v -13.452263 -10.357466 -44.510677
v -14.518620 -10.357465 -44.678051
v -14.587165 -10.357465 -44.628109
v -14.754553 -10.357465 -43.561741
v -14.704607 -10.357465 -43.493206
v -13.628947 -10.417433 -43.385067
v -13.461570 -10.417433 -44.451424
v -14.527926 -10.417433 -44.618809
v -14.695305 -10.417433 -43.552452
v -13.465642 -9.218086 -45.757359
v -13.679372 -9.218086 -44.699322
v -12.621335 -9.218086 -44.485580
v -12.407599 -9.218086 -45.543621
v -13.453767 -9.278054 -45.816132
v -13.524416 -9.278054 -45.769234
v -13.738152 -9.278054 -44.711189
v -13.691257 -9.278054 -44.640526
v -12.633215 -9.278054 -44.426796
v -12.562556 -9.278054 -44.473705
v -12.348816 -9.278054 -45.531757
v -12.395725 -9.278054 -45.602402
v -13.453767 -10.357465 -45.816132
v -13.524416 -10.357465 -45.769234
v -13.738152 -10.357465 -44.711189
v -13.691257 -10.357465 -44.640526
v -12.633215 -10.357465 -44.426796
v -12.562556 -10.357465 -44.473705
v -12.348816 -10.357466 -45.531757
v -12.395725 -10.357466 -45.602402
v -13.465642 -10.417433 -45.757359
v -13.679372 -10.417433 -44.699322
v -12.621335 -10.417433 -44.485580
v -12.407599 -10.417433 -45.543621
v -16.060427 -9.218086 -48.620171
v -15.556584 -9.218086 -47.665565
v -14.601977 -9.218086 -48.169407
v -15.105824 -9.218086 -49.124012
v -16.088421 -9.278054 -48.673199
v -16.113464 -9.278054 -48.592182
v -15.609619 -9.278054 -47.637577
v -15.528593 -9.278054 -47.612518
v -14.573989 -9.278054 -48.116367
v -14.548947 -9.278054 -48.197403
v -15.052793 -9.278054 -49.152012
v -15.133816 -9.278054 -49.177052
v -16.088421 -10.357466 -48.673199
v -16.113464 -10.357466 -48.592182
v -15.609619 -10.357466 -47.637577
v -15.528593 -10.357466 -47.612518
v -14.573992 -10.357466 -48.116367
v -14.548947 -10.357466 -48.197403
v -15.052793 -10.357466 -49.152012
v -15.133816 -10.357466 -49.177052
v -16.060427 -10.417433 -48.620171
v -15.556584 -10.417433 -47.665565
v -14.601977 -10.417433 -48.169407
v -15.105824 -10.417433 -49.124012
v -15.978125 -8.056782 -46.009594
v -15.819790 -8.056782 -44.941853
v -14.752050 -8.056782 -45.100193
v -14.910390 -8.056782 -46.167927
v -15.986918 -8.116750 -46.068905
v -16.037441 -8.116750 -46.000801
v -15.879104 -8.116750 -44.933060
v -15.810998 -8.116750 -44.882526
v -14.743258 -8.116750 -45.040867
v -14.692734 -8.116750 -45.108982
v -14.851067 -8.116750 -46.176739
v -14.919185 -8.116750 -46.227249
v -15.986918 -9.196161 -46.068905
v -16.037441 -9.196161 -46.000801
v -15.879104 -9.196161 -44.933060
v -15.810998 -9.196161 -44.882526
v -14.743258 -9.196161 -45.040867
v -14.692734 -9.196161 -45.108982
v -14.851067 -9.196161 -46.176739
v -14.919185 -9.196161 -46.227249
v -15.978125 -9.256128 -46.009594
v -15.819790 -9.256128 -44.941853
v -14.752050 -9.256128 -45.100193
v -14.910390 -9.256128 -46.167927
v -17.068542 -9.218086 -46.580383
v -16.039782 -9.218086 -46.907173
v -16.366564 -9.218086 -47.935932
v -17.395323 -9.218086 -47.609150
v -17.125689 -9.278054 -46.562237
v -17.050390 -9.278054 -46.523232
v -16.021633 -9.278054 -46.850018
v -15.982616 -9.278054 -46.925320
v -16.309406 -9.278054 -47.954082
v -16.384714 -9.278054 -47.993084
v -17.413486 -9.278054 -47.666302
v -17.452478 -9.278054 -47.590996
v -17.125689 -10.357466 -46.562237
v -17.050390 -10.357466 -46.523232
v -16.021633 -10.357466 -46.850018
v -15.982616 -10.357466 -46.925320
v -16.309406 -10.357466 -47.954082
v -16.384714 -10.357466 -47.993084
v -17.413486 -10.357466 -47.666302
v -17.452478 -10.357466 -47.590996
v -17.068542 -10.417433 -46.580383
v -16.039782 -10.417433 -46.907173
v -16.366564 -10.417433 -47.935932
v -17.395323 -10.417433 -47.609150
v -14.087536 -9.218086 -47.886902
v -15.129565 -9.218086 -47.605305
v -14.847973 -9.218086 -46.563271
v -13.805937 -9.218086 -46.844872
v -14.029651 -9.278054 -47.902546
v -14.103176 -9.278054 -47.944794
v -15.145209 -9.278054 -47.663193
v -15.187472 -9.278054 -47.589668
v -14.905867 -9.278054 -46.547634
v -14.832329 -9.278054 -46.505379
v -13.790285 -9.278054 -46.786980
v -13.748047 -9.278054 -46.860516
v -14.029651 -10.357466 -47.902546
v -14.103176 -10.357466 -47.944794
v -15.145209 -10.357466 -47.663193
v -15.187472 -10.357466 -47.589668
v -14.905867 -10.357466 -46.547634
v -14.832329 -10.357466 -46.505379
v -13.790285 -10.357466 -46.786980
v -13.748047 -10.357466 -46.860516
v -14.087536 -10.417433 -47.886902
v -15.129565 -10.417433 -47.605305
v -14.847973 -10.417433 -46.563271
v -13.805937 -10.417433 -46.844872
v -13.767863 -7.984418 -45.104980
v -13.724672 -8.063684 -44.029346
v -12.648705 -8.135013 -44.077812
v -12.691901 -8.055747 -45.153435
v -13.774409 -8.039689 -45.168964
v -13.831784 -8.040130 -45.106518
v -13.788591 -8.119395 -44.030888
v -13.726425 -8.127761 -43.973808
v -12.650458 -8.199090 -44.022274
v -12.593079 -8.198649 -44.084724
v -12.636267 -8.119384 -45.160370
v -12.698447 -8.111018 -45.217430
v -13.849048 -9.113821 -45.245117
v -13.906423 -9.114262 -45.182674
v -13.863230 -9.193526 -44.107044
v -13.801064 -9.201893 -44.049965
v -12.725098 -9.273221 -44.098438
v -12.667717 -9.272781 -44.160881
v -12.710905 -9.193516 -45.236530
v -12.773086 -9.185149 -45.293587
v -13.850796 -9.177898 -45.189598
v -13.807605 -9.257163 -44.113964
v -12.731638 -9.328491 -44.162426
v -12.774834 -9.249228 -45.238056
v -94.470642 -9.218087 -97.127342
v -94.545937 -9.218087 -96.050552
v -93.469147 -9.218087 -95.975258
v -93.393852 -9.218087 -97.052040
v -94.466461 -9.278054 -97.187157
v -94.530457 -9.278054 -97.131523
v -94.605751 -9.278054 -96.054741
v -94.550125 -9.278054 -95.990723
v -93.473335 -9.278054 -95.915436
v -93.409332 -9.278054 -95.971069
v -93.334030 -9.278054 -97.047867
v -93.389679 -9.278054 -97.111862
v -94.466461 -10.357466 -97.187157
v -94.530457 -10.357466 -97.131523
v -94.605751 -10.357466 -96.054741
v -94.550125 -10.357466 -95.990723
v -93.473335 -10.357466 -95.915436
v -93.409332 -10.357466 -95.971069
v -93.334030 -10.357466 -97.047867
v -93.389679 -10.357466 -97.111862
v -94.470642 -10.417433 -97.127342
v -94.545937 -10.417433 -96.050552
v -93.469147 -10.417433 -95.975258
v -93.393852 -10.417433 -97.052040
v -96.190712 -9.218087 -97.371109
v -96.266006 -9.218087 -96.294327
v -95.189224 -9.218087 -96.219032
v -95.113930 -9.218087 -97.295815
v -96.186531 -9.278054 -97.430923
v -96.250534 -9.278054 -97.375290
v -96.325829 -9.278054 -96.298515
v -96.270195 -9.278054 -96.234489
v -95.193413 -9.278054 -96.159210
v -95.129402 -9.278054 -96.214844
v -95.054108 -9.278054 -97.291641
v -95.109741 -9.278054 -97.355644
v -96.186531 -10.357466 -97.430923
v -96.250534 -10.357466 -97.375290
v -96.325829 -10.357466 -96.298515
v -96.270195 -10.357466 -96.234489
v -95.193413 -10.357466 -96.159210
v -95.129402 -10.357466 -96.214844
v -95.054108 -10.357466 -97.291641
v -95.109741 -10.357466 -97.355644
v -96.190712 -10.417433 -97.371109
v -96.266006 -10.417433 -96.294327
v -95.189224 -10.417433 -96.219032
v -95.113930 -10.417433 -97.295815
v 59.030674 -9.218086 -82.420288
v 58.465008 -9.218086 -81.500961
v 59.384346 -9.218086 -80.935295
v 59.950008 -9.218086 -81.854622
v 59.062099 -9.278053 -82.471359
v 58.979607 -9.278053 -82.451706
v 58.413952 -9.278053 -81.532387
v 58.433582 -9.278053 -81.449883
v 59.352909 -9.278053 -80.884224
v 59.435417 -9.278053 -80.903877
v 60.001083 -9.278053 -81.823204
v 59.981434 -9.278053 -81.905701
v 59.062099 -10.357466 -82.471359
v 58.979607 -10.357466 -82.451706
v 58.413952 -10.357466 -81.532387
v 58.433582 -10.357466 -81.449883
v 59.352909 -10.357466 -80.884224
v 59.435417 -10.357466 -80.903877
v 60.001083 -10.357466 -81.823204
v 59.981434 -10.357466 -81.905701
v 59.030674 -10.417433 -82.420288
v 58.465008 -10.417433 -81.500961
v 59.384346 -10.417433 -80.935295
v 59.950008 -10.417433 -81.854622
v 57.619366 -9.218086 -83.433319
v 57.053699 -9.218086 -82.513992
v 57.973015 -9.218086 -81.948341
v 58.538681 -9.218086 -82.867661
v 57.650780 -9.278054 -83.484390
v 57.568279 -9.278054 -83.464745
v 57.002625 -9.278054 -82.545425
v 57.022255 -9.278054 -82.462921
v 57.941589 -9.278053 -81.897263
v 58.024090 -9.278053 -81.916908
v 58.589756 -9.278053 -82.836235
v 58.570107 -9.278053 -82.918739
v 57.650780 -10.357466 -83.484390
v 57.568279 -10.357466 -83.464745
v 57.002625 -10.357466 -82.545425
v 57.022255 -10.357466 -82.462921
v 57.941589 -10.357466 -81.897263
v 58.024090 -10.357466 -81.916908
v 58.589756 -10.357466 -82.836235
v 58.570107 -10.357466 -82.918739
v 57.619366 -10.417433 -83.433319
v 57.053699 -10.417433 -82.513992
v 57.973015 -10.417433 -81.948341
v 58.538681 -10.417433 -82.867661
vn -0.3169 0.8756 -0.3646
vn -0.3646 0.8756 0.3169
vn 0.3169 0.8756 0.3646
vn 0.3645 0.8756 -0.3169
vn -0.3169 0.8756 -0.3647
vn -0.2796 0.3415 -0.8973
vn -0.8496 0.3416 -0.4020
vn -0.8496 0.3416 -0.4018
vn -0.8973 0.3416 0.2796
vn -0.8973 0.3416 0.2795
vn -0.4020 0.3416 0.8495
vn -0.4019 0.3416 0.8496
vn 0.2797 0.3416 0.8973
vn 0.3169 0.8756 0.3645
vn 0.3168 0.8756 0.3646
vn 0.2795 0.3416 0.8973
vn 0.8495 0.3417 0.4020
vn 0.8496 0.3416 0.4019
vn 0.8973 0.3416 -0.2797
vn 0.8972 0.3416 -0.2798
vn 0.3646 0.8756 -0.3169
vn 0.4018 0.3416 -0.8496
vn -0.2796 0.3416 -0.8973
vn -0.2797 0.3416 -0.8973
vn -0.2799 0.3416 -0.8972
vn -0.2799 -0.3416 -0.8972
vn -0.8497 -0.3416 -0.4016
vn -0.8496 -0.3415 -0.4019
vn -0.8495 0.3416 -0.4020
vn -0.2795 0.3415 -0.8973
vn -0.8496 -0.3416 -0.4019
vn -0.8973 -0.3416 0.2797
vn -0.8973 -0.3416 0.2796
vn -0.4019 -0.3416 0.8496
vn -0.4020 0.3417 0.8495
vn 0.2797 -0.3416 0.8973
vn 0.2796 0.3416 0.8973
vn 0.8497 -0.3416 0.4018
vn 0.8496 -0.3415 0.4019
vn 0.8496 0.3416 0.4018
vn 0.8496 -0.3416 0.4018
vn 0.8973 -0.3416 -0.2797
vn 0.8973 0.3416 -0.2798
vn 0.8972 -0.3416 -0.2798
vn 0.4017 -0.3416 -0.8497
vn 0.4018 -0.3416 -0.8496
vn 0.8973 0.3416 -0.2796
vn -0.2797 -0.3415 -0.8973
vn -0.2797 -0.3416 -0.8973
vn 0.4020 0.3415 -0.8496
vn -0.2796 -0.3415 -0.8973
vn -0.4273 -0.7587 -0.4917
vn -0.8495 -0.3416 -0.4020
vn -0.4274 -0.7587 -0.4916
vn -0.4916 -0.7588 0.4273
vn -0.4915 -0.7589 0.4273
vn -0.8496 -0.3416 -0.4018
vn -0.8973 -0.3416 0.2795
vn -0.4917 -0.7588 0.4272
vn -0.4020 -0.3416 0.8495
vn -0.4019 -0.3416 0.8495
vn -0.4916 -0.7588 0.4272
vn 0.4273 -0.7588 0.4916
vn 0.4274 -0.7588 0.4915
vn 0.2796 -0.3416 0.8973
vn -0.4018 -0.3416 0.8496
vn 0.2795 -0.3417 0.8973
vn 0.4272 -0.7588 0.4916
vn 0.8495 -0.3417 0.4020
vn 0.8496 -0.3416 0.4019
vn 0.4273 -0.7588 0.4915
vn 0.4916 -0.7588 -0.4273
vn 0.4915 -0.7589 -0.4273
vn 0.4915 -0.7588 -0.4274
vn 0.4017 -0.3416 -0.8496
vn -0.4273 -0.7588 -0.4916
vn -0.8496 0.3417 -0.4018
vn -0.3645 0.8756 0.3168
vn 0.8972 0.3416 -0.2797
vn -0.8496 0.3415 -0.4019
vn -0.8973 -0.3415 0.2796
vn -0.4019 0.3417 0.8495
vn -0.8973 0.3415 0.2796
vn 0.2796 -0.3417 0.8973
vn 0.2797 0.3415 0.8973
vn 0.8495 0.3416 0.4020
vn 0.8973 0.3416 -0.2795
vn 0.8973 -0.3416 -0.2796
vn 0.4019 -0.3416 -0.8496
vn 0.4017 0.3416 -0.8497
vn 0.8973 0.3415 -0.2798
vn -0.2796 -0.3416 -0.8973
vn -0.4273 -0.7587 -0.4916
vn -0.4915 -0.7589 0.4272
vn -0.4019 -0.3417 0.8495
vn 0.4273 -0.7587 0.4916
vn 0.4915 -0.7588 -0.4273
vn 0.8496 -0.3415 0.4018
vn 0.4916 -0.7587 -0.4274
vn -0.2342 0.8756 0.4225
vn 0.4225 0.8756 0.2342
vn 0.2342 0.8756 -0.4225
vn -0.4225 0.8756 -0.2342
vn -0.2341 0.8756 0.4225
vn -0.7474 0.3417 0.5697
vn -0.0869 0.3416 0.9358
vn -0.0870 0.3416 0.9358
vn 0.5696 0.3416 0.7476
vn 0.5697 0.3416 0.7475
vn -0.2342 0.8756 0.4226
vn 0.4224 0.8756 0.2342
vn 0.5696 0.3417 0.7476
vn 0.9358 0.3417 0.0872
vn 0.9358 0.3416 0.0871
vn 0.7475 0.3416 -0.5697
vn 0.2343 0.8756 -0.4225
vn 0.7476 0.3415 -0.5696
vn 0.0872 0.3416 -0.9358
vn 0.0870 0.3416 -0.9358
vn -0.5697 0.3416 -0.7475
vn -0.5697 0.3416 -0.7474
vn -0.4224 0.8756 -0.2341
vn -0.4224 0.8756 -0.2342
vn -0.5697 0.3417 -0.7475
vn -0.9358 0.3417 -0.0869
vn -0.9358 0.3416 -0.0870
vn -0.7475 0.3416 0.5697
vn -0.7475 -0.3416 0.5698
vn -0.0869 -0.3416 0.9358
vn -0.0872 -0.3415 0.9358
vn -0.0873 0.3416 0.9358
vn -0.7477 0.3415 0.5695
vn -0.0871 0.3415 0.9358
vn -0.0870 -0.3416 0.9358
vn 0.5697 -0.3416 0.7475
vn 0.5696 -0.3416 0.7475
vn 0.5696 -0.3416 0.7476
vn 0.9358 -0.3416 0.0871
vn 0.7475 -0.3416 -0.5697
vn 0.7476 0.3416 -0.5696
vn 0.7476 -0.3416 -0.5695
vn 0.0872 -0.3415 -0.9358
vn 0.0869 -0.3415 -0.9358
vn 0.7475 0.3416 -0.5698
vn 0.0870 -0.3416 -0.9358
vn -0.5697 -0.3416 -0.7475
vn -0.9358 -0.3416 -0.0870
vn -0.9358 -0.3416 -0.0869
vn -0.9358 0.3416 -0.0869
vn -0.7475 -0.3416 0.5697
vn -0.7474 -0.3417 0.5698
vn -0.3157 -0.7587 0.5698
vn -0.0871 -0.3416 0.9358
vn -0.3158 -0.7588 0.5696
vn 0.5696 -0.7588 0.3158
vn 0.5696 -0.7588 0.3159
vn 0.5697 -0.3415 0.7476
vn -0.0870 -0.3415 0.9358
vn 0.5695 -0.3416 0.7476
vn 0.9358 -0.3417 0.0872
vn 0.9358 -0.3417 0.0871
vn 0.5696 -0.7589 0.3158
vn 0.3158 -0.7588 -0.5697
vn 0.7475 -0.3415 -0.5697
vn 0.9358 -0.3416 0.0870
vn 0.7476 -0.3416 -0.5696
vn 0.3159 -0.7587 -0.5697
vn 0.0871 -0.3416 -0.9358
vn -0.5696 -0.7589 -0.3157
vn -0.5696 -0.7588 -0.3157
vn 0.0870 -0.3415 -0.9358
vn -0.5697 -0.3417 -0.7475
vn -0.5697 -0.7588 -0.3157
vn -0.5696 -0.7588 -0.3158
vn -0.3158 -0.7588 0.5697
vn 0.2524 0.8756 -0.4119
vn -0.4118 0.8756 -0.2524
vn -0.2524 0.8756 0.4119
vn 0.4119 0.8756 0.2524
vn 0.2525 0.8755 -0.4119
vn 0.7717 0.3415 -0.5365
vn 0.1279 0.3416 -0.9311
vn 0.2524 0.8755 -0.4120
vn 0.1278 0.3415 -0.9311
vn -0.5365 0.3415 -0.7717
vn -0.5365 0.3416 -0.7717
vn -0.4119 0.8756 -0.2524
vn -0.9311 0.3417 -0.1278
vn -0.9311 0.3416 -0.1278
vn -0.7717 0.3416 0.5365
vn -0.2525 0.8756 0.4118
vn -0.7717 0.3416 0.5364
vn -0.1279 0.3417 0.9311
vn -0.1277 0.3416 0.9311
vn 0.5366 0.3416 0.7716
vn 0.4118 0.8756 0.2524
vn 0.5365 0.3417 0.7716
vn 0.9311 0.3416 0.1278
vn 0.9311 0.3416 0.1277
vn 0.7717 0.3416 -0.5365
vn 0.7717 -0.3416 -0.5365
vn 0.1278 -0.3415 -0.9311
vn 0.1276 -0.3415 -0.9312
vn 0.1276 0.3416 -0.9311
vn 0.7716 0.3415 -0.5367
vn 0.1278 0.3416 -0.9311
vn 0.1278 -0.3416 -0.9311
vn -0.5365 -0.3416 -0.7717
vn -0.5364 0.3416 -0.7717
vn -0.9311 -0.3416 -0.1278
vn -0.7716 -0.3416 0.5366
vn -0.7716 0.3416 0.5365
vn -0.7716 -0.3416 0.5365
vn -0.1277 -0.3416 0.9311
vn -0.1278 -0.3416 0.9311
vn -0.1278 0.3416 0.9311
vn 0.5366 -0.3416 0.7716
vn 0.5365 0.3416 0.7716
vn 0.5365 -0.3416 0.7717
vn 0.9311 -0.3416 0.1278
vn 0.9311 -0.3416 0.1277
vn 0.5365 0.3416 0.7717
vn 0.7717 -0.3417 -0.5364
vn 0.7717 -0.3415 -0.5365
vn 0.3405 -0.7587 -0.5554
vn 0.1279 -0.3416 -0.9311
vn 0.3404 -0.7587 -0.5554
vn -0.5553 -0.7588 -0.3404
vn -0.5552 -0.7589 -0.3403
vn -0.9311 -0.3417 -0.1278
vn -0.9311 -0.3416 -0.1279
vn -0.5553 -0.7588 -0.3403
vn -0.3403 -0.7588 0.5554
vn -0.7717 -0.3415 0.5365
vn -0.7717 -0.3416 0.5364
vn -0.3404 -0.7587 0.5554
vn -0.1279 -0.3417 0.9311
vn -0.3403 -0.7588 0.5553
vn 0.5554 -0.7588 0.3403
vn 0.5553 -0.7588 0.3403
vn 0.5366 -0.3415 0.7717
vn -0.1277 -0.3415 0.9312
vn 0.5365 -0.3417 0.7716
vn 0.9311 -0.3415 0.1278
vn 0.3403 -0.7588 -0.5553
vn -0.4642 0.8756 0.1338
vn 0.1338 0.8756 0.4642
vn 0.4642 0.8756 -0.1338
vn -0.1338 0.8756 -0.4641
vn -0.4643 0.8755 0.1338
vn -0.9316 0.3416 -0.1245
vn -0.7225 0.3416 0.6012
vn -0.4642 0.8756 0.1337
vn -0.7224 0.3416 0.6012
vn -0.1245 0.3416 0.9316
vn 0.1337 0.8756 0.4642
vn 0.1337 0.8756 0.4641
vn -0.1246 0.3417 0.9315
vn 0.6010 0.3417 0.7225
vn 0.1338 0.8756 0.4641
vn 0.6011 0.3416 0.7225
vn 0.9316 0.3416 0.1245
vn 0.9316 0.3417 0.1244
vn 0.4641 0.8756 -0.1338
vn 0.4643 0.8755 -0.1339
vn 0.9316 0.3415 0.1244
vn 0.7224 0.3415 -0.6012
vn 0.7224 0.3416 -0.6012
vn 0.1245 0.3416 -0.9316
vn 0.1244 0.3416 -0.9316
vn -0.1338 0.8756 -0.4642
vn 0.1243 0.3416 -0.9316
vn -0.6012 0.3416 -0.7224
vn -0.9316 0.3416 -0.1244
vn -0.9316 -0.3416 -0.1245
vn -0.7224 -0.3416 0.6012
vn -0.7224 -0.3415 0.6012
vn -0.7225 0.3416 0.6011
vn -0.9316 0.3415 -0.1245
vn -0.1245 -0.3416 0.9316
vn -0.1245 0.3416 0.9315
vn -0.1247 0.3416 0.9315
vn -0.1247 -0.3416 0.9315
vn 0.6010 -0.3416 0.7226
vn 0.6012 -0.3416 0.7224
vn 0.6011 0.3417 0.7224
vn 0.6011 0.3416 0.7224
vn 0.6011 -0.3416 0.7225
vn 0.9316 -0.3415 0.1245
vn 0.9316 -0.3416 0.1245
vn 0.9316 0.3416 0.1244
vn 0.9316 -0.3416 0.1244
vn 0.7224 -0.3416 -0.6013
vn 0.7224 -0.3415 -0.6013
vn 0.9316 0.3415 0.1245
vn 0.7224 -0.3416 -0.6012
vn 0.1244 -0.3416 -0.9316
vn -0.6012 -0.3416 -0.7224
vn -0.6013 -0.3416 -0.7224
vn -0.6013 0.3416 -0.7223
vn 0.1244 0.3415 -0.9316
vn -0.9316 -0.3415 -0.1245
vn -0.6260 -0.7587 0.1804
vn -0.7225 -0.3415 0.6012
vn -0.7225 -0.3416 0.6011
vn -0.6259 -0.7588 0.1804
vn 0.1803 -0.7588 0.6258
vn 0.1804 -0.7588 0.6258
vn -0.1246 -0.3416 0.9315
vn 0.1802 -0.7588 0.6259
vn 0.6010 -0.3417 0.7225
vn 0.1803 -0.7588 0.6259
vn 0.6259 -0.7588 -0.1804
vn 0.6258 -0.7588 -0.1804
vn 0.6259 -0.7587 -0.1805
vn 0.7224 -0.3415 -0.6012
vn -0.1804 -0.7588 -0.6259
vn -0.1804 -0.7588 -0.6258
vn 0.1245 -0.3416 -0.9316
vn 0.1243 -0.3416 -0.9316
vn -0.1805 -0.7588 -0.6259
vn -0.6259 -0.7587 0.1804
vn -0.1246 0.3416 0.9316
vn 0.6012 0.3416 0.7224
vn 0.9315 0.3417 0.1244
vn 0.7224 0.3417 -0.6012
vn 0.1244 0.3417 -0.9316
vn -0.7225 0.3415 0.6012
vn -0.1245 -0.3415 0.9316
vn -0.1246 -0.3416 0.9316
vn -0.1244 -0.3416 0.9316
vn 0.6011 0.3417 0.7225
vn -0.6013 0.3416 -0.7224
vn 0.1804 -0.7587 0.6259
vn 0.1804 -0.7588 0.6259
vn 0.6259 -0.7588 -0.1805
vn 0.2845 0.8756 0.3904
vn 0.3904 0.8756 -0.2844
vn -0.2845 0.8756 -0.3904
vn -0.3904 0.8756 0.2845
vn 0.2846 0.8755 0.3904
vn 0.2017 0.3416 0.9179
vn 0.8120 0.3415 0.4732
vn 0.2845 0.8755 0.3905
vn 0.8120 0.3416 0.4733
vn 0.9180 0.3416 -0.2016
vn 0.3904 0.8756 -0.2845
vn 0.4733 0.3416 -0.8120
vn -0.2017 0.3416 -0.9180
vn -0.2017 0.3416 -0.9179
vn -0.2845 0.8756 -0.3905
vn -0.8120 0.3416 -0.4733
vn -0.9180 0.3416 0.2017
vn -0.9179 0.3416 0.2017
vn -0.3903 0.8756 0.2844
vn -0.9179 0.3417 0.2017
vn -0.4731 0.3417 0.8120
vn -0.4732 0.3416 0.8120
vn 0.2016 0.3416 0.9180
vn 0.2017 0.3416 0.9180
vn 0.2016 -0.3416 0.9180
vn 0.8120 -0.3416 0.4733
vn 0.8120 -0.3415 0.4733
vn 0.2016 0.3415 0.9180
vn 0.8120 0.3415 0.4733
vn 0.9180 -0.3416 -0.2017
vn 0.9180 -0.3416 -0.2016
vn 0.8120 0.3416 0.4732
vn 0.4733 -0.3416 -0.8120
vn 0.4733 0.3417 -0.8119
vn -0.2017 -0.3416 -0.9180
vn -0.2016 0.3416 -0.9180
vn -0.2016 -0.3416 -0.9180
vn -0.8120 -0.3416 -0.4732
vn -0.8120 -0.3415 -0.4732
vn -0.8120 0.3416 -0.4732
vn -0.9180 -0.3416 0.2017
vn -0.9179 -0.3416 0.2017
vn -0.9179 0.3416 0.2018
vn -0.9179 -0.3416 0.2018
vn -0.4732 -0.3416 0.8120
vn 0.2017 -0.3416 0.9180
vn 0.2017 -0.3415 0.9180
vn 0.3837 -0.7587 0.5265
vn 0.8120 -0.3415 0.4732
vn 0.3836 -0.7588 0.5264
vn 0.5265 -0.7588 -0.3835
vn 0.4733 -0.3416 -0.8119
vn 0.5264 -0.7588 -0.3835
vn -0.3836 -0.7588 -0.5264
vn -0.2017 -0.3415 -0.9180
vn -0.3836 -0.7587 -0.5265
vn -0.8120 -0.3416 -0.4733
vn -0.5264 -0.7589 0.3835
vn -0.5264 -0.7588 0.3835
vn -0.8121 -0.3415 -0.4732
vn -0.9179 -0.3417 0.2017
vn -0.5264 -0.7588 0.3836
vn 0.3836 -0.7587 0.5265
vn -0.2672 0.8756 -0.4025
vn -0.4024 0.8756 0.2671
vn 0.2672 0.8756 0.4025
vn 0.4024 0.8756 -0.2672
vn -0.2673 0.8756 -0.4024
vn -0.1615 0.3416 -0.9259
vn -0.7906 0.3416 -0.5082
vn -0.2672 0.8755 -0.4025
vn -0.7906 0.3415 -0.5082
vn -0.9259 0.3415 0.1614
vn -0.9259 0.3416 0.1614
vn -0.4025 0.8756 0.2671
vn -0.5082 0.3417 0.7905
vn -0.5083 0.3416 0.7905
vn 0.1614 0.3416 0.9259
vn 0.2672 0.8756 0.4024
vn 0.1615 0.3417 0.9258
vn 0.7906 0.3417 0.5082
vn 0.7906 0.3415 0.5082
vn 0.9259 0.3416 -0.1615
vn 0.9258 0.3417 -0.1615
vn 0.5082 0.3416 -0.7906
vn -0.1614 0.3416 -0.9259
vn -0.1614 0.3415 -0.9259
vn -0.2672 0.8755 -0.4026
vn -0.1614 -0.3416 -0.9259
vn -0.7906 -0.3415 -0.5082
vn -0.7906 -0.3416 -0.5082
vn -0.9259 -0.3415 0.1614
vn -0.9259 -0.3416 0.1614
vn -0.9259 0.3416 0.1613
vn -0.5082 -0.3416 0.7906
vn -0.5083 0.3417 0.7905
vn -0.5083 -0.3416 0.7905
vn 0.1615 -0.3416 0.9259
vn -0.5082 0.3416 0.7905
vn 0.1615 0.3416 0.9259
vn 0.7907 -0.3416 0.5081
vn 0.7906 -0.3416 0.5082
vn 0.7906 0.3416 0.5082
vn 0.1613 0.3416 0.9259
vn 0.9259 -0.3416 -0.1615
vn 0.9258 0.3416 -0.1615
vn 0.9258 -0.3416 -0.1615
vn 0.5081 -0.3416 -0.7907
vn 0.5082 -0.3416 -0.7906
vn -0.1614 -0.3415 -0.9259
vn -0.1615 -0.3416 -0.9259
vn -0.3603 -0.7587 -0.5427
vn -0.7906 -0.3415 -0.5083
vn -0.5427 -0.7588 0.3602
vn -0.5426 -0.7589 0.3601
vn -0.5082 -0.3417 0.7905
vn -0.5083 -0.3417 0.7905
vn -0.5426 -0.7588 0.3602
vn 0.3603 -0.7588 0.5426
vn 0.3603 -0.7588 0.5427
vn 0.1614 -0.3415 0.9259
vn 0.1615 -0.3417 0.9258
vn 0.7906 -0.3417 0.5082
vn 0.3602 -0.7588 0.5426
vn 0.5426 -0.7588 -0.3603
vn 0.5426 -0.7588 -0.3602
vn 0.9259 -0.3415 -0.1615
vn 0.7906 -0.3415 0.5082
vn 0.9258 -0.3417 -0.1615
vn 0.5082 -0.3415 -0.7906
vn -0.3602 -0.7588 -0.5426
vn -0.4615 0.8756 -0.1426
vn -0.1427 0.8756 0.4615
vn 0.4616 0.8756 0.1425
vn 0.4615 0.8756 0.1426
vn 0.1426 0.8756 -0.4615
vn -0.4616 0.8756 -0.1425
vn -0.4616 0.8756 -0.1427
vn -0.7108 0.3416 -0.6149
vn -0.9338 0.3416 0.1066
vn -0.4615 0.8756 -0.1427
vn -0.6150 0.3416 0.7107
vn -0.6149 0.3416 0.7107
vn -0.6149 0.3417 0.7107
vn 0.1065 0.3417 0.9338
vn 0.1065 0.3416 0.9338
vn 0.7108 0.3416 0.6149
vn 0.4616 0.8755 0.1426
vn 0.7109 0.3415 0.6148
vn 0.9338 0.3415 -0.1067
vn 0.4616 0.8756 0.1426
vn 0.9338 0.3416 -0.1066
vn 0.6149 0.3416 -0.7108
vn 0.6148 0.3416 -0.7108
vn 0.4615 0.8756 0.1427
vn 0.1427 0.8756 -0.4615
vn -0.1066 0.3416 -0.9338
vn -0.1067 0.3416 -0.9338
vn -0.7108 -0.3416 -0.6149
vn -0.9338 -0.3416 0.1066
vn -0.9338 -0.3415 0.1066
vn -0.7108 0.3415 -0.6149
vn -0.6149 -0.3416 0.7108
vn -0.6150 -0.3416 0.7107
vn 0.1065 -0.3416 0.9338
vn 0.1066 -0.3416 0.9338
vn 0.1066 0.3417 0.9338
vn 0.7108 -0.3415 0.6149
vn 0.7108 -0.3416 0.6149
vn 0.9338 -0.3416 -0.1067
vn 0.9338 -0.3415 -0.1067
vn 0.9338 -0.3416 -0.1066
vn 0.6149 -0.3416 -0.7108
vn -0.1067 -0.3416 -0.9338
vn -0.1065 -0.3416 -0.9338
vn -0.1065 0.3416 -0.9338
vn 0.6150 0.3416 -0.7107
vn -0.1066 -0.3416 -0.9338
vn -0.7108 -0.3415 -0.6149
vn -0.6224 -0.7587 -0.1924
vn -0.9338 -0.3416 0.1065
vn -0.6223 -0.7588 -0.1924
vn -0.1924 -0.7588 0.6223
vn -0.1923 -0.7589 0.6222
vn -0.6149 -0.3417 0.7107
vn 0.1065 -0.3417 0.9338
vn 0.6223 -0.7588 0.1923
vn 0.6224 -0.7587 0.1923
vn 0.1923 -0.7588 -0.6223
vn 0.1923 -0.7588 -0.6222
vn -0.6223 -0.7587 -0.1924
vn -0.6223 -0.7588 -0.1923
vn -0.3880 0.8756 -0.2878
vn -0.2878 0.8756 0.3879
vn 0.3880 0.8756 0.2878
vn 0.2877 0.8756 -0.3880
vn -0.4663 0.3416 -0.8160
vn -0.9162 0.3416 -0.2094
vn -0.9162 0.3416 -0.2095
vn -0.8160 0.3416 0.4662
vn -0.8160 0.3416 0.4663
vn -0.2878 0.8756 0.3880
vn -0.8160 0.3415 0.4663
vn -0.2095 0.3416 0.9162
vn -0.2878 0.8755 0.3880
vn 0.4663 0.3416 0.8160
vn 0.3880 0.8756 0.2877
vn 0.3881 0.8756 0.2878
vn 0.9162 0.3416 0.2095
vn 0.9162 0.3416 0.2094
vn 0.8160 0.3416 -0.4663
vn 0.8159 0.3417 -0.4664
vn 0.2877 0.8756 -0.3879
vn 0.2093 0.3416 -0.9162
vn 0.2878 0.8756 -0.3880
vn 0.2094 0.3416 -0.9162
vn -0.4663 0.3415 -0.8160
vn -0.4663 0.3415 -0.8161
vn -0.4663 -0.3416 -0.8160
vn -0.9162 -0.3416 -0.2095
vn -0.9162 -0.3416 -0.2094
vn -0.9162 0.3415 -0.2095
vn -0.8161 -0.3415 0.4663
vn -0.8161 -0.3416 0.4662
vn -0.8161 0.3416 0.4662
vn -0.8160 -0.3416 0.4663
vn -0.2095 -0.3416 0.9162
vn -0.2094 -0.3416 0.9162
vn -0.2095 0.3417 0.9162
vn -0.2096 0.3416 0.9162
vn 0.4662 -0.3417 0.8160
vn 0.4663 -0.3416 0.8160
vn 0.4663 0.3415 0.8160
vn 0.9162 -0.3416 0.2094
vn 0.4664 0.3416 0.8160
vn 0.8160 -0.3416 -0.4664
vn 0.8160 0.3416 -0.4664
vn 0.8159 -0.3416 -0.4664
vn 0.2093 -0.3416 -0.9162
vn 0.2094 -0.3416 -0.9162
vn 0.2095 0.3416 -0.9162
vn -0.5232 -0.7587 -0.3881
vn -0.3881 -0.7588 0.5231
vn -0.3880 -0.7589 0.5230
vn -0.8160 -0.3416 0.4662
vn -0.8160 -0.3415 0.4663
vn -0.3881 -0.7587 0.5231
vn -0.2096 -0.3416 0.9162
vn -0.3880 -0.7588 0.5231
vn 0.5232 -0.7588 0.3880
vn 0.5231 -0.7588 0.3880
vn 0.4664 -0.3416 0.8160
vn 0.5232 -0.7587 0.3880
vn 0.9162 -0.3416 0.2095
vn 0.3879 -0.7588 -0.5231
vn 0.3880 -0.7588 -0.5231
vn 0.8160 -0.3416 -0.4663
vn 0.8159 -0.3417 -0.4664
vn 0.3880 -0.7588 -0.5232
vn -0.5232 -0.7588 -0.3880
vn -0.4663 -0.3415 -0.8161
vn -0.2221 0.8756 0.4290
vn 0.4289 0.8756 0.2222
vn 0.2221 0.8756 -0.4290
vn -0.4289 0.8756 -0.2221
vn -0.2222 0.8756 0.4290
vn -0.7311 0.3416 0.5906
vn -0.0606 0.3416 0.9379
vn -0.0605 0.3416 0.9379
vn 0.5906 0.3416 0.7311
vn 0.4289 0.8756 0.2221
vn 0.5906 0.3417 0.7311
vn 0.9379 0.3416 0.0606
vn 0.7311 0.3416 -0.5906
vn 0.7310 0.3416 -0.5906
vn 0.2221 0.8756 -0.4289
vn 0.2222 0.8756 -0.4290
vn 0.0606 0.3416 -0.9379
vn 0.0605 0.3416 -0.9379
vn -0.5906 0.3416 -0.7311
vn -0.5907 0.3416 -0.7310
vn -0.5906 0.3417 -0.7310
vn -0.9379 0.3417 -0.0605
vn -0.9379 0.3416 -0.0604
vn -0.4290 0.8756 -0.2221
vn -0.7311 -0.3416 0.5906
vn -0.0605 -0.3416 0.9379
vn -0.0605 -0.3415 0.9379
vn -0.7311 0.3415 0.5906
vn -0.0605 0.3415 0.9379
vn 0.5907 -0.3414 0.7311
vn 0.5906 -0.3416 0.7311
vn 0.5905 0.3416 0.7311
vn 0.5905 0.3416 0.7312
vn 0.9379 -0.3416 0.0606
vn 0.9379 0.3417 0.0606
vn 0.7311 -0.3416 -0.5906
vn 0.0605 -0.3416 -0.9379
vn 0.0605 -0.3415 -0.9379
vn -0.5906 -0.3416 -0.7311
vn -0.5907 -0.3416 -0.7310
vn -0.9379 -0.3416 -0.0605
vn -0.9379 -0.3416 -0.0604
vn -0.5907 0.3416 -0.7311
vn -0.9379 0.3416 -0.0605
vn -0.7311 -0.3415 0.5906
vn -0.2996 -0.7587 0.5784
vn -0.0606 -0.3416 0.9379
vn -0.2995 -0.7588 0.5784
vn 0.5784 -0.7588 0.2996
vn 0.5783 -0.7588 0.2996
vn 0.5784 -0.7587 0.2995
vn 0.9379 -0.3416 0.0605
vn 0.9379 -0.3417 0.0606
vn 0.5783 -0.7589 0.2996
vn 0.2995 -0.7588 -0.5784
vn 0.7311 -0.3415 -0.5906
vn 0.7311 -0.3416 -0.5905
vn 0.2996 -0.7587 -0.5784
vn -0.5783 -0.7589 -0.2995
vn 0.0604 -0.3415 -0.9379
vn -0.5906 -0.3417 -0.7310
vn -0.5784 -0.7588 -0.2995
vn -0.9379 -0.3417 -0.0605
vn 0.2406 0.8756 -0.4189
vn -0.4188 0.8756 -0.2407
vn -0.2406 0.8756 0.4189
vn 0.4189 0.8756 0.2406
vn 0.2405 0.8756 -0.4190
vn 0.2406 0.8756 -0.4188
vn 0.7562 0.3416 -0.5581
vn 0.1014 0.3417 -0.9343
vn 0.2407 0.8756 -0.4189
vn 0.1014 0.3416 -0.9344
vn -0.5581 0.3416 -0.7562
vn -0.9343 0.3417 -0.1015
vn -0.4188 0.8756 -0.2406
vn -0.9343 0.3416 -0.1014
vn -0.7562 0.3416 0.5582
vn -0.7562 0.3415 0.5582
vn -0.2407 0.8756 0.4189
vn -0.4189 0.8756 -0.2407
vn -0.2406 0.8756 0.4188
vn -0.7562 0.3416 0.5581
vn -0.1014 0.3417 0.9343
vn -0.1013 0.3416 0.9344
vn 0.5582 0.3416 0.7561
vn 0.4188 0.8756 0.2406
vn 0.5582 0.3417 0.7561
vn 0.9344 0.3416 0.1013
vn 0.7562 0.3415 -0.5582
vn 0.7561 0.3416 -0.5582
vn 0.7561 -0.3416 -0.5582
vn 0.1013 -0.3416 -0.9344
vn 0.1013 -0.3415 -0.9344
vn 0.1013 0.3416 -0.9344
vn 0.1014 -0.3416 -0.9344
vn -0.5582 -0.3415 -0.7562
vn -0.5581 -0.3416 -0.7562
vn -0.5580 0.3416 -0.7562
vn -0.9344 -0.3416 -0.1015
vn -0.9344 -0.3416 -0.1014
vn -0.9343 -0.3416 -0.1014
vn -0.7561 -0.3416 0.5582
vn -0.7561 0.3416 0.5582
vn -0.7562 -0.3416 0.5581
vn -0.1014 -0.3416 0.9344
vn -0.1014 0.3416 0.9344
vn -0.1013 -0.3416 0.9344
vn 0.5582 -0.3416 0.7561
vn 0.9344 -0.3416 0.1013
vn 0.7562 -0.3416 -0.5582
vn 0.7561 -0.3417 -0.5582
vn 0.3245 -0.7588 -0.5648
vn 0.1014 -0.3417 -0.9343
vn 0.1014 -0.3415 -0.9344
vn 0.3245 -0.7587 -0.5648
vn -0.5647 -0.7588 -0.3245
vn -0.5647 -0.7589 -0.3245
vn -0.5647 -0.7588 -0.3246
vn -0.9343 -0.3417 -0.1015
vn -0.3244 -0.7588 0.5648
vn -0.3245 -0.7587 0.5648
vn -0.7562 -0.3415 0.5582
vn -0.9344 -0.3415 -0.1014
vn -0.7561 -0.3417 0.5581
vn -0.3245 -0.7588 0.5648
vn -0.1014 -0.3417 0.9343
vn 0.5648 -0.7588 0.3244
vn 0.5647 -0.7588 0.3244
vn 0.5582 -0.3416 0.7562
vn -0.1013 -0.3415 0.9344
vn 0.5582 -0.3417 0.7561
vn 0.9344 -0.3415 0.1013
vn 0.3245 -0.7588 -0.5647
vn 0.7562 -0.3416 -0.5581
vn -0.2936 0.9190 -0.2633
vn -0.2663 0.8688 0.4175
vn 0.4147 0.8236 0.3868
vn 0.3873 0.8738 -0.2939
vn -0.3519 0.4268 -0.8331
vn -0.8628 0.4229 -0.2770
vn -0.2936 0.9189 -0.2633
vn -0.8355 0.3727 0.4037
vn -0.2663 0.8688 0.4174
vn -0.8356 0.3727 0.4037
vn -0.2819 0.2982 0.9119
vn 0.3991 0.2530 0.8813
vn 0.3992 0.2531 0.8812
vn 0.4147 0.8237 0.3867
vn -0.2663 0.8689 0.4173
vn 0.4147 0.8237 0.3868
vn 0.3992 0.2531 0.8813
vn 0.9100 0.2570 0.3252
vn 0.9101 0.2570 0.3252
vn 0.8827 0.3072 -0.3556
vn 0.8827 0.3072 -0.3557
vn 0.3873 0.8739 -0.2939
vn 0.3874 0.8738 -0.2939
vn 0.3290 0.3817 -0.8637
vn 0.3290 0.3817 -0.8638
vn -0.3519 0.4267 -0.8331
vn -0.3992 -0.2530 -0.8813
vn -0.9101 -0.2569 -0.3252
vn -0.9101 -0.2569 -0.3251
vn -0.8628 0.4228 -0.2770
vn -0.8828 -0.3071 0.3556
vn -0.8828 -0.3071 0.3555
vn -0.8355 0.3727 0.4038
vn -0.8827 -0.3071 0.3556
vn -0.3291 -0.3817 0.8637
vn -0.3292 -0.3816 0.8637
vn -0.2820 0.2983 0.9119
vn -0.8356 0.3727 0.4036
vn -0.2820 0.2982 0.9119
vn -0.3292 -0.3817 0.8637
vn 0.3519 -0.4267 0.8331
vn 0.3519 -0.4268 0.8331
vn 0.3991 0.2531 0.8813
vn -0.2820 0.2981 0.9119
vn 0.8628 -0.4228 0.2770
vn 0.8628 -0.4229 0.2770
vn 0.8355 -0.3727 -0.4038
vn 0.8827 0.3071 -0.3556
vn 0.2818 -0.2982 -0.9120
vn 0.2817 -0.2982 -0.9120
vn 0.3289 0.3817 -0.8638
vn 0.8827 0.3071 -0.3557
vn 0.3291 0.3816 -0.8637
vn 0.2818 -0.2982 -0.9119
vn -0.3991 -0.2530 -0.8813
vn -0.5300 -0.6908 -0.4919
vn -0.9101 -0.2570 -0.3252
vn -0.4932 -0.7585 0.4260
vn -0.4931 -0.7585 0.4260
vn -0.8828 -0.3072 0.3555
vn -0.8828 -0.3070 0.3555
vn -0.4933 -0.7584 0.4261
vn -0.4931 -0.7585 0.4261
vn 0.4251 -0.8193 0.3847
vn 0.4250 -0.8193 0.3847
vn 0.4251 -0.8193 0.3848
vn 0.4250 -0.8193 0.3848
vn 0.3881 -0.7518 -0.5331
vn 0.3881 -0.7517 -0.5331
vn 0.8354 -0.3728 -0.4040
vn 0.3881 -0.7517 -0.5332
vn 0.2817 -0.2983 -0.9120
vn 0.3882 -0.7517 -0.5331
vn -0.5300 -0.6908 -0.4918
vn -0.3169 0.8755 -0.3647
vn -0.8496 0.3416 -0.4019
vn -0.3170 0.8755 -0.3647
vn -0.8497 0.3415 -0.4019
vn -0.3170 0.8756 -0.3646
vn -0.3646 0.8756 0.3168
vn 0.8972 0.3417 -0.2797
vn 0.3646 0.8756 -0.3170
vn -0.2800 -0.3416 -0.8972
vn -0.8973 0.3416 0.2794
vn -0.4020 0.3415 0.8496
vn 0.2797 0.3416 0.8972
vn 0.2797 -0.3416 0.8972
vn 0.8497 -0.3416 0.4017
vn 0.8972 -0.3416 -0.2799
vn 0.4016 -0.3416 -0.8497
vn -0.4020 -0.3417 0.8495
vn 0.8497 -0.3414 0.4019
vn 0.4275 -0.7587 0.4915
vn 0.4917 -0.7587 -0.4273
vn 0.4913 -0.7590 -0.4273
vn 0.8972 -0.3418 -0.2796
vn 0.8495 -0.3418 0.4018
vn -0.4273 -0.7588 -0.4915
vn -0.3168 0.8756 -0.3645
vn -0.2796 0.3417 -0.8973
vn -0.3168 0.8756 -0.3647
vn -0.8973 0.3417 0.2796
vn -0.3647 0.8755 0.3171
vn -0.8973 0.3414 0.2797
vn -0.4019 0.3414 0.8497
vn 0.3168 0.8757 0.3644
vn 0.2796 0.3418 0.8972
vn 0.8495 0.3418 0.4019
vn 0.3170 0.8756 0.3646
vn 0.8496 0.3415 0.4018
vn 0.8972 0.3418 -0.2797
vn 0.3644 0.8757 -0.3169
vn 0.3647 0.8755 -0.3170
vn 0.8973 0.3415 -0.2797
vn 0.4019 0.3415 -0.8496
vn -0.3169 0.8756 -0.3645
vn -0.4019 0.3417 0.8496
vn -0.8973 0.3415 0.2797
vn 0.2796 0.3415 0.8973
vn 0.8496 -0.3416 0.4020
vn 0.8973 -0.3416 -0.2795
vn 0.4020 -0.3416 -0.8496
vn -0.8973 -0.3417 0.2796
vn -0.8496 -0.3417 -0.4018
vn -0.8973 -0.3414 0.2797
vn -0.4917 -0.7586 0.4274
vn -0.4019 -0.3414 0.8497
vn 0.2796 -0.3418 0.8972
vn 0.4272 -0.7589 0.4915
vn 0.8495 -0.3418 0.4019
vn 0.8496 -0.3417 0.4019
vn 0.4914 -0.7589 -0.4273
vn 0.8973 -0.3415 -0.2797
vn 0.4917 -0.7586 -0.4274
vn 0.4019 -0.3415 -0.8496
vn -0.1119 0.8756 -0.4699
vn -0.4699 0.8756 0.1119
vn 0.1119 0.8756 0.4699
vn 0.4699 0.8756 -0.1119
vn -0.1121 0.8755 -0.4701
vn 0.1677 0.3415 -0.9248
vn -0.5669 0.3414 -0.7497
vn -0.1119 0.8755 -0.4700
vn -0.5667 0.3416 -0.7498
vn -0.9247 0.3416 -0.1680
vn -0.9247 0.3415 -0.1680
vn -0.4700 0.8755 0.1118
vn -0.1120 0.8755 -0.4700
vn -0.4700 0.8756 0.1118
vn -0.7498 0.3416 0.5666
vn -0.4700 0.8756 0.1119
vn -0.7498 0.3416 0.5667
vn -0.1679 0.3416 0.9247
vn 0.1119 0.8756 0.4700
vn 0.5667 0.3416 0.7498
vn 0.9247 0.3416 0.1679
vn 0.4700 0.8755 -0.1119
vn 0.9248 0.3415 0.1679
vn 0.7498 0.3415 -0.5667
vn 0.7497 0.3416 -0.5668
vn 0.1680 0.3416 -0.9247
vn 0.1679 0.3416 -0.9247
vn 0.1678 0.3416 -0.9248
vn 0.1678 -0.3416 -0.9248
vn -0.5668 -0.3416 -0.7497
vn -0.5668 -0.3415 -0.7497
vn -0.5668 0.3416 -0.7497
vn 0.1678 0.3415 -0.9248
vn -0.5667 -0.3416 -0.7498
vn -0.9247 -0.3415 -0.1679
vn -0.9247 -0.3416 -0.1679
vn -0.9247 0.3416 -0.1681
vn -0.9247 -0.3416 -0.1681
vn -0.7498 -0.3416 0.5666
vn -0.7498 0.3417 0.5666
vn -0.1679 -0.3416 0.9247
vn -0.1680 0.3416 0.9247
vn -0.7499 0.3415 0.5666
vn 0.5668 -0.3416 0.7497
vn 0.5667 -0.3415 0.7498
vn 0.5666 0.3416 0.7498
vn -0.1681 0.3416 0.9247
vn 0.5667 -0.3416 0.7497
vn 0.9247 -0.3416 0.1679
vn 0.9247 0.3416 0.1680
vn 0.7498 -0.3416 -0.5667
vn 0.7498 0.3416 -0.5667
vn 0.7497 -0.3416 -0.5667
vn 0.1679 -0.3415 -0.9247
vn 0.1679 -0.3416 -0.9247
vn 0.1678 -0.3415 -0.9248
vn -0.1511 -0.7586 -0.6338
vn -0.5669 -0.3414 -0.7498
vn -0.1509 -0.7587 -0.6337
vn -0.6336 -0.7588 0.1508
vn -0.9247 -0.3415 -0.1680
vn -0.5667 -0.3415 -0.7498
vn -0.9247 -0.3416 -0.1680
vn -0.6337 -0.7588 0.1508
vn 0.1509 -0.7588 0.6336
vn -0.1680 -0.3416 0.9247
vn -0.7498 -0.3416 0.5667
vn 0.1509 -0.7587 0.6337
vn 0.5667 -0.3416 0.7498
vn 0.6336 -0.7588 -0.1509
vn 0.9247 -0.3415 0.1680
vn 0.9248 -0.3415 0.1679
vn 0.6337 -0.7587 -0.1509
vn 0.7498 -0.3415 -0.5667
vn -0.1509 -0.7588 -0.6336
vn -0.1509 -0.7588 -0.6337
vn 0.1680 -0.3415 -0.9247
vn 0.7498 -0.3416 -0.5668
vn 0.1679 0.3417 -0.9247
vn -0.5667 0.3417 -0.7497
vn -0.1118 0.8756 -0.4700
vn -0.9247 0.3417 -0.1680
vn 0.5667 0.3416 0.7497
vn 0.9247 0.3417 0.1679
vn 0.4698 0.8756 -0.1119
vn 0.4700 0.8755 -0.1120
vn 0.7498 0.3415 -0.5668
vn 0.1680 0.3415 -0.9247
vn 0.1679 0.3415 -0.9248
vn 0.1678 -0.3416 -0.9247
vn -0.5667 0.3415 -0.7498
vn -0.7499 -0.3416 0.5666
vn -0.7499 0.3417 0.5665
vn -0.1680 -0.3417 0.9247
vn -0.1680 0.3415 0.9247
vn 0.1680 -0.3416 -0.9247
vn 0.1678 -0.3417 -0.9247
vn -0.1510 -0.7588 -0.6336
vn -0.6336 -0.7588 0.1509
vn -0.6335 -0.7589 0.1509
vn -0.9247 -0.3417 -0.1680
vn -0.7498 -0.3417 0.5666
vn 0.5667 -0.3417 0.7498
vn 0.1508 -0.7588 0.6336
vn 0.6335 -0.7589 -0.1510
vt 0.322220 0.536669
vt 0.294697 0.536669
vt 0.294697 0.509146
vt 0.322220 0.509146
vt 0.324383 0.536669
vt 0.322221 0.538831
vt 0.294697 0.538831
vt 0.292535 0.536669
vt 0.292535 0.509146
vt 0.294697 0.506983
vt 0.322221 0.506983
vt 0.324383 0.509146
vt 0.324383 0.538831
vt 0.324383 0.566354
vt 0.322221 0.566354
vt 0.294697 0.566354
vt 0.292535 0.566354
vt 0.292535 0.538831
vt 0.265012 0.536669
vt 0.265012 0.509146
vt 0.292535 0.506983
vt 0.292535 0.479460
vt 0.294697 0.479460
vt 0.322221 0.479460
vt 0.324383 0.479460
vt 0.324383 0.506983
vt 0.351906 0.509146
vt 0.351906 0.536669
vt 0.322220 0.568517
vt 0.294697 0.568517
vt 0.262849 0.536669
vt 0.262849 0.509146
vt 0.294697 0.477298
vt 0.322220 0.477298
vt 0.354068 0.509146
vt 0.354068 0.536669
s 0
f 1/1/1 2/2/2 3/3/3
f 3/3/3 4/4/4 1/1/1
f 1/1/5 5/5/6 6/6/7
f 1/1/5 6/6/8 7/7/9
f 7/7/9 2/2/2 1/1/1
f 2/2/2 7/7/10 8/8/11
f 2/2/2 8/8/12 9/9/13
f 9/9/13 3/3/14 2/2/2
f 3/3/15 9/9/16 10/10/17
f 3/3/14 10/10/18 11/11/19
f 11/11/20 4/4/4 3/3/3
f 4/4/21 11/11/20 12/12/22
f 4/4/21 12/12/22 5/5/23
f 5/5/24 1/1/1 4/4/4
f 5/13/25 13/14/26 14/15/27
f 14/15/28 6/6/29 5/13/30
f 6/6/8 14/15/31 15/16/32
f 15/16/32 7/7/9 6/6/8
f 7/7/9 15/16/33 16/17/34
f 16/17/34 8/18/35 7/7/10
f 8/8/12 16/19/34 17/20/36
f 17/20/36 9/9/37 8/8/12
f 9/21/13 17/22/36 18/23/38
f 18/23/39 10/10/18 9/21/16
f 10/10/40 18/23/41 19/24/42
f 19/24/42 11/11/19 10/10/40
f 11/11/43 19/24/44 20/25/45
f 20/25/46 12/26/22 11/11/47
f 12/12/22 20/27/46 13/28/48
f 13/28/49 5/5/23 12/12/50
f 13/14/51 21/29/52 14/15/53
f 14/15/28 21/29/54 22/30/55
f 22/30/56 15/16/33 14/15/57
f 15/16/58 22/30/59 16/17/60
f 16/19/61 22/31/62 23/32/63
f 23/32/64 17/20/65 16/19/66
f 17/22/67 23/33/68 18/23/69
f 18/23/70 23/33/71 24/34/72
f 24/34/73 19/24/42 18/23/41
f 19/24/44 24/34/74 20/25/75
f 20/27/46 24/35/72 21/36/76
f 21/36/76 13/28/51 20/27/46
f 25/1/1 26/2/2 27/3/3
f 27/3/3 28/4/4 25/1/1
f 25/1/1 29/5/23 30/6/77
f 25/1/5 30/6/8 31/7/9
f 31/7/9 26/2/2 25/1/1
f 26/2/2 31/7/9 32/8/12
f 26/2/2 32/8/12 33/9/37
f 33/9/13 27/3/14 26/2/78
f 27/3/3 33/9/37 34/10/18
f 27/3/3 34/10/40 35/11/19
f 35/11/79 28/4/4 27/3/3
f 28/4/21 35/11/19 36/12/22
f 28/4/21 36/12/22 29/5/23
f 29/5/24 25/1/1 28/4/4
f 29/13/6 37/14/49 38/15/28
f 38/15/57 30/6/8 29/13/6
f 30/6/80 38/15/31 39/16/81
f 39/16/33 31/7/10 30/6/8
f 31/7/10 39/16/58 40/17/60
f 40/17/34 32/18/82 31/7/83
f 32/8/12 40/19/34 41/20/84
f 41/20/36 33/9/13 32/8/12
f 33/21/85 41/22/36 42/23/38
f 42/23/70 34/10/86 33/21/16
f 34/10/40 42/23/41 43/24/42
f 43/24/42 35/11/79 34/10/40
f 35/11/87 43/24/88 44/25/89
f 44/25/45 36/26/90 35/11/91
f 36/12/22 44/27/46 37/28/49
f 37/28/49 29/5/23 36/12/22
f 37/14/92 45/29/93 38/15/31
f 38/15/31 45/29/54 46/30/55
f 46/30/94 39/16/33 38/15/57
f 39/16/33 46/30/55 40/17/34
f 40/19/95 46/31/62 47/32/71
f 47/32/71 41/20/65 40/19/34
f 41/22/65 47/33/96 42/23/70
f 42/23/70 47/33/63 48/34/97
f 48/34/72 43/24/42 42/23/98
f 43/24/42 48/34/99 44/25/46
f 44/27/46 48/35/97 45/36/76
f 45/36/76 37/28/51 44/27/46
f 49/1/100 50/2/101 51/3/102
f 51/3/102 52/4/103 49/1/100
f 49/1/104 53/5/105 54/6/106
f 49/1/100 54/6/107 55/7/108
f 55/7/109 50/2/101 49/1/110
f 50/2/111 55/7/112 56/8/113
f 50/2/101 56/8/114 57/9/115
f 57/9/115 51/3/102 50/2/111
f 51/3/116 57/9/117 58/10/118
f 51/3/102 58/10/119 59/11/120
f 59/11/121 52/4/122 51/3/102
f 52/4/123 59/11/124 60/12/125
f 52/4/123 60/12/126 53/5/127
f 53/5/127 49/1/100 52/4/103
f 53/13/127 61/14/128 62/15/129
f 62/15/130 54/6/131 53/13/132
f 54/6/133 62/15/134 63/16/135
f 63/16/136 55/7/108 54/6/107
f 55/7/108 63/16/137 64/17/138
f 64/17/138 56/18/113 55/7/108
f 56/8/114 64/19/138 65/20/139
f 65/20/139 57/9/115 56/8/114
f 57/21/140 65/22/141 66/23/142
f 66/23/143 58/10/119 57/21/144
f 58/10/119 66/23/145 67/24/146
f 67/24/146 59/11/120 58/10/119
f 59/11/120 67/24/146 68/25/147
f 68/25/148 60/26/149 59/11/120
f 60/12/126 68/27/147 61/28/150
f 61/28/150 53/5/127 60/12/126
f 61/14/151 69/29/152 62/15/129
f 62/15/153 69/29/154 70/30/155
f 70/30/156 63/16/157 62/15/158
f 63/16/159 70/30/156 64/17/160
f 64/19/161 70/31/162 71/32/163
f 71/32/163 65/20/164 64/19/165
f 65/22/166 71/33/167 66/23/168
f 66/23/168 71/33/163 72/34/169
f 72/34/170 67/24/146 66/23/171
f 67/24/172 72/34/173 68/25/147
f 68/27/147 72/35/174 69/36/175
f 69/36/175 61/28/150 68/27/147
f 73/1/176 74/2/177 75/3/178
f 75/3/178 76/4/179 73/1/176
f 73/1/180 77/5/181 78/6/182
f 73/1/183 78/6/184 79/7/185
f 79/7/186 74/2/177 73/1/176
f 74/2/187 79/7/186 80/8/188
f 74/2/177 80/8/189 81/9/190
f 81/9/190 75/3/178 74/2/187
f 75/3/191 81/9/192 82/10/193
f 75/3/178 82/10/194 83/11/195
f 83/11/195 76/4/179 75/3/178
f 76/4/196 83/11/197 84/12/198
f 76/4/179 84/12/199 77/5/181
f 77/5/181 73/1/180 76/4/179
f 77/13/200 85/14/201 86/15/202
f 86/15/203 78/6/204 77/13/205
f 78/6/206 86/15/207 87/16/208
f 87/16/208 79/7/209 78/6/206
f 79/7/186 87/16/208 88/17/210
f 88/17/210 80/18/188 79/7/186
f 80/8/189 88/19/210 89/20/211
f 89/20/211 81/9/212 80/8/189
f 81/21/190 89/22/213 90/23/214
f 90/23/215 82/10/216 81/21/192
f 82/10/216 90/23/214 91/24/217
f 91/24/217 83/11/195 82/10/194
f 83/11/218 91/24/219 92/25/220
f 92/25/221 84/26/199 83/11/222
f 84/12/198 92/27/221 85/28/223
f 85/28/201 77/5/200 84/12/198
f 85/14/224 93/29/225 86/15/226
f 86/15/202 93/29/227 94/30/228
f 94/30/229 87/16/208 86/15/207
f 87/16/208 94/30/228 88/17/230
f 88/19/231 94/31/232 95/32/233
f 95/32/233 89/20/234 88/19/210
f 89/22/235 95/33/236 90/23/237
f 90/23/215 95/33/238 96/34/239
f 96/34/240 91/24/241 90/23/242
f 91/24/243 96/34/240 92/25/220
f 92/27/244 96/35/239 93/36/227
f 93/36/245 85/28/201 92/27/221
f 97/1/246 98/2/247 99/3/248
f 99/3/248 100/4/249 97/1/246
f 97/1/250 101/5/251 102/6/252
f 97/1/253 102/6/254 103/7/255
f 103/7/255 98/2/256 97/1/246
f 98/2/257 103/7/258 104/8/259
f 98/2/260 104/8/261 105/9/262
f 105/9/263 99/3/264 98/2/256
f 99/3/265 105/9/266 106/10/267
f 99/3/248 106/10/268 107/11/269
f 107/11/270 100/4/249 99/3/248
f 100/4/271 107/11/272 108/12/273
f 100/4/271 108/12/273 101/5/251
f 101/5/274 97/1/246 100/4/249
f 101/13/251 109/14/275 110/15/276
f 110/15/277 102/6/278 101/13/279
f 102/6/254 110/15/276 111/16/280
f 111/16/280 103/7/281 102/6/254
f 103/7/282 111/16/283 112/17/284
f 112/17/285 104/18/286 103/7/255
f 104/8/287 112/19/288 113/20/289
f 113/20/290 105/9/262 104/8/261
f 105/21/291 113/22/292 114/23/293
f 114/23/294 106/10/268 105/21/295
f 106/10/268 114/23/296 115/24/297
f 115/24/297 107/11/269 106/10/268
f 107/11/269 115/24/297 116/25/298
f 116/25/299 108/26/300 107/11/301
f 108/12/273 116/27/298 109/28/302
f 109/28/275 101/5/251 108/12/273
f 109/14/302 117/29/303 110/15/304
f 110/15/305 117/29/306 118/30/307
f 118/30/308 111/16/280 110/15/276
f 111/16/309 118/30/310 112/17/311
f 112/19/288 118/31/312 119/32/313
f 119/32/314 113/20/290 112/19/285
f 113/22/290 119/33/315 114/23/316
f 114/23/296 119/33/313 120/34/317
f 120/34/318 115/24/319 114/23/296
f 115/24/320 120/34/321 116/25/298
f 116/27/298 120/35/318 117/36/322
f 117/36/306 109/28/302 116/27/298
f 121/1/246 122/2/247 123/3/248
f 123/3/248 124/4/249 121/1/246
f 121/1/246 125/5/251 126/6/254
f 121/1/246 126/6/254 127/7/323
f 127/7/255 122/2/256 121/1/246
f 122/2/247 127/7/255 128/8/324
f 122/2/247 128/8/261 129/9/262
f 129/9/291 123/3/264 122/2/257
f 123/3/264 129/9/325 130/10/326
f 123/3/248 130/10/268 131/11/270
f 131/11/327 124/4/249 123/3/248
f 124/4/249 131/11/272 132/12/273
f 124/4/271 132/12/273 125/5/251
f 125/5/274 121/1/246 124/4/249
f 125/13/279 133/14/275 134/15/276
f 134/15/276 126/6/254 125/13/279
f 126/6/328 134/15/276 135/16/329
f 135/16/330 127/7/323 126/6/254
f 127/7/255 135/16/331 136/17/285
f 136/17/288 128/18/332 127/7/255
f 128/8/261 136/19/288 137/20/290
f 137/20/292 129/9/262 128/8/261
f 129/21/295 137/22/290 138/23/296
f 138/23/296 130/10/268 129/21/291
f 130/10/268 138/23/296 139/24/297
f 139/24/297 131/11/270 130/10/268
f 131/11/270 139/24/297 140/25/299
f 140/25/299 132/26/333 131/11/270
f 132/12/273 140/27/298 133/28/275
f 133/28/275 125/5/251 132/12/273
f 133/14/275 141/29/322 134/15/276
f 134/15/304 141/29/322 142/30/312
f 142/30/307 135/16/280 134/15/276
f 135/16/329 142/30/334 136/17/285
f 136/19/288 142/31/335 143/32/313
f 143/32/314 137/20/290 136/19/288
f 137/22/292 143/33/336 138/23/296
f 138/23/296 143/33/313 144/34/318
f 144/34/318 139/24/297 138/23/296
f 139/24/320 144/34/317 140/25/298
f 140/27/298 144/35/318 141/36/322
f 141/36/306 133/28/302 140/27/298
f 145/1/337 146/2/338 147/3/339
f 147/3/339 148/4/340 145/1/337
f 145/1/341 149/5/342 150/6/343
f 145/1/344 150/6/345 151/7/346
f 151/7/346 146/2/347 145/1/337
f 146/2/338 151/7/346 152/8/348
f 146/2/347 152/8/348 153/9/349
f 153/9/350 147/3/339 146/2/338
f 147/3/351 153/9/349 154/10/352
f 147/3/351 154/10/352 155/11/353
f 155/11/354 148/4/355 147/3/339
f 148/4/355 155/11/356 156/12/357
f 148/4/340 156/12/358 149/5/359
f 149/5/360 145/1/337 148/4/340
f 149/13/359 157/14/361 158/15/362
f 158/15/363 150/6/345 149/13/364
f 150/6/365 158/15/362 159/16/366
f 159/16/367 151/7/346 150/6/368
f 151/7/346 159/16/367 160/17/369
f 160/17/369 152/18/370 151/7/346
f 152/8/348 160/19/369 161/20/371
f 161/20/371 153/9/350 152/8/348
f 153/21/372 161/22/373 162/23/374
f 162/23/375 154/10/352 153/21/372
f 154/10/376 162/23/374 163/24/377
f 163/24/378 155/11/354 154/10/376
f 155/11/379 163/24/380 164/25/381
f 164/25/381 156/26/358 155/11/353
f 156/12/358 164/27/381 157/28/382
f 157/28/382 149/5/359 156/12/358
f 157/14/383 165/29/384 158/15/385
f 158/15/362 165/29/386 166/30/387
f 166/30/387 159/16/367 158/15/363
f 159/16/367 166/30/387 160/17/388
f 160/19/369 166/31/389 167/32/390
f 167/32/390 161/20/391 160/19/369
f 161/22/373 167/33/392 162/23/374
f 162/23/393 167/33/390 168/34/394
f 168/34/395 163/24/377 162/23/396
f 163/24/397 168/34/398 164/25/381
f 164/27/381 168/35/398 165/36/399
f 165/36/386 157/28/382 164/27/381
f 169/1/400 170/2/401 171/3/402
f 171/3/402 172/4/403 169/1/400
f 169/1/404 173/5/405 174/6/406
f 169/1/407 174/6/408 175/7/409
f 175/7/410 170/2/411 169/1/400
f 170/2/401 175/7/410 176/8/412
f 170/2/401 176/8/413 177/9/414
f 177/9/414 171/3/402 170/2/411
f 171/3/415 177/9/416 178/10/417
f 171/3/402 178/10/418 179/11/419
f 179/11/419 172/4/403 171/3/402
f 172/4/403 179/11/420 180/12/421
f 172/4/403 180/12/421 173/5/422
f 173/5/423 169/1/424 172/4/403
f 173/13/422 181/14/425 182/15/426
f 182/15/426 174/6/406 173/13/423
f 174/6/406 182/15/427 183/16/428
f 183/16/429 175/7/430 174/6/406
f 175/7/430 183/16/429 184/17/431
f 184/17/431 176/18/432 175/7/430
f 176/8/413 184/19/433 185/20/434
f 185/20/434 177/9/414 176/8/435
f 177/21/436 185/22/434 186/23/437
f 186/23/438 178/10/439 177/21/440
f 178/10/439 186/23/438 187/24/441
f 187/24/441 179/11/419 178/10/439
f 179/11/442 187/24/443 188/25/444
f 188/25/445 180/26/421 179/11/419
f 180/12/421 188/27/445 181/28/446
f 181/28/425 173/5/422 180/12/421
f 181/14/447 189/29/448 182/15/427
f 182/15/449 189/29/448 190/30/450
f 190/30/451 183/16/429 182/15/427
f 183/16/429 190/30/450 184/17/452
f 184/19/453 190/31/454 191/32/455
f 191/32/456 185/20/457 184/19/431
f 185/22/458 191/33/455 186/23/459
f 186/23/438 191/33/460 192/34/461
f 192/34/462 187/24/463 186/23/464
f 187/24/465 192/34/461 188/25/445
f 188/27/466 192/35/461 189/36/448
f 189/36/467 181/28/425 188/27/445
f 193/1/468 194/2/469 195/3/470
f 195/3/471 196/4/472 193/1/473
f 193/1/474 197/5/475 198/6/476
f 193/1/477 198/6/476 199/7/478
f 199/7/479 194/2/469 193/1/477
f 194/2/469 199/7/480 200/8/481
f 194/2/469 200/8/482 201/9/483
f 201/9/483 195/3/471 194/2/469
f 195/3/484 201/9/485 202/10/486
f 195/3/487 202/10/488 203/11/489
f 203/11/490 196/4/472 195/3/491
f 196/4/492 203/11/489 204/12/493
f 196/4/492 204/12/494 197/5/475
f 197/5/475 193/1/468 196/4/472
f 197/13/475 205/14/495 206/15/496
f 206/15/497 198/6/476 197/13/498
f 198/6/476 206/15/496 207/16/499
f 207/16/499 199/7/478 198/6/476
f 199/7/478 207/16/500 208/17/501
f 208/17/502 200/18/503 199/7/479
f 200/8/482 208/19/501 209/20/504
f 209/20/505 201/9/483 200/8/482
f 201/21/483 209/22/505 210/23/506
f 210/23/507 202/10/488 201/21/483
f 202/10/488 210/23/508 211/24/509
f 211/24/509 203/11/489 202/10/488
f 203/11/489 211/24/509 212/25/510
f 212/25/511 204/26/512 203/11/513
f 204/12/493 212/27/514 205/28/515
f 205/28/495 197/5/475 204/12/493
f 205/14/495 213/29/516 206/15/496
f 206/15/517 213/29/518 214/30/519
f 214/30/520 207/16/500 206/15/496
f 207/16/521 214/30/519 208/17/522
f 208/19/501 214/31/519 215/32/523
f 215/32/523 209/20/505 208/19/502
f 209/22/505 215/33/524 210/23/508
f 210/23/508 215/33/523 216/34/525
f 216/34/526 211/24/509 210/23/508
f 211/24/509 216/34/525 212/25/514
f 212/27/514 216/35/525 213/36/527
f 213/36/528 205/28/495 212/27/514
f 217/1/529 218/2/530 219/3/531
f 219/3/531 220/4/532 217/1/529
f 217/1/529 221/5/533 222/6/534
f 217/1/529 222/6/535 223/7/536
f 223/7/537 218/2/530 217/1/529
f 218/2/538 223/7/539 224/8/540
f 218/2/541 224/8/540 225/9/542
f 225/9/542 219/3/543 218/2/530
f 219/3/544 225/9/542 226/10/545
f 219/3/531 226/10/546 227/11/547
f 227/11/548 220/4/549 219/3/531
f 220/4/532 227/11/548 228/12/550
f 220/4/551 228/12/552 221/5/553
f 221/5/533 217/1/529 220/4/551
f 221/13/554 229/14/555 230/15/556
f 230/15/557 222/6/535 221/13/554
f 222/6/558 230/15/556 231/16/559
f 231/16/560 223/7/561 222/6/535
f 223/7/561 231/16/562 232/17/563
f 232/17/564 224/18/565 223/7/539
f 224/8/566 232/19/563 233/20/567
f 233/20/568 225/9/542 224/8/540
f 225/21/569 233/22/568 234/23/570
f 234/23/570 226/10/546 225/21/571
f 226/10/545 234/23/570 235/24/572
f 235/24/572 227/11/547 226/10/545
f 227/11/573 235/24/574 236/25/575
f 236/25/576 228/26/552 227/11/573
f 228/12/577 236/27/576 229/28/555
f 229/28/555 221/5/533 228/12/577
f 229/14/555 237/29/578 230/15/556
f 230/15/556 237/29/578 238/30/579
f 238/30/580 231/16/581 230/15/556
f 231/16/582 238/30/583 232/17/563
f 232/19/584 238/31/585 239/32/586
f 239/32/587 233/20/568 232/19/584
f 233/22/588 239/33/589 234/23/570
f 234/23/590 239/33/587 240/34/591
f 240/34/592 235/24/593 234/23/570
f 235/24/594 240/34/595 236/25/575
f 236/27/576 240/35/592 237/36/578
f 237/36/596 229/28/597 236/27/576
f 241/1/598 242/2/599 243/3/600
f 243/3/600 244/4/601 241/1/598
f 241/1/602 245/5/603 246/6/604
f 241/1/602 246/6/605 247/7/606
f 247/7/606 242/2/599 241/1/602
f 242/2/607 247/7/608 248/8/609
f 242/2/607 248/8/609 249/9/610
f 249/9/611 243/3/612 242/2/607
f 243/3/613 249/9/610 250/10/614
f 243/3/613 250/10/615 251/11/616
f 251/11/617 244/4/601 243/3/613
f 244/4/601 251/11/618 252/12/619
f 244/4/601 252/12/620 245/5/603
f 245/5/603 241/1/602 244/4/621
f 245/13/603 253/14/622 254/15/623
f 254/15/624 246/6/604 245/13/625
f 246/6/626 254/15/623 255/16/627
f 255/16/628 247/7/629 246/6/605
f 247/7/630 255/16/628 256/17/631
f 256/17/631 248/18/632 247/7/630
f 248/8/609 256/19/631 257/20/633
f 257/20/633 249/9/610 248/8/609
f 249/21/610 257/22/633 258/23/634
f 258/23/635 250/10/614 249/21/610
f 250/10/615 258/23/634 259/24/636
f 259/24/637 251/11/616 250/10/615
f 251/11/617 259/24/637 260/25/638
f 260/25/639 252/26/620 251/11/640
f 252/12/641 260/27/638 253/28/642
f 253/28/622 245/5/603 252/12/641
f 253/14/642 261/29/643 254/15/644
f 254/15/623 261/29/645 262/30/646
f 262/30/647 255/16/628 254/15/623
f 255/16/628 262/30/648 256/17/649
f 256/19/650 262/31/651 263/32/652
f 263/32/652 257/20/653 256/19/649
f 257/22/654 263/33/655 258/23/634
f 258/23/634 263/33/652 264/34/656
f 264/34/656 259/24/636 258/23/657
f 259/24/658 264/34/659 260/25/660
f 260/27/638 264/35/659 261/36/643
f 261/36/645 253/28/622 260/27/639
f 265/1/661 266/2/662 267/3/663
f 267/3/663 268/4/664 265/1/665
f 265/1/666 269/5/667 270/6/668
f 265/1/669 270/6/670 271/7/671
f 271/7/671 266/2/662 265/1/669
f 266/2/662 271/7/671 272/8/672
f 266/2/673 272/8/674 273/9/675
f 273/9/676 267/3/677 266/2/678
f 267/3/679 273/9/680 274/10/681
f 267/3/677 274/10/682 275/11/683
f 275/11/683 268/4/664 267/3/663
f 268/4/684 275/11/685 276/12/686
f 268/4/684 276/12/686 269/5/667
f 269/5/687 265/1/669 268/4/684
f 269/13/688 277/14/689 278/15/690
f 278/15/691 270/6/670 269/13/687
f 270/6/692 278/15/693 279/16/694
f 279/16/695 271/7/671 270/6/692
f 271/7/696 279/16/695 280/17/697
f 280/17/698 272/18/672 271/7/671
f 272/8/674 280/19/699 281/20/700
f 281/20/700 273/9/701 272/8/674
f 273/21/680 281/22/702 282/23/703
f 282/23/703 274/10/704 273/21/680
f 274/10/682 282/23/705 283/24/706
f 283/24/706 275/11/683 274/10/682
f 275/11/683 283/24/706 284/25/707
f 284/25/707 276/26/686 275/11/683
f 276/12/686 284/27/707 277/28/708
f 277/28/708 269/5/667 276/12/686
f 277/14/709 285/29/710 278/15/711
f 278/15/712 285/29/713 286/30/714
f 286/30/715 279/16/695 278/15/690
f 279/16/695 286/30/716 280/17/717
f 280/19/717 286/31/714 287/32/718
f 287/32/719 281/20/720 280/19/721
f 281/22/722 287/33/723 282/23/724
f 282/23/703 287/33/718 288/34/725
f 288/34/726 283/24/727 282/23/728
f 283/24/729 288/34/725 284/25/707
f 284/27/730 288/35/725 285/36/713
f 285/36/731 277/28/732 284/27/707
f 289/1/733 290/2/734 291/3/735
f 291/3/735 292/4/736 289/1/733
f 289/1/733 293/5/737 294/6/738
f 289/1/739 294/6/738 295/7/740
f 295/7/740 290/2/741 289/1/739
f 290/2/734 295/7/742 296/8/743
f 290/2/734 296/8/743 297/9/744
f 297/9/745 291/3/746 290/2/747
f 291/3/748 297/9/749 298/10/750
f 291/3/735 298/10/751 299/11/752
f 299/11/753 292/4/754 291/3/735
f 292/4/755 299/11/753 300/12/756
f 292/4/755 300/12/757 293/5/737
f 293/5/737 289/1/733 292/4/736
f 293/13/758 301/14/759 302/15/760
f 302/15/761 294/6/738 293/13/758
f 294/6/762 302/15/760 303/16/763
f 303/16/764 295/7/740 294/6/738
f 295/7/765 303/16/766 304/17/767
f 304/17/768 296/18/769 295/7/770
f 296/8/771 304/19/772 305/20/773
f 305/20/774 297/9/775 296/8/776
f 297/21/744 305/22/774 306/23/777
f 306/23/777 298/10/750 297/21/744
f 298/10/751 306/23/778 307/24/779
f 307/24/779 299/11/752 298/10/751
f 299/11/780 307/24/779 308/25/781
f 308/25/782 300/26/783 299/11/784
f 300/12/785 308/27/786 301/28/787
f 301/28/787 293/5/737 300/12/785
f 301/14/787 309/29/788 302/15/789
f 302/15/760 309/29/788 310/30/790
f 310/30/791 303/16/792 302/15/789
f 303/16/793 310/30/794 304/17/768
f 304/19/772 310/31/795 311/32/796
f 311/32/797 305/20/773 304/19/768
f 305/22/774 311/33/798 306/23/777
f 306/23/778 311/33/799 312/34/800
f 312/34/801 307/24/779 306/23/777
f 307/24/802 312/34/803 308/25/804
f 308/27/786 312/35/805 309/36/806
f 309/36/806 301/28/787 308/27/781
f 313/1/1 314/2/2 315/3/3
f 315/3/3 316/4/4 313/1/1
f 313/1/807 317/5/6 318/6/808
f 313/1/809 318/6/810 319/7/83
f 319/7/9 314/2/2 313/1/811
f 314/2/812 319/7/10 320/8/35
f 314/2/2 320/8/12 321/9/13
f 321/9/13 315/3/14 314/2/2
f 315/3/15 321/9/37 322/10/17
f 315/3/3 322/10/18 323/11/19
f 323/11/813 316/4/4 315/3/3
f 316/4/814 323/11/20 324/12/90
f 316/4/21 324/12/22 317/5/23
f 317/5/24 313/1/1 316/4/4
f 317/13/25 325/14/815 326/15/27
f 326/15/28 318/6/808 317/13/6
f 318/6/8 326/15/31 327/16/32
f 327/16/32 319/7/9 318/6/8
f 319/7/10 327/16/33 328/17/34
f 328/17/60 320/18/35 319/7/816
f 320/8/12 328/19/34 329/20/36
f 329/20/36 321/9/37 320/8/817
f 321/21/818 329/22/819 330/23/820
f 330/23/98 322/10/18 321/21/37
f 322/10/40 330/23/41 331/24/42
f 331/24/42 323/11/19 322/10/40
f 323/11/20 331/24/821 332/25/822
f 332/25/46 324/26/22 323/11/19
f 324/12/22 332/27/46 325/28/48
f 325/28/49 317/5/23 324/12/22
f 325/14/51 333/29/52 326/15/31
f 326/15/28 333/29/54 334/30/55
f 334/30/55 327/16/81 326/15/28
f 327/16/58 334/30/59 328/17/823
f 328/19/61 334/31/62 335/32/63
f 335/32/64 329/20/65 328/19/66
f 329/22/67 335/33/68 330/23/69
f 330/23/824 335/33/825 336/34/826
f 336/34/827 331/24/828 330/23/829
f 331/24/44 336/34/99 332/25/45
f 332/27/46 336/35/72 333/36/93
f 333/36/830 325/28/92 332/27/46
f 337/1/1 338/2/2 339/3/3
f 339/3/3 340/4/4 337/1/1
f 337/1/831 341/5/832 342/6/77
f 337/1/833 342/6/77 343/7/834
f 343/7/9 338/2/2 337/1/811
f 338/2/835 343/7/836 344/8/837
f 338/2/2 344/8/12 345/9/37
f 345/9/13 339/3/3 338/2/78
f 339/3/838 345/9/839 346/10/840
f 339/3/841 346/10/842 347/11/19
f 347/11/843 340/4/844 339/3/15
f 340/4/845 347/11/846 348/12/847
f 340/4/21 348/12/22 341/5/23
f 341/5/24 337/1/848 340/4/4
f 341/13/6 349/14/49 350/15/28
f 350/15/57 342/6/8 341/13/6
f 342/6/80 350/15/31 351/16/81
f 351/16/33 343/7/10 342/6/8
f 343/7/9 351/16/33 352/17/34
f 352/17/66 344/18/849 343/7/850
f 344/8/12 352/19/34 353/20/84
f 353/20/36 345/9/13 344/8/12
f 345/21/851 353/22/36 354/23/41
f 354/23/852 346/10/86 345/21/16
f 346/10/40 354/23/41 355/24/42
f 355/24/42 347/11/79 346/10/40
f 347/11/87 355/24/853 356/25/854
f 356/25/46 348/26/22 347/11/846
f 348/12/22 356/27/46 349/28/49
f 349/28/49 341/5/23 348/12/22
f 349/14/92 357/29/76 350/15/31
f 350/15/28 357/29/54 358/30/55
f 358/30/94 351/16/855 350/15/856
f 351/16/857 358/30/858 352/17/859
f 352/19/61 358/31/55 359/32/63
f 359/32/63 353/20/65 352/19/34
f 353/22/860 359/33/861 354/23/862
f 354/23/863 359/33/68 360/34/864
f 360/34/97 355/24/42 354/23/41
f 355/24/865 360/34/866 356/25/867
f 356/27/46 360/35/97 357/36/76
f 357/36/76 349/28/51 356/27/46
f 361/1/868 362/2/869 363/3/870
f 363/3/870 364/4/871 361/1/868
f 361/1/872 365/5/873 366/6/874
f 361/1/875 366/6/876 367/7/877
f 367/7/878 362/2/879 361/1/880
f 362/2/881 367/7/877 368/8/882
f 362/2/883 368/8/884 369/9/885
f 369/9/885 363/3/870 362/2/869
f 363/3/886 369/9/885 370/10/887
f 363/3/870 370/10/887 371/11/888
f 371/11/888 364/4/871 363/3/886
f 364/4/889 371/11/890 372/12/891
f 364/4/871 372/12/892 365/5/893
f 365/5/894 361/1/868 364/4/871
f 365/13/895 373/14/896 374/15/897
f 374/15/898 366/6/899 365/13/900
f 366/6/876 374/15/901 375/16/902
f 375/16/903 367/7/877 366/6/876
f 367/7/904 375/16/905 376/17/906
f 376/17/906 368/18/907 367/7/904
f 368/8/882 376/19/906 377/20/908
f 377/20/908 369/9/909 368/8/910
f 369/21/885 377/22/908 378/23/911
f 378/23/912 370/10/913 369/21/914
f 370/10/887 378/23/915 379/24/916
f 379/24/916 371/11/888 370/10/887
f 371/11/917 379/24/916 380/25/918
f 380/25/918 372/26/919 371/11/888
f 372/12/919 380/27/920 373/28/921
f 373/28/922 365/5/893 372/12/919
f 373/14/923 381/29/924 374/15/925
f 374/15/901 381/29/926 382/30/927
f 382/30/927 375/16/928 374/15/929
f 375/16/930 382/30/931 376/17/906
f 376/19/906 382/31/931 383/32/932
f 383/32/932 377/20/933 376/19/934
f 377/22/908 383/33/935 378/23/936
f 378/23/936 383/33/932 384/34/937
f 384/34/937 379/24/938 378/23/936
f 379/24/939 384/34/940 380/25/941
f 380/27/920 384/35/937 381/36/942
f 381/36/943 373/28/944 380/27/945
f 385/1/868 386/2/869 387/3/870
f 387/3/870 388/4/871 385/1/868
f 385/1/868 389/5/946 390/6/947
f 385/1/948 390/6/876 391/7/949
f 391/7/949 386/2/869 385/1/868
f 386/2/869 391/7/877 392/8/882
f 386/2/869 392/8/882 393/9/885
f 393/9/885 387/3/870 386/2/869
f 387/3/870 393/9/885 394/10/887
f 387/3/870 394/10/950 395/11/951
f 395/11/951 388/4/952 387/3/870
f 388/4/871 395/11/888 396/12/919
f 388/4/953 396/12/954 389/5/955
f 389/5/894 385/1/868 388/4/871
f 389/13/956 397/14/957 398/15/897
f 398/15/901 390/6/876 389/13/955
f 390/6/958 398/15/901 399/16/928
f 399/16/930 391/7/877 390/6/876
f 391/7/877 399/16/930 400/17/906
f 400/17/959 392/18/960 391/7/904
f 392/8/882 400/19/906 401/20/961
f 401/20/908 393/9/885 392/8/882
f 393/21/962 401/22/933 402/23/912
f 402/23/936 394/10/887 393/21/909
f 394/10/887 402/23/915 403/24/916
f 403/24/916 395/11/888 394/10/887
f 395/11/917 403/24/916 404/25/918
f 404/25/918 396/26/919 395/11/888
f 396/12/919 404/27/920 397/28/922
f 397/28/963 389/5/893 396/12/919
f 397/14/964 405/29/965 398/15/897
f 398/15/901 405/29/943 406/30/966
f 406/30/967 399/16/968 398/15/901
f 399/16/930 406/30/927 400/17/906
f 400/19/969 406/31/927 407/32/932
f 407/32/932 401/20/908 400/19/906
f 401/22/908 407/33/932 402/23/915
f 402/23/970 407/33/971 408/34/972
f 408/34/937 403/24/916 402/23/936
f 403/24/916 408/34/940 404/25/918
f 404/27/941 408/35/937 405/36/926
f 405/36/942 397/28/922 404/27/920
