# Blender 5.2.0 LTS
# www.blender.org
o hangar_midorian_x3_shadow_alpha_WELDED
v 52.869080 -10.337363 -109.388023
v 61.701199 -10.337363 -109.388023
v 61.701199 -10.337363 -119.002831
v 52.869080 -10.337363 -119.002831
v 53.149002 -10.337363 -104.665703
v 60.262558 -10.337363 -104.665703
v 60.262558 -10.337363 -112.141121
v 53.149002 -10.337363 -112.141121
v 60.404716 -11.894746 -104.184418
v 60.404716 0.047860 -104.184418
v 60.404716 0.047860 -112.799080
v 60.404716 -11.894746 -112.799080
v 60.404716 -16.155699 -107.326073
v 60.404716 4.268826 -107.326073
v 60.404716 4.268826 -121.359322
v 60.404716 -16.155697 -121.359322
v 54.188797 -10.337364 -60.393181
v 61.302353 -10.337364 -60.393181
v 61.302353 -10.337364 -67.868599
v 54.188797 -10.337364 -67.868599
v 60.489109 -11.894746 -59.911903
v 60.489109 0.047860 -59.911903
v 60.489109 0.047861 -68.526558
v 60.489109 -11.894746 -68.526558
v 54.321648 -10.337363 -49.417645
v 61.435204 -10.337363 -49.417645
v 61.435204 -10.337362 -56.893066
v 54.321648 -10.337362 -56.893066
v 60.621960 -11.894747 -48.936367
v 60.621960 0.047860 -48.936367
v 60.621960 0.047860 -57.551025
v 60.621960 -11.894746 -57.551025
v 54.321648 -10.337363 -43.904793
v 61.435204 -10.337363 -43.904793
v 61.435204 -10.337363 -51.380215
v 54.321648 -10.337363 -51.380215
v 60.621960 -11.894747 -43.423515
v 60.621960 0.047860 -43.423515
v 60.621960 0.047860 -52.038174
v 60.621960 -11.894747 -52.038174
v 54.321648 -10.337363 -38.587608
v 61.435204 -10.337363 -38.587608
v 61.435204 -10.337363 -46.063026
v 54.321648 -10.337363 -46.063026
v 60.621960 -11.894745 -38.106327
v 60.621960 0.047859 -38.106327
v 60.621960 0.047860 -46.720985
v 60.621960 -11.894745 -46.720985
v 21.171535 -10.337363 -15.289462
v 21.171047 -10.337363 -8.175908
v 28.646467 -10.337363 -8.175395
v 28.646955 -10.337362 -15.288950
v 20.689827 -11.894746 -8.989185
v 20.689827 0.047858 -8.989184
v 29.304483 0.047858 -8.988593
v 29.304483 -11.894746 -8.988594
v -93.954254 -10.404304 -37.955097
v -101.067810 -10.404304 -37.955311
v -101.068031 -10.404305 -30.479893
v -93.954483 -10.404305 -30.479677
v -100.254555 -12.104745 -38.436562
v -100.254555 -0.162142 -38.436562
v -100.254814 -0.162142 -29.821903
v -100.254814 -12.104745 -29.821903
v -93.954254 -10.356724 -149.659607
v -101.067810 -10.356724 -149.659821
v -101.068031 -10.356724 -142.184402
v -93.954483 -10.356724 -142.184189
v -100.254555 -12.104745 -150.141068
v -100.254555 -0.162142 -150.141068
v -100.254814 -0.162142 -141.526413
v -100.254814 -12.104745 -141.526413
v -41.209499 -10.337363 -16.942442
v -41.209946 -10.337363 -8.110322
v -31.595137 -10.337363 -8.109838
v -31.594692 -10.337362 -16.941957
v -43.271832 -16.155697 -9.406910
v -43.271832 4.268825 -9.406909
v -29.238579 4.268825 -9.406206
v -29.238579 -16.155695 -9.406207
v -92.483292 -10.337362 -58.606655
v -101.315407 -10.337362 -58.604649
v -101.313217 -10.337363 -48.989838
v -92.481102 -10.337363 -48.991844
v -100.019394 -16.155697 -60.666893
v -100.019394 4.268825 -60.666893
v -100.016197 4.268824 -46.633640
v -100.016197 -16.155697 -46.633640
vn -0.0000 1.0000 -0.0000
vn -1.0000 -0.0000 -0.0000
vn 0.0001 -0.0000 -1.0000
vn 1.0000 -0.0000 -0.0000
vn 1.0000 -0.0000 -0.0002
vt 0.509067 0.426105
vt 0.536711 0.426105
vt 0.536711 0.460229
vt 0.509067 0.460229
s 0
f 1/1/1 2/2/1 3/3/1
f 3/3/1 4/4/1 1/1/1
f 5/1/1 6/2/1 7/3/1
f 7/3/1 8/4/1 5/1/1
f 9/1/2 10/2/2 11/3/2
f 11/3/2 12/4/2 9/1/2
f 13/1/2 14/2/2 15/3/2
f 15/3/2 16/4/2 13/1/2
f 17/1/1 18/2/1 19/3/1
f 19/3/1 20/4/1 17/1/1
f 21/1/2 22/2/2 23/3/2
f 23/3/2 24/4/2 21/1/2
f 25/1/1 26/2/1 27/3/1
f 27/3/1 28/4/1 25/1/1
f 29/1/2 30/2/2 31/3/2
f 31/3/2 32/4/2 29/1/2
f 33/1/1 34/2/1 35/3/1
f 35/3/1 36/4/1 33/1/1
f 37/1/2 38/2/2 39/3/2
f 39/3/2 40/4/2 37/1/2
f 41/1/1 42/2/1 43/3/1
f 43/3/1 44/4/1 41/1/1
f 45/1/2 46/2/2 47/3/2
f 47/3/2 48/4/2 45/1/2
f 49/1/1 50/2/1 51/3/1
f 51/3/1 52/4/1 49/1/1
f 53/1/3 54/2/3 55/3/3
f 55/3/3 56/4/3 53/1/3
f 57/1/1 58/2/1 59/3/1
f 59/3/1 60/4/1 57/1/1
f 61/1/4 62/2/4 63/3/4
f 63/3/4 64/4/4 61/1/4
f 65/1/1 66/2/1 67/3/1
f 67/3/1 68/4/1 65/1/1
f 69/1/4 70/2/4 71/3/4
f 71/3/4 72/4/4 69/1/4
f 73/1/1 74/2/1 75/3/1
f 75/3/1 76/4/1 73/1/1
f 77/1/3 78/2/3 79/3/3
f 79/3/3 80/4/3 77/1/3
f 81/1/1 82/2/1 83/3/1
f 83/3/1 84/4/1 81/1/1
f 85/1/5 86/2/5 87/3/5
f 87/3/5 88/4/5 85/1/5
