# Blender 5.2.0 LTS
# www.blender.org
o hangar_midorian_alpha.001_WELDED
v -46.858223 -9.611121 -76.252686
v -47.401531 -9.611120 -77.564346
v -48.786278 -10.567457 -77.144287
v -48.134407 -10.567458 -75.570541
v -46.069458 -9.611121 -75.072220
v -47.188046 -10.567458 -74.154221
v -45.065556 -9.611121 -74.068321
v -45.983555 -10.567458 -72.949730
v -43.885086 -9.611121 -73.279564
v -44.567219 -10.567458 -72.003372
v -42.573421 -9.611121 -72.736259
v -42.993477 -10.567458 -71.351509
v -34.084026 -9.611120 -83.080673
v -32.807842 -10.567457 -83.762810
v -32.155972 -10.567457 -82.189072
v -33.540718 -9.611120 -81.769005
v -34.872791 -9.611120 -84.261131
v -33.754208 -10.567457 -85.179138
v -35.876694 -9.611120 -85.265030
v -34.958694 -10.567457 -86.383621
v -37.057159 -9.611120 -86.053787
v -36.375027 -10.567457 -87.329979
v -38.368824 -9.611120 -86.597099
v -37.948772 -10.567457 -87.981842
v -37.057133 -9.611121 -73.279579
v -38.368793 -9.611121 -72.736267
v -37.948730 -10.567458 -71.351524
v -36.374992 -10.567458 -72.003395
v -35.876671 -9.611121 -74.068344
v -34.958668 -10.567458 -72.949760
v -34.872768 -9.611121 -75.072243
v -33.754177 -10.567458 -74.154251
v -34.084011 -9.611121 -76.252716
v -32.807823 -10.567458 -75.570580
v -33.540707 -9.611120 -77.564377
v -32.155960 -10.567457 -77.144325
v -43.885117 -9.611120 -86.053780
v -42.573456 -9.611120 -86.597092
v -42.993515 -10.567457 -87.981827
v -44.567253 -10.567457 -87.329956
v -45.065578 -9.611120 -85.265007
v -45.983582 -10.567457 -86.383591
v -46.069477 -9.611120 -84.261108
v -47.188068 -10.567457 -85.179100
v -46.858234 -9.611120 -83.080643
v -48.134426 -10.567457 -83.762772
v -47.401543 -9.611120 -81.768974
v -48.786289 -10.567457 -82.189034
v -5.874980 -9.611121 -76.252686
v -6.418293 -9.611120 -77.564346
v -7.803034 -10.567457 -77.144287
v -7.151167 -10.567458 -75.570541
v -5.086218 -9.611121 -75.072220
v -6.204802 -10.567458 -74.154221
v -4.082312 -9.611121 -74.068321
v -5.000310 -10.567458 -72.949730
v -2.901846 -9.611121 -73.279564
v -3.583979 -10.567458 -72.003372
v -1.590181 -9.611121 -72.736259
v -2.010237 -10.567458 -71.351509
v 6.899216 -9.611120 -83.080673
v 8.175398 -10.567457 -83.762810
v 8.827268 -10.567457 -82.189072
v 7.442527 -9.611120 -81.769005
v 6.110452 -9.611120 -84.261131
v 7.229035 -10.567457 -85.179138
v 5.106545 -9.611120 -85.265030
v 6.024543 -10.567457 -86.383621
v 3.926081 -9.611120 -86.053787
v 4.608215 -10.567457 -87.329979
v 2.614416 -9.611120 -86.597099
v 3.034470 -10.567457 -87.981842
v 3.926111 -9.611121 -73.279579
v 2.614446 -9.611121 -72.736267
v 3.034509 -10.567458 -71.351524
v 4.608249 -10.567458 -72.003395
v 5.106570 -9.611121 -74.068344
v 6.024578 -10.567458 -72.949760
v 6.110471 -9.611121 -75.072243
v 7.229060 -10.567458 -74.154251
v 6.899231 -9.611121 -76.252716
v 8.175417 -10.567458 -75.570580
v 7.442536 -9.611120 -77.564377
v 8.827283 -10.567457 -77.144325
v -2.901875 -9.611120 -86.053780
v -1.590212 -9.611120 -86.597092
v -2.010276 -10.567457 -87.981827
v -3.584016 -10.567457 -87.329956
v -4.082336 -9.611120 -85.265007
v -5.000342 -10.567457 -86.383591
v -5.086238 -9.611120 -84.261108
v -6.204829 -10.567457 -85.179108
v -5.874995 -9.611120 -83.080643
v -7.151184 -10.567457 -83.762772
v -6.418301 -9.611120 -81.768974
v -7.803047 -10.567457 -82.189034
v -46.858223 -9.611119 -117.182457
v -47.401531 -9.611119 -118.494118
v -48.786278 -10.567456 -118.074059
v -48.134407 -10.567456 -116.500320
v -46.069458 -9.611119 -116.001999
v -47.188046 -10.567456 -115.083992
v -45.065556 -9.611119 -114.998100
v -45.983555 -10.567456 -113.879509
v -43.885086 -9.611119 -114.209335
v -44.567219 -10.567456 -112.933151
v -42.573421 -9.611119 -113.666031
v -42.993477 -10.567456 -112.281288
v -34.084026 -9.611118 -124.010445
v -32.807842 -10.567455 -124.692589
v -32.155972 -10.567455 -123.118843
v -33.540718 -9.611118 -122.698784
v -34.872791 -9.611118 -125.190903
v -33.754208 -10.567455 -126.108910
v -35.876694 -9.611118 -126.194801
v -34.958694 -10.567455 -127.313393
v -37.057159 -9.611118 -126.983559
v -36.375027 -10.567455 -128.259750
v -38.368824 -9.611118 -127.526871
v -37.948772 -10.567455 -128.911621
v -37.057133 -9.611119 -114.209351
v -38.368793 -9.611119 -113.666046
v -37.948730 -10.567456 -112.281303
v -36.374992 -10.567456 -112.933174
v -35.876671 -9.611119 -114.998123
v -34.958668 -10.567456 -113.879532
v -34.872768 -9.611119 -116.002029
v -33.754177 -10.567456 -115.084023
v -34.084011 -9.611119 -117.182487
v -32.807823 -10.567456 -116.500359
v -33.540707 -9.611119 -118.494156
v -32.155960 -10.567456 -118.074097
v -43.885117 -9.611118 -126.983551
v -42.573456 -9.611118 -127.526863
v -42.993515 -10.567455 -128.911606
v -44.567253 -10.567455 -128.259735
v -45.065578 -9.611118 -126.194786
v -45.983582 -10.567455 -127.313377
v -46.069477 -9.611118 -125.190880
v -47.188068 -10.567455 -126.108887
v -46.858234 -9.611118 -124.010414
v -48.134426 -10.567455 -124.692558
v -47.401543 -9.611118 -122.698746
v -48.786289 -10.567455 -123.118805
v -5.874978 -7.609556 -117.199234
v -6.418291 -7.609556 -118.510895
v -7.803032 -8.565892 -118.090836
v -7.151165 -8.565892 -116.517097
v -5.086215 -7.609556 -116.018776
v -6.204800 -8.565892 -115.100769
v -4.082309 -7.609556 -115.014877
v -5.000308 -8.565892 -113.896286
v -2.901843 -7.609557 -114.226120
v -3.583977 -8.565892 -112.949928
v -1.590178 -7.609557 -113.682808
v -2.010234 -8.565892 -112.298065
v 6.899216 -7.609556 -124.027245
v 8.175398 -8.565891 -124.709381
v 8.827263 -8.565891 -123.135643
v 7.442527 -7.609556 -122.715584
v 6.110446 -7.609556 -125.207703
v 7.229031 -8.565891 -126.125694
v 5.106531 -7.609556 -126.211586
v 6.024539 -8.565891 -127.330185
v 3.926067 -7.609556 -127.000351
v 4.608201 -8.565891 -128.276535
v 2.614402 -7.609556 -127.543663
v 3.034456 -8.565891 -128.928391
v 3.926111 -7.609557 -114.226128
v 2.614441 -7.609557 -113.682823
v 3.034509 -8.565892 -112.298080
v 4.608249 -8.565892 -112.949951
v 5.106570 -7.609556 -115.014900
v 6.024578 -8.565892 -113.896317
v 6.110466 -7.609556 -116.018806
v 7.229060 -8.565892 -115.100807
v 6.899226 -7.609556 -117.199272
v 8.175417 -8.565892 -116.517136
v 7.442536 -7.609556 -118.510933
v 8.827283 -8.565892 -118.090874
v -2.901872 -7.609556 -127.000336
v -1.590210 -7.609556 -127.543648
v -2.010273 -8.565891 -128.928391
v -3.584014 -8.565891 -128.276520
v -4.082334 -7.609556 -126.211571
v -5.000339 -8.565891 -127.330154
v -5.086235 -7.609556 -125.207664
v -6.204826 -8.565891 -126.125664
v -5.874992 -7.609556 -124.027206
v -7.151182 -8.565891 -124.709335
v -6.418298 -7.609556 -122.715538
v -7.803044 -8.565891 -123.135590
v 48.908611 12.783257 -80.210091
v 48.908611 12.783262 -98.370621
v 59.255859 12.783262 -98.370621
v 59.255859 12.783257 -80.210068
v 48.908611 12.783257 -100.652573
v 48.908604 12.783262 -118.813103
v 59.255848 12.783262 -118.813103
v 59.255859 12.783257 -100.652557
v 48.908604 12.783258 -121.228806
v 48.908604 12.783263 -139.389359
v 59.255848 12.783263 -139.389359
v 59.255848 12.783258 -121.228783
v 48.908604 12.783258 -141.275833
v 48.908604 12.783264 -159.436371
v 59.255848 12.783264 -159.436371
v 59.255848 12.783258 -141.275818
v 58.966778 12.134199 -79.979836
v 58.966785 12.134199 -97.929932
v 58.966785 10.997334 -97.929932
v 58.966778 10.997334 -79.979820
v 58.966778 12.134200 -100.422302
v 58.966785 12.134200 -118.372398
v 58.966785 10.997334 -118.372398
v 58.966778 10.997334 -100.422279
v 58.966778 12.134201 -120.998550
v 58.966785 12.134201 -138.948624
v 58.966785 10.997335 -138.948624
v 58.966778 10.997335 -120.998535
v 58.966778 12.134201 -141.045578
v 58.966778 12.134202 -158.995667
v 58.966778 10.997336 -158.995667
v 58.966778 10.997335 -141.045563
v -20.592560 8.335625 -119.532852
v -20.757179 3.448145 -119.023872
v 32.799717 -10.266669 -123.594276
v 40.083584 -10.266671 -121.901756
v 41.760098 -10.266671 -128.821899
v 34.476219 -10.266671 -130.514420
v 43.436600 -10.266669 -135.742065
v 36.152725 -10.266671 -137.434570
v 48.908611 12.783257 -39.255787
v 48.908611 12.783263 -57.416321
v 59.255859 12.783263 -57.416321
v 59.255859 12.783257 -39.255764
v 48.908611 12.783258 -59.698265
v 48.908604 12.783264 -77.858803
v 59.255848 12.783264 -77.858803
v 59.255859 12.783258 -59.698246
v 58.966778 12.134200 -39.025532
v 58.966785 12.134201 -56.975628
v 58.966785 10.997335 -56.975628
v 58.966778 10.997334 -39.025513
v 58.966778 12.134201 -59.468002
v 58.966785 12.134202 -77.418098
v 58.966785 10.997336 -77.418098
v 58.966778 10.997335 -59.467983
v 48.908611 12.783257 -18.663408
v 48.908611 12.783262 -36.823944
v 59.255859 12.783262 -36.823944
v 59.255859 12.783257 -18.663389
v 58.966778 12.134199 -18.433153
v 58.966785 12.134200 -36.383251
v 58.966785 10.997334 -36.383251
v 58.966778 10.997334 -18.433134
v -88.758865 12.783257 -77.517365
v -88.760216 12.783263 -59.356823
v -99.107460 12.783263 -59.357605
v -99.106110 12.783257 -77.518158
v -88.760391 12.783258 -57.074886
v -88.761734 12.783262 -38.914349
v -99.108986 12.783262 -38.915123
v -99.107635 12.783258 -57.075676
v -88.761909 12.783259 -36.498646
v -88.763268 12.783263 -18.338100
v -99.110512 12.783263 -18.338881
v -99.109161 12.783259 -36.499447
v -98.817009 12.134199 -77.748375
v -98.818359 12.134201 -59.798275
v -98.818359 10.997335 -59.798275
v -98.817009 10.997334 -77.748390
v -98.818535 12.134201 -57.305901
v -98.819893 12.134200 -39.355804
v -98.819893 10.997334 -39.355804
v -98.818535 10.997335 -57.305923
v -98.820076 12.134202 -36.729664
v -98.821426 12.134201 -18.779575
v -98.821426 10.997336 -18.779575
v -98.820076 10.997337 -36.729683
v -88.755798 12.783257 -118.471680
v -88.757156 12.783262 -100.311134
v -99.104401 12.783262 -100.311913
v -99.103043 12.783257 -118.472458
v -88.757332 12.783257 -98.029190
v -88.758682 12.783264 -79.868652
v -99.105927 12.783264 -79.869431
v -99.104576 12.783257 -98.029976
v -98.813942 12.134200 -118.702675
v -98.815300 12.134200 -100.752579
v -98.815300 10.997334 -100.752579
v -98.813942 10.997334 -118.702690
v -98.815475 12.134200 -98.260201
v -98.816826 12.134202 -80.310112
v -98.816826 10.997336 -80.310112
v -98.815475 10.997334 -98.260223
v -88.754265 12.783257 -139.064056
v -88.755623 12.783263 -120.903511
v -99.102867 12.783263 -120.904282
v -99.101509 12.783257 -139.064835
v -98.812408 12.134198 -139.295044
v -98.813759 12.134198 -121.344948
v -98.813759 10.997334 -121.344948
v -98.812408 10.997334 -139.295059
v -46.858349 -7.609557 -35.389091
v -47.401661 -7.609557 -36.700752
v -48.786400 -8.565892 -36.280689
v -48.134529 -8.565892 -34.706947
v -46.069584 -7.609557 -34.208626
v -47.188168 -8.565892 -33.290619
v -45.065678 -7.609557 -33.204731
v -45.983677 -8.565893 -32.086136
v -43.885216 -7.609557 -32.415970
v -44.567341 -8.565893 -31.139780
v -42.573544 -7.609557 -31.872660
v -42.993603 -8.565893 -30.487919
v -34.084152 -7.609556 -42.217091
v -32.807972 -8.565892 -42.899231
v -32.156105 -8.565892 -41.325493
v -33.540840 -7.609556 -40.905430
v -34.872921 -7.609556 -43.397552
v -33.754337 -8.565892 -44.315540
v -35.876839 -7.609556 -44.401440
v -34.958828 -8.565892 -45.520035
v -37.057301 -7.609556 -45.190201
v -36.375168 -8.565892 -46.466389
v -38.368965 -7.609556 -45.733509
v -37.948914 -8.565892 -47.118244
v -37.057259 -7.609557 -32.415985
v -38.368927 -7.609557 -31.872671
v -37.948860 -8.565893 -30.487934
v -36.375118 -8.565893 -31.139799
v -35.876797 -7.609557 -33.204750
v -34.958790 -8.565893 -32.086166
v -34.872902 -7.609557 -34.208656
v -33.754307 -8.565892 -33.290657
v -34.084141 -7.609557 -35.389122
v -32.807949 -8.565892 -34.706985
v -33.540833 -7.609557 -36.700787
v -32.156086 -8.565892 -36.280731
v -43.885242 -7.609556 -45.190189
v -42.573578 -7.609556 -45.733501
v -42.993641 -8.565892 -47.118237
v -44.567383 -8.565892 -46.466370
v -45.065701 -7.609556 -44.401421
v -45.983711 -8.565892 -45.520004
v -46.069603 -7.609556 -43.397514
v -47.188190 -8.565892 -44.315514
v -46.858356 -7.609556 -42.217056
v -48.134548 -8.565892 -42.899185
v -47.401669 -7.609556 -40.905384
v -48.786415 -8.565892 -41.325443
v -5.875000 -9.611119 -35.189983
v -6.418313 -9.611119 -36.501644
v -7.803054 -10.567456 -36.081585
v -7.151186 -10.567456 -34.507847
v -5.086238 -9.611119 -34.009521
v -6.204822 -10.567456 -33.091518
v -4.082334 -9.611119 -33.005623
v -5.000329 -10.567457 -31.887030
v -2.901868 -9.611120 -32.216866
v -3.583999 -10.567457 -30.940674
v -1.590200 -9.611120 -31.673559
v -2.010256 -10.567457 -30.288813
v 6.899197 -9.611119 -42.017967
v 8.175378 -10.567456 -42.700108
v 8.827249 -10.567456 -41.126366
v 7.442507 -9.611119 -40.706306
v 6.110432 -9.611119 -43.198433
v 7.229016 -10.567456 -44.116436
v 5.106531 -9.611119 -44.202332
v 6.024524 -10.567456 -45.320923
v 3.926062 -9.611119 -44.991089
v 4.608196 -10.567456 -46.267281
v 2.614397 -9.611119 -45.534393
v 3.034451 -10.567456 -46.919140
v 3.926091 -9.611120 -32.216881
v 2.614426 -9.611120 -31.673569
v 3.034490 -10.567457 -30.288828
v 4.608230 -10.567457 -30.940693
v 5.106550 -9.611119 -33.005642
v 6.024558 -10.567457 -31.887060
v 6.110452 -9.611119 -34.009544
v 7.229040 -10.567456 -33.091553
v 6.899211 -9.611119 -35.190014
v 8.175398 -10.567456 -34.507881
v 7.442517 -9.611119 -36.501678
v 8.827263 -10.567456 -36.081627
v -2.901895 -9.611119 -44.991074
v -1.590232 -9.611119 -45.534382
v -2.010295 -10.567456 -46.919128
v -3.584036 -10.567456 -46.267262
v -4.082356 -9.611119 -44.202312
v -5.000361 -10.567456 -45.320896
v -5.086257 -9.611119 -43.198406
v -6.204848 -10.567456 -44.116405
v -5.875014 -9.611119 -42.017937
v -7.151204 -10.567456 -42.700077
v -6.418320 -9.611119 -40.706276
v -7.803066 -10.567456 -41.126331
v -19.268398 3.448145 -119.023804
v -19.268259 3.448145 -120.512711
v -19.777260 8.335626 -120.348145
v -20.592564 8.335626 -120.003784
v -20.757168 3.448145 -120.512772
v -20.248196 8.335626 -120.348145
v -19.432922 8.335626 -120.003746
v -20.248243 8.335625 -119.188515
v -19.432964 8.335625 -119.532806
v -19.777355 8.335625 -119.188484
v -20.592564 8.335627 -78.367538
v -20.757183 3.448145 -77.858574
v -19.268400 3.448145 -77.858498
v -19.268261 3.448146 -79.347397
v -19.777264 8.335627 -79.182831
v -20.592564 8.335627 -78.838478
v -20.757172 3.448146 -79.347466
v -20.248199 8.335627 -79.182838
v -19.432924 8.335627 -78.838448
v -20.248245 8.335627 -78.023209
v -19.432966 8.335627 -78.367500
v -19.777357 8.335627 -78.023170
v -20.592564 8.335625 -37.392681
v -20.757183 3.448144 -36.883705
v -19.268400 3.448144 -36.883629
v -19.268261 3.448144 -38.372532
v -19.777264 8.335625 -38.207962
v -20.592564 8.335625 -37.863617
v -20.757172 3.448144 -38.372601
v -20.248199 8.335625 -38.207973
v -19.432924 8.335625 -37.863579
v -20.248245 8.335625 -37.048344
v -19.432966 8.335625 -37.392639
v -19.777357 8.335625 -37.048306
v 20.363956 8.335625 -37.392681
v 20.199337 3.448144 -36.883705
v 21.688122 3.448144 -36.883629
v 21.688259 3.448144 -38.372532
v 21.179255 8.335625 -38.207962
v 20.363956 8.335625 -37.863617
v 20.199348 3.448144 -38.372601
v 20.708323 8.335625 -38.207973
v 21.523596 8.335625 -37.863579
v 20.708273 8.335625 -37.048344
v 21.523552 8.335625 -37.392639
v 21.179163 8.335625 -37.048306
v -61.386356 8.335625 -37.392681
v -61.550976 3.448144 -36.883705
v -60.062187 3.448144 -36.883629
v -60.062050 3.448144 -38.372532
v -60.571053 8.335625 -38.207962
v -61.386356 8.335625 -37.863617
v -61.550964 3.448144 -38.372601
v -61.041992 8.335625 -38.207973
v -60.226719 8.335625 -37.863579
v -61.042038 8.335625 -37.048344
v -60.226757 8.335625 -37.392639
v -60.571152 8.335625 -37.048306
v -61.386356 8.335625 -78.367546
v -61.550976 3.448144 -77.858574
v -60.062191 3.448144 -77.858498
v -60.062054 3.448144 -79.347397
v -60.571056 8.335625 -79.182831
v -61.386356 8.335625 -78.838486
v -61.550964 3.448144 -79.347466
v -61.041992 8.335625 -79.182838
v -60.226719 8.335625 -78.838448
v -61.042038 8.335625 -78.023209
v -60.226761 8.335625 -78.367508
v -60.571152 8.335625 -78.023170
v -61.386356 8.335625 -119.532852
v -61.550976 3.448145 -119.023888
v -60.062187 3.448145 -119.023804
v -60.062050 3.448145 -120.512711
v -60.571053 8.335626 -120.348145
v -61.386356 8.335626 -120.003784
v -61.550964 3.448145 -120.512772
v -61.041992 8.335626 -120.348145
v -60.226719 8.335626 -120.003746
v -61.042038 8.335625 -119.188515
v -60.226757 8.335625 -119.532806
v -60.571152 8.335625 -119.188477
v 20.363956 8.335625 -78.367546
v 20.199337 3.448144 -77.858574
v 21.688122 3.448144 -77.858498
v 21.688259 3.448144 -79.347397
v 21.179255 8.335625 -79.182831
v 20.363956 8.335625 -78.838486
v 20.199348 3.448144 -79.347466
v 20.708323 8.335625 -79.182838
v 21.523596 8.335625 -78.838448
v 20.708273 8.335625 -78.023209
v 21.523552 8.335625 -78.367508
v 21.179163 8.335625 -78.023170
v 20.562653 8.335625 -119.532852
v 20.398035 3.448145 -119.023888
v 21.886818 3.448145 -119.023804
v 21.886955 3.448145 -120.512711
v 21.377951 8.335626 -120.348145
v 20.562653 8.335626 -120.003784
v 20.398045 3.448145 -120.512772
v 20.907019 8.335626 -120.348145
v 21.722292 8.335626 -120.003746
v 20.906969 8.335625 -119.188515
v 21.722248 8.335625 -119.532806
v 21.377859 8.335625 -119.188477
vn -0.5111 0.8330 0.2117
vn -0.4600 0.8330 0.3073
vn -0.3912 0.8330 0.3912
vn -0.3073 0.8330 0.4600
vn -0.2117 0.8330 0.5111
vn -0.5111 -0.8330 0.2117
vn -0.4600 -0.8330 0.3073
vn -0.3912 -0.8330 0.3912
vn -0.3073 -0.8330 0.4600
vn -0.2117 -0.8330 0.5111
vn 0.2117 0.8330 0.5111
vn 0.3074 0.8330 0.4600
vn 0.3073 0.8330 0.4600
vn 0.3912 0.8330 0.3912
vn 0.4600 0.8330 0.3073
vn 0.5111 0.8330 0.2117
vn -0.2117 0.8330 -0.5111
vn -0.3074 0.8330 -0.4600
vn -0.3073 0.8330 -0.4600
vn -0.3912 0.8330 -0.3912
vn -0.4600 0.8330 -0.3073
vn -0.5111 0.8330 -0.2117
vn -0.4600 -0.8330 0.3074
vn -0.0000 -1.0000 -0.0000
vn -1.0000 -0.0000 -0.0000
vn -0.9098 0.0732 0.4085
vn -0.7059 0.0578 0.7059
vn -0.4084 0.0732 0.9099
vn -0.9994 0.0337 -0.0000
vn -0.7689 0.0517 0.6373
vn -0.7689 0.0527 0.6373
vn -0.9447 0.0649 0.3215
vn -0.0000 1.0000 -0.0000
vn 1.0000 -0.0000 0.0001
vn 0.9994 0.0337 0.0001
vn 0.7689 0.0517 -0.6372
vn 0.7689 0.0527 -0.6372
vn 0.9447 0.0649 -0.3214
vn -0.6373 0.0527 -0.7689
vn -0.3215 0.0649 -0.9447
vn -0.0000 0.0337 -0.9994
vn -0.6373 0.0517 -0.7689
vn -0.4084 0.0732 -0.9099
vn -0.7059 0.0578 -0.7059
vn -0.9098 0.0732 -0.4085
vn 0.9099 0.0732 -0.4084
vn 0.7060 0.0578 -0.7059
vn 0.4085 0.0732 -0.9098
vn -0.0000 0.0337 0.9994
vn 0.6373 0.0517 0.7689
vn 0.6372 0.0527 0.7689
vn 0.3214 0.0649 0.9447
vn 0.4083 0.0732 0.9099
vn 0.7058 0.0578 0.7060
vn 0.9098 0.0732 0.4086
vn -0.6372 0.0527 -0.7689
vn -0.0001 0.0337 0.9994
vn 0.6372 0.0517 0.7689
vn 0.6371 0.0527 0.7689
vn 0.4084 0.0732 0.9099
vn 0.7059 0.0578 0.7060
vn 0.9098 0.0732 0.4085
vn -0.7689 0.0527 0.6372
vt 0.610687 0.447413
vt 0.541814 0.447413
vt 0.542328 0.431879
vt 0.610172 0.431879
vt 0.541813 0.447413
vt 0.542328 0.431879
vt 0.610172 0.431879
vt 0.610687 0.447413
vt 0.609804 0.445762
vt 0.538224 0.445762
vt 0.538224 0.435146
vt 0.609804 0.435146
vt 0.538224 0.432284
vt 0.609804 0.432284
vt 0.538224 0.445762
vt 0.588357 0.431354
vt 0.574014 0.447622
vt 0.560975 0.431353
vt 0.574014 0.431354
vt 0.578398 0.447622
vt 0.569986 0.447622
vt 0.575967 0.447622
vt 0.573017 0.431354
vt 0.578398 0.431354
vt 0.609804 0.447157
vt 0.538224 0.447157
s 0
f 1/1/1 2/2/1 3/3/1
f 3/3/1 4/4/1 1/1/1
f 5/1/2 1/2/2 4/3/2
f 4/3/2 6/4/2 5/1/2
f 7/1/3 5/2/3 6/3/3
f 6/3/3 8/4/3 7/1/3
f 9/1/4 7/2/4 8/3/4
f 8/3/4 10/4/4 9/1/4
f 11/1/5 9/2/5 10/3/5
f 10/3/5 12/4/5 11/1/5
f 13/5/6 14/6/6 15/7/6
f 15/7/6 16/8/6 13/5/6
f 17/5/7 18/6/7 14/7/7
f 14/7/7 13/8/7 17/5/7
f 19/5/8 20/6/8 18/7/8
f 18/7/8 17/8/8 19/5/8
f 21/5/9 22/6/9 20/7/9
f 20/7/9 19/8/9 21/5/9
f 23/5/10 24/6/10 22/7/10
f 22/7/10 21/8/10 23/5/10
f 25/1/11 26/2/11 27/3/11
f 27/3/11 28/4/11 25/1/11
f 29/1/12 25/2/12 28/3/12
f 28/3/13 30/4/13 29/1/13
f 31/1/14 29/2/14 30/3/14
f 30/3/14 32/4/14 31/1/14
f 33/1/15 31/2/15 32/3/15
f 32/3/15 34/4/15 33/1/15
f 35/1/16 33/2/16 34/3/16
f 34/3/16 36/4/16 35/1/16
f 37/1/17 38/2/17 39/3/17
f 39/3/17 40/4/17 37/1/17
f 41/1/18 37/2/18 40/3/18
f 40/3/19 42/4/19 41/1/19
f 43/1/20 41/2/20 42/3/20
f 42/3/20 44/4/20 43/1/20
f 45/1/21 43/2/21 44/3/21
f 44/3/21 46/4/21 45/1/21
f 47/1/22 45/2/22 46/3/22
f 46/3/22 48/4/22 47/1/22
f 49/1/1 50/2/1 51/3/1
f 51/3/1 52/4/1 49/1/1
f 53/1/2 49/2/2 52/3/2
f 52/3/2 54/4/2 53/1/2
f 55/1/3 53/2/3 54/3/3
f 54/3/3 56/4/3 55/1/3
f 57/1/4 55/2/4 56/3/4
f 56/3/4 58/4/4 57/1/4
f 59/1/5 57/2/5 58/3/5
f 58/3/5 60/4/5 59/1/5
f 61/5/6 62/6/6 63/7/6
f 63/7/6 64/8/6 61/5/6
f 65/5/7 66/6/7 62/7/7
f 62/7/7 61/8/7 65/5/7
f 67/5/8 68/6/8 66/7/8
f 66/7/8 65/8/8 67/5/8
f 69/5/9 70/6/9 68/7/9
f 68/7/9 67/8/9 69/5/9
f 71/5/10 72/6/10 70/7/10
f 70/7/10 69/8/10 71/5/10
f 73/1/11 74/2/11 75/3/11
f 75/3/11 76/4/11 73/1/11
f 77/1/12 73/2/12 76/3/12
f 76/3/13 78/4/13 77/1/13
f 79/1/14 77/2/14 78/3/14
f 78/3/14 80/4/14 79/1/14
f 81/1/15 79/2/15 80/3/15
f 80/3/15 82/4/15 81/1/15
f 83/1/16 81/2/16 82/3/16
f 82/3/16 84/4/16 83/1/16
f 85/1/17 86/2/17 87/3/17
f 87/3/17 88/4/17 85/1/17
f 89/1/18 85/2/18 88/3/18
f 88/3/19 90/4/19 89/1/19
f 91/1/20 89/2/20 90/3/20
f 90/3/20 92/4/20 91/1/20
f 93/1/21 91/2/21 92/3/21
f 92/3/21 94/4/21 93/1/21
f 95/1/22 93/2/22 94/3/22
f 94/3/22 96/4/22 95/1/22
f 97/1/1 98/2/1 99/3/1
f 99/3/1 100/4/1 97/1/1
f 101/1/2 97/2/2 100/3/2
f 100/3/2 102/4/2 101/1/2
f 103/1/3 101/2/3 102/3/3
f 102/3/3 104/4/3 103/1/3
f 105/1/4 103/2/4 104/3/4
f 104/3/4 106/4/4 105/1/4
f 107/1/5 105/2/5 106/3/5
f 106/3/5 108/4/5 107/1/5
f 109/5/6 110/6/6 111/7/6
f 111/7/6 112/8/6 109/5/6
f 113/5/7 114/6/7 110/7/7
f 110/7/7 109/8/7 113/5/7
f 115/5/8 116/6/8 114/7/8
f 114/7/8 113/8/8 115/5/8
f 117/5/9 118/6/9 116/7/9
f 116/7/9 115/8/9 117/5/9
f 119/5/10 120/6/10 118/7/10
f 118/7/10 117/8/10 119/5/10
f 121/1/11 122/2/11 123/3/11
f 123/3/11 124/4/11 121/1/11
f 125/1/13 121/2/13 124/3/13
f 124/3/13 126/4/13 125/1/13
f 127/1/14 125/2/14 126/3/14
f 126/3/14 128/4/14 127/1/14
f 129/1/15 127/2/15 128/3/15
f 128/3/15 130/4/15 129/1/15
f 131/1/16 129/2/16 130/3/16
f 130/3/16 132/4/16 131/1/16
f 133/1/17 134/2/17 135/3/17
f 135/3/17 136/4/17 133/1/17
f 137/1/19 133/2/19 136/3/19
f 136/3/19 138/4/19 137/1/19
f 139/1/20 137/2/20 138/3/20
f 138/3/20 140/4/20 139/1/20
f 141/1/21 139/2/21 140/3/21
f 140/3/21 142/4/21 141/1/21
f 143/1/22 141/2/22 142/3/22
f 142/3/22 144/4/22 143/1/22
f 145/1/1 146/2/1 147/3/1
f 147/3/1 148/4/1 145/1/1
f 149/1/2 145/2/2 148/3/2
f 148/3/2 150/4/2 149/1/2
f 151/1/3 149/2/3 150/3/3
f 150/3/3 152/4/3 151/1/3
f 153/1/4 151/2/4 152/3/4
f 152/3/4 154/4/4 153/1/4
f 155/1/5 153/2/5 154/3/5
f 154/3/5 156/4/5 155/1/5
f 157/5/6 158/6/6 159/7/6
f 159/7/6 160/8/6 157/5/6
f 161/5/23 162/6/23 158/7/23
f 158/7/23 157/8/23 161/5/23
f 163/5/8 164/6/8 162/7/8
f 162/7/8 161/8/8 163/5/8
f 165/5/9 166/6/9 164/7/9
f 164/7/9 163/8/9 165/5/9
f 167/5/10 168/6/10 166/7/10
f 166/7/10 165/8/10 167/5/10
f 169/1/11 170/2/11 171/3/11
f 171/3/11 172/4/11 169/1/11
f 173/1/13 169/2/13 172/3/13
f 172/3/13 174/4/13 173/1/13
f 175/1/14 173/2/14 174/3/14
f 174/3/14 176/4/14 175/1/14
f 177/1/15 175/2/15 176/3/15
f 176/3/15 178/4/15 177/1/15
f 179/1/16 177/2/16 178/3/16
f 178/3/16 180/4/16 179/1/16
f 181/1/17 182/2/17 183/3/17
f 183/3/17 184/4/17 181/1/17
f 185/1/18 181/2/18 184/3/18
f 184/3/19 186/4/19 185/1/19
f 187/1/20 185/2/20 186/3/20
f 186/3/20 188/4/20 187/1/20
f 189/1/21 187/2/21 188/3/21
f 188/3/21 190/4/21 189/1/21
f 191/1/22 189/2/22 190/3/22
f 190/3/22 192/4/22 191/1/22
f 193/9/24 194/10/24 195/11/24
f 195/11/24 196/12/24 193/9/24
f 197/9/24 198/10/24 199/11/24
f 199/11/24 200/12/24 197/9/24
f 201/9/24 202/10/24 203/11/24
f 203/11/24 204/12/24 201/9/24
f 205/9/24 206/10/24 207/11/24
f 207/11/24 208/12/24 205/9/24
f 209/13/25 210/14/25 211/9/25
f 211/9/25 212/15/25 209/13/25
f 213/13/25 214/14/25 215/9/25
f 215/9/25 216/15/25 213/13/25
f 217/13/25 218/14/25 219/9/25
f 219/9/25 220/15/25 217/13/25
f 221/13/25 222/14/25 223/9/25
f 223/9/25 224/15/25 221/13/25
f 225/16/26 226/17/27 408/18/28
f 404/19/29 405/20/29 226/21/30
f 226/22/31 225/23/32 404/24/29
f 227/25/33 228/26/33 229/11/33
f 229/11/33 230/12/33 227/25/33
f 231/25/33 232/26/33 230/11/33
f 230/11/33 229/12/33 231/25/33
f 233/9/24 234/10/24 235/11/24
f 235/11/24 236/12/24 233/9/24
f 237/9/24 238/10/24 239/11/24
f 239/11/24 240/12/24 237/9/24
f 241/13/25 242/14/25 243/9/25
f 243/9/25 244/15/25 241/13/25
f 245/13/25 246/14/25 247/9/25
f 247/9/25 248/15/25 245/13/25
f 249/9/24 250/10/24 251/11/24
f 251/11/24 252/12/24 249/9/24
f 253/13/25 254/14/25 255/9/25
f 255/9/25 256/15/25 253/13/25
f 257/9/24 258/10/24 259/11/24
f 259/11/24 260/12/24 257/9/24
f 261/9/24 262/10/24 263/11/24
f 263/11/24 264/12/24 261/9/24
f 265/9/24 266/10/24 267/11/24
f 267/11/24 268/12/24 265/9/24
f 269/13/34 270/14/34 271/9/34
f 271/9/34 272/15/34 269/13/34
f 273/13/34 274/14/34 275/9/34
f 275/9/34 276/15/34 273/13/34
f 277/13/34 278/14/34 279/9/34
f 279/9/34 280/15/34 277/13/34
f 281/9/24 282/10/24 283/11/24
f 283/11/24 284/12/24 281/9/24
f 285/9/24 286/10/24 287/11/24
f 287/11/24 288/12/24 285/9/24
f 289/13/34 290/14/34 291/9/34
f 291/9/34 292/15/34 289/13/34
f 293/13/34 294/14/34 295/9/34
f 295/9/34 296/15/34 293/13/34
f 297/9/24 298/10/24 299/11/24
f 299/11/24 300/12/24 297/9/24
f 301/13/34 302/14/34 303/9/34
f 303/9/34 304/15/34 301/13/34
f 305/1/1 306/2/1 307/3/1
f 307/3/1 308/4/1 305/1/1
f 309/1/2 305/2/2 308/3/2
f 308/3/2 310/4/2 309/1/2
f 311/1/3 309/2/3 310/3/3
f 310/3/3 312/4/3 311/1/3
f 313/1/4 311/2/4 312/3/4
f 312/3/4 314/4/4 313/1/4
f 315/1/5 313/2/5 314/3/5
f 314/3/5 316/4/5 315/1/5
f 317/5/6 318/6/6 319/7/6
f 319/7/6 320/8/6 317/5/6
f 321/5/23 322/6/23 318/7/23
f 318/7/7 317/8/7 321/5/7
f 323/5/8 324/6/8 322/7/8
f 322/7/8 321/8/8 323/5/8
f 325/5/9 326/6/9 324/7/9
f 324/7/9 323/8/9 325/5/9
f 327/5/10 328/6/10 326/7/10
f 326/7/10 325/8/10 327/5/10
f 329/1/11 330/2/11 331/3/11
f 331/3/11 332/4/11 329/1/11
f 333/1/13 329/2/13 332/3/13
f 332/3/13 334/4/13 333/1/13
f 335/1/14 333/2/14 334/3/14
f 334/3/14 336/4/14 335/1/14
f 337/1/15 335/2/15 336/3/15
f 336/3/15 338/4/15 337/1/15
f 339/1/16 337/2/16 338/3/16
f 338/3/16 340/4/16 339/1/16
f 341/1/17 342/2/17 343/3/17
f 343/3/17 344/4/17 341/1/17
f 345/1/19 341/2/19 344/3/19
f 344/3/19 346/4/19 345/1/19
f 347/1/20 345/2/20 346/3/20
f 346/3/20 348/4/20 347/1/20
f 349/1/21 347/2/21 348/3/21
f 348/3/21 350/4/21 349/1/21
f 351/1/22 349/2/22 350/3/22
f 350/3/22 352/4/22 351/1/22
f 353/1/1 354/2/1 355/3/1
f 355/3/1 356/4/1 353/1/1
f 357/1/2 353/2/2 356/3/2
f 356/3/2 358/4/2 357/1/2
f 359/1/3 357/2/3 358/3/3
f 358/3/3 360/4/3 359/1/3
f 361/1/4 359/2/4 360/3/4
f 360/3/4 362/4/4 361/1/4
f 363/1/5 361/2/5 362/3/5
f 362/3/5 364/4/5 363/1/5
f 365/5/6 366/6/6 367/7/6
f 367/7/6 368/8/6 365/5/6
f 369/5/7 370/6/7 366/7/7
f 366/7/7 365/8/7 369/5/7
f 371/5/8 372/6/8 370/7/8
f 370/7/8 369/8/8 371/5/8
f 373/5/9 374/6/9 372/7/9
f 372/7/9 371/8/9 373/5/9
f 375/5/10 376/6/10 374/7/10
f 374/7/10 373/8/10 375/5/10
f 377/1/11 378/2/11 379/3/11
f 379/3/11 380/4/11 377/1/11
f 381/1/13 377/2/13 380/3/13
f 380/3/13 382/4/13 381/1/13
f 383/1/14 381/2/14 382/3/14
f 382/3/14 384/4/14 383/1/14
f 385/1/15 383/2/15 384/3/15
f 384/3/15 386/4/15 385/1/15
f 387/1/16 385/2/16 386/3/16
f 386/3/16 388/4/16 387/1/16
f 389/1/17 390/2/17 391/3/17
f 391/3/17 392/4/17 389/1/17
f 393/1/19 389/2/19 392/3/19
f 392/3/19 394/4/19 393/1/19
f 395/1/20 393/2/20 394/3/20
f 394/3/20 396/4/20 395/1/20
f 397/1/21 395/2/21 396/3/21
f 396/3/21 398/4/21 397/1/21
f 399/1/22 397/2/22 398/3/22
f 398/3/22 400/4/22 399/1/22
f 409/19/35 401/20/35 402/21/36
f 402/22/37 407/23/38 409/24/35
f 405/22/39 406/23/40 403/24/41
f 403/19/41 402/20/41 405/21/42
f 406/16/43 405/17/44 404/18/45
f 407/16/46 402/17/47 403/18/48
f 408/19/49 226/20/49 401/21/50
f 401/22/51 410/23/52 408/24/49
f 410/16/53 401/17/54 409/18/55
f 411/16/26 412/17/27 420/18/28
f 416/19/29 417/20/29 412/21/30
f 412/22/31 411/23/32 416/24/29
f 421/19/35 413/20/35 414/21/36
f 414/22/37 419/23/38 421/24/35
f 417/22/56 418/23/40 415/24/41
f 415/19/41 414/20/41 417/21/42
f 418/16/43 417/17/44 416/18/45
f 419/16/46 414/17/47 415/18/48
f 420/19/57 412/20/57 413/21/58
f 413/22/59 422/23/52 420/24/57
f 422/16/60 413/17/61 421/18/62
f 423/16/26 424/17/27 432/18/28
f 428/19/29 429/20/29 424/21/30
f 424/22/31 423/23/32 428/24/29
f 433/19/35 425/20/35 426/21/36
f 426/22/37 431/23/38 433/24/35
f 429/22/56 430/23/40 427/24/41
f 427/19/41 426/20/41 429/21/42
f 430/16/43 429/17/44 428/18/45
f 431/16/46 426/17/47 427/18/48
f 432/19/57 424/20/57 425/21/50
f 425/22/59 434/23/52 432/24/57
f 434/16/60 425/17/61 433/18/62
f 435/16/26 436/17/27 444/18/28
f 440/19/29 441/20/29 436/21/30
f 436/22/31 435/23/32 440/24/29
f 445/19/35 437/20/35 438/21/36
f 438/22/37 443/23/38 445/24/35
f 441/22/56 442/23/40 439/24/41
f 439/19/41 438/20/41 441/21/42
f 442/16/43 441/17/44 440/18/45
f 443/16/46 438/17/47 439/18/48
f 444/19/57 436/20/57 437/21/50
f 437/22/59 446/23/52 444/24/57
f 446/16/60 437/17/61 445/18/62
f 447/16/26 448/17/27 456/18/28
f 452/19/29 453/20/29 448/21/30
f 448/22/63 447/23/32 452/24/29
f 457/19/35 449/20/35 450/21/36
f 450/22/37 455/23/38 457/24/35
f 453/22/56 454/23/40 451/24/41
f 451/19/41 450/20/41 453/21/42
f 454/16/43 453/17/44 452/18/45
f 455/16/46 450/17/47 451/18/48
f 456/19/57 448/20/57 449/21/50
f 449/22/59 458/23/52 456/24/57
f 458/16/60 449/17/61 457/18/62
f 459/16/26 460/17/27 468/18/28
f 464/19/29 465/20/29 460/21/30
f 460/22/63 459/23/32 464/24/29
f 469/19/35 461/20/35 462/21/36
f 462/22/37 467/23/38 469/24/35
f 465/22/56 466/23/40 463/24/41
f 463/19/41 462/20/41 465/21/42
f 466/16/43 465/17/44 464/18/45
f 467/16/46 462/17/47 463/18/48
f 468/19/57 460/20/57 461/21/58
f 461/22/59 470/23/52 468/24/57
f 470/16/60 461/17/61 469/18/62
f 471/16/26 472/17/27 480/18/28
f 476/19/29 477/20/29 472/21/30
f 472/22/63 471/23/32 476/24/29
f 481/19/35 473/20/35 474/21/36
f 474/22/37 479/23/38 481/24/35
f 477/22/39 478/23/40 475/24/41
f 475/19/41 474/20/41 477/21/42
f 478/16/43 477/17/44 476/18/45
f 479/16/46 474/17/47 475/18/48
f 480/19/57 472/20/57 473/21/58
f 473/22/59 482/23/52 480/24/57
f 482/16/60 473/17/54 481/18/62
f 483/16/26 484/17/27 492/18/28
f 488/19/29 489/20/29 484/21/30
f 484/22/31 483/23/32 488/24/29
f 493/19/35 485/20/35 486/21/36
f 486/22/37 491/23/38 493/24/35
f 489/22/56 490/23/40 487/24/41
f 487/19/41 486/20/41 489/21/42
f 490/16/43 489/17/44 488/18/45
f 491/16/46 486/17/47 487/18/48
f 492/19/57 484/20/57 485/21/58
f 485/22/59 494/23/52 492/24/57
f 494/16/60 485/17/61 493/18/62
f 495/16/26 496/17/27 504/18/28
f 500/19/29 501/20/29 496/21/30
f 496/22/31 495/23/32 500/24/29
f 505/19/35 497/20/35 498/21/36
f 498/22/37 503/23/38 505/24/35
f 501/22/39 502/23/40 499/24/41
f 499/19/41 498/20/41 501/21/42
f 502/16/43 501/17/44 500/18/45
f 503/16/46 498/17/47 499/18/48
f 504/19/57 496/20/57 497/21/58
f 497/22/59 506/23/52 504/24/57
f 506/16/60 497/17/61 505/18/62
o hangar_midorian_alpha_WELDED
v 54.288235 -9.332500 -159.631210
v 56.940395 -6.829729 -159.571976
v 56.740219 -6.743397 -162.592072
v 54.207806 -9.127567 -162.592087
v 56.940395 6.748233 -159.571976
v 54.288235 9.260453 -159.631210
v 54.209133 9.060990 -162.592087
v 56.740131 6.662087 -162.592087
v -54.282104 9.332157 -159.631226
v -56.841770 6.895605 -159.571976
v -56.641411 6.809704 -162.592087
v -54.201244 9.129708 -162.592087
v -56.841782 -6.682358 -159.571976
v -54.282112 -9.260794 -159.631210
v -54.198265 -9.059565 -162.592087
v -56.640217 -6.599301 -162.592087
v -50.645454 9.127356 -162.592087
v 50.653324 9.060989 -162.592087
v 50.652092 -9.127567 -162.592087
v -50.642544 -9.061871 -162.592087
vn -0.3700 0.9262 0.0733
vn -0.9170 0.3924 0.0720
vn -0.9158 0.3950 0.0727
vn -0.9158 0.3949 0.0726
vn -0.3678 0.9270 0.0741
vn -0.3700 0.9261 0.0734
vn -0.9172 -0.3918 0.0722
vn -0.3719 -0.9255 0.0723
vn -0.3699 -0.9263 0.0723
vn -0.9163 -0.3940 0.0720
vn -0.9172 -0.3917 0.0722
vn 0.3722 -0.9257 0.0677
vn 0.9178 -0.3904 0.0720
vn 0.9168 -0.3928 0.0725
vn 0.3697 -0.9262 0.0734
vn 0.3721 -0.9253 0.0730
vn 0.9231 0.3778 0.0723
vn 0.3862 0.9195 0.0734
vn 0.3840 0.9204 0.0731
vn 0.9222 0.3800 0.0720
vn 0.9179 -0.3903 0.0720
vn 0.9231 0.3777 0.0723
vn 0.9222 0.3799 0.0720
vn 0.3721 -0.9253 0.0729
vn 0.3696 -0.9263 0.0734
vn -0.0007 -0.9977 0.0682
vn -0.0000 -0.9959 0.0910
vn 0.3721 -0.9252 0.0742
vn -0.0000 -0.9958 0.0912
vn -0.3698 -0.9263 0.0723
vn 0.3720 -0.9253 0.0730
vn -0.3699 0.9262 0.0733
vn -0.3677 0.9270 0.0741
vn 0.0004 0.9976 0.0685
vn 0.0006 0.9977 0.0683
vn 0.3839 0.9204 0.0735
vn 0.3839 0.9205 0.0731
vn 0.3861 0.9195 0.0734
vn -0.0000 -0.0000 1.0000
vt 0.592430 0.464095
vt 0.587430 0.464095
vt 0.587430 0.450747
vt 0.592430 0.450747
vt 0.571841 0.464095
vt 0.567638 0.464095
vt 0.567638 0.450747
vt 0.571841 0.450747
vt 0.587448 0.464095
vt 0.587448 0.450747
vt 0.571820 0.464095
vt 0.571893 0.450747
vt 0.568452 0.450747
vt 0.591617 0.450747
vt 0.548181 0.476820
vt 0.609674 0.476820
vt 0.609674 0.495980
vt 0.548181 0.495980
vt 0.609863 0.463867
vt 0.548340 0.463867
vt 0.548340 0.496094
vt 0.609863 0.496094
vt 0.556641 0.450684
vt 0.601074 0.450684
vt 0.609863 0.476562
vt 0.548340 0.476562
s 0
f 507/27/64 508/28/65 509/29/66
f 509/29/67 510/30/68 507/27/69
f 511/31/70 512/32/71 513/33/72
f 513/33/72 514/34/73 511/31/70
f 508/28/65 511/31/74 514/34/73
f 514/34/73 509/29/67 508/28/65
f 515/27/75 516/35/76 517/36/77
f 517/36/77 518/30/78 515/27/79
f 519/37/80 520/32/81 521/33/82
f 521/33/82 522/38/83 519/37/80
f 516/35/84 519/37/85 522/38/86
f 522/38/83 517/36/77 516/35/84
f 515/32/87 518/33/88 523/39/89
f 515/32/79 523/39/89 524/40/90
f 515/32/91 524/40/92 513/30/93
f 515/32/94 513/30/93 512/27/71
f 507/32/95 510/33/96 525/39/97
f 507/32/95 525/39/97 526/40/98
f 507/32/95 526/40/98 521/30/99
f 507/32/95 521/30/100 520/27/101
f 525/41/102 524/42/102 523/43/102
f 523/43/102 526/44/102 525/41/102
f 518/45/102 521/46/102 526/47/102
f 526/47/102 523/48/102 518/45/102
f 522/49/102 521/46/102 518/45/102
f 518/45/102 517/50/102 522/49/102
f 513/45/102 524/51/102 525/52/102
f 525/52/102 510/46/102 513/45/102
f 509/49/102 514/50/102 513/45/102
f 513/45/102 510/46/102 509/49/102
