# Blender 5.2.0 LTS
# www.blender.org
o hangar_midorian_x1_WELDED
v -46.210449 -9.218087 -95.251541
v -47.287231 -9.218087 -95.326836
v -47.362530 -9.218087 -94.250046
v -46.285740 -9.218087 -94.174751
v -46.150635 -9.278054 -95.247353
v -46.206264 -9.278054 -95.311356
v -47.283047 -9.278054 -95.386650
v -47.347065 -9.278054 -95.331024
v -47.422352 -9.278054 -94.254234
v -47.366714 -9.278054 -94.190231
v -46.289921 -9.278054 -94.114929
v -46.225922 -9.278054 -94.170570
v -46.150635 -10.357466 -95.247353
v -46.206264 -10.357466 -95.311356
v -47.283047 -10.357466 -95.386650
v -47.347065 -10.357466 -95.331024
v -47.422352 -10.357466 -94.254234
v -47.366714 -10.357466 -94.190231
v -46.289921 -10.357466 -94.114929
v -46.225922 -10.357466 -94.170570
v -46.210449 -10.417433 -95.251541
v -47.287231 -10.417433 -95.326836
v -47.362530 -10.417433 -94.250046
v -46.285740 -10.417433 -94.174751
v -43.395767 -8.635860 -96.773407
v -43.593719 -8.635860 -95.269501
v -43.004204 -8.635860 -95.191902
v -42.806255 -8.635860 -96.695808
v -44.802826 -8.664572 -95.457176
v -44.881092 -8.758388 -95.467499
v -44.813412 -8.758388 -95.376762
v -43.604725 -8.733308 -95.185974
v -43.015221 -8.733308 -95.108368
v -42.795238 -8.733308 -96.779343
v -43.384750 -8.733308 -96.856964
v -44.612240 -8.664572 -96.905045
v -44.601650 -8.758388 -96.985497
v -44.690479 -8.758388 -96.915359
v -44.813412 -8.933727 -95.376762
v -44.881092 -8.933727 -95.467499
v -44.881092 -10.123485 -95.467499
v -44.813412 -10.123485 -95.376762
v -43.604725 -10.123078 -95.185974
v -43.015221 -10.123078 -95.108368
v -43.015221 -8.911818 -95.108368
v -43.604725 -8.911818 -95.185974
v -42.795238 -10.123078 -96.779343
v -43.384750 -10.123078 -96.856964
v -43.384750 -8.911818 -96.856964
v -42.795238 -8.911818 -96.779343
v -44.690479 -8.933727 -96.915359
v -44.601650 -8.933727 -96.985497
v -44.601650 -10.123485 -96.985497
v -44.690479 -10.123485 -96.915359
v -44.881092 -10.298825 -95.467499
v -44.802826 -10.401612 -95.457176
v -44.813412 -10.298825 -95.376762
v -43.604725 -10.301588 -95.185974
v -43.593719 -10.408353 -95.269501
v -43.004204 -10.408353 -95.191902
v -43.015221 -10.301588 -95.108368
v -42.795238 -10.301588 -96.779343
v -42.806255 -10.408353 -96.695808
v -43.395767 -10.408353 -96.773407
v -43.384750 -10.301588 -96.856964
v -44.601650 -10.298825 -96.985497
v -44.612240 -10.401612 -96.905045
v -44.690479 -10.298825 -96.915359
v -43.676907 -8.664572 -95.308952
v -43.486332 -8.664572 -96.756821
v -43.687508 -8.758388 -95.228546
v -43.475727 -8.758388 -96.837265
v -43.687508 -10.123485 -95.228546
v -43.687508 -8.933727 -95.228546
v -43.475727 -8.933727 -96.837265
v -43.475727 -10.123485 -96.837265
v -43.676907 -10.401612 -95.308952
v -43.687508 -10.298825 -95.228546
v -43.475727 -10.298825 -96.837265
v -43.486332 -10.401612 -96.756821
v -41.597141 -8.664572 -96.508141
v -41.518875 -8.758388 -96.497833
v -41.586555 -8.758388 -96.588554
v -41.787727 -8.664572 -95.060272
v -41.798321 -8.758388 -94.979820
v -41.709492 -8.758388 -95.049957
v -41.586555 -8.933727 -96.588554
v -41.518875 -8.933727 -96.497833
v -41.518875 -10.123485 -96.497833
v -41.586555 -10.123485 -96.588554
v -41.709492 -8.933727 -95.049957
v -41.798321 -8.933727 -94.979820
v -41.798321 -10.123485 -94.979820
v -41.709492 -10.123485 -95.049957
v -41.518875 -10.298825 -96.497833
v -41.597141 -10.401612 -96.508141
v -41.586555 -10.298825 -96.588554
v -41.798321 -10.298825 -94.979820
v -41.787727 -10.401612 -95.060272
v -41.709492 -10.298825 -95.049957
v -42.723061 -8.664572 -96.656357
v -42.913635 -8.664572 -95.208481
v -42.712456 -8.758388 -96.736778
v -42.924244 -8.758388 -95.128052
v -42.712456 -10.123485 -96.736778
v -42.712456 -8.933727 -96.736778
v -42.924244 -8.933727 -95.128052
v -42.924244 -10.123485 -95.128052
v -42.723061 -10.401612 -96.656357
v -42.712456 -10.298825 -96.736778
v -42.924244 -10.298825 -95.128052
v -42.913635 -10.401612 -95.208481
v -50.547302 -9.218087 -94.621758
v -49.474827 -9.218087 -94.499565
v -49.352634 -9.218087 -95.572037
v -50.425110 -9.218087 -95.694237
v -50.606880 -9.278054 -94.628540
v -50.554092 -9.278054 -94.562172
v -49.481621 -9.278054 -94.439987
v -49.415234 -9.278054 -94.492775
v -49.293049 -9.278054 -95.565254
v -49.345848 -9.278054 -95.631622
v -50.418327 -9.278054 -95.753815
v -50.484695 -9.278054 -95.701027
v -50.606880 -10.357466 -94.628540
v -50.554092 -10.357466 -94.562172
v -49.481621 -10.357466 -94.439987
v -49.415234 -10.357466 -94.492775
v -49.293049 -10.357466 -95.565254
v -49.345848 -10.357466 -95.631622
v -50.418327 -10.357466 -95.753815
v -50.484695 -10.357466 -95.701027
v -50.547302 -10.417433 -94.621758
v -49.474827 -10.417433 -94.499565
v -49.352634 -10.417433 -95.572037
v -50.425110 -10.417433 -95.694237
v -50.387093 -9.218087 -92.898865
v -49.578655 -9.218087 -92.183632
v -48.863419 -9.218087 -92.992058
v -49.671848 -9.218087 -93.707291
v -50.431999 -9.278054 -92.938591
v -50.426826 -9.278054 -92.853951
v -49.618393 -9.278054 -92.138718
v -49.533741 -9.278054 -92.143875
v -48.818504 -9.278054 -92.952309
v -48.823681 -9.278054 -93.036972
v -49.632118 -9.278054 -93.752213
v -49.716766 -9.278054 -93.747032
v -50.431999 -10.357466 -92.938591
v -50.426826 -10.357466 -92.853951
v -49.618393 -10.357466 -92.138718
v -49.533741 -10.357466 -92.143875
v -48.818504 -10.357466 -92.952309
v -48.823681 -10.357466 -93.036972
v -49.632118 -10.357466 -93.752213
v -49.716766 -10.357466 -93.747032
v -50.387093 -10.417433 -92.898865
v -49.578655 -10.417433 -92.183632
v -48.863419 -10.417433 -92.992058
v -49.671848 -10.417433 -93.707291
v -51.880417 -9.218087 -93.004707
v -51.097446 -9.218087 -93.747734
v -51.840462 -9.218087 -94.530708
v -52.623436 -9.218087 -93.787682
v -51.923916 -9.278054 -92.963432
v -51.839146 -9.278054 -92.961212
v -51.056171 -9.278054 -93.704239
v -51.053936 -9.278054 -93.789009
v -51.796963 -9.278054 -94.571983
v -51.881737 -9.278054 -94.574203
v -52.664726 -9.278054 -93.831177
v -52.666943 -9.278054 -93.746407
v -51.923916 -10.357466 -92.963432
v -51.839146 -10.357466 -92.961212
v -51.056171 -10.357466 -93.704239
v -51.053936 -10.357466 -93.789009
v -51.796963 -10.357466 -94.571983
v -51.881737 -10.357466 -94.574203
v -52.664726 -10.357466 -93.831177
v -52.666943 -10.357466 -93.746407
v -51.880417 -10.417433 -93.004707
v -51.097446 -10.417433 -93.747734
v -51.840462 -10.417433 -94.530708
v -52.623436 -10.417433 -93.787682
vn 0.3646 0.8756 -0.3169
vn -0.3169 0.8756 -0.3646
vn -0.3645 0.8756 0.3171
vn -0.3646 0.8756 0.3169
vn 0.3169 0.8756 0.3645
vn 0.3645 0.8756 -0.3169
vn 0.8972 0.3417 -0.2797
vn 0.4018 0.3417 -0.8496
vn 0.3646 0.8755 -0.3170
vn 0.4019 0.3415 -0.8496
vn -0.2796 0.3415 -0.8973
vn -0.2796 0.3416 -0.8973
vn 0.3646 0.8756 -0.3170
vn -0.3167 0.8757 -0.3646
vn -0.2795 0.3417 -0.8973
vn -0.8495 0.3418 -0.4020
vn -0.3170 0.8755 -0.3646
vn -0.8496 0.3415 -0.4019
vn -0.8973 0.3415 0.2797
vn -0.8973 0.3416 0.2797
vn -0.3169 0.8756 -0.3645
vn -0.3647 0.8755 0.3170
vn -0.8973 0.3415 0.2796
vn -0.4019 0.3415 0.8496
vn -0.3646 0.8755 0.3170
vn -0.4019 0.3416 0.8496
vn 0.2797 0.3415 0.8973
vn 0.2797 0.3416 0.8972
vn 0.3169 0.8756 0.3646
vn 0.2798 0.3416 0.8972
vn 0.8496 0.3416 0.4018
vn 0.3170 0.8755 0.3646
vn 0.8497 0.3415 0.4018
vn 0.8973 0.3415 -0.2796
vn 0.8973 0.3416 -0.2797
vn 0.8973 -0.3416 -0.2797
vn 0.4019 -0.3416 -0.8496
vn 0.4019 -0.3415 -0.8496
vn 0.4019 0.3416 -0.8496
vn -0.2796 -0.3415 -0.8973
vn -0.2796 -0.3416 -0.8973
vn 0.4018 0.3416 -0.8496
vn -0.2795 0.3416 -0.8973
vn -0.8496 -0.3416 -0.4020
vn -0.8496 -0.3416 -0.4019
vn -0.8495 0.3417 -0.4020
vn -0.8496 0.3416 -0.4019
vn -0.8973 -0.3416 0.2797
vn -0.4018 -0.3416 0.8496
vn -0.4018 -0.3415 0.8497
vn -0.4018 0.3416 0.8496
vn 0.2797 -0.3416 0.8973
vn 0.2797 0.3416 0.8973
vn 0.2797 -0.3416 0.8972
vn 0.8496 -0.3416 0.4018
vn 0.8973 0.3416 -0.2796
vn 0.8972 -0.3417 -0.2797
vn 0.4915 -0.7588 -0.4274
vn 0.4018 -0.3417 -0.8496
vn 0.4916 -0.7588 -0.4273
vn -0.4273 -0.7588 -0.4916
vn -0.4272 -0.7588 -0.4916
vn 0.4018 -0.3415 -0.8496
vn -0.2795 -0.3416 -0.8973
vn -0.4271 -0.7589 -0.4916
vn -0.8495 -0.3418 -0.4020
vn -0.8496 -0.3415 -0.4019
vn -0.4274 -0.7587 -0.4916
vn -0.4917 -0.7587 0.4273
vn -0.4916 -0.7588 0.4273
vn -0.8973 -0.3416 0.2796
vn -0.8973 -0.3415 0.2797
vn -0.4917 -0.7587 0.4274
vn -0.4019 -0.3415 0.8496
vn -0.4019 -0.3416 0.8496
vn -0.4915 -0.7588 0.4274
vn 0.4273 -0.7588 0.4916
vn 0.4273 -0.7588 0.4915
vn 0.2796 -0.3416 0.8973
vn 0.2798 -0.3416 0.8972
vn 0.4916 -0.7587 -0.4273
vn 0.8973 -0.3415 -0.2796
vn 0.8497 -0.3415 0.4018
vn -0.1379 0.8859 -0.4429
vn -0.2478 0.8859 0.3922
vn 0.1379 0.8859 0.4430
vn 0.2478 0.8859 -0.3922
vn -0.4164 0.8532 0.3140
vn -0.9254 0.3071 0.2219
vn -0.4635 0.3112 0.8296
vn -0.2478 0.8858 0.3923
vn -0.3145 0.3529 0.8812
vn 0.0758 0.3529 0.9326
vn 0.0757 0.3529 0.9326
vn 0.1379 0.8858 0.4430
vn 0.3146 0.3530 -0.8812
vn -0.0757 0.3529 -0.9326
vn -0.0757 0.3530 -0.9326
vn -0.1379 0.8859 -0.4430
vn -0.3210 0.8533 -0.4109
vn -0.2331 0.3114 -0.9212
vn -0.8366 0.3071 -0.4537
vn -0.3210 0.8533 -0.4110
vn -0.8366 0.3070 -0.4538
vn -0.9255 0.3071 0.2219
vn -0.9254 0.3072 0.2219
vn -0.4162 0.8533 0.3140
vn -0.3208 0.8533 -0.4110
vn -0.5061 -0.0000 0.8625
vn -0.9677 -0.0000 0.2521
vn -0.9676 -0.0000 0.2524
vn -0.5058 -0.0000 0.8626
vn -0.5059 -0.0000 0.8626
vn -0.2982 -0.0000 0.9545
vn 0.0411 -0.0000 0.9992
vn -0.2983 -0.0000 0.9545
vn 0.2983 -0.0001 -0.9545
vn -0.0411 -0.0000 -0.9992
vn 0.2983 -0.0000 -0.9545
vn -0.8695 -0.0000 -0.4940
vn -0.2656 -0.0000 -0.9641
vn -0.2655 -0.0000 -0.9641
vn -0.9677 -0.0000 0.2523
vn -0.9677 -0.0000 0.2522
vn -0.9310 -0.2886 0.2237
vn -0.5844 -0.6811 0.4412
vn -0.4667 -0.2927 0.8346
vn -0.2827 -0.3167 0.9054
vn -0.2514 -0.6124 0.7496
vn 0.0489 -0.6124 0.7891
vn 0.0489 -0.6123 0.7891
vn 0.0387 -0.3167 0.9477
vn 0.2827 -0.3167 -0.9054
vn 0.2514 -0.6124 -0.7495
vn -0.0489 -0.6124 -0.7890
vn -0.0387 -0.3168 -0.9477
vn 0.2827 -0.3168 -0.9054
vn -0.2349 -0.2928 -0.9269
vn -0.4503 -0.6811 -0.5773
vn -0.8414 -0.2886 -0.4569
vn -0.5843 -0.6811 0.4413
vn -0.5843 -0.6811 0.4412
vn -0.9309 -0.2886 0.2237
vn -0.3209 0.8533 -0.4110
vn -0.4163 0.8533 0.3141
vn -0.0543 0.9094 0.4123
vn 0.0543 0.9094 -0.4123
vn -0.4163 0.8533 0.3140
vn -0.4635 0.3112 0.8297
vn -0.1223 0.3490 0.9291
vn -0.1222 0.3490 0.9291
vn -0.0543 0.9094 0.4124
vn -0.2331 0.3113 -0.9213
vn 0.0543 0.9094 -0.4124
vn 0.1223 0.3490 -0.9291
vn -0.2330 0.3113 -0.9213
vn -0.1305 -0.0000 0.9914
vn -0.2654 -0.0000 -0.9641
vn 0.1305 -0.0000 -0.9914
vn -0.1025 -0.6194 0.7783
vn -0.1025 -0.6195 0.7783
vn -0.1233 -0.3279 0.9366
vn -0.4503 -0.6812 -0.5772
vn 0.1233 -0.3280 -0.9366
vn 0.1233 -0.3279 -0.9366
vn 0.1024 -0.6196 -0.7782
vn 0.4163 0.8533 -0.3140
vn 0.9254 0.3071 -0.2220
vn 0.4634 0.3112 -0.8297
vn 0.3210 0.8533 0.4110
vn 0.2330 0.3113 0.9213
vn 0.8365 0.3071 0.4538
vn 0.9254 0.3071 -0.2219
vn 0.9254 0.3072 -0.2220
vn 0.4162 0.8533 -0.3140
vn 0.3209 0.8533 0.4110
vn 0.5059 -0.0000 -0.8626
vn 0.9677 -0.0000 -0.2523
vn 0.9676 -0.0000 -0.2524
vn 0.5058 -0.0000 -0.8626
vn 0.8695 -0.0000 0.4940
vn 0.2655 -0.0000 0.9641
vn 0.2656 -0.0000 0.9641
vn 0.9677 -0.0000 -0.2522
vn 0.9309 -0.2887 -0.2238
vn 0.5843 -0.6811 -0.4413
vn 0.4667 -0.2927 -0.8346
vn 0.2348 -0.2928 0.9269
vn 0.4502 -0.6812 0.5773
vn 0.8413 -0.2887 0.4570
vn 0.8414 -0.2886 0.4569
vn 0.4503 -0.6811 0.5773
vn 0.5843 -0.6811 -0.4412
vn 0.9309 -0.2887 -0.2237
vn 0.4163 0.8533 -0.3141
vn 0.0544 0.9094 -0.4123
vn 0.3209 0.8533 0.4109
vn 0.4635 0.3112 -0.8297
vn 0.1224 0.3490 -0.9291
vn 0.2331 0.3113 0.9213
vn -0.0542 0.9094 0.4124
vn 0.2654 -0.0000 0.9641
vn 0.1025 -0.6194 -0.7783
vn 0.1025 -0.6195 -0.7783
vn 0.4667 -0.2928 -0.8346
vn 0.4503 -0.6812 0.5772
vn 0.2349 -0.2928 0.9269
vn -0.1232 -0.3279 0.9366
vn 0.4503 -0.6812 0.5773
vn -0.3425 0.8534 -0.3929
vn -0.4325 0.8534 0.2910
vn -0.2479 0.8859 0.3922
vn 0.3425 0.8534 0.3930
vn 0.4325 0.8534 -0.2910
vn -0.4326 0.8533 0.2911
vn -0.5059 0.2916 0.8118
vn -0.3146 0.3528 0.8812
vn -0.3146 0.3529 0.8812
vn 0.2784 0.2917 0.9151
vn 0.1378 0.8859 0.4430
vn 0.4326 0.8533 -0.2910
vn 0.5059 0.2917 -0.8118
vn 0.3147 0.3529 -0.8811
vn 0.3146 0.3529 -0.8812
vn 0.2478 0.8858 -0.3922
vn -0.2784 0.2917 -0.9151
vn -0.3424 0.8534 -0.3931
vn -0.1378 0.8859 -0.4430
vn -0.1380 0.8859 -0.4429
vn -0.0759 0.3530 -0.9326
vn -0.2786 0.2917 -0.9150
vn -0.4573 -0.0000 0.8893
vn -0.2984 -0.0000 0.9545
vn 0.2113 -0.0000 0.9774
vn 0.0409 -0.0000 0.9992
vn 0.2115 -0.0000 0.9774
vn 0.4574 -0.0000 -0.8893
vn 0.2985 -0.0000 -0.9544
vn 0.2984 -0.0000 -0.9545
vn 0.4573 -0.0000 -0.8893
vn -0.2117 -0.0000 -0.9773
vn -0.0414 -0.0000 -0.9991
vn -0.0413 -0.0000 -0.9991
vn -0.0409 -0.0000 -0.9992
vn -0.2113 -0.0000 -0.9774
vn -0.4407 -0.3268 0.8360
vn -0.3836 -0.5932 0.7078
vn -0.2514 -0.6123 0.7496
vn -0.2516 -0.6123 0.7495
vn -0.2828 -0.3167 0.9054
vn -0.4408 -0.3268 0.8360
vn 0.1875 -0.5932 0.7829
vn 0.2094 -0.3268 0.9216
vn 0.0388 -0.3167 0.9477
vn 0.0490 -0.6123 0.7891
vn 0.4407 -0.3268 -0.8360
vn 0.3836 -0.5933 -0.7077
vn 0.2516 -0.6124 -0.7495
vn 0.2828 -0.3167 -0.9054
vn 0.4409 -0.3268 -0.8360
vn -0.1874 -0.5933 -0.7829
vn -0.2094 -0.3269 -0.9216
vn -0.0387 -0.3167 -0.9477
vn -0.1875 -0.5933 -0.7828
vn -0.4636 0.3112 0.8296
vn -0.9255 0.3072 0.2218
vn -0.9676 -0.0000 0.2523
vn -0.4635 0.3113 0.8297
vn -0.9309 -0.2887 0.2238
vn -0.4666 -0.2927 0.8346
vn -0.5060 -0.0000 0.8625
vn -0.9310 -0.2886 0.2235
vn -0.2827 -0.3166 0.9054
vn -0.8365 0.3072 -0.4537
vn -0.2332 0.3113 -0.9213
vn -0.2657 -0.0000 -0.9641
vn -0.8694 -0.0000 -0.4941
vn -0.8365 0.3071 -0.4539
vn -0.8694 -0.0000 -0.4940
vn -0.8695 -0.0000 -0.4939
vn -0.2350 -0.2928 -0.9268
vn -0.4666 -0.2928 0.8346
vn -0.1233 -0.3278 0.9367
vn -0.1224 0.3489 0.9291
vn -0.5058 -0.0000 0.8627
vn -0.1223 0.3489 0.9291
vn 0.4634 0.3113 -0.8297
vn 0.5060 -0.0000 -0.8626
vn 0.4636 0.3112 -0.8296
vn 0.9309 -0.2886 -0.2237
vn 0.8365 0.3071 0.4539
vn 0.8694 -0.0000 0.4940
vn 0.2350 -0.2928 0.9268
vn 0.8415 -0.2886 0.4568
vn 0.8695 -0.0000 0.4939
vn 0.4666 -0.2928 -0.8346
vn -0.4409 -0.3268 0.8360
vn -0.2828 -0.3166 0.9054
vn -0.2984 -0.0000 0.9544
vn -0.4572 -0.0000 0.8893
vn -0.4407 -0.3268 0.8361
vn -0.3147 0.3528 0.8812
vn -0.5058 0.2916 0.8119
vn 0.2784 0.2916 0.9151
vn 0.0410 -0.0000 0.9992
vn 0.0412 -0.0000 0.9992
vn 0.2116 -0.0000 0.9774
vn 0.2785 0.2916 0.9151
vn 0.0386 -0.3167 0.9477
vn 0.2093 -0.3268 0.9216
vn 0.4407 -0.3268 -0.8361
vn 0.2984 -0.0000 -0.9544
vn 0.4408 -0.3268 -0.8360
vn 0.2982 -0.0000 -0.9545
vn 0.3144 0.3529 -0.8812
vn 0.5057 0.2916 -0.8119
vn 0.5059 0.2916 -0.8118
vn -0.2787 0.2917 -0.9150
vn -0.0760 0.3529 -0.9326
vn -0.0412 -0.0000 -0.9992
vn -0.2116 -0.0000 -0.9774
vn -0.2785 0.2916 -0.9151
vn -0.0390 -0.3167 -0.9477
vn -0.2096 -0.3268 -0.9215
vn -0.2093 -0.3268 -0.9216
vn -0.2115 -0.0000 -0.9774
vn -0.3781 0.8756 0.3007
vn 0.3007 0.8756 0.3780
vn 0.3781 0.8756 -0.3007
vn -0.3007 0.8756 -0.3780
vn -0.3780 0.8756 0.3007
vn -0.9086 0.3416 0.2403
vn -0.4385 0.3417 0.8313
vn -0.4385 0.3416 0.8313
vn 0.2402 0.3416 0.9086
vn 0.3007 0.8756 0.3781
vn 0.2401 0.3416 0.9087
vn 0.8312 0.3417 0.4386
vn 0.3006 0.8756 0.3781
vn 0.9086 0.3416 -0.2403
vn 0.3008 0.8756 0.3781
vn 0.3781 0.8755 -0.3007
vn 0.9086 0.3415 -0.2403
vn 0.4385 0.3416 -0.8313
vn 0.3781 0.8756 -0.3008
vn -0.2403 0.3416 -0.9086
vn -0.3007 0.8756 -0.3781
vn -0.3004 0.8757 -0.3781
vn -0.2400 0.3416 -0.9087
vn -0.8311 0.3418 -0.4387
vn -0.8313 0.3416 -0.4385
vn -0.9086 0.3416 0.2402
vn -0.9086 -0.3416 0.2403
vn -0.4385 -0.3416 0.8313
vn -0.4385 -0.3415 0.8313
vn -0.9086 0.3415 0.2403
vn 0.2402 -0.3415 0.9087
vn 0.2402 -0.3416 0.9086
vn 0.2403 0.3416 0.9086
vn 0.2403 -0.3416 0.9086
vn 0.8313 -0.3416 0.4385
vn 0.8312 -0.3416 0.4387
vn 0.8311 0.3417 0.4387
vn 0.8312 0.3416 0.4386
vn 0.8312 -0.3416 0.4386
vn 0.9086 -0.3416 -0.2403
vn 0.4384 -0.3416 -0.8313
vn 0.4384 -0.3415 -0.8313
vn 0.4385 -0.3416 -0.8313
vn -0.2403 -0.3416 -0.9086
vn -0.2402 0.3416 -0.9086
vn -0.2402 0.3415 -0.9087
vn -0.2402 -0.3416 -0.9086
vn -0.8312 -0.3416 -0.4386
vn -0.8313 -0.3416 -0.4385
vn -0.8312 0.3416 -0.4385
vn -0.9086 -0.3415 0.2403
vn -0.9086 -0.3417 0.2403
vn -0.5097 -0.7588 0.4055
vn -0.4385 -0.3417 0.8313
vn -0.5098 -0.7588 0.4054
vn 0.4054 -0.7588 0.5098
vn 0.4054 -0.7589 0.5097
vn 0.2401 -0.3415 0.9087
vn 0.8312 -0.3417 0.4387
vn 0.4055 -0.7588 0.5097
vn 0.5098 -0.7588 -0.4055
vn 0.5096 -0.7588 -0.4055
vn 0.9086 -0.3416 -0.2402
vn 0.8312 -0.3417 0.4386
vn 0.5098 -0.7587 -0.4055
vn 0.5097 -0.7588 -0.4055
vn -0.4055 -0.7588 -0.5097
vn -0.4054 -0.7588 -0.5097
vn -0.2403 -0.3415 -0.9086
vn 0.4385 -0.3415 -0.8313
vn -0.2400 -0.3416 -0.9087
vn -0.4052 -0.7589 -0.5098
vn -0.8311 -0.3418 -0.4387
vn -0.8313 -0.3415 -0.4385
vn -0.5098 -0.7587 0.4055
vn -0.5096 -0.7588 0.4055
vn -0.9086 -0.3417 0.2402
vn -0.8313 -0.3417 -0.4385
vn -0.4822 0.8756 0.0295
vn 0.0295 0.8756 0.4821
vn 0.4822 0.8756 -0.0295
vn -0.0295 0.8756 -0.4821
vn -0.4824 0.8755 0.0295
vn -0.8822 0.3414 -0.3243
vn -0.8361 0.3415 0.4294
vn -0.4822 0.8755 0.0295
vn -0.8360 0.3416 0.4294
vn -0.3244 0.3416 0.8821
vn 0.0295 0.8756 0.4822
vn 0.0294 0.8756 0.4822
vn 0.4293 0.3417 0.8360
vn 0.0294 0.8756 0.4821
vn 0.8821 0.3416 0.3244
vn 0.8821 0.3416 0.3243
vn 0.4821 0.8756 -0.0295
vn 0.8360 0.3416 -0.4294
vn 0.8360 0.3416 -0.4295
vn 0.3243 0.3416 -0.8821
vn -0.0294 0.8756 -0.4821
vn 0.3244 0.3416 -0.8821
vn -0.4293 0.3417 -0.8360
vn -0.0294 0.8756 -0.4822
vn -0.4295 0.3416 -0.8360
vn -0.8821 0.3416 -0.3244
vn -0.8821 0.3415 -0.3243
vn -0.4822 0.8756 0.0294
vn -0.0295 0.8756 -0.4822
vn -0.8821 0.3416 -0.3243
vn -0.8821 -0.3416 -0.3243
vn -0.8360 -0.3416 0.4294
vn -0.8360 -0.3416 0.4295
vn -0.3244 -0.3415 0.8821
vn -0.3245 -0.3416 0.8821
vn -0.3245 0.3416 0.8821
vn 0.4293 -0.3416 0.8361
vn 0.4292 0.3417 0.8361
vn -0.3246 0.3416 0.8820
vn 0.4293 0.3416 0.8361
vn 0.4293 -0.3416 0.8360
vn 0.8821 -0.3416 0.3243
vn 0.4294 0.3416 0.8360
vn 0.8821 -0.3416 0.3244
vn 0.8360 -0.3415 -0.4294
vn 0.8360 -0.3415 -0.4295
vn 0.8360 -0.3416 -0.4294
vn 0.3243 -0.3416 -0.8821
vn 0.3244 -0.3416 -0.8821
vn -0.4294 -0.3416 -0.8360
vn -0.4295 -0.3416 -0.8360
vn -0.4294 0.3416 -0.8360
vn -0.8821 -0.3416 -0.3244
vn -0.8822 -0.3414 -0.3243
vn -0.6503 -0.7586 0.0398
vn -0.8360 -0.3415 0.4294
vn -0.6502 -0.7587 0.0397
vn 0.0397 -0.7588 0.6501
vn -0.3244 -0.3416 0.8821
vn 0.4293 -0.3417 0.8360
vn 0.6501 -0.7588 -0.0398
vn 0.6502 -0.7587 -0.0398
vn 0.8360 -0.3417 -0.4294
vn 0.6501 -0.7588 -0.0397
vn -0.0398 -0.7588 -0.6501
vn -0.0397 -0.7588 -0.6501
vn 0.3244 -0.3415 -0.8821
vn -0.4293 -0.3417 -0.8360
vn -0.6502 -0.7588 0.0398
vn -0.6502 -0.7588 0.0397
vn -0.8821 -0.3415 -0.3244
vn -0.4295 -0.3415 -0.8360
vn -0.0126 0.8756 0.4829
vn 0.4829 0.8756 0.0127
vn 0.0126 0.8756 -0.4829
vn -0.4829 0.8756 -0.0126
vn -0.0128 0.8756 0.4829
vn -0.0127 0.8755 0.4830
vn -0.4000 0.3415 0.8505
vn 0.3549 0.3415 0.8703
vn 0.3549 0.3416 0.8703
vn 0.8505 0.3416 0.4001
vn 0.8505 0.3416 0.4000
vn 0.4829 0.8756 0.0126
vn -0.0127 0.8756 0.4829
vn 0.4830 0.8755 0.0127
vn 0.8505 0.3415 0.4001
vn 0.8703 0.3415 -0.3548
vn 0.8703 0.3416 -0.3548
vn 0.4000 0.3416 -0.8505
vn 0.0127 0.8756 -0.4829
vn 0.4001 0.3416 -0.8504
vn -0.3548 0.3416 -0.8703
vn 0.0126 0.8755 -0.4830
vn -0.3549 0.3415 -0.8703
vn -0.8505 0.3415 -0.4000
vn -0.8505 0.3417 -0.3999
vn -0.4828 0.8756 -0.0127
vn -0.8504 0.3417 -0.4000
vn -0.8702 0.3417 0.3549
vn -0.4829 0.8756 -0.0127
vn -0.8702 0.3416 0.3550
vn -0.4000 0.3416 0.8505
vn -0.4000 -0.3416 0.8505
vn 0.3550 -0.3416 0.8702
vn 0.3549 -0.3415 0.8703
vn -0.4001 0.3415 0.8505
vn 0.3549 -0.3416 0.8703
vn 0.8505 -0.3415 0.4001
vn 0.8504 -0.3416 0.4001
vn 0.8504 0.3416 0.4001
vn 0.8505 -0.3416 0.4000
vn 0.8703 -0.3416 -0.3549
vn 0.8703 0.3417 -0.3548
vn 0.8703 -0.3416 -0.3548
vn 0.4000 -0.3415 -0.8505
vn 0.4000 -0.3416 -0.8505
vn 0.8703 0.3416 -0.3549
vn 0.4001 -0.3416 -0.8504
vn -0.3548 -0.3415 -0.8703
vn -0.3549 -0.3415 -0.8703
vn -0.3549 0.3416 -0.8703
vn -0.3549 -0.3416 -0.8702
vn -0.8505 -0.3416 -0.3999
vn -0.8505 0.3416 -0.4000
vn -0.8505 -0.3416 -0.4000
vn -0.8702 -0.3416 0.3550
vn -0.8702 -0.3416 0.3549
vn -0.8702 0.3416 0.3549
vn -0.8703 0.3416 0.3549
vn -0.4000 -0.3415 0.8505
vn -0.0171 -0.7587 0.6512
vn -0.0170 -0.7587 0.6512
vn 0.6511 -0.7588 0.0171
vn 0.6510 -0.7589 0.0171
vn 0.8504 -0.3416 0.4000
vn 0.8505 -0.3415 0.4000
vn 0.6512 -0.7587 0.0171
vn 0.8703 -0.3417 -0.3548
vn 0.6511 -0.7588 0.0172
vn 0.0170 -0.7588 -0.6511
vn 0.0171 -0.7588 -0.6511
vn 0.8703 -0.3415 -0.3549
vn 0.4001 -0.3416 -0.8505
vn -0.3548 -0.3416 -0.8703
vn -0.6511 -0.7588 -0.0171
vn -0.6510 -0.7589 -0.0170
vn -0.3549 -0.3416 -0.8703
vn -0.8504 -0.3417 -0.4000
vn -0.6510 -0.7588 -0.0170
vn -0.8702 -0.3417 0.3549
vn -0.0171 -0.7588 0.6511
vn -0.0171 -0.7588 0.6512
vn -0.4001 -0.3415 0.8505
vt 0.322220 0.536669
vt 0.294697 0.536669
vt 0.294697 0.509146
vt 0.322220 0.509146
vt 0.324383 0.536669
vt 0.322221 0.538831
vt 0.294697 0.538831
vt 0.292535 0.536669
vt 0.292535 0.509146
vt 0.294697 0.506983
vt 0.322221 0.506983
vt 0.324383 0.509146
vt 0.324383 0.538831
vt 0.324383 0.566354
vt 0.322221 0.566354
vt 0.294697 0.566354
vt 0.292535 0.566354
vt 0.292535 0.538831
vt 0.265012 0.536669
vt 0.265012 0.509146
vt 0.292535 0.506983
vt 0.292535 0.479460
vt 0.294697 0.479460
vt 0.322221 0.479460
vt 0.324383 0.479460
vt 0.324383 0.506983
vt 0.351906 0.509146
vt 0.351906 0.536669
vt 0.322220 0.568517
vt 0.294697 0.568517
vt 0.262849 0.536669
vt 0.262849 0.509146
vt 0.294697 0.477298
vt 0.322220 0.477298
vt 0.354068 0.509146
vt 0.354068 0.536669
vt 0.210119 0.712671
vt 0.210118 0.749908
vt 0.194957 0.749908
vt 0.194958 0.712671
vt 0.241309 0.749908
vt 0.244436 0.749908
vt 0.244436 0.752794
vt 0.210118 0.753070
vt 0.194957 0.753070
vt 0.194957 0.709509
vt 0.210119 0.709509
vt 0.241310 0.712672
vt 0.244436 0.709785
vt 0.244436 0.712671
vt 0.248906 0.752794
vt 0.248906 0.749908
vt 0.279243 0.749908
vt 0.279243 0.752794
vt 0.210118 0.787878
vt 0.194957 0.787878
vt 0.194957 0.757541
vt 0.210118 0.757541
vt 0.194957 0.674701
vt 0.210119 0.674701
vt 0.210119 0.705038
vt 0.194957 0.705038
vt 0.248907 0.712671
vt 0.248907 0.709785
vt 0.279243 0.709785
vt 0.279243 0.712671
vt 0.283714 0.749908
vt 0.287019 0.749908
vt 0.283714 0.752794
vt 0.210118 0.792349
vt 0.210118 0.795687
vt 0.194957 0.795687
vt 0.194957 0.792349
vt 0.194957 0.670230
vt 0.194958 0.666891
vt 0.210119 0.666891
vt 0.210119 0.670230
vt 0.283714 0.709785
vt 0.287018 0.712672
vt 0.283714 0.712671
vt 0.212352 0.749908
vt 0.212353 0.712671
vt 0.241309 0.753070
vt 0.212353 0.753070
vt 0.241310 0.709509
vt 0.212353 0.709509
vt 0.241309 0.787878
vt 0.212353 0.787878
vt 0.212353 0.757541
vt 0.241309 0.757541
vt 0.241310 0.705038
vt 0.212353 0.705038
vt 0.212353 0.674701
vt 0.241310 0.674701
vt 0.241309 0.792349
vt 0.241309 0.795687
vt 0.212352 0.795687
vt 0.212353 0.792349
vt 0.241310 0.666891
vt 0.241310 0.670230
vt 0.212353 0.670230
vt 0.212353 0.666891
vt 0.192722 0.749908
vt 0.192723 0.712671
vt 0.192723 0.753070
vt 0.192723 0.709509
vt 0.192723 0.757541
vt 0.192723 0.787878
vt 0.192723 0.705038
vt 0.192723 0.674701
vt 0.192722 0.795687
vt 0.192723 0.792349
vt 0.192723 0.670230
vt 0.192723 0.666891
s 0
f 1/1/1 2/2/2 3/3/3
f 3/3/4 4/4/5 1/1/1
f 1/1/6 5/5/7 6/6/8
f 1/1/9 6/6/10 7/7/11
f 7/7/12 2/2/2 1/1/13
f 2/2/14 7/7/15 8/8/16
f 2/2/17 8/8/18 9/9/19
f 9/9/20 3/3/4 2/2/21
f 3/3/22 9/9/23 10/10/24
f 3/3/25 10/10/26 11/11/27
f 11/11/28 4/4/29 3/3/4
f 4/4/5 11/11/30 12/12/31
f 4/4/32 12/12/33 5/5/34
f 5/5/35 1/1/1 4/4/29
f 5/13/34 13/14/36 14/15/37
f 14/15/38 6/6/39 5/13/34
f 6/6/10 14/15/37 15/16/40
f 15/16/41 7/7/12 6/6/42
f 7/7/43 15/16/41 16/17/44
f 16/17/45 8/18/46 7/7/43
f 8/8/47 16/19/45 17/20/48
f 17/20/48 9/9/20 8/8/47
f 9/21/20 17/22/48 18/23/49
f 18/23/50 10/10/51 9/21/20
f 10/10/51 18/23/49 19/24/52
f 19/24/52 11/11/53 10/10/51
f 11/11/53 19/24/54 20/25/55
f 20/25/55 12/26/31 11/11/53
f 12/12/31 20/27/55 13/28/36
f 13/28/36 5/5/56 12/12/31
f 13/14/57 21/29/58 14/15/59
f 14/15/37 21/29/60 22/30/61
f 22/30/62 15/16/40 14/15/63
f 15/16/64 22/30/65 16/17/66
f 16/19/67 22/31/68 23/32/69
f 23/32/70 17/20/71 16/19/45
f 17/22/72 23/33/73 18/23/74
f 18/23/75 23/33/76 24/34/77
f 24/34/78 19/24/79 18/23/75
f 19/24/80 24/34/78 20/25/55
f 20/27/55 24/35/77 21/36/81
f 21/36/81 13/28/82 20/27/83
f 25/37/84 26/38/85 27/39/86
f 27/39/86 28/40/87 25/37/84
f 29/41/88 30/42/89 31/43/90
f 26/38/91 32/44/92 33/45/93
f 33/45/94 27/39/95 26/38/85
f 28/40/87 34/46/96 35/47/97
f 35/47/98 25/37/99 28/40/87
f 36/48/100 37/49/101 38/50/102
f 36/48/103 38/50/104 30/42/105
f 30/42/106 29/41/107 36/48/108
f 39/51/109 40/52/110 41/53/110
f 41/53/111 42/54/112 39/51/113
f 43/55/114 44/56/115 45/57/115
f 45/57/115 46/58/116 43/55/116
f 47/59/117 48/60/118 49/61/118
f 49/61/118 50/62/119 47/59/119
f 51/63/120 52/64/121 53/65/121
f 53/65/122 54/66/120 51/63/120
f 40/52/123 51/63/120 54/66/120
f 54/66/120 41/53/124 40/52/124
f 55/67/125 56/68/126 57/69/127
f 58/70/128 59/71/129 60/72/130
f 60/72/131 61/73/132 58/70/128
f 62/74/133 63/75/134 64/76/135
f 64/76/135 65/77/136 62/74/137
f 66/78/138 67/79/139 68/80/140
f 68/80/140 67/79/139 56/68/141
f 56/68/142 55/67/143 68/80/140
f 36/48/144 29/41/145 69/81/146
f 69/81/146 70/82/147 36/48/144
f 29/41/148 31/83/149 71/84/150
f 71/84/151 69/81/152 29/41/148
f 37/85/153 36/48/144 70/82/154
f 70/82/147 72/86/155 37/85/156
f 42/87/112 73/88/157 74/89/157
f 74/89/157 39/90/112 42/87/112
f 52/91/158 75/92/159 76/93/159
f 76/93/159 53/94/122 52/91/122
f 57/95/127 56/96/142 77/97/160
f 77/97/161 78/98/162 57/95/127
f 67/99/163 66/100/138 79/101/164
f 79/101/165 80/102/166 67/99/139
f 81/41/167 82/42/168 83/43/169
f 84/48/170 85/49/171 86/50/172
f 84/48/170 86/50/172 82/42/173
f 82/42/174 81/41/175 84/48/176
f 87/51/177 88/52/178 89/53/178
f 89/53/179 90/54/180 87/51/177
f 91/63/181 92/64/182 93/65/182
f 93/65/183 94/66/181 91/63/181
f 88/52/178 91/63/181 94/66/181
f 94/66/181 89/53/184 88/52/184
f 95/67/185 96/68/186 97/69/187
f 98/78/188 99/79/189 100/80/190
f 100/80/191 99/79/192 96/68/193
f 96/68/193 95/67/194 100/80/191
f 84/48/176 81/41/195 101/81/147
f 101/81/196 102/82/146 84/48/197
f 81/41/167 83/83/198 103/84/155
f 103/84/199 101/81/154 81/41/167
f 85/85/200 84/48/176 102/82/152
f 102/82/201 104/86/150 85/85/200
f 90/87/180 105/88/159 106/89/159
f 106/89/159 87/90/180 90/87/180
f 92/91/182 107/92/157 108/93/157
f 108/93/157 93/94/202 92/91/202
f 97/95/187 96/96/186 109/97/203
f 109/97/204 110/98/165 97/95/205
f 99/99/206 98/100/207 111/101/162
f 111/101/208 112/102/161 99/99/209
f 70/82/210 69/81/211 26/38/212
f 26/38/85 25/37/84 70/82/210
f 102/103/213 101/104/214 28/40/87
f 28/40/87 27/39/86 102/103/213
f 69/81/215 71/84/216 32/44/217
f 32/44/218 26/38/85 69/81/211
f 104/105/219 102/103/213 27/39/220
f 27/39/95 33/45/94 104/105/219
f 101/104/221 103/106/222 34/46/223
f 34/46/224 28/40/225 101/104/221
f 72/86/226 70/82/227 25/37/228
f 25/37/229 35/47/230 72/86/231
f 74/89/232 73/88/232 43/55/233
f 43/55/233 46/58/233 74/89/232
f 107/107/234 45/57/235 44/56/235
f 44/56/115 108/108/236 107/107/236
f 106/109/237 105/110/237 47/59/238
f 47/59/239 50/62/239 106/109/240
f 75/92/241 49/61/242 48/60/243
f 48/60/244 76/93/245 75/92/245
f 78/98/246 77/97/247 59/71/248
f 59/71/249 58/70/250 78/98/251
f 112/111/252 111/112/253 61/73/254
f 61/73/132 60/72/255 112/111/252
f 110/113/256 109/114/257 63/75/134
f 63/75/258 62/74/259 110/113/260
f 80/102/261 79/101/262 65/77/136
f 65/77/263 64/76/135 80/102/264
f 31/43/265 30/42/266 40/52/110
f 40/52/267 39/51/112 31/43/268
f 55/67/269 57/69/270 42/54/112
f 42/54/271 41/53/110 55/67/272
f 58/70/128 61/73/254 44/56/115
f 44/56/115 43/55/116 58/70/273
f 33/45/94 32/44/92 46/58/116
f 46/58/116 45/57/115 33/45/93
f 62/74/133 65/77/263 48/60/118
f 48/60/118 47/59/119 62/74/133
f 35/47/97 34/46/224 50/62/119
f 50/62/119 49/61/118 35/47/97
f 38/50/274 37/49/275 52/64/276
f 52/64/122 51/63/277 38/50/278
f 66/78/138 68/80/140 54/66/279
f 54/66/280 53/65/276 66/78/281
f 30/42/89 38/50/278 51/63/120
f 51/63/120 40/52/124 30/42/89
f 68/80/140 55/67/143 41/53/124
f 41/53/123 54/66/120 68/80/140
f 57/95/282 78/98/283 73/88/157
f 73/88/157 42/87/112 57/95/270
f 71/84/284 31/83/149 39/90/113
f 39/90/285 74/89/157 71/84/286
f 37/85/156 72/86/155 75/92/159
f 75/92/159 52/91/158 37/85/156
f 79/101/165 66/100/138 53/94/158
f 53/94/158 76/93/159 79/101/165
f 83/43/287 82/42/168 88/52/179
f 88/52/184 87/51/288 83/43/289
f 95/67/290 97/69/187 90/54/177
f 90/54/180 89/53/179 95/67/185
f 86/50/291 85/49/171 92/64/182
f 92/64/182 91/63/292 86/50/291
f 98/78/293 100/80/294 94/66/295
f 94/66/292 93/65/182 98/78/207
f 82/42/173 86/50/172 91/63/181
f 91/63/181 88/52/178 82/42/173
f 100/80/191 95/67/290 89/53/178
f 89/53/184 94/66/181 100/80/191
f 97/95/296 110/98/165 105/88/159
f 105/88/159 90/87/177 97/95/187
f 103/84/155 83/83/198 87/90/180
f 87/90/177 106/89/159 103/84/155
f 85/85/200 104/86/286 107/92/157
f 107/92/157 92/91/202 85/85/171
f 111/101/162 98/100/207 93/94/202
f 93/94/182 108/93/157 111/101/162
f 78/98/297 58/70/298 43/55/299
f 43/55/116 73/88/300 78/98/301
f 46/58/299 32/44/302 71/84/216
f 71/84/303 74/89/232 46/58/116
f 104/105/304 33/45/94 45/57/305
f 45/57/306 107/107/307 104/105/308
f 44/56/305 61/73/309 111/112/310
f 111/112/253 108/108/236 44/56/115
f 110/113/311 62/74/133 47/59/119
f 47/59/312 105/110/237 110/113/313
f 50/62/314 34/46/315 103/106/316
f 103/106/317 106/109/237 50/62/238
f 72/86/318 35/47/319 49/61/242
f 49/61/320 75/92/321 72/86/322
f 48/60/242 65/77/323 79/101/324
f 79/101/325 76/93/326 48/60/118
f 113/1/327 114/2/328 115/3/329
f 115/3/329 116/4/330 113/1/327
f 113/1/331 117/5/332 118/6/333
f 113/1/327 118/6/334 119/7/335
f 119/7/335 114/2/328 113/1/327
f 114/2/336 119/7/337 120/8/338
f 114/2/339 120/8/338 121/9/340
f 121/9/340 115/3/329 114/2/341
f 115/3/342 121/9/343 122/10/344
f 115/3/345 122/10/344 123/11/346
f 123/11/346 116/4/347 115/3/345
f 116/4/348 123/11/349 124/12/350
f 116/4/347 124/12/351 117/5/352
f 117/5/332 113/1/331 116/4/330
f 117/13/332 125/14/353 126/15/354
f 126/15/355 118/6/334 117/13/356
f 118/6/334 126/15/354 127/16/357
f 127/16/358 119/7/335 118/6/334
f 119/7/359 127/16/360 128/17/361
f 128/17/362 120/18/363 119/7/337
f 120/8/364 128/19/365 129/20/366
f 129/20/366 121/9/340 120/8/364
f 121/21/340 129/22/366 130/23/367
f 130/23/368 122/10/344 121/21/340
f 122/10/344 130/23/369 131/24/370
f 131/24/370 123/11/371 122/10/344
f 123/11/372 131/24/373 132/25/374
f 132/25/375 124/26/376 123/11/371
f 124/12/351 132/27/375 125/28/377
f 125/28/353 117/5/352 124/12/351
f 125/14/378 133/29/379 126/15/380
f 126/15/354 133/29/381 134/30/382
f 134/30/383 127/16/358 126/15/354
f 127/16/384 134/30/382 128/17/385
f 128/19/365 134/31/386 135/32/387
f 135/32/388 129/20/389 128/19/390
f 129/22/366 135/33/391 130/23/369
f 130/23/369 135/33/392 136/34/393
f 136/34/394 131/24/395 130/23/396
f 131/24/397 136/34/398 132/25/399
f 132/27/400 136/35/393 133/36/401
f 133/36/402 125/28/403 132/27/404
f 137/1/405 138/2/406 139/3/407
f 139/3/407 140/4/408 137/1/405
f 137/1/409 141/5/410 142/6/411
f 137/1/412 142/6/413 143/7/414
f 143/7/414 138/2/415 137/1/405
f 138/2/416 143/7/414 144/8/417
f 138/2/418 144/8/417 145/9/419
f 145/9/420 139/3/421 138/2/418
f 139/3/407 145/9/420 146/10/422
f 139/3/407 146/10/423 147/11/424
f 147/11/424 140/4/408 139/3/407
f 140/4/425 147/11/426 148/12/427
f 140/4/428 148/12/429 141/5/430
f 141/5/431 137/1/432 140/4/433
f 141/13/434 149/14/435 150/15/436
f 150/15/437 142/6/413 141/13/431
f 142/6/411 150/15/436 151/16/438
f 151/16/439 143/7/440 142/6/413
f 143/7/440 151/16/439 152/17/441
f 152/17/441 144/18/442 143/7/443
f 144/8/444 152/19/445 153/20/446
f 153/20/446 145/9/419 144/8/447
f 145/21/419 153/22/448 154/23/449
f 154/23/450 146/10/422 145/21/420
f 146/10/422 154/23/451 155/24/452
f 155/24/452 147/11/426 146/10/422
f 147/11/424 155/24/453 156/25/454
f 156/25/455 148/26/429 147/11/424
f 148/12/456 156/27/454 149/28/457
f 149/28/457 141/5/430 148/12/456
f 149/14/458 157/29/459 150/15/460
f 150/15/436 157/29/461 158/30/462
f 158/30/462 151/16/438 150/15/460
f 151/16/463 158/30/462 152/17/445
f 152/19/464 158/31/462 159/32/465
f 159/32/465 153/20/448 152/19/441
f 153/22/448 159/33/466 154/23/451
f 154/23/467 159/33/468 160/34/469
f 160/34/470 155/24/471 154/23/449
f 155/24/453 160/34/470 156/25/472
f 156/27/455 160/35/469 157/36/473
f 157/36/474 149/28/475 156/27/476
f 161/1/477 162/2/478 163/3/479
f 163/3/479 164/4/480 161/1/481
f 161/1/482 165/5/483 166/6/484
f 161/1/482 166/6/485 167/7/486
f 167/7/487 162/2/488 161/1/489
f 162/2/490 167/7/491 168/8/492
f 162/2/478 168/8/493 169/9/494
f 169/9/494 163/3/495 162/2/478
f 163/3/495 169/9/496 170/10/497
f 163/3/498 170/10/499 171/11/500
f 171/11/501 164/4/480 163/3/479
f 164/4/502 171/11/503 172/12/504
f 164/4/505 172/12/506 165/5/507
f 165/5/507 161/1/489 164/4/480
f 165/13/507 173/14/508 174/15/509
f 174/15/510 166/6/485 165/13/511
f 166/6/485 174/15/512 175/16/513
f 175/16/514 167/7/515 166/6/485
f 167/7/486 175/16/516 176/17/517
f 176/17/517 168/18/518 167/7/486
f 168/8/493 176/19/519 177/20/520
f 177/20/521 169/9/494 168/8/522
f 169/21/496 177/22/523 178/23/524
f 178/23/525 170/10/526 169/21/494
f 170/10/526 178/23/527 179/24/528
f 179/24/528 171/11/529 170/10/526
f 171/11/529 179/24/530 180/25/531
f 180/25/532 172/26/533 171/11/529
f 172/12/534 180/27/531 173/28/535
f 173/28/508 165/5/507 172/12/534
f 173/14/508 181/29/536 174/15/510
f 174/15/512 181/29/537 182/30/538
f 182/30/539 175/16/540 174/15/512
f 175/16/541 182/30/542 176/17/517
f 176/19/543 182/31/544 183/32/545
f 183/32/546 177/20/520 176/19/547
f 177/22/548 183/33/546 178/23/549
f 178/23/525 183/33/545 184/34/550
f 184/34/551 179/24/530 178/23/552
f 179/24/553 184/34/554 180/25/555
f 180/27/532 184/35/550 181/36/556
f 181/36/557 173/28/558 180/27/531
