# Blender 5.2.0 LTS
# www.blender.org
o hangar_midorian_x5_WELDED
v -26.061367 -9.218087 -81.094284
v -25.001787 -9.218087 -81.300240
v -25.207748 -9.218087 -82.359825
v -26.267328 -9.218087 -82.153854
v -26.120224 -9.278054 -81.082840
v -26.049927 -9.278054 -81.035416
v -24.990347 -9.278054 -81.241379
v -24.942907 -9.278054 -81.311684
v -25.148878 -9.278054 -82.371262
v -25.219189 -9.278054 -82.418686
v -26.278778 -9.278054 -82.212723
v -26.326195 -9.278054 -82.142418
v -26.120224 -10.357466 -81.082840
v -26.049927 -10.357466 -81.035416
v -24.990347 -10.357466 -81.241379
v -24.942907 -10.357466 -81.311684
v -25.148878 -10.357466 -82.371262
v -25.219189 -10.357466 -82.418686
v -26.278778 -10.357466 -82.212723
v -26.326195 -10.357466 -82.142418
v -26.061367 -10.417433 -81.094284
v -25.001787 -10.417433 -81.300240
v -25.207748 -10.417433 -82.359825
v -26.267328 -10.417433 -82.153854
v -24.989809 -8.635860 -77.969879
v -24.471039 -8.635860 -79.395309
v -25.029785 -8.635860 -79.598671
v -25.548550 -8.635860 -78.173248
v -24.442217 -8.733308 -79.474472
v -25.000952 -8.733308 -79.677834
v -26.188940 -8.664572 -79.990494
v -26.161167 -8.758388 -80.066704
v -26.263090 -8.758388 -80.017456
v -26.762552 -8.758388 -78.645187
v -26.688368 -8.664572 -78.618172
v -26.716152 -8.758388 -78.541962
v -25.577393 -8.733308 -78.094070
v -25.018644 -8.733308 -77.890709
v -24.442217 -10.120830 -79.474472
v -25.000952 -10.120830 -79.677834
v -25.000952 -8.911528 -79.677834
v -24.442217 -8.911528 -79.474472
v -26.263090 -8.933727 -80.017456
v -26.161167 -8.933727 -80.066704
v -26.161167 -10.123485 -80.066704
v -26.263090 -10.123485 -80.017456
v -26.762552 -8.933727 -78.645187
v -26.762552 -10.123485 -78.645187
v -26.716152 -8.933727 -78.541962
v -26.716152 -10.123485 -78.541962
v -25.577393 -10.120830 -78.094070
v -25.018646 -10.120830 -77.890709
v -25.018644 -8.911528 -77.890709
v -25.577393 -8.911528 -78.094070
v -24.442217 -10.299050 -79.474472
v -24.471039 -10.405815 -79.395309
v -25.029785 -10.405815 -79.598671
v -25.000952 -10.299050 -79.677834
v -26.161167 -10.298825 -80.066704
v -26.188940 -10.401612 -79.990494
v -26.263090 -10.298825 -80.017456
v -26.688368 -10.401612 -78.618172
v -26.762552 -10.298825 -78.645187
v -26.716152 -10.298825 -78.541962
v -25.577393 -10.299050 -78.094070
v -25.548550 -10.405815 -78.173248
v -24.989809 -10.405815 -77.969894
v -25.018646 -10.299050 -77.890709
v -25.621229 -8.664572 -78.229782
v -25.121794 -8.664572 -79.602081
v -25.094032 -8.758388 -79.678299
v -25.648998 -8.758388 -78.153549
v -25.094032 -8.933727 -79.678299
v -25.094032 -10.123485 -79.678299
v -25.648998 -10.123485 -78.153549
v -25.648998 -8.933727 -78.153549
v -25.094032 -10.298825 -79.678299
v -25.121794 -10.401612 -79.602081
v -25.621229 -10.401612 -78.229782
v -25.648998 -10.298825 -78.153549
v -23.830654 -8.664572 -77.578049
v -23.858427 -8.758388 -77.501831
v -23.756506 -8.758388 -77.551079
v -23.257040 -8.758388 -78.923347
v -23.331224 -8.664572 -78.950363
v -23.303442 -8.758388 -79.026581
v -23.756506 -8.933727 -77.551079
v -23.858427 -8.933727 -77.501831
v -23.858427 -10.123485 -77.501831
v -23.756506 -10.123485 -77.551079
v -23.257040 -8.933727 -78.923347
v -23.257040 -10.123485 -78.923347
v -23.303442 -8.933727 -79.026581
v -23.303442 -10.123485 -79.026581
v -23.858427 -10.298825 -77.501831
v -23.830654 -10.401612 -77.578049
v -23.756506 -10.298825 -77.551079
v -23.331224 -10.401612 -78.950363
v -23.257040 -10.298825 -78.923347
v -23.303442 -10.298825 -79.026581
v -24.398367 -8.664572 -79.338760
v -24.897800 -8.664572 -77.966461
v -24.925562 -8.758388 -77.890236
v -24.370596 -8.758388 -79.414986
v -24.925562 -8.933727 -77.890236
v -24.925562 -10.123485 -77.890236
v -24.370596 -10.123485 -79.414986
v -24.370596 -8.933727 -79.414986
v -24.925562 -10.298825 -77.890236
v -24.897802 -10.401612 -77.966446
v -24.398367 -10.401612 -79.338760
v -24.370596 -10.298825 -79.414986
v -24.398361 -8.664572 -79.338776
v -24.370609 -8.758388 -79.414993
v -24.370609 -8.933727 -79.414993
v -24.370609 -10.123485 -79.414993
v -24.925562 -8.933727 -77.890236
v -24.925564 -10.123485 -77.890236
v -24.370609 -10.298825 -79.414993
v -24.398361 -10.401612 -79.338776
v -24.897800 -10.401612 -77.966476
v -24.925564 -10.298825 -77.890236
v -26.806767 -8.635861 -75.787903
v -25.289890 -8.635861 -75.787941
v -25.289902 -8.635860 -76.382545
v -26.806782 -8.635860 -76.382500
v -25.318144 -8.664573 -74.564682
v -25.318153 -8.758389 -74.485733
v -25.237036 -8.758389 -74.564682
v -25.205639 -8.733309 -75.787926
v -25.205639 -8.733308 -76.382523
v -26.891043 -8.733308 -76.382515
v -26.891043 -8.733309 -75.787918
v -26.778500 -8.664573 -74.564651
v -26.859642 -8.758389 -74.564651
v -26.778515 -8.758389 -74.485733
v -25.237036 -8.933728 -74.564682
v -25.318153 -8.933728 -74.485733
v -25.318153 -10.123486 -74.485733
v -25.237036 -10.123486 -74.564682
v -25.205639 -10.123079 -75.787926
v -25.205639 -10.123078 -76.382523
v -25.205639 -8.911818 -76.382523
v -25.205639 -8.911819 -75.787926
v -26.891043 -10.123078 -76.382515
v -26.891043 -10.123079 -75.787918
v -26.891043 -8.911819 -75.787918
v -26.891043 -8.911818 -76.382515
v -26.778515 -8.933728 -74.485733
v -26.859642 -8.933728 -74.564651
v -26.859642 -10.123486 -74.564651
v -26.778515 -10.123486 -74.485733
v -25.318153 -10.298826 -74.485733
v -25.318144 -10.401613 -74.564682
v -25.237036 -10.298826 -74.564682
v -25.205639 -10.301589 -75.787926
v -25.289890 -10.408354 -75.787941
v -25.289902 -10.408353 -76.382545
v -25.205639 -10.301588 -76.382523
v -26.891043 -10.301588 -76.382515
v -26.806782 -10.408353 -76.382500
v -26.806767 -10.408354 -75.787903
v -26.891043 -10.301589 -75.787918
v -26.859642 -10.298826 -74.564651
v -26.778500 -10.401613 -74.564651
v -26.778515 -10.298826 -74.485733
v -25.318146 -8.664573 -75.700310
v -26.778507 -8.664573 -75.700279
v -25.237036 -8.758389 -75.700302
v -26.859642 -8.758389 -75.700294
v -25.237036 -10.123486 -75.700302
v -25.237036 -8.933728 -75.700302
v -26.859642 -8.933728 -75.700294
v -26.859642 -10.123486 -75.700294
v -25.318146 -10.401613 -75.700310
v -25.237036 -10.298826 -75.700302
v -26.859642 -10.298826 -75.700294
v -26.778507 -10.401613 -75.700279
v -26.778540 -8.664572 -77.605759
v -26.778530 -8.758388 -77.684708
v -26.859646 -8.758388 -77.605759
v -25.318184 -8.664572 -77.605789
v -25.237038 -8.758388 -77.605789
v -25.318169 -8.758388 -77.684708
v -26.859646 -8.933727 -77.605759
v -26.778530 -8.933727 -77.684708
v -26.778530 -10.123485 -77.684708
v -26.859646 -10.123485 -77.605759
v -25.318169 -8.933727 -77.684708
v -25.237038 -8.933727 -77.605789
v -25.237038 -10.123485 -77.605789
v -25.318169 -10.123485 -77.684708
v -26.778530 -10.298825 -77.684708
v -26.778540 -10.401612 -77.605759
v -26.859646 -10.298825 -77.605759
v -25.237038 -10.298825 -77.605789
v -25.318184 -10.401612 -77.605789
v -25.318169 -10.298825 -77.684708
v -26.778524 -8.664572 -76.470131
v -25.318161 -8.664572 -76.470169
v -26.859642 -8.758388 -76.470146
v -25.237036 -8.758388 -76.470154
v -26.859642 -10.123485 -76.470146
v -26.859642 -8.933727 -76.470146
v -25.237036 -8.933727 -76.470154
v -25.237036 -10.123485 -76.470154
v -26.778524 -10.401612 -76.470131
v -26.859642 -10.298825 -76.470146
v -25.237036 -10.298825 -76.470154
v -25.318161 -10.401612 -76.470169
v -57.725239 -7.468087 -49.461670
v -57.718407 -7.468087 -50.541054
v -58.797802 -7.468087 -50.547890
v -58.804626 -7.468087 -49.468498
v -57.725624 -7.528054 -49.401707
v -57.665272 -7.528054 -49.461288
v -57.658447 -7.528054 -50.540672
v -57.718025 -7.528054 -50.601032
v -58.797409 -7.528054 -50.607861
v -58.857761 -7.528054 -50.548271
v -58.864597 -7.528054 -49.468872
v -58.805008 -7.528054 -49.408535
v -57.725624 -8.607466 -49.401707
v -57.665272 -8.607466 -49.461288
v -57.658447 -8.607466 -50.540672
v -57.718025 -8.607466 -50.601032
v -58.797409 -8.607466 -50.607861
v -58.857761 -8.607466 -50.548271
v -58.864597 -8.607466 -49.468872
v -58.805008 -8.607466 -49.408535
v -57.725239 -8.667434 -49.461670
v -57.718407 -8.667434 -50.541054
v -58.797802 -8.667434 -50.547890
v -58.804626 -8.667434 -49.468498
v -57.397881 -8.635861 -50.056656
v -58.693153 -8.635861 -50.846088
v -59.002617 -8.635861 -50.338364
v -57.707344 -8.635861 -49.548935
v -58.765087 -8.733309 -50.889950
v -59.074551 -8.733309 -50.382225
v -59.615135 -8.664573 -49.279129
v -59.684383 -8.758389 -49.321365
v -59.656181 -8.758389 -49.211742
v -58.409218 -8.758389 -48.451702
v -58.368114 -8.664573 -48.519112
v -58.298866 -8.758389 -48.476860
v -57.635399 -8.733309 -49.505054
v -57.325935 -8.733309 -50.012783
v -58.765087 -10.120831 -50.889950
v -59.074551 -10.120831 -50.382225
v -59.074551 -8.911529 -50.382225
v -58.765087 -8.911529 -50.889950
v -59.656181 -8.933728 -49.211742
v -59.684383 -8.933728 -49.321365
v -59.684383 -10.123486 -49.321365
v -59.656181 -10.123486 -49.211742
v -58.409218 -8.933728 -48.451702
v -58.409218 -10.123486 -48.451702
v -58.298866 -8.933728 -48.476860
v -58.298866 -10.123486 -48.476860
v -57.635399 -10.120831 -49.505054
v -57.325935 -10.120831 -50.012783
v -57.325935 -8.911529 -50.012783
v -57.635399 -8.911529 -49.505054
v -58.765087 -10.299050 -50.889950
v -58.693153 -10.405816 -50.846088
v -59.002617 -10.405816 -50.338364
v -59.074551 -10.299050 -50.382225
v -59.684383 -10.298826 -49.321365
v -59.615135 -10.401613 -49.279129
v -59.656181 -10.298826 -49.211742
v -58.368114 -10.401613 -48.519112
v -58.409218 -10.298826 -48.451702
v -58.298866 -10.298826 -48.476860
v -57.635399 -10.299050 -49.505054
v -57.707344 -10.405816 -49.548935
v -57.397888 -10.405816 -50.056660
v -57.325935 -10.299050 -50.012783
v -57.777081 -8.664573 -49.488811
v -59.024090 -8.664573 -50.248833
v -59.093342 -8.758389 -50.291065
v -57.707817 -8.758389 -49.446571
v -59.093342 -8.933728 -50.291065
v -59.093342 -10.123486 -50.291065
v -57.707817 -10.123486 -49.446571
v -57.707817 -8.933728 -49.446571
v -59.093342 -10.298826 -50.291065
v -59.024090 -10.401613 -50.248833
v -57.777081 -10.401613 -49.488811
v -57.707817 -10.298826 -49.446571
v -56.785347 -8.664573 -51.115887
v -56.716099 -8.758389 -51.073643
v -56.744297 -8.758389 -51.183270
v -57.991264 -8.758389 -51.943310
v -58.032368 -8.664573 -51.875900
v -58.101616 -8.758389 -51.918152
v -56.744297 -8.933728 -51.183270
v -56.716099 -8.933728 -51.073643
v -56.716099 -10.123486 -51.073643
v -56.744297 -10.123486 -51.183270
v -57.991264 -8.933728 -51.943310
v -57.991264 -10.123486 -51.943310
v -58.101616 -8.933728 -51.918152
v -58.101616 -10.123486 -51.918152
v -56.716099 -10.298826 -51.073643
v -56.785347 -10.401613 -51.115887
v -56.744297 -10.298826 -51.183270
v -58.032368 -10.401613 -51.875900
v -57.991264 -10.298826 -51.943310
v -58.101616 -10.298826 -51.918152
v -58.623398 -8.664573 -50.906200
v -57.376400 -8.664573 -50.146187
v -57.307137 -8.758389 -50.103951
v -58.692665 -8.758389 -50.948444
v -57.307137 -8.933728 -50.103951
v -57.307137 -10.123486 -50.103951
v -58.692665 -10.123486 -50.948444
v -58.692665 -8.933728 -50.948444
v -57.307137 -10.298826 -50.103954
v -57.376385 -10.401613 -50.146179
v -58.623398 -10.401613 -50.906200
v -58.692665 -10.298826 -50.948444
v -58.623417 -8.664573 -50.906208
v -58.692669 -8.758389 -50.948433
v -58.692669 -8.933728 -50.948433
v -58.692669 -10.123486 -50.948433
v -57.307137 -8.933728 -50.103951
v -57.307137 -10.123486 -50.103943
v -58.692669 -10.298826 -50.948433
v -58.623417 -10.401613 -50.906208
v -57.376411 -10.401613 -50.146191
v -57.307137 -10.298826 -50.103943
v -55.616646 -8.635861 -47.845413
v -55.317825 -8.635861 -49.332569
v -55.900776 -8.635861 -49.449707
v -56.199589 -8.635861 -47.962547
v -54.124111 -8.664573 -49.063862
v -54.046711 -8.758389 -49.048298
v -54.108128 -8.758389 -49.143379
v -55.301220 -8.733309 -49.415165
v -55.884159 -8.733309 -49.532314
v -56.216209 -8.733309 -47.879940
v -55.633266 -8.733309 -47.762791
v -54.411800 -8.664573 -47.632122
v -54.427788 -8.758389 -47.552567
v -54.334431 -8.758389 -47.616562
v -54.108128 -8.933729 -49.143379
v -54.046711 -8.933729 -49.048298
v -54.046711 -10.123486 -49.048298
v -54.108128 -10.123486 -49.143379
v -55.301220 -10.123079 -49.415165
v -55.884159 -10.123079 -49.532314
v -55.884159 -8.911818 -49.532314
v -55.301220 -8.911818 -49.415165
v -56.216209 -10.123079 -47.879940
v -55.633266 -10.123079 -47.762791
v -55.633266 -8.911818 -47.762791
v -56.216209 -8.911818 -47.879940
v -54.334431 -8.933728 -47.616562
v -54.427788 -8.933728 -47.552567
v -54.427788 -10.123486 -47.552567
v -54.334431 -10.123486 -47.616562
v -54.046711 -10.298826 -49.048298
v -54.124111 -10.401613 -49.063862
v -54.108128 -10.298826 -49.143379
v -55.301220 -10.301588 -49.415165
v -55.317825 -10.408354 -49.332569
v -55.900776 -10.408354 -49.449707
v -55.884159 -10.301588 -49.532314
v -56.216209 -10.301588 -47.879940
v -56.199589 -10.408354 -47.962547
v -55.616646 -10.408354 -47.845413
v -55.633266 -10.301588 -47.762791
v -54.427788 -10.298826 -47.552567
v -54.411800 -10.401613 -47.632122
v -54.334431 -10.298826 -47.616562
v -55.237484 -8.664573 -49.287601
v -55.525166 -8.664573 -47.855858
v -55.221493 -8.758389 -49.367119
v -55.541164 -8.758389 -47.776314
v -55.221493 -10.123486 -49.367119
v -55.221493 -8.933728 -49.367119
v -55.541164 -8.933728 -47.776314
v -55.541164 -10.123486 -47.776314
v -55.237484 -10.401613 -49.287601
v -55.221493 -10.298826 -49.367119
v -55.541164 -10.298826 -47.776314
v -55.525166 -10.401613 -47.855858
v -57.393311 -8.664573 -48.231243
v -57.470703 -8.758389 -48.246807
v -57.409286 -8.758389 -48.151726
v -57.105618 -8.664573 -49.662983
v -57.089634 -8.758389 -49.742538
v -57.182987 -8.758389 -49.678543
v -57.409286 -8.933728 -48.151726
v -57.470703 -8.933728 -48.246807
v -57.470703 -10.123486 -48.246807
v -57.409286 -10.123486 -48.151726
v -57.182987 -8.933728 -49.678543
v -57.089634 -8.933728 -49.742538
v -57.089634 -10.123486 -49.742538
v -57.182987 -10.123486 -49.678543
v -57.470703 -10.298826 -48.246807
v -57.393311 -10.401613 -48.231243
v -57.409286 -10.298826 -48.151726
v -57.089634 -10.298826 -49.742538
v -57.105618 -10.401613 -49.662983
v -57.182987 -10.298826 -49.678543
v -56.279934 -8.664573 -48.007519
v -55.992256 -8.664573 -49.439266
v -56.295937 -8.758389 -47.927986
v -55.976254 -8.758389 -49.518791
v -56.295937 -10.123486 -47.927986
v -56.295937 -8.933728 -47.927986
v -55.976254 -8.933728 -49.518791
v -55.976254 -10.123486 -49.518791
v -56.279934 -10.401613 -48.007519
v -56.295937 -10.298826 -47.927986
v -55.976254 -10.298826 -49.518791
v -55.992256 -10.401613 -49.439266
vn -0.2701 0.8756 0.4005
vn 0.4004 0.8756 0.2701
vn 0.2701 0.8756 -0.4005
vn -0.4005 0.8756 -0.2701
vn -0.2702 0.8756 0.4005
vn -0.7944 0.3415 0.5023
vn -0.1684 0.3416 0.9246
vn -0.1683 0.3416 0.9247
vn 0.5023 0.3416 0.7944
vn 0.5023 0.3416 0.7943
vn 0.4005 0.8756 0.2701
vn 0.5024 0.3416 0.7943
vn 0.9247 0.3416 0.1683
vn 0.4005 0.8756 0.2702
vn 0.9246 0.3416 0.1683
vn 0.7943 0.3416 -0.5024
vn 0.7943 0.3417 -0.5024
vn 0.4003 0.8756 0.2701
vn 0.1682 0.3416 -0.9247
vn 0.2702 0.8756 -0.4005
vn 0.1683 0.3416 -0.9247
vn -0.5024 0.3416 -0.7943
vn -0.4004 0.8756 -0.2702
vn -0.5023 0.3416 -0.7943
vn -0.9246 0.3417 -0.1684
vn -0.9247 0.3416 -0.1682
vn -0.7944 0.3415 0.5024
vn -0.7943 0.3416 0.5024
vn -0.7943 -0.3416 0.5024
vn -0.1683 -0.3416 0.9247
vn -0.1684 -0.3415 0.9247
vn -0.1683 0.3415 0.9247
vn 0.5024 -0.3416 0.7943
vn 0.5023 -0.3416 0.7943
vn -0.1682 0.3416 0.9247
vn 0.9247 -0.3416 0.1683
vn 0.9246 -0.3416 0.1684
vn 0.9246 0.3417 0.1684
vn 0.5022 0.3416 0.7944
vn 0.9246 0.3416 0.1684
vn 0.9246 -0.3416 0.1683
vn 0.7943 -0.3416 -0.5024
vn 0.7943 0.3416 -0.5023
vn 0.9247 0.3415 0.1685
vn 0.7944 0.3416 -0.5022
vn 0.7944 -0.3416 -0.5022
vn 0.1684 -0.3415 -0.9247
vn 0.1682 -0.3415 -0.9247
vn 0.7943 0.3415 -0.5024
vn 0.1682 -0.3416 -0.9247
vn -0.5024 -0.3416 -0.7943
vn -0.5023 0.3416 -0.7944
vn -0.5023 -0.3416 -0.7943
vn -0.9247 -0.3416 -0.1683
vn -0.9247 -0.3416 -0.1682
vn -0.7943 0.3416 0.5023
vn -0.7944 -0.3416 0.5023
vn -0.3644 -0.7587 0.5400
vn -0.1684 -0.3416 0.9246
vn -0.1683 -0.3416 0.9246
vn -0.3642 -0.7588 0.5399
vn 0.5399 -0.7588 0.3643
vn 0.5399 -0.7588 0.3642
vn 0.5023 -0.3416 0.7944
vn -0.1683 -0.3415 0.9247
vn 0.5400 -0.7588 0.3642
vn 0.9246 -0.3417 0.1684
vn 0.3642 -0.7588 -0.5400
vn 0.7943 -0.3416 -0.5023
vn 0.9246 -0.3417 0.1683
vn 0.7942 -0.3416 -0.5024
vn 0.1683 -0.3416 -0.9246
vn -0.5400 -0.7588 -0.3642
vn -0.5399 -0.7588 -0.3642
vn -0.5024 -0.3415 -0.7943
vn -0.5399 -0.7588 -0.3643
vn -0.9246 -0.3417 -0.1683
vn -0.3643 -0.7587 0.5400
vn -0.3642 -0.7588 0.5400
vn -0.7944 -0.3415 0.5023
vn 0.0387 0.8859 0.4623
vn 0.3269 0.8859 -0.3293
vn -0.0387 0.8859 -0.4623
vn -0.3268 0.8859 0.3292
vn 0.3268 0.8859 -0.3293
vn 0.4978 0.3529 -0.7922
vn 0.1279 0.3529 -0.9269
vn -0.0387 0.8858 -0.4624
vn 0.3269 0.8858 -0.3293
vn -0.2244 0.8532 -0.4708
vn -0.0281 0.3112 -0.9499
vn -0.7185 0.3070 -0.6241
vn -0.2243 0.8532 -0.4708
vn -0.7184 0.3071 -0.6241
vn -0.9515 0.3072 0.0162
vn -0.9515 0.3072 0.0163
vn -0.4744 0.8533 0.2165
vn -0.4743 0.8533 0.2165
vn -0.6322 0.3113 0.7096
vn -0.3268 0.8859 0.3293
vn -0.4978 0.3530 0.7922
vn -0.1279 0.3529 0.9269
vn 0.0387 0.8858 0.4624
vn 0.4978 -0.0000 -0.8673
vn 0.1761 -0.0000 -0.9844
vn -0.7419 -0.0000 -0.6706
vn -0.0505 -0.0000 -0.9987
vn -0.0504 -0.0000 -0.9987
vn -0.7418 -0.0000 -0.6706
vn -0.9993 -0.0000 0.0366
vn -0.7419 -0.0000 -0.6705
vn -0.6807 -0.0000 0.7325
vn -0.9993 -0.0000 0.0367
vn -0.6807 -0.0000 0.7326
vn -0.4978 -0.0000 0.8673
vn -0.1761 -0.0000 0.9844
vn -0.1761 -0.0001 0.9844
vn 0.4691 -0.3147 -0.8252
vn 0.4008 -0.6130 -0.6808
vn 0.1305 -0.6130 -0.7792
vn 0.1710 -0.3147 -0.9337
vn -0.0287 -0.2927 -0.9558
vn -0.3147 -0.6810 -0.6612
vn -0.7226 -0.2885 -0.6282
vn -0.7225 -0.2885 -0.6283
vn -0.6659 -0.6812 0.3043
vn -0.9573 -0.2887 0.0168
vn -0.9573 -0.2888 0.0168
vn -0.6363 -0.2928 0.7137
vn -0.4691 -0.3147 0.8252
vn -0.4008 -0.6131 0.6808
vn -0.1305 -0.6131 0.7791
vn -0.1306 -0.6131 0.7791
vn -0.1710 -0.3147 0.9336
vn -0.1422 0.9094 0.3907
vn 0.1422 0.9094 -0.3908
vn -0.1423 0.9094 0.3907
vn 0.1422 0.9094 -0.3909
vn 0.3205 0.3490 -0.8806
vn -0.0280 0.3112 -0.9499
vn -0.6321 0.3112 0.7096
vn -0.3205 0.3490 0.8806
vn -0.3206 0.3491 0.8806
vn -0.1422 0.9094 0.3908
vn -0.4743 0.8534 0.2164
vn 0.3420 -0.0000 -0.9397
vn -0.3420 -0.0000 0.9397
vn -0.0286 -0.2927 -0.9558
vn 0.3231 -0.3279 -0.8878
vn 0.3231 -0.3279 -0.8877
vn 0.2685 -0.6195 -0.7377
vn -0.6364 -0.2928 0.7137
vn -0.2685 -0.6195 0.7377
vn -0.2685 -0.6196 0.7376
vn -0.3231 -0.3280 0.8877
vn 0.2244 0.8532 0.4708
vn 0.0281 0.3113 0.9499
vn 0.7185 0.3070 0.6241
vn 0.2243 0.8532 0.4708
vn 0.7185 0.3071 0.6241
vn 0.9515 0.3072 -0.0162
vn 0.9515 0.3072 -0.0163
vn 0.4743 0.8533 -0.2165
vn 0.2244 0.8533 0.4708
vn 0.4744 0.8533 -0.2164
vn 0.9515 0.3071 -0.0162
vn 0.6322 0.3113 -0.7095
vn 0.7419 -0.0000 0.6706
vn 0.0505 -0.0000 0.9987
vn 0.0505 -0.0002 0.9987
vn 0.9993 -0.0000 -0.0366
vn 0.7419 -0.0000 0.6705
vn 0.6807 -0.0002 -0.7325
vn 0.9993 -0.0000 -0.0367
vn 0.6807 -0.0000 -0.7325
vn 0.0286 -0.2928 0.9558
vn 0.3147 -0.6810 0.6612
vn 0.7225 -0.2886 0.6283
vn 0.7225 -0.2885 0.6282
vn 0.6659 -0.6812 -0.3043
vn 0.6658 -0.6812 -0.3043
vn 0.9573 -0.2887 -0.0167
vn 0.7226 -0.2886 0.6282
vn 0.9573 -0.2886 -0.0167
vn 0.6660 -0.6811 -0.3042
vn 0.6364 -0.2928 -0.7136
vn 0.1422 0.9094 -0.3907
vn 0.4744 0.8533 -0.2165
vn 0.1423 0.9094 -0.3907
vn -0.1423 0.9094 0.3908
vn 0.0281 0.3112 0.9499
vn 0.4743 0.8533 -0.2164
vn 0.6321 0.3113 -0.7096
vn 0.3205 0.3491 -0.8806
vn 0.3206 0.3491 -0.8806
vn 0.0505 0.0001 0.9987
vn 0.6807 -0.0000 -0.7326
vn 0.0286 -0.2927 0.9558
vn -0.3231 -0.3279 0.8878
vn -0.3231 -0.3279 0.8877
vn 0.3147 -0.6810 0.6613
vn 0.6363 -0.2928 -0.7137
vn 0.2685 -0.6195 -0.7376
vn 0.2685 -0.6196 -0.7376
vn 0.3231 -0.3280 -0.8877
vn 0.6364 -0.2928 -0.7137
vn 0.2493 0.8534 0.4578
vn 0.4853 0.8534 -0.1905
vn 0.2492 0.8534 0.4578
vn -0.2492 0.8534 -0.4578
vn -0.4852 0.8534 0.1904
vn -0.2493 0.8534 -0.4578
vn 0.4853 0.8533 -0.1905
vn 0.6695 0.2917 -0.6831
vn 0.4980 0.3528 -0.7922
vn -0.0738 0.2917 -0.9537
vn -0.2492 0.8534 -0.4579
vn -0.0388 0.8858 -0.4624
vn 0.1278 0.3529 -0.9269
vn -0.0738 0.2916 -0.9537
vn -0.4853 0.8534 0.1905
vn -0.6696 0.2917 0.6831
vn -0.4979 0.3529 0.7922
vn -0.3269 0.8859 0.3293
vn 0.0738 0.2917 0.9537
vn 0.0387 0.8859 0.4624
vn -0.1280 0.3529 0.9269
vn 0.6390 -0.0000 -0.7692
vn 0.4980 -0.0000 -0.8672
vn 0.6389 -0.0000 -0.7693
vn 0.0050 -0.0000 -1.0000
vn 0.1762 -0.0000 -0.9844
vn 0.0051 -0.0000 -1.0000
vn -0.6390 -0.0000 0.7692
vn -0.4979 -0.0000 0.8672
vn -0.6389 -0.0000 0.7693
vn -0.0050 -0.0000 1.0000
vn -0.1762 -0.0000 0.9844
vn -0.0051 -0.0000 1.0000
vn 0.6031 -0.3331 -0.7248
vn 0.5142 -0.5961 -0.6167
vn 0.4010 -0.6130 -0.6808
vn 0.4010 -0.6130 -0.6807
vn 0.4692 -0.3147 -0.8251
vn 0.6032 -0.3331 -0.7247
vn 0.0027 -0.5961 -0.8029
vn 0.0040 -0.3332 -0.9428
vn 0.1712 -0.3147 -0.9336
vn 0.1710 -0.3146 -0.9337
vn 0.1304 -0.6130 -0.7793
vn 0.0025 -0.5960 -0.8030
vn -0.6030 -0.3332 0.7248
vn -0.5141 -0.5962 0.6167
vn -0.4008 -0.6131 0.6807
vn -0.6031 -0.3332 0.7248
vn -0.0026 -0.5962 0.8028
vn -0.0039 -0.3332 0.9428
vn -0.1305 -0.6131 0.7792
vn -0.0026 -0.5962 0.8029
vn 0.4691 -0.3146 -0.8252
vn 0.4978 0.3529 -0.7923
vn -0.7185 0.3071 -0.6240
vn -0.0282 0.3112 -0.9499
vn -0.0506 -0.0000 -0.9987
vn -0.0503 -0.0000 -0.9987
vn -0.7417 -0.0000 -0.6707
vn -0.7183 0.3071 -0.6243
vn -0.7225 -0.2885 -0.6282
vn -0.9515 0.3071 0.0163
vn -0.7420 -0.0000 -0.6705
vn -0.9515 0.3071 0.0162
vn -0.9573 -0.2887 0.0169
vn -0.6808 -0.0000 0.7325
vn -0.9573 -0.2887 0.0167
vn -0.1711 -0.3147 0.9337
vn -0.4978 0.3529 0.7922
vn 0.3205 0.3489 -0.8807
vn 0.3231 -0.3278 -0.8878
vn -0.3206 0.3490 0.8806
vn -0.6322 0.3113 0.7095
vn 0.7184 0.3070 0.6242
vn 0.0280 0.3112 0.9499
vn 0.7184 0.3071 0.6242
vn 0.0288 -0.2927 0.9558
vn 0.7226 -0.2885 0.6281
vn 0.7420 -0.0000 0.6704
vn 0.7417 -0.0000 0.6707
vn 0.0503 -0.0000 0.9987
vn 0.0285 -0.2927 0.9558
vn 0.9573 -0.2887 -0.0168
vn 0.7226 -0.2885 0.6282
vn 0.6808 -0.0000 -0.7325
vn -0.3205 0.3489 0.8806
vn -0.3231 -0.3278 0.8878
vn 0.0287 -0.2927 0.9558
vn 0.6031 -0.3331 -0.7247
vn 0.4693 -0.3146 -0.8251
vn 0.4692 -0.3146 -0.8252
vn 0.4979 -0.0000 -0.8673
vn 0.6389 -0.0000 -0.7692
vn 0.4979 0.3528 -0.7922
vn 0.6695 0.2916 -0.6831
vn 0.6696 0.2916 -0.6831
vn -0.0737 0.2916 -0.9537
vn 0.1280 0.3528 -0.9269
vn 0.1712 -0.3146 -0.9337
vn 0.0041 -0.3331 -0.9429
vn 0.0052 -0.0000 -1.0000
vn 0.0049 -0.0000 -1.0000
vn 0.1760 -0.0000 -0.9844
vn 0.1709 -0.3146 -0.9337
vn -0.6391 -0.0000 0.7691
vn -0.6032 -0.3332 0.7247
vn -0.4693 -0.3146 0.8251
vn -0.6695 0.2916 0.6831
vn 0.0737 0.2916 0.9537
vn 0.0738 0.2916 0.9537
vn -0.1710 -0.3146 0.9337
vn -0.4212 0.8859 0.1945
vn 0.4212 0.8859 0.1945
vn 0.4212 0.8859 -0.1945
vn 0.4212 0.8859 -0.1946
vn -0.4212 0.8859 -0.1945
vn -0.4211 0.8859 0.1945
vn 0.3657 0.8533 0.3718
vn 0.3408 0.3072 0.8885
vn 0.8830 0.3113 0.3512
vn 0.9147 0.3529 0.1968
vn 0.9147 0.3529 -0.1968
vn -0.9147 0.3529 -0.1968
vn -0.9147 0.3529 0.1968
vn -0.9147 0.3530 0.1968
vn -0.3655 0.8533 0.3718
vn -0.8830 0.3114 0.3513
vn -0.3407 0.3071 0.8886
vn -0.3656 0.8533 0.3718
vn 0.3408 0.3071 0.8885
vn 0.3656 0.8533 0.3717
vn 0.9213 -0.0000 0.3890
vn 0.3765 -0.0000 0.9264
vn 0.3764 -0.0000 0.9265
vn 0.9852 -0.0000 0.1712
vn 0.9852 -0.0000 -0.1712
vn -0.9852 -0.0000 -0.1712
vn -0.9852 -0.0000 0.1712
vn -0.3763 -0.0001 0.9265
vn -0.9212 -0.0000 0.3891
vn -0.9212 -0.0000 0.3890
vn -0.3764 -0.0000 0.9265
vn -0.3763 -0.0000 0.9265
vn 0.3434 -0.2887 0.8937
vn 0.5138 -0.6811 0.5217
vn 0.8884 -0.2927 0.3537
vn 0.9346 -0.3167 0.1621
vn 0.7760 -0.6123 0.1514
vn 0.7759 -0.6124 -0.1514
vn 0.7759 -0.6123 -0.1515
vn 0.9346 -0.3167 -0.1621
vn -0.9346 -0.3167 -0.1621
vn -0.7759 -0.6124 -0.1514
vn -0.7759 -0.6124 0.1514
vn -0.7759 -0.6124 0.1515
vn -0.9346 -0.3167 0.1621
vn -0.8883 -0.2928 0.3538
vn -0.5137 -0.6811 0.5218
vn -0.3433 -0.2886 0.8938
vn -0.3432 -0.2886 0.8938
vn -0.5136 -0.6812 0.5218
vn 0.5137 -0.6811 0.5217
vn 0.3433 -0.2887 0.8938
vn 0.3657 0.8533 0.3717
vn 0.4159 0.9094 -0.0000
vn -0.4158 0.9094 -0.0000
vn 0.3656 0.8533 0.3718
vn 0.9371 0.3490 -0.0000
vn 0.9371 0.3489 -0.0000
vn -0.8830 0.3113 0.3513
vn -0.4159 0.9094 -0.0000
vn -0.9371 0.3490 -0.0000
vn 0.9213 -0.0000 0.3889
vn 1.0000 -0.0000 -0.0000
vn -1.0000 -0.0000 -0.0000
vn 0.8884 -0.2927 0.3538
vn 0.7851 -0.6194 -0.0000
vn 0.7850 -0.6195 -0.0000
vn 0.9447 -0.3279 -0.0000
vn 0.8883 -0.2928 0.3538
vn -0.8883 -0.2928 0.3539
vn -0.9447 -0.3279 -0.0000
vn -0.7849 -0.6196 -0.0000
vn -0.5136 -0.6811 0.5218
vn -0.3657 0.8533 -0.3718
vn -0.3409 0.3071 -0.8885
vn -0.8831 0.3113 -0.3512
vn 0.3655 0.8533 -0.3719
vn 0.8830 0.3114 -0.3513
vn 0.3407 0.3071 -0.8886
vn 0.3656 0.8533 -0.3718
vn -0.3408 0.3071 -0.8885
vn -0.3409 0.3072 -0.8885
vn -0.3657 0.8533 -0.3717
vn -0.9213 -0.0000 -0.3889
vn -0.3764 -0.0000 -0.9264
vn 0.3764 -0.0000 -0.9265
vn 0.9212 -0.0000 -0.3891
vn 0.9212 0.0001 -0.3891
vn 0.3763 -0.0000 -0.9265
vn -0.3764 -0.0000 -0.9265
vn -0.3433 -0.2886 -0.8938
vn -0.5137 -0.6811 -0.5217
vn -0.8883 -0.2928 -0.3538
vn 0.8883 -0.2928 -0.3539
vn 0.5136 -0.6812 -0.5218
vn 0.3432 -0.2886 -0.8938
vn -0.3433 -0.2887 -0.8938
vn 0.3655 0.8533 -0.3718
vn -0.8831 0.3112 -0.3512
vn -0.9371 0.3490 -0.0001
vn 0.4159 0.9094 -0.0001
vn 0.8830 0.3113 -0.3513
vn 0.9212 -0.0000 -0.3890
vn -0.8883 -0.2928 -0.3537
vn -0.7850 -0.6194 -0.0000
vn -0.7850 -0.6195 -0.0000
vn -0.8884 -0.2927 -0.3537
vn 0.5135 -0.6812 -0.5218
vn 0.9447 -0.3280 -0.0000
vn 0.7850 -0.6196 -0.0000
vn -0.3449 0.8534 0.3908
vn 0.3450 0.8534 0.3908
vn -0.4211 0.8859 0.1946
vn 0.3449 0.8534 -0.3908
vn -0.3449 0.8534 -0.3908
vn -0.4211 0.8859 -0.1945
vn 0.3450 0.8534 0.3909
vn 0.8709 0.2917 0.3955
vn 0.9147 0.3529 0.1969
vn 0.9148 0.3528 0.1968
vn 0.4213 0.8858 0.1945
vn 0.3451 0.8533 0.3908
vn 0.8710 0.2916 -0.3955
vn 0.3451 0.8533 -0.3908
vn 0.4213 0.8858 -0.1945
vn 0.4211 0.8859 -0.1946
vn 0.9147 0.3530 -0.1969
vn 0.8709 0.2917 -0.3956
vn -0.3450 0.8533 -0.3909
vn -0.8709 0.2917 -0.3956
vn -0.9147 0.3529 -0.1969
vn -0.9147 0.3530 -0.1969
vn -0.3450 0.8534 -0.3908
vn -0.8709 0.2916 0.3955
vn -0.3451 0.8533 0.3908
vn -0.4213 0.8858 0.1945
vn -0.9147 0.3530 0.1969
vn -0.8708 0.2918 0.3956
vn 0.9414 -0.0000 0.3373
vn 0.9414 -0.0000 -0.3373
vn -0.9414 -0.0000 -0.3373
vn -0.9414 -0.0000 0.3373
vn 0.8863 -0.3269 0.3279
vn 0.7517 -0.5933 0.2880
vn 0.7759 -0.6124 0.1515
vn 0.7760 -0.6123 0.1515
vn 0.8864 -0.3268 0.3279
vn 0.7518 -0.5932 -0.2880
vn 0.8864 -0.3268 -0.3279
vn 0.9346 -0.3166 -0.1621
vn 0.7759 -0.6124 -0.1515
vn 0.7517 -0.5932 -0.2880
vn -0.8864 -0.3269 -0.3279
vn -0.7517 -0.5933 -0.2880
vn -0.7759 -0.6124 -0.1515
vn -0.9346 -0.3167 -0.1622
vn -0.7518 -0.5932 0.2880
vn -0.8864 -0.3268 0.3279
vn -0.9346 -0.3166 0.1621
vn -0.9345 -0.3169 0.1622
vn -0.7758 -0.6125 0.1516
vn -0.7516 -0.5934 0.2881
vn 0.3409 0.3071 0.8885
vn 0.9212 -0.0000 0.3890
vn 0.8830 0.3112 0.3513
vn -0.3408 0.3071 0.8886
vn -0.3408 0.3071 0.8885
vn 0.3433 -0.2886 0.8938
vn 0.8884 -0.2928 0.3537
vn 0.9447 -0.3278 -0.0000
vn 0.9372 0.3489 -0.0000
vn 0.8831 0.3112 0.3512
vn -0.3765 -0.0000 -0.9264
vn -0.9212 -0.0000 -0.3890
vn -0.8830 0.3112 -0.3513
vn -0.8883 -0.2927 -0.3538
vn 0.3408 0.3071 -0.8886
vn -0.8884 -0.2928 -0.3537
vn 0.8883 -0.2928 -0.3538
vn 0.9147 0.3528 0.1969
vn 0.8709 0.2916 0.3955
vn 0.8709 0.2916 -0.3955
vn 0.8864 -0.3268 -0.3278
vn 0.9414 -0.0000 -0.3372
vn 0.9852 -0.0000 -0.1711
vn -0.8864 -0.3268 -0.3279
vn -0.8709 0.2916 -0.3955
vn -0.8709 0.2917 0.3955
vn -0.9147 0.3529 0.1969
vn -0.9852 -0.0000 0.1713
vn -0.9414 -0.0000 0.3374
vn -0.8709 0.2917 0.3956
vn 0.3394 0.8756 0.3437
vn 0.3437 0.8756 -0.3394
vn -0.3394 0.8756 -0.3437
vn -0.3437 0.8756 0.3394
vn 0.3395 0.8755 0.3438
vn 0.3361 0.3415 0.8777
vn 0.8734 0.3415 0.3472
vn 0.3394 0.8756 0.3438
vn 0.8734 0.3417 0.3471
vn 0.8777 0.3416 -0.3360
vn 0.8777 0.3417 -0.3360
vn 0.3436 0.8756 -0.3394
vn 0.3438 0.8755 -0.3395
vn 0.8778 0.3415 -0.3360
vn 0.3472 0.3416 -0.8734
vn 0.3438 0.8756 -0.3394
vn -0.3360 0.3416 -0.8777
vn 0.3437 0.8756 -0.3393
vn -0.8734 0.3416 -0.3472
vn -0.3395 0.8755 -0.3438
vn -0.8734 0.3416 -0.3471
vn -0.8777 0.3416 0.3361
vn -0.3438 0.8756 0.3394
vn -0.3395 0.8756 -0.3437
vn -0.3438 0.8755 0.3395
vn -0.8777 0.3415 0.3361
vn -0.3471 0.3416 0.8734
vn -0.3437 0.8756 0.3395
vn 0.3360 0.3415 0.8778
vn 0.3360 0.3416 0.8777
vn 0.3360 -0.3416 0.8777
vn 0.8734 -0.3416 0.3472
vn 0.8734 -0.3415 0.3473
vn 0.8733 0.3416 0.3473
vn 0.3359 0.3415 0.8778
vn 0.8734 -0.3416 0.3471
vn 0.8777 -0.3416 -0.3360
vn 0.8777 0.3416 -0.3359
vn 0.8734 0.3416 0.3471
vn 0.8778 0.3416 -0.3360
vn 0.3471 -0.3416 -0.8734
vn 0.3472 0.3417 -0.8733
vn 0.3472 0.3416 -0.8733
vn 0.3472 -0.3416 -0.8733
vn -0.3360 -0.3415 -0.8777
vn -0.3360 -0.3416 -0.8777
vn 0.3474 0.3415 -0.8734
vn -0.3361 -0.3416 -0.8777
vn -0.8734 -0.3416 -0.3471
vn -0.8734 -0.3415 -0.3472
vn -0.3359 0.3416 -0.8778
vn -0.8777 -0.3416 0.3361
vn -0.8777 0.3416 0.3360
vn -0.8777 -0.3416 0.3360
vn -0.3471 -0.3416 0.8734
vn -0.3469 -0.3416 0.8735
vn -0.3469 0.3416 0.8735
vn -0.8777 0.3416 0.3362
vn 0.3360 -0.3415 0.8777
vn 0.3360 -0.3416 0.8778
vn 0.4576 -0.7587 0.4636
vn 0.8734 -0.3417 0.3472
vn 0.4576 -0.7588 0.4635
vn 0.4635 -0.7588 -0.4576
vn 0.4634 -0.7589 -0.4576
vn 0.8777 -0.3417 -0.3360
vn 0.8778 -0.3415 -0.3360
vn 0.4635 -0.7587 -0.4577
vn 0.3472 -0.3416 -0.8734
vn -0.4577 -0.7588 -0.4634
vn 0.3472 -0.3417 -0.8733
vn -0.4577 -0.7587 -0.4635
vn -0.8734 -0.3416 -0.3472
vn -0.4577 -0.7588 -0.4635
vn -0.4635 -0.7588 0.4576
vn -0.8778 -0.3415 0.3361
vn -0.8735 -0.3415 -0.3471
vn -0.4635 -0.7588 0.4577
vn 0.4577 -0.7587 0.4635
vn 0.4577 -0.7588 0.4635
vn 0.4609 0.8859 0.0532
vn -0.2584 0.8859 -0.3853
vn -0.4609 0.8859 -0.0532
vn 0.2584 0.8859 0.3853
vn -0.6786 0.3530 -0.6441
vn -0.8835 0.3529 -0.3081
vn -0.8835 0.3529 -0.3080
vn -0.4609 0.8858 -0.0531
vn -0.5058 0.8532 0.1272
vn -0.9368 0.3112 -0.1596
vn -0.7534 0.3070 0.5814
vn -0.7535 0.3070 0.5814
vn -0.1716 0.3071 0.9361
vn -0.1715 0.3072 0.9361
vn 0.1188 0.8533 0.5077
vn -0.5057 0.8533 0.1272
vn 0.5711 0.3113 0.7595
vn 0.2584 0.8859 0.3852
vn 0.6786 0.3530 0.6441
vn 0.8835 0.3529 0.3080
vn 0.8835 0.3530 0.3080
vn 0.4609 0.8859 0.0531
vn -0.7522 -0.0000 -0.6589
vn -0.9304 -0.0000 -0.3666
vn -0.8035 -0.0000 0.5952
vn -0.9891 -0.0000 -0.1472
vn -0.1610 -0.0000 0.9870
vn -0.8035 -0.0000 0.5953
vn 0.5841 -0.0000 0.8117
vn -0.1608 -0.0000 0.9870
vn -0.1609 -0.0000 0.9870
vn 0.5840 -0.0000 0.8117
vn 0.7522 -0.0000 0.6589
vn 0.9304 -0.0000 0.3666
vn 0.9304 -0.0001 0.3666
vn -0.7166 -0.3147 -0.6225
vn -0.5885 -0.6131 -0.5271
vn -0.7382 -0.6131 -0.2815
vn -0.8817 -0.3147 -0.3516
vn -0.9427 -0.2927 -0.1601
vn -0.7103 -0.6810 0.1783
vn -0.7582 -0.2885 0.5847
vn -0.7583 -0.2886 0.5846
vn 0.1671 -0.6812 0.7128
vn -0.1722 -0.2886 0.9418
vn -0.1722 -0.2887 0.9418
vn 0.5743 -0.2928 0.7645
vn 0.7166 -0.3147 0.6225
vn 0.5885 -0.6131 0.5271
vn 0.7381 -0.6131 0.2815
vn 0.7381 -0.6132 0.2815
vn 0.8816 -0.3147 0.3516
vn 0.3551 0.9094 0.2164
vn -0.3552 0.9094 -0.2164
vn -0.5058 0.8532 0.1273
vn 0.3551 0.9094 0.2165
vn -0.3552 0.9094 -0.2165
vn -0.8002 0.3490 -0.4877
vn -0.9368 0.3113 -0.1597
vn 0.1187 0.8533 0.5077
vn 0.8001 0.3491 0.4877
vn 0.8002 0.3490 0.4878
vn -0.9891 -0.0000 -0.1473
vn -0.8539 -0.0000 -0.5205
vn 0.8539 -0.0000 0.5205
vn -0.7102 -0.6811 0.1783
vn -0.9427 -0.2928 -0.1602
vn -0.8067 -0.3279 -0.4917
vn -0.6703 -0.6195 -0.4086
vn 0.6703 -0.6195 0.4085
vn 0.6703 -0.6195 0.4086
vn 0.8067 -0.3279 0.4917
vn 0.5743 -0.2927 0.7645
vn 0.5058 0.8532 -0.1272
vn 0.9368 0.3113 0.1597
vn 0.7535 0.3071 -0.5814
vn 0.7534 0.3071 -0.5814
vn 0.1715 0.3072 -0.9361
vn -0.1187 0.8533 -0.5077
vn 0.5057 0.8532 -0.1272
vn -0.1188 0.8533 -0.5077
vn -0.5711 0.3113 -0.7595
vn 0.8036 -0.0000 -0.5952
vn 0.9891 -0.0000 0.1473
vn 0.9891 -0.0002 0.1473
vn 0.1610 -0.0000 -0.9870
vn 0.8035 -0.0000 -0.5953
vn -0.5841 -0.0002 -0.8117
vn 0.1608 -0.0000 -0.9870
vn 0.1609 -0.0000 -0.9870
vn -0.5841 -0.0000 -0.8117
vn 0.9426 -0.2928 0.1602
vn 0.7102 -0.6811 -0.1782
vn 0.7583 -0.2886 -0.5845
vn 0.7583 -0.2886 -0.5846
vn 0.7102 -0.6810 -0.1783
vn -0.1671 -0.6812 -0.7128
vn 0.1722 -0.2886 -0.9418
vn 0.7583 -0.2885 -0.5847
vn 0.1722 -0.2887 -0.9418
vn -0.5743 -0.2928 -0.7645
vn -0.3551 0.9094 -0.2164
vn 0.5058 0.8532 -0.1273
vn -0.3551 0.9094 -0.2165
vn 0.9368 0.3113 0.1596
vn 0.5057 0.8533 -0.1273
vn 0.3552 0.9094 0.2166
vn 0.8002 0.3489 0.4877
vn 0.9368 0.3112 0.1596
vn -0.5711 0.3112 -0.7596
vn -0.8001 0.3492 -0.4877
vn -0.3550 0.9095 -0.2163
vn -0.1186 0.8534 -0.5076
vn 0.9891 0.0001 0.1473
vn 0.9427 -0.2927 0.1602
vn 0.7103 -0.6810 -0.1783
vn -0.5743 -0.2929 -0.7645
vn -0.1670 -0.6812 -0.7128
vn -0.6703 -0.6196 -0.4085
vn -0.6702 -0.6196 -0.4085
vn -0.8067 -0.3280 -0.4917
vn 0.4979 0.8534 -0.1542
vn -0.0912 0.8534 -0.5133
vn -0.4980 0.8534 0.1541
vn 0.0911 0.8534 0.5132
vn -0.4980 0.8534 0.1542
vn -0.0912 0.8533 -0.5134
vn -0.5378 0.2916 -0.7910
vn -0.6787 0.3529 -0.6441
vn -0.2585 0.8859 -0.3852
vn -0.0913 0.8534 -0.5133
vn -0.9495 0.2916 -0.1155
vn -0.4980 0.8533 0.1542
vn -0.4610 0.8858 -0.0531
vn -0.4609 0.8859 -0.0531
vn -0.8835 0.3530 -0.3079
vn -0.9495 0.2917 -0.1156
vn 0.0911 0.8534 0.5133
vn 0.5377 0.2918 0.7910
vn 0.6785 0.3530 0.6442
vn 0.9495 0.2916 0.1155
vn 0.4980 0.8534 -0.1542
vn 0.4610 0.8858 0.0532
vn 0.4610 0.8858 0.0531
vn -0.6283 -0.0000 -0.7780
vn -0.7522 -0.0000 -0.6590
vn -0.9794 -0.0000 -0.2019
vn 0.6282 -0.0000 0.7780
vn 0.7521 -0.0000 0.6590
vn 0.6283 -0.0000 0.7780
vn 0.9794 -0.0000 0.2019
vn 0.9794 -0.0000 0.2020
vn -0.5919 -0.3331 -0.7340
vn -0.5034 -0.5960 -0.6255
vn -0.5886 -0.6130 -0.5271
vn -0.5918 -0.3332 -0.7340
vn -0.7867 -0.5961 -0.1607
vn -0.9236 -0.3332 -0.1896
vn -0.8816 -0.3147 -0.3516
vn -0.7382 -0.6130 -0.2814
vn 0.5917 -0.3333 0.7340
vn 0.5032 -0.5963 0.6255
vn 0.5884 -0.6132 0.5271
vn 0.5884 -0.6131 0.5271
vn 0.5917 -0.3332 0.7340
vn 0.7867 -0.5961 0.1607
vn 0.9236 -0.3331 0.1897
vn 0.8817 -0.3146 0.3517
vn 0.8816 -0.3148 0.3516
vn 0.7381 -0.6132 0.2814
vn 0.7866 -0.5962 0.1607
vn -0.7166 -0.3146 -0.6225
vn -0.8817 -0.3146 -0.3516
vn -0.7534 0.3071 0.5814
vn -0.9427 -0.2927 -0.1602
vn -0.1715 0.3071 0.9361
vn -0.1716 0.3072 0.9361
vn -0.7583 -0.2885 0.5846
vn 0.5711 0.3113 0.7596
vn -0.1721 -0.2887 0.9418
vn 0.8817 -0.3147 0.3517
vn 0.6786 0.3529 0.6441
vn -0.9368 0.3112 -0.1597
vn -0.8002 0.3489 -0.4877
vn -0.8067 -0.3278 -0.4917
vn 0.8002 0.3490 0.4877
vn 0.7535 0.3070 -0.5814
vn 0.9368 0.3112 0.1597
vn 0.7535 0.3071 -0.5813
vn 0.9427 -0.2927 0.1603
vn 0.7583 -0.2885 -0.5846
vn 0.1716 0.3072 -0.9360
vn 0.7534 0.3070 -0.5814
vn 0.1716 0.3072 -0.9361
vn -0.5711 0.3113 -0.7596
vn 0.1716 0.3071 -0.9361
vn 0.1721 -0.2887 -0.9418
vn 0.8067 -0.3278 0.4917
vn -0.8002 0.3490 -0.4878
vn -0.5918 -0.3331 -0.7340
vn -0.7165 -0.3146 -0.6226
vn -0.7521 -0.0000 -0.6590
vn -0.6282 -0.0000 -0.7780
vn -0.6786 0.3528 -0.6442
vn -0.8835 0.3528 -0.3080
vn -0.9236 -0.3331 -0.1896
vn 0.5917 -0.3332 0.7341
vn 0.7165 -0.3146 0.6226
vn 0.6283 -0.0000 0.7779
vn 0.5378 0.2916 0.7910
vn 0.5378 0.2917 0.7910
vn 0.9495 0.2916 0.1156
vn 0.9236 -0.3332 0.1896
vn 0.8817 -0.3147 0.3516
vn 0.1077 0.8859 0.4512
vn 0.2737 0.8859 -0.3746
vn -0.1077 0.8859 -0.4513
vn -0.1078 0.8859 -0.4513
vn -0.2737 0.8859 0.3746
vn 0.1078 0.8859 0.4512
vn 0.4365 0.8533 -0.2853
vn 0.9383 0.3071 -0.1591
vn 0.5183 0.3113 -0.7965
vn 0.3732 0.3529 -0.8580
vn -0.0128 0.3529 -0.9356
vn -0.0127 0.3529 -0.9356
vn -0.1077 0.8858 -0.4513
vn 0.2737 0.8859 -0.3747
vn -0.2736 0.8859 0.3746
vn -0.3732 0.3529 0.8580
vn 0.0127 0.3530 0.9356
vn 0.0127 0.3530 0.9355
vn 0.1077 0.8859 0.4513
vn 0.2926 0.8533 0.4316
vn 0.1705 0.3113 0.9349
vn 0.8041 0.3070 0.5091
vn 0.2926 0.8533 0.4317
vn 0.8041 0.3071 0.5091
vn 0.9382 0.3072 -0.1591
vn 0.4364 0.8533 -0.2853
vn 0.2924 0.8533 0.4317
vn 0.5628 -0.0000 -0.8266
vn 0.9824 -0.0000 -0.1865
vn 0.9825 -0.0000 -0.1865
vn 0.9824 -0.0000 -0.1866
vn 0.3619 -0.0000 -0.9322
vn 0.0263 -0.0000 -0.9997
vn -0.3619 -0.0000 0.9322
vn -0.0263 -0.0000 0.9997
vn 0.8342 -0.0001 0.5515
vn 0.2000 -0.0000 0.9798
vn 0.1999 -0.0000 0.9798
vn 0.8342 -0.0000 0.5515
vn 0.8342 -0.0000 0.5514
vn 0.9439 -0.2887 -0.1605
vn 0.6126 -0.6812 -0.4009
vn 0.5218 -0.2928 -0.8012
vn 0.3430 -0.3167 -0.8843
vn 0.3013 -0.6123 -0.7309
vn 0.0044 -0.6124 -0.7906
vn 0.0252 -0.3167 -0.9482
vn 0.3431 -0.3167 -0.8843
vn -0.3431 -0.3168 0.8843
vn -0.3013 -0.6124 0.7309
vn -0.0044 -0.6124 0.7905
vn -0.0252 -0.3167 0.9482
vn 0.1719 -0.2928 0.9406
vn 0.4104 -0.6811 0.6064
vn 0.8087 -0.2886 0.5126
vn 0.8087 -0.2887 0.5125
vn 0.4103 -0.6812 0.6063
vn 0.6127 -0.6811 -0.4008
vn 0.9439 -0.2886 -0.1605
vn 0.8087 -0.2885 0.5126
vn 0.2925 0.8533 0.4316
vn 0.0820 0.9094 -0.4077
vn 0.0819 0.9094 -0.4077
vn -0.0819 0.9094 0.4077
vn 0.5183 0.3113 -0.7966
vn 0.1846 0.3490 -0.9188
vn 0.1847 0.3490 -0.9188
vn 0.0820 0.9094 -0.4078
vn 0.2925 0.8533 0.4317
vn -0.0819 0.9094 0.4078
vn -0.1846 0.3491 0.9187
vn 0.1704 0.3113 0.9349
vn 0.1970 -0.0000 -0.9804
vn -0.1970 -0.0000 0.9804
vn 0.6127 -0.6811 -0.4009
vn 0.1547 -0.6195 -0.7696
vn 0.1861 -0.3279 -0.9262
vn 0.5218 -0.2927 -0.8013
vn 0.4104 -0.6812 0.6063
vn -0.1861 -0.3280 0.9262
vn -0.1546 -0.6196 0.7695
vn 0.4104 -0.6811 0.6063
vn -0.4365 0.8533 0.2853
vn -0.9383 0.3071 0.1592
vn -0.5183 0.3112 0.7966
vn -0.2926 0.8533 -0.4316
vn -0.1705 0.3114 -0.9349
vn -0.8041 0.3071 -0.5091
vn -0.2926 0.8533 -0.4317
vn -0.9383 0.3071 0.1591
vn -0.9382 0.3072 0.1591
vn -0.4364 0.8533 0.2853
vn -0.2924 0.8533 -0.4317
vn -0.5628 -0.0000 0.8266
vn -0.9825 -0.0000 0.1865
vn -0.9824 -0.0000 0.1866
vn -0.8342 -0.0000 -0.5515
vn -0.2000 -0.0000 -0.9798
vn -0.2000 0.0001 -0.9798
vn -0.8342 -0.0000 -0.5514
vn -0.9439 -0.2887 0.1605
vn -0.6127 -0.6811 0.4009
vn -0.5218 -0.2928 0.8012
vn -0.1720 -0.2928 -0.9406
vn -0.4104 -0.6811 -0.6063
vn -0.8087 -0.2886 -0.5125
vn -0.8087 -0.2886 -0.5126
vn -0.4104 -0.6812 -0.6063
vn -0.2925 0.8533 -0.4316
vn -0.0820 0.9094 0.4077
vn -0.4365 0.8533 0.2852
vn -0.1846 0.3490 0.9187
vn -0.1847 0.3491 0.9187
vn -0.1705 0.3113 -0.9349
vn -0.2925 0.8533 -0.4317
vn 0.0819 0.9094 -0.4078
vn -0.1999 -0.0000 -0.9798
vn -0.1547 -0.6195 0.7696
vn -0.1861 -0.3279 0.9262
vn -0.5218 -0.2927 0.8013
vn -0.1719 -0.2928 -0.9406
vn 0.1546 -0.6195 -0.7696
vn 0.3152 0.8534 0.4151
vn 0.4512 0.8534 -0.2612
vn -0.3152 0.8534 -0.4152
vn -0.4511 0.8534 0.2612
vn 0.4512 0.8533 -0.2613
vn 0.5593 0.2916 -0.7760
vn 0.3732 0.3528 -0.8580
vn 0.2737 0.8858 -0.3747
vn 0.4511 0.8533 -0.2613
vn -0.2160 0.2917 -0.9318
vn -0.3151 0.8534 -0.4153
vn -0.1076 0.8859 -0.4513
vn -0.1079 0.8858 -0.4513
vn -0.0129 0.3529 -0.9356
vn -0.2163 0.2916 -0.9317
vn -0.4512 0.8534 0.2613
vn -0.5593 0.2917 0.7759
vn -0.3733 0.3530 0.8579
vn 0.2162 0.2918 0.9317
vn 0.3152 0.8534 0.4152
vn 0.0129 0.3529 0.9356
vn 0.2163 0.2917 0.9317
vn 0.5161 -0.0000 -0.8565
vn 0.3620 -0.0000 -0.9322
vn 0.5162 -0.0000 -0.8565
vn -0.1452 -0.0000 -0.9894
vn 0.0262 -0.0000 -0.9997
vn -0.1453 -0.0000 -0.9894
vn -0.5162 -0.0000 0.8565
vn -0.3620 -0.0000 0.9322
vn -0.5161 -0.0000 0.8565
vn 0.1452 -0.0000 0.9894
vn -0.0262 -0.0000 0.9997
vn 0.1453 -0.0000 0.9894
vn 0.4961 -0.3268 -0.8044
vn 0.4305 -0.5932 -0.6803
vn 0.3014 -0.6123 -0.7309
vn 0.4961 -0.3267 -0.8044
vn -0.1343 -0.5932 -0.7937
vn -0.1468 -0.3269 -0.9336
vn 0.0043 -0.6124 -0.7906
vn -0.1343 -0.5932 -0.7938
vn -0.4961 -0.3269 0.8044
vn -0.4305 -0.5933 0.6802
vn -0.3014 -0.6124 0.7309
vn -0.3431 -0.3167 0.8843
vn 0.1342 -0.5934 0.7937
vn 0.1468 -0.3270 0.9336
vn -0.0253 -0.3168 0.9481
vn -0.0250 -0.3168 0.9482
vn -0.0042 -0.6124 0.7905
vn 0.1344 -0.5933 0.7937
vn 0.5218 -0.2927 -0.8012
vn 0.5629 -0.0000 -0.8265
vn -0.3430 -0.3167 0.8843
vn 0.0128 0.3529 0.9356
vn 0.0127 0.3529 0.9356
vn 0.8040 0.3071 0.5092
vn 0.2001 -0.0000 0.9798
vn 0.8040 0.3071 0.5091
vn 0.1720 -0.2928 0.9406
vn 0.8087 -0.2886 0.5125
vn 0.5218 -0.2928 -0.8013
vn 0.1861 -0.3278 -0.9262
vn 0.1847 0.3489 -0.9188
vn 0.5183 0.3112 -0.7966
vn 0.1846 0.3489 -0.9188
vn -0.1846 0.3490 0.9188
vn -0.5184 0.3113 0.7965
vn -0.9383 0.3072 0.1591
vn -0.9824 -0.0000 0.1865
vn -0.5183 0.3113 0.7965
vn -0.9439 -0.2886 0.1605
vn -0.8040 0.3071 -0.5091
vn -0.8040 0.3071 -0.5092
vn -0.5218 -0.2928 0.8013
vn -0.1847 0.3490 0.9188
vn -0.1704 0.3113 -0.9349
vn 0.5594 0.2916 -0.7759
vn -0.2162 0.2916 -0.9318
vn -0.2163 0.2916 -0.9318
vn -0.1468 -0.3267 -0.9336
vn -0.1469 -0.3268 -0.9336
vn 0.0261 -0.0000 -0.9997
vn -0.4960 -0.3268 0.8045
vn -0.3430 -0.3167 0.8844
vn -0.4961 -0.3268 0.8044
vn -0.5593 0.2916 0.7760
vn -0.5594 0.2916 0.7759
vn 0.2162 0.2917 0.9318
vn 0.2162 0.2916 0.9318
vn 0.1468 -0.3268 0.9336
vn 0.1469 -0.3268 0.9336
vt 0.322220 0.536669
vt 0.294697 0.536669
vt 0.294697 0.509146
vt 0.322220 0.509146
vt 0.324383 0.536669
vt 0.322221 0.538831
vt 0.294697 0.538831
vt 0.292535 0.536669
vt 0.292535 0.509146
vt 0.294697 0.506983
vt 0.322221 0.506983
vt 0.324383 0.509146
vt 0.324383 0.538831
vt 0.324383 0.566354
vt 0.322221 0.566354
vt 0.294697 0.566354
vt 0.292535 0.566354
vt 0.292535 0.538831
vt 0.265012 0.536669
vt 0.265012 0.509146
vt 0.292535 0.506983
vt 0.292535 0.479460
vt 0.294697 0.479460
vt 0.322221 0.479460
vt 0.324383 0.479460
vt 0.324383 0.506983
vt 0.351906 0.509146
vt 0.351906 0.536669
vt 0.322220 0.568517
vt 0.294697 0.568517
vt 0.262849 0.536669
vt 0.262849 0.509146
vt 0.294697 0.477298
vt 0.322220 0.477298
vt 0.354068 0.509146
vt 0.354068 0.536669
vt 0.210119 0.712671
vt 0.210118 0.749908
vt 0.194957 0.749908
vt 0.194958 0.712671
vt 0.210118 0.753070
vt 0.194957 0.753070
vt 0.163766 0.749908
vt 0.160640 0.752794
vt 0.160640 0.749907
vt 0.160640 0.712671
vt 0.163767 0.712671
vt 0.160640 0.709785
vt 0.194957 0.709509
vt 0.210119 0.709509
vt 0.210118 0.787878
vt 0.194957 0.787878
vt 0.194957 0.757541
vt 0.210118 0.757541
vt 0.156169 0.749907
vt 0.156169 0.752794
vt 0.125833 0.752794
vt 0.125833 0.749907
vt 0.156170 0.712671
vt 0.125833 0.712671
vt 0.156170 0.709785
vt 0.125833 0.709785
vt 0.194957 0.674701
vt 0.210119 0.674701
vt 0.210119 0.705038
vt 0.194957 0.705038
vt 0.210118 0.792349
vt 0.210118 0.795687
vt 0.194957 0.795687
vt 0.194957 0.792349
vt 0.121362 0.752794
vt 0.118058 0.749908
vt 0.121362 0.749907
vt 0.118057 0.712671
vt 0.121362 0.712671
vt 0.121362 0.709785
vt 0.194957 0.670230
vt 0.194958 0.666891
vt 0.210119 0.666891
vt 0.210119 0.670230
vt 0.192723 0.712671
vt 0.192722 0.749908
vt 0.163767 0.753070
vt 0.192723 0.753070
vt 0.163766 0.709509
vt 0.192723 0.709509
vt 0.163767 0.757541
vt 0.192723 0.757541
vt 0.192723 0.787878
vt 0.163767 0.787878
vt 0.163766 0.674701
vt 0.192723 0.674701
vt 0.192723 0.705038
vt 0.163766 0.705038
vt 0.163766 0.795687
vt 0.163767 0.792349
vt 0.192723 0.792349
vt 0.192722 0.795687
vt 0.163766 0.670230
vt 0.163767 0.666891
vt 0.192723 0.666891
vt 0.192723 0.670230
vt 0.212353 0.712671
vt 0.212352 0.749908
vt 0.212353 0.753070
vt 0.212353 0.709509
vt 0.212353 0.757541
vt 0.212353 0.787878
vt 0.212353 0.705038
vt 0.212353 0.674701
vt 0.212353 0.792349
vt 0.212352 0.795687
vt 0.212353 0.666891
vt 0.212353 0.670230
vt 0.241309 0.749908
vt 0.244436 0.749908
vt 0.244436 0.752794
vt 0.241310 0.712672
vt 0.244436 0.709785
vt 0.244436 0.712671
vt 0.248906 0.752794
vt 0.248906 0.749908
vt 0.279243 0.749908
vt 0.279243 0.752794
vt 0.248907 0.712671
vt 0.248907 0.709785
vt 0.279243 0.709785
vt 0.279243 0.712671
vt 0.283714 0.749908
vt 0.287019 0.749908
vt 0.283714 0.752794
vt 0.283714 0.709785
vt 0.287018 0.712672
vt 0.283714 0.712671
vt 0.241309 0.753070
vt 0.241310 0.709509
vt 0.241309 0.787878
vt 0.241309 0.757541
vt 0.241310 0.705038
vt 0.241310 0.674701
vt 0.241309 0.792349
vt 0.241309 0.795687
vt 0.241310 0.666891
vt 0.241310 0.670230
s 0
f 1/1/1 2/2/2 3/3/3
f 3/3/3 4/4/4 1/1/1
f 1/1/5 5/5/6 6/6/7
f 1/1/5 6/6/8 7/7/9
f 7/7/10 2/2/11 1/1/1
f 2/2/11 7/7/12 8/8/13
f 2/2/14 8/8/15 9/9/16
f 9/9/17 3/3/3 2/2/18
f 3/3/3 9/9/17 10/10/19
f 3/3/20 10/10/21 11/11/22
f 11/11/22 4/4/4 3/3/3
f 4/4/23 11/11/24 12/12/25
f 4/4/4 12/12/26 5/5/27
f 5/5/28 1/1/1 4/4/4
f 5/13/28 13/14/29 14/15/30
f 14/15/31 6/6/7 5/13/6
f 6/6/32 14/15/30 15/16/33
f 15/16/34 7/7/9 6/6/35
f 7/7/9 15/16/34 16/17/36
f 16/17/37 8/18/38 7/7/39
f 8/8/40 16/19/41 17/20/42
f 17/20/42 9/9/43 8/8/44
f 9/21/45 17/22/46 18/23/47
f 18/23/48 10/10/19 9/21/49
f 10/10/19 18/23/50 19/24/51
f 19/24/51 11/11/22 10/10/21
f 11/11/52 19/24/53 20/25/54
f 20/25/55 12/26/26 11/11/22
f 12/12/26 20/27/55 13/28/29
f 13/28/29 5/5/56 12/12/26
f 13/14/57 21/29/58 14/15/59
f 14/15/60 21/29/61 22/30/62
f 22/30/63 15/16/64 14/15/65
f 15/16/33 22/30/66 16/17/36
f 16/19/67 22/31/62 23/32/68
f 23/32/68 17/20/69 16/19/70
f 17/22/71 23/33/68 18/23/50
f 18/23/72 23/33/68 24/34/73
f 24/34/74 19/24/75 18/23/48
f 19/24/53 24/34/76 20/25/77
f 20/27/55 24/35/73 21/36/78
f 21/36/79 13/28/80 20/27/55
f 25/37/81 26/38/82 27/39/83
f 27/39/83 28/40/84 25/37/81
f 26/38/85 29/41/86 30/42/87
f 30/42/87 27/39/88 26/38/89
f 31/43/90 32/44/91 33/45/92
f 31/43/93 33/45/94 34/46/95
f 34/46/96 35/47/97 31/43/90
f 35/47/98 34/46/96 36/48/99
f 28/40/100 37/49/101 38/50/102
f 38/50/102 25/37/103 28/40/100
f 39/51/104 40/52/105 41/53/105
f 41/53/105 42/54/104 39/51/104
f 43/55/106 44/56/107 45/57/107
f 45/57/108 46/58/109 43/55/109
f 47/59/110 43/55/111 46/58/111
f 46/58/111 48/60/110 47/59/110
f 49/61/112 47/59/113 48/60/113
f 48/60/113 50/62/114 49/61/114
f 51/63/115 52/64/116 53/65/116
f 53/65/117 54/66/115 51/63/115
f 55/67/118 56/68/119 57/69/120
f 57/69/120 58/70/121 55/67/118
f 59/71/122 60/72/123 61/73/124
f 61/73/125 60/72/123 62/74/126
f 62/74/126 63/75/127 61/73/124
f 63/75/128 62/74/126 64/76/129
f 65/77/130 66/78/131 67/79/132
f 67/79/133 68/80/134 65/77/130
f 69/81/135 70/82/136 31/43/90
f 31/43/90 35/47/97 69/81/137
f 32/83/91 31/43/90 70/82/138
f 70/82/138 71/84/139 32/83/140
f 35/47/97 36/85/141 72/86/142
f 72/86/143 69/81/144 35/47/145
f 44/87/107 73/88/146 74/89/146
f 74/89/146 45/90/107 44/87/107
f 50/91/114 75/92/147 76/93/147
f 76/93/147 49/94/114 50/91/114
f 60/95/123 59/96/148 77/97/149
f 77/97/150 78/98/151 60/95/123
f 64/99/152 62/100/126 79/101/153
f 79/101/154 80/102/155 64/99/152
f 81/43/156 82/44/157 83/45/158
f 81/43/159 83/45/160 84/46/161
f 84/46/162 85/47/163 81/43/164
f 85/47/165 84/46/166 86/48/167
f 87/55/168 88/56/169 89/57/169
f 89/57/170 90/58/168 87/55/168
f 91/59/171 87/55/172 90/58/172
f 90/58/172 92/60/171 91/59/171
f 93/61/173 91/59/174 92/60/174
f 92/60/174 94/62/175 93/61/175
f 95/71/176 96/72/177 97/73/178
f 97/73/179 96/72/177 98/74/180
f 98/74/181 99/75/182 97/73/183
f 99/75/184 98/74/185 100/76/186
f 101/81/187 102/82/144 81/43/159
f 81/43/156 85/47/188 101/81/189
f 82/83/157 81/43/164 102/82/144
f 102/82/190 103/84/142 82/83/191
f 85/47/192 86/85/193 104/86/194
f 104/86/195 101/81/136 85/47/192
f 88/87/196 105/88/147 106/89/147
f 106/89/147 89/90/169 88/87/169
f 94/91/197 107/92/146 108/93/146
f 108/93/146 93/94/197 94/91/197
f 96/95/177 95/96/198 109/97/199
f 109/97/200 110/98/153 96/95/201
f 100/99/202 98/100/180 111/101/203
f 111/101/204 112/102/205 100/99/206
f 102/103/207 113/104/208 26/38/82
f 26/38/85 25/37/81 102/103/209
f 70/82/210 69/81/211 28/40/84
f 28/40/84 27/39/88 70/82/212
f 113/104/213 114/105/214 29/41/86
f 29/41/215 26/38/89 113/104/213
f 71/84/216 70/82/217 27/39/83
f 27/39/218 30/42/219 71/84/220
f 69/81/221 72/86/222 37/49/101
f 37/49/223 28/40/224 69/81/221
f 103/106/225 102/103/207 25/37/226
f 25/37/81 38/50/227 103/106/225
f 115/107/228 116/108/228 39/51/229
f 39/51/104 42/54/104 115/107/230
f 73/88/231 41/53/105 40/52/105
f 40/52/232 74/89/233 73/88/233
f 76/93/234 75/92/234 51/63/235
f 51/63/115 54/66/115 76/93/236
f 117/109/237 53/65/116 52/64/116
f 52/64/238 118/110/239 117/109/239
f 119/111/240 120/112/241 56/68/242
f 56/68/243 55/67/244 119/111/245
f 78/98/246 77/97/247 58/70/248
f 58/70/249 57/69/250 78/98/251
f 80/102/252 79/101/253 66/78/254
f 66/78/131 65/77/130 80/102/255
f 121/113/256 122/114/257 68/80/134
f 68/80/134 67/79/258 121/113/259
f 55/67/260 58/70/249 40/52/105
f 40/52/105 39/51/104 55/67/260
f 30/42/87 29/41/261 42/54/104
f 42/54/104 41/53/105 30/42/87
f 33/45/262 32/44/263 44/56/264
f 44/56/265 43/55/266 33/45/267
f 59/71/148 61/73/268 46/58/106
f 46/58/106 45/57/107 59/71/148
f 34/46/269 33/45/92 43/55/111
f 43/55/270 47/59/110 34/46/95
f 61/73/268 63/75/127 48/60/110
f 48/60/110 46/58/111 61/73/124
f 36/48/99 34/46/271 47/59/113
f 47/59/113 49/61/112 36/48/99
f 63/75/272 64/76/129 50/62/114
f 50/62/273 48/60/110 63/75/274
f 65/77/130 68/80/275 52/64/116
f 52/64/116 51/63/115 65/77/130
f 38/50/102 37/49/276 54/66/115
f 54/66/115 53/65/116 38/50/102
f 32/83/140 71/84/277 73/88/146
f 73/88/146 44/87/107 32/83/91
f 77/97/278 59/96/122 45/90/107
f 45/90/107 74/89/146 77/97/278
f 64/99/129 80/102/200 75/92/147
f 75/92/147 50/91/114 64/99/152
f 72/86/279 36/85/280 49/94/114
f 49/94/114 76/93/147 72/86/142
f 83/45/281 82/44/282 88/56/169
f 88/56/169 87/55/168 83/45/283
f 95/71/284 97/73/285 90/58/286
f 90/58/287 89/57/288 95/71/289
f 84/46/161 83/45/158 87/55/172
f 87/55/172 91/59/171 84/46/161
f 97/73/179 99/75/290 92/60/171
f 92/60/171 90/58/172 97/73/291
f 86/48/193 84/46/166 91/59/174
f 91/59/171 93/61/292 86/48/167
f 99/75/182 100/76/186 94/62/292
f 94/62/175 92/60/174 99/75/290
f 82/83/282 103/84/293 105/88/147
f 105/88/147 88/87/169 82/83/191
f 109/97/294 95/96/295 89/90/169
f 89/90/169 106/89/147 109/97/294
f 100/99/206 112/102/150 107/92/146
f 107/92/146 94/91/197 100/99/206
f 104/86/139 86/85/167 93/94/197
f 93/94/197 108/93/146 104/86/139
f 116/108/228 119/111/296 55/67/297
f 55/67/298 39/51/299 116/108/300
f 42/54/104 29/41/301 114/105/302
f 114/105/303 115/107/228 42/54/229
f 71/84/304 30/42/305 41/53/232
f 41/53/105 73/88/231 71/84/220
f 58/70/306 77/97/307 74/89/308
f 74/89/309 40/52/310 58/70/311
f 75/92/312 80/102/313 65/77/314
f 65/77/130 51/63/115 75/92/236
f 54/66/115 37/49/276 72/86/315
f 72/86/222 76/93/234 54/66/235
f 103/106/316 38/50/102 53/65/238
f 53/65/116 117/109/237 103/106/317
f 68/80/318 122/114/257 118/110/237
f 118/110/239 52/64/238 68/80/275
f 123/37/319 124/38/320 125/39/321
f 125/39/322 126/40/323 123/37/324
f 127/115/325 128/116/326 129/117/327
f 124/38/320 130/41/328 131/42/329
f 131/42/329 125/39/322 124/38/320
f 126/40/323 132/49/330 133/50/331
f 133/50/332 123/37/319 126/40/323
f 134/118/333 135/119/334 136/120/335
f 134/118/336 136/120/335 128/116/337
f 128/116/326 127/115/338 134/118/336
f 137/121/339 138/122/340 139/123/341
f 139/123/341 140/124/339 137/121/339
f 141/51/342 142/52/343 143/53/343
f 143/53/343 144/54/342 141/51/342
f 145/63/344 146/64/345 147/65/345
f 147/65/345 148/66/344 145/63/344
f 149/125/346 150/126/347 151/127/347
f 151/127/348 152/128/349 149/125/349
f 138/122/341 149/125/350 152/128/350
f 152/128/350 139/123/341 138/122/341
f 153/129/351 154/130/352 155/131/353
f 156/67/354 157/68/355 158/69/356
f 158/69/357 159/70/358 156/67/354
f 160/77/359 161/78/360 162/79/361
f 162/79/362 163/80/363 160/77/359
f 164/132/364 165/133/365 166/134/366
f 166/134/367 165/133/368 154/130/369
f 154/130/369 153/129/370 166/134/367
f 134/118/336 127/115/371 167/104/372
f 167/104/372 168/103/373 134/118/333
f 127/115/374 129/135/327 169/105/375
f 169/105/376 167/104/372 127/115/371
f 135/136/377 134/118/333 168/103/378
f 168/103/378 170/106/379 135/136/377
f 140/137/380 171/108/381 172/107/381
f 172/107/381 137/138/380 140/137/380
f 150/139/348 173/109/382 174/110/382
f 174/110/382 151/140/348 150/139/348
f 155/141/383 154/142/352 175/112/384
f 175/112/385 176/111/386 155/141/387
f 165/143/368 164/144/388 177/114/389
f 177/114/389 178/113/390 165/143/391
f 179/115/392 180/116/393 181/117/394
f 182/118/395 183/119/396 184/120/397
f 182/118/398 184/120/397 180/116/399
f 180/116/400 179/115/401 182/118/398
f 185/121/402 186/122/403 187/123/403
f 187/123/403 188/124/402 185/121/402
f 189/125/404 190/126/405 191/127/405
f 191/127/406 192/128/407 189/125/407
f 186/122/408 189/125/407 192/128/407
f 192/128/407 187/123/408 186/122/408
f 193/129/409 194/130/410 195/131/411
f 196/132/412 197/133/413 198/134/414
f 198/134/414 197/133/413 194/130/410
f 194/130/410 193/129/415 198/134/414
f 182/118/398 179/115/392 199/104/378
f 199/104/378 200/103/372 182/118/416
f 179/115/392 181/135/417 201/105/379
f 201/105/418 199/104/378 179/115/392
f 183/136/396 182/118/416 200/103/372
f 200/103/419 202/106/375 183/136/420
f 188/137/402 203/108/382 204/107/382
f 204/107/382 185/138/402 188/137/402
f 190/139/421 205/109/381 206/110/381
f 206/110/381 191/140/421 190/139/421
f 195/141/422 194/142/410 207/112/423
f 207/112/424 208/111/389 195/141/425
f 197/143/426 196/144/412 209/114/386
f 209/114/427 210/113/428 197/143/426
f 168/103/429 167/104/430 124/38/320
f 124/38/320 123/37/431 168/103/429
f 200/82/432 199/81/433 126/40/434
f 126/40/323 125/39/321 200/82/432
f 167/104/435 169/105/436 130/41/437
f 130/41/438 124/38/439 167/104/440
f 202/84/441 200/82/442 125/39/443
f 125/39/444 131/42/445 202/84/446
f 199/81/447 201/86/448 132/49/449
f 132/49/450 126/40/323 199/81/451
f 170/106/452 168/103/453 123/37/454
f 123/37/324 133/50/455 170/106/456
f 172/107/457 171/108/457 141/51/342
f 141/51/342 144/54/342 172/107/457
f 205/88/458 143/53/343 142/52/343
f 142/52/343 206/89/458 205/88/458
f 204/93/459 203/92/459 145/63/344
f 145/63/344 148/66/344 204/93/459
f 173/109/460 147/65/345 146/64/345
f 146/64/345 174/110/460 173/109/460
f 176/111/461 175/112/462 157/68/463
f 157/68/464 156/67/354 176/111/465
f 210/98/466 209/97/467 159/70/468
f 159/70/358 158/69/469 210/98/470
f 208/102/471 207/101/472 161/78/473
f 161/78/473 160/77/474 208/102/471
f 178/113/475 177/114/476 163/80/477
f 163/80/478 162/79/479 178/113/480
f 129/117/327 128/116/481 138/122/340
f 138/122/341 137/121/482 129/117/483
f 153/129/370 155/131/383 140/124/482
f 140/124/339 139/123/340 153/129/370
f 156/67/354 159/70/358 142/52/343
f 142/52/343 141/51/342 156/67/354
f 131/42/329 130/41/328 144/54/342
f 144/54/342 143/53/343 131/42/329
f 160/77/359 163/80/363 146/64/345
f 146/64/345 145/63/344 160/77/359
f 133/50/331 132/49/330 148/66/344
f 148/66/344 147/65/345 133/50/331
f 136/120/484 135/119/377 150/126/347
f 150/126/347 149/125/350 136/120/485
f 164/132/364 166/134/367 152/128/350
f 152/128/350 151/127/347 164/132/388
f 128/116/337 136/120/484 149/125/350
f 149/125/350 138/122/341 128/116/337
f 166/134/367 153/129/486 139/123/341
f 139/123/341 152/128/350 166/134/367
f 155/141/487 176/111/488 171/108/381
f 171/108/381 140/137/380 155/141/353
f 169/105/489 129/135/490 137/138/380
f 137/138/380 172/107/381 169/105/489
f 135/136/377 170/106/379 173/109/382
f 173/109/382 150/139/348 135/136/377
f 177/114/389 164/144/364 151/140/348
f 151/140/348 174/110/382 177/114/389
f 181/117/394 180/116/393 186/122/491
f 186/122/408 185/121/492 181/117/493
f 193/129/415 195/131/494 188/124/492
f 188/124/402 187/123/491 193/129/409
f 184/120/495 183/119/420 190/126/405
f 190/126/405 189/125/407 184/120/495
f 196/132/412 198/134/414 192/128/407
f 192/128/407 191/127/405 196/132/412
f 180/116/399 184/120/495 189/125/407
f 189/125/407 186/122/408 180/116/399
f 198/134/414 193/129/409 187/123/408
f 187/123/408 192/128/407 198/134/414
f 195/141/496 208/111/389 203/108/382
f 203/108/382 188/137/402 195/141/425
f 201/105/379 181/135/417 185/138/402
f 185/138/402 204/107/382 201/105/379
f 183/136/420 202/106/489 205/109/381
f 205/109/381 190/139/421 183/136/420
f 209/114/386 196/144/497 191/140/421
f 191/140/421 206/110/381 209/114/386
f 176/111/465 156/67/354 141/51/342
f 141/51/342 171/108/457 176/111/465
f 144/54/342 130/41/498 169/105/499
f 169/105/499 172/107/457 144/54/342
f 202/84/441 131/42/329 143/53/343
f 143/53/343 205/88/458 202/84/500
f 142/52/343 159/70/358 209/97/467
f 209/97/501 206/89/502 142/52/503
f 208/102/504 160/77/359 145/63/344
f 145/63/344 203/92/459 208/102/504
f 148/66/344 132/49/330 201/86/505
f 201/86/505 204/93/459 148/66/344
f 170/106/506 133/50/507 147/65/345
f 147/65/508 173/109/509 170/106/510
f 146/64/345 163/80/363 177/114/476
f 177/114/476 174/110/460 146/64/345
f 211/1/511 212/2/512 213/3/513
f 213/3/513 214/4/514 211/1/511
f 211/1/515 215/5/516 216/6/517
f 211/1/518 216/6/519 217/7/520
f 217/7/521 212/2/522 211/1/518
f 212/2/523 217/7/524 218/8/525
f 212/2/526 218/8/525 219/9/527
f 219/9/527 213/3/513 212/2/528
f 213/3/513 219/9/527 220/10/529
f 213/3/530 220/10/531 221/11/532
f 221/11/532 214/4/533 213/3/534
f 214/4/535 221/11/536 222/12/537
f 214/4/538 222/12/537 215/5/539
f 215/5/540 211/1/511 214/4/514
f 215/13/540 223/14/541 224/15/542
f 224/15/543 216/6/544 215/13/545
f 216/6/517 224/15/546 225/16/547
f 225/16/547 217/7/548 216/6/549
f 217/7/550 225/16/547 226/17/551
f 226/17/551 218/18/552 217/7/524
f 218/8/553 226/19/554 227/20/555
f 227/20/556 219/9/527 218/8/557
f 219/21/527 227/22/558 228/23/559
f 228/23/560 220/10/529 219/21/561
f 220/10/531 228/23/559 229/24/562
f 229/24/562 221/11/563 220/10/531
f 221/11/563 229/24/564 230/25/565
f 230/25/566 222/26/567 221/11/568
f 222/12/537 230/27/565 223/28/569
f 223/28/541 215/5/540 222/12/537
f 223/14/570 231/29/571 224/15/542
f 224/15/572 231/29/573 232/30/574
f 232/30/575 225/16/576 224/15/546
f 225/16/577 232/30/578 226/17/579
f 226/19/554 232/31/574 233/32/580
f 233/32/580 227/20/556 226/19/581
f 227/22/558 233/33/582 228/23/559
f 228/23/583 233/33/584 234/34/585
f 234/34/585 229/24/586 228/23/587
f 229/24/562 234/34/588 230/25/565
f 230/27/565 234/35/585 231/36/589
f 231/36/590 223/28/570 230/27/565
f 235/37/591 236/38/592 237/39/593
f 237/39/593 238/40/594 235/37/591
f 236/38/592 239/41/595 240/42/596
f 240/42/597 237/39/598 236/38/592
f 241/43/599 242/44/600 243/45/601
f 241/43/599 243/45/602 244/46/603
f 244/46/604 245/47/605 241/43/606
f 245/47/605 244/46/604 246/48/607
f 238/40/608 247/49/609 248/50/610
f 248/50/611 235/37/612 238/40/594
f 249/51/613 250/52/614 251/53/614
f 251/53/614 252/54/613 249/51/613
f 253/55/615 254/56/616 255/57/616
f 255/57/616 256/58/615 253/55/615
f 257/59/617 253/55/618 256/58/618
f 256/58/618 258/60/617 257/59/617
f 259/61/619 257/59/620 258/60/620
f 258/60/621 260/62/622 259/61/619
f 261/63/623 262/64/624 263/65/624
f 263/65/625 264/66/623 261/63/623
f 265/67/626 266/68/627 267/69/628
f 267/69/628 268/70/629 265/67/626
f 269/71/630 270/72/631 271/73/632
f 271/73/633 270/72/631 272/74/634
f 272/74/634 273/75/635 271/73/632
f 273/75/636 272/74/634 274/76/637
f 275/77/638 276/78/639 277/79/640
f 277/79/641 278/80/642 275/77/638
f 279/81/643 280/82/644 241/43/599
f 241/43/645 245/47/605 279/81/646
f 242/83/600 241/43/606 280/82/647
f 280/82/644 281/84/648 242/83/649
f 245/47/650 246/85/607 282/86/651
f 282/86/652 279/81/643 245/47/650
f 254/87/653 283/88/654 284/89/654
f 284/89/654 255/90/653 254/87/653
f 260/91/619 285/92/655 286/93/655
f 286/93/655 259/94/619 260/91/619
f 270/95/656 269/96/657 287/97/658
f 287/97/658 288/98/659 270/95/631
f 274/99/637 272/100/634 289/101/660
f 289/101/661 290/102/662 274/99/663
f 291/43/664 292/44/665 293/45/666
f 291/43/664 293/45/667 294/46/668
f 294/46/668 295/47/669 291/43/670
f 295/47/671 294/46/668 296/48/672
f 297/55/673 298/56/674 299/57/674
f 299/57/675 300/58/673 297/55/673
f 301/59/676 297/55/677 300/58/677
f 300/58/677 302/60/676 301/59/676
f 303/61/678 301/59/679 302/60/679
f 302/60/680 304/62/681 303/61/681
f 305/71/682 306/72/683 307/73/684
f 307/73/685 306/72/686 308/74/687
f 308/74/687 309/75/688 307/73/689
f 309/75/690 308/74/687 310/76/691
f 311/81/692 312/82/643 291/43/664
f 291/43/693 295/47/671 311/81/694
f 292/83/695 291/43/696 312/82/643
f 312/82/697 313/84/698 292/83/699
f 295/47/671 296/85/700 314/86/648
f 314/86/701 311/81/702 295/47/703
f 298/87/704 315/88/655 316/89/655
f 316/89/655 299/90/674 298/87/674
f 304/91/681 317/92/654 318/93/654
f 318/93/654 303/94/681 304/91/681
f 306/95/686 305/96/705 319/97/662
f 319/97/662 320/98/661 306/95/706
f 310/99/707 308/100/708 321/101/709
f 321/101/710 322/102/711 310/99/691
f 312/103/712 323/104/713 236/38/592
f 236/38/592 235/37/612 312/103/712
f 280/82/714 279/81/715 238/40/608
f 238/40/594 237/39/598 280/82/716
f 323/104/717 324/105/718 239/41/719
f 239/41/719 236/38/720 323/104/721
f 281/84/722 280/82/723 237/39/724
f 237/39/725 240/42/726 281/84/727
f 279/81/728 282/86/729 247/49/730
f 247/49/730 238/40/594 279/81/715
f 313/106/731 312/103/732 235/37/733
f 235/37/734 248/50/610 313/106/731
f 325/107/735 326/108/735 249/51/736
f 249/51/736 252/54/736 325/107/735
f 283/88/737 251/53/614 250/52/614
f 250/52/614 284/89/737 283/88/737
f 286/93/738 285/92/738 261/63/739
f 261/63/623 264/66/623 286/93/740
f 327/109/741 263/65/624 262/64/624
f 262/64/624 328/110/742 327/109/742
f 329/111/743 330/112/744 266/68/745
f 266/68/627 265/67/626 329/111/746
f 288/98/747 287/97/748 268/70/749
f 268/70/629 267/69/750 288/98/747
f 290/102/751 289/101/752 276/78/753
f 276/78/754 275/77/638 290/102/755
f 331/113/756 332/114/757 278/80/758
f 278/80/759 277/79/760 331/113/761
f 265/67/762 268/70/763 250/52/614
f 250/52/614 249/51/613 265/67/762
f 240/42/597 239/41/719 252/54/613
f 252/54/613 251/53/614 240/42/596
f 243/45/764 242/44/600 254/56/616
f 254/56/616 253/55/618 243/45/764
f 269/71/765 271/73/632 256/58/618
f 256/58/615 255/57/616 269/71/765
f 244/46/766 243/45/601 253/55/618
f 253/55/618 257/59/617 244/46/767
f 271/73/768 273/75/636 258/60/617
f 258/60/617 256/58/618 271/73/768
f 246/48/769 244/46/603 257/59/621
f 257/59/621 259/61/619 246/48/607
f 273/75/770 274/76/637 260/62/619
f 260/62/619 258/60/621 273/75/770
f 275/77/638 278/80/771 262/64/624
f 262/64/624 261/63/623 275/77/638
f 248/50/610 247/49/772 264/66/623
f 264/66/623 263/65/624 248/50/610
f 242/83/773 281/84/774 283/88/654
f 283/88/654 254/87/653 242/83/600
f 287/97/775 269/96/765 255/90/653
f 255/90/653 284/89/654 287/97/775
f 274/99/637 290/102/662 285/92/655
f 285/92/655 260/91/619 274/99/637
f 282/86/652 246/85/769 259/94/619
f 259/94/619 286/93/655 282/86/776
f 293/45/777 292/44/778 298/56/674
f 298/56/674 297/55/673 293/45/779
f 305/71/780 307/73/781 300/58/673
f 300/58/673 299/57/674 305/71/705
f 294/46/782 293/45/783 297/55/677
f 297/55/677 301/59/676 294/46/784
f 307/73/781 309/75/690 302/60/676
f 302/60/676 300/58/677 307/73/781
f 296/48/785 294/46/786 301/59/680
f 301/59/680 303/61/681 296/48/672
f 309/75/787 310/76/691 304/62/681
f 304/62/681 302/60/680 309/75/787
f 292/83/778 313/84/698 315/88/655
f 315/88/655 298/87/674 292/83/699
f 319/97/788 305/96/705 299/90/674
f 299/90/674 316/89/655 319/97/788
f 310/99/691 322/102/658 317/92/654
f 317/92/654 304/91/681 310/99/691
f 314/86/789 296/85/785 303/94/681
f 303/94/681 318/93/654 314/86/648
f 326/108/735 329/111/790 265/67/762
f 265/67/791 249/51/792 326/108/793
f 252/54/736 239/41/794 324/105/718
f 324/105/718 325/107/735 252/54/736
f 281/84/722 240/42/795 251/53/614
f 251/53/614 283/88/737 281/84/722
f 268/70/763 287/97/796 284/89/737
f 284/89/737 250/52/614 268/70/763
f 285/92/738 290/102/797 275/77/798
f 275/77/638 261/63/623 285/92/799
f 264/66/623 247/49/772 282/86/800
f 282/86/801 286/93/740 264/66/739
f 313/106/802 248/50/610 263/65/624
f 263/65/624 327/109/742 313/106/802
f 278/80/771 332/114/803 328/110/742
f 328/110/742 262/64/624 278/80/804
f 333/37/805 334/38/806 335/39/807
f 335/39/808 336/40/809 333/37/810
f 337/115/811 338/116/812 339/117/813
f 334/38/806 340/41/814 341/42/815
f 341/42/816 335/39/817 334/38/818
f 336/40/819 342/49/820 343/50/821
f 343/50/822 333/37/823 336/40/819
f 344/118/824 345/119/825 346/120/826
f 344/118/827 346/120/828 338/116/812
f 338/116/829 337/115/830 344/118/831
f 347/121/832 348/122/833 349/123/834
f 349/123/835 350/124/832 347/121/832
f 351/51/836 352/52/837 353/53/837
f 353/53/837 354/54/836 351/51/836
f 355/63/838 356/64/839 357/65/839
f 357/65/839 358/66/838 355/63/838
f 359/125/840 360/126/841 361/127/841
f 361/127/842 362/128/843 359/125/843
f 348/122/834 359/125/844 362/128/844
f 362/128/844 349/123/834 348/122/834
f 363/129/845 364/130/846 365/131/847
f 366/67/848 367/68/849 368/69/850
f 368/69/850 369/70/851 366/67/852
f 370/77/853 371/78/854 372/79/855
f 372/79/855 373/80/856 370/77/853
f 374/132/857 375/133/858 376/134/859
f 376/134/860 375/133/861 364/130/846
f 364/130/862 363/129/863 376/134/864
f 344/118/865 337/115/811 377/104/866
f 377/104/867 378/103/868 344/118/865
f 337/115/811 339/135/869 379/105/870
f 379/105/871 377/104/872 337/115/811
f 345/136/825 344/118/873 378/103/874
f 378/103/868 380/106/875 345/136/876
f 350/137/832 381/108/877 382/107/877
f 382/107/877 347/138/832 350/137/832
f 360/139/842 383/109/878 384/110/878
f 384/110/878 361/140/842 360/139/842
f 365/141/847 364/142/879 385/112/880
f 385/112/880 386/111/881 365/141/882
f 375/143/883 374/144/857 387/114/884
f 387/114/884 388/113/885 375/143/886
f 389/115/887 390/116/888 391/117/889
f 392/118/890 393/119/891 394/120/892
f 392/118/893 394/120/892 390/116/894
f 390/116/895 389/115/896 392/118/897
f 395/121/898 396/122/899 397/123/899
f 397/123/900 398/124/898 395/121/898
f 399/125/901 400/126/902 401/127/902
f 401/127/903 402/128/901 399/125/901
f 396/122/899 399/125/904 402/128/904
f 402/128/904 397/123/899 396/122/899
f 403/129/905 404/130/906 405/131/907
f 406/132/908 407/133/909 408/134/910
f 408/134/911 407/133/912 404/130/906
f 404/130/906 403/129/905 408/134/911
f 392/118/913 389/115/887 409/104/914
f 409/104/868 410/103/867 392/118/913
f 389/115/915 391/135/889 411/105/916
f 411/105/917 409/104/868 389/115/915
f 393/136/918 392/118/919 410/103/920
f 410/103/920 412/106/870 393/136/918
f 398/137/898 413/108/878 414/107/878
f 414/107/878 395/138/898 398/137/898
f 400/139/921 415/109/877 416/110/877
f 416/110/877 401/140/921 400/139/921
f 405/141/907 404/142/906 417/112/922
f 417/112/922 418/111/923 405/141/924
f 407/143/912 406/144/925 419/114/881
f 419/114/881 420/113/926 407/143/912
f 378/103/927 377/104/928 334/38/806
f 334/38/806 333/37/805 378/103/927
f 410/82/929 409/81/930 336/40/809
f 336/40/809 335/39/808 410/82/929
f 377/104/931 379/105/932 340/41/933
f 340/41/933 334/38/934 377/104/935
f 412/84/936 410/82/937 335/39/938
f 335/39/939 341/42/940 412/84/941
f 409/81/942 411/86/943 342/49/820
f 342/49/944 336/40/809 409/81/930
f 380/106/945 378/103/946 333/37/805
f 333/37/810 343/50/947 380/106/948
f 382/107/949 381/108/949 351/51/836
f 351/51/950 354/54/950 382/107/951
f 415/88/952 353/53/953 352/52/953
f 352/52/953 416/89/954 415/88/954
f 414/93/955 413/92/955 355/63/956
f 355/63/838 358/66/838 414/93/957
f 383/109/958 357/65/839 356/64/839
f 356/64/959 384/110/960 383/109/960
f 386/111/961 385/112/962 367/68/963
f 367/68/963 366/67/852 386/111/964
f 420/98/965 419/97/966 369/70/851
f 369/70/851 368/69/967 420/98/968
f 418/102/969 417/101/970 371/78/971
f 371/78/971 370/77/972 418/102/969
f 388/113/973 387/114/974 373/80/975
f 373/80/976 372/79/977 388/113/978
f 339/117/813 338/116/812 348/122/833
f 348/122/833 347/121/832 339/117/813
f 363/129/845 365/131/979 350/124/980
f 350/124/832 349/123/835 363/129/845
f 366/67/852 369/70/851 352/52/837
f 352/52/837 351/51/836 366/67/848
f 341/42/816 340/41/814 354/54/836
f 354/54/836 353/53/837 341/42/816
f 370/77/972 373/80/856 356/64/839
f 356/64/839 355/63/838 370/77/981
f 343/50/982 342/49/820 358/66/838
f 358/66/838 357/65/839 343/50/983
f 346/120/984 345/119/876 360/126/841
f 360/126/985 359/125/844 346/120/986
f 374/132/987 376/134/988 362/128/844
f 362/128/843 361/127/841 374/132/857
f 338/116/812 346/120/984 359/125/844
f 359/125/844 348/122/834 338/116/812
f 376/134/859 363/129/863 349/123/834
f 349/123/834 362/128/844 376/134/988
f 365/141/989 386/111/990 381/108/877
f 381/108/877 350/137/832 365/141/882
f 379/105/991 339/135/992 347/138/832
f 347/138/832 382/107/877 379/105/993
f 345/136/825 380/106/994 383/109/878
f 383/109/878 360/139/842 345/136/876
f 387/114/923 374/144/857 361/140/842
f 361/140/842 384/110/878 387/114/923
f 391/117/995 390/116/996 396/122/899
f 396/122/997 395/121/898 391/117/998
f 403/129/905 405/131/924 398/124/898
f 398/124/898 397/123/997 403/129/999
f 394/120/1000 393/119/918 400/126/902
f 400/126/902 399/125/901 394/120/1001
f 406/132/925 408/134/911 402/128/901
f 402/128/901 401/127/902 406/132/925
f 390/116/894 394/120/1001 399/125/904
f 399/125/904 396/122/899 390/116/894
f 408/134/910 403/129/999 397/123/899
f 397/123/899 402/128/904 408/134/910
f 405/141/1002 418/111/923 413/108/878
f 413/108/878 398/137/898 405/141/924
f 411/105/1003 391/135/889 395/138/898
f 395/138/898 414/107/878 411/105/994
f 393/136/1004 412/106/993 415/109/877
f 415/109/877 400/139/921 393/136/1004
f 419/114/881 406/144/925 401/140/921
f 401/140/921 416/110/877 419/114/881
f 386/111/961 366/67/852 351/51/836
f 351/51/950 381/108/951 386/111/961
f 354/54/836 340/41/933 379/105/932
f 379/105/1005 382/107/951 354/54/950
f 412/84/1006 341/42/940 353/53/953
f 353/53/953 415/88/954 412/84/1007
f 352/52/837 369/70/851 419/97/1008
f 419/97/1009 416/89/954 352/52/1010
f 418/102/1011 370/77/1012 355/63/838
f 355/63/956 413/92/955 418/102/1013
f 358/66/838 342/49/820 411/86/1014
f 411/86/1015 414/93/955 358/66/956
f 380/106/1016 343/50/947 357/65/959
f 357/65/839 383/109/958 380/106/1017
f 356/64/839 373/80/856 387/114/1018
f 387/114/1019 384/110/960 356/64/959
