# Blender 5.2.0 LTS
# www.blender.org
o hangar_midorian_x4_shadow_alpha_WELDED
v -4.295085 -10.337365 -92.147888
v 1.255193 -10.337365 -92.147888
v 1.255193 -10.337364 -98.988953
v -4.295085 -10.337364 -98.988953
v -17.605085 -10.337365 -42.436737
v -12.054807 -10.337365 -42.436737
v -12.054807 -10.337365 -49.277802
v -17.605085 -10.337365 -49.277802
v 56.103806 -10.337365 -78.676735
v 61.654079 -10.337365 -78.676735
v 61.654079 -10.337365 -85.517799
v 56.103806 -10.337365 -85.517799
v -99.314217 -10.337365 -93.256737
v -93.763947 -10.337365 -93.256737
v -93.763947 -10.337364 -100.097801
v -99.314217 -10.337364 -100.097801
vn -0.0000 1.0000 -0.0000
vt 0.506586 0.425893
vt 0.538754 0.425893
vt 0.538754 0.458858
vt 0.506586 0.458858
s 0
f 1/1/1 2/2/1 3/3/1
f 3/3/1 4/4/1 1/1/1
f 5/1/1 6/2/1 7/3/1
f 7/3/1 8/4/1 5/1/1
f 9/1/1 10/2/1 11/3/1
f 11/3/1 12/4/1 9/1/1
f 13/1/1 14/2/1 15/3/1
f 15/3/1 16/4/1 13/1/1
