# Blender 5.2.0 LTS
# www.blender.org
o hangar_midorian_x1_shadow_alpha_WELDED
v -53.138691 -10.337365 -91.185204
v -46.957092 -10.337365 -91.185204
v -46.957092 -10.337365 -97.113457
v -53.138691 -10.337365 -97.113457
v -46.366863 -10.337365 -93.629738
v -39.944653 -10.337365 -93.629738
v -39.944653 -10.337364 -98.398224
v -46.366863 -10.337364 -98.398224
v -48.014114 -10.313898 -92.814117
v -45.178574 -10.313898 -92.814117
v -45.178574 -10.313898 -96.888435
v -48.014114 -10.313898 -96.888435
vn -0.0000 1.0000 -0.0000
vt 0.508258 0.426979
vt 0.539204 0.426979
vt 0.539204 0.458927
vt 0.508258 0.458927
s 0
f 1/1/1 2/2/1 3/3/1
f 3/3/1 4/4/1 1/1/1
f 5/1/1 6/2/1 7/3/1
f 7/3/1 8/4/1 5/1/1
f 9/1/1 10/2/1 11/3/1
f 11/3/1 12/4/1 9/1/1
