# Blender 5.2.0 LTS
# www.blender.org
o hangar_midorian_x6_WELDED
v -17.969534 -8.664571 -107.897568
v -19.424330 -8.664571 -107.770248
v -19.258240 -8.664571 -105.872017
v -17.803434 -8.664571 -105.999336
v -19.431200 -8.758387 -107.848907
v -19.505127 -8.758387 -107.763191
v -19.339060 -8.758387 -105.864967
v -17.722624 -8.758387 -106.006393
v -17.888699 -8.758387 -107.904633
v -17.976398 -8.758387 -107.976181
v -19.431200 -10.298824 -107.848907
v -19.505127 -10.298824 -107.763191
v -19.339060 -10.298824 -105.864967
v -17.722624 -10.298824 -106.006393
v -17.888699 -10.298824 -107.904633
v -17.976398 -10.298824 -107.976181
v -19.424330 -10.401611 -107.770248
v -19.258240 -10.401611 -105.872017
v -17.803434 -10.401611 -105.999336
v -17.969534 -10.401611 -107.897568
v -17.704445 -8.664571 -104.868034
v -17.697578 -8.758387 -104.789383
v -17.623650 -8.758387 -104.875092
v -19.159245 -8.664571 -104.740723
v -19.240080 -8.758387 -104.733650
v -19.152378 -8.758387 -104.662109
v -17.697578 -10.298824 -104.789383
v -17.623650 -10.298824 -104.875092
v -19.240080 -10.298824 -104.733650
v -19.152378 -10.298824 -104.662109
v -17.704445 -10.401611 -104.868034
v -19.159245 -10.401611 -104.740723
v -21.483036 -8.664571 -105.842949
v -20.024054 -8.664571 -105.906685
v -20.107176 -8.664571 -107.810371
v -21.566156 -8.664571 -107.746620
v -19.943020 -8.758387 -105.910210
v -20.026134 -8.758387 -107.813873
v -20.110638 -8.758387 -107.889198
v -21.569584 -8.758387 -107.825493
v -21.647202 -8.758387 -107.743126
v -21.564087 -8.758387 -105.839432
v -19.943020 -10.123484 -105.910210
v -20.026134 -10.123484 -107.813873
v -20.026134 -8.933726 -107.813873
v -19.943020 -8.933726 -105.910210
v -20.110638 -8.933726 -107.889198
v -20.110638 -10.123484 -107.889198
v -21.569584 -8.933726 -107.825493
v -21.569584 -10.123484 -107.825493
v -21.647202 -8.933726 -107.743126
v -21.647202 -10.123484 -107.743126
v -21.564087 -10.123484 -105.839432
v -21.564087 -8.933726 -105.839432
v -19.943020 -10.298824 -105.910210
v -20.024054 -10.401611 -105.906685
v -20.107176 -10.401611 -107.810371
v -20.026134 -10.298824 -107.813873
v -20.110638 -10.298824 -107.889198
v -21.566156 -10.401611 -107.746620
v -21.569584 -10.298824 -107.825493
v -21.647202 -10.298824 -107.743126
v -21.483023 -10.401611 -105.842957
v -21.564087 -10.298824 -105.839432
v -21.433510 -8.664571 -104.708397
v -21.514551 -8.758387 -104.704880
v -21.430048 -8.758387 -104.629570
v -19.971102 -8.758387 -104.693268
v -19.974529 -8.664571 -104.772148
v -19.893484 -8.758387 -104.775642
v -21.514551 -10.298824 -104.704880
v -21.430048 -10.298824 -104.629570
v -19.971102 -10.298824 -104.693268
v -19.893484 -10.298824 -104.775642
v -21.433510 -10.401611 -104.708397
v -19.974529 -10.401611 -104.772148
v -20.024073 -8.664571 -105.906685
v -19.943018 -8.758387 -105.910202
v -21.564087 -10.298824 -105.839432
v -19.943018 -10.298824 -105.910202
v -21.483046 -10.401611 -105.842949
v -20.024073 -10.401611 -105.906685
v -22.150253 -6.834492 -106.814529
v -22.282417 -6.900406 -105.304840
v -21.690077 -6.902667 -105.253075
v -21.557915 -6.836753 -106.762749
v -22.289770 -7.001421 -105.225250
v -21.697435 -7.003682 -105.173477
v -20.469007 -6.934773 -105.175934
v -20.476107 -7.032024 -105.099304
v -20.390404 -7.028799 -105.173180
v -20.263130 -6.965342 -106.626579
v -20.341776 -6.871314 -106.629372
v -20.334669 -6.961516 -106.714195
v -21.550547 -6.930444 -106.850868
v -22.142891 -6.928184 -106.902634
v -22.289770 -8.387622 -105.285767
v -21.697441 -8.389883 -105.234001
v -21.697435 -7.181732 -105.181244
v -22.289770 -7.179472 -105.233025
v -20.390404 -7.203972 -105.180824
v -20.476107 -7.207197 -105.106949
v -20.476105 -8.395823 -105.158844
v -20.390404 -8.392596 -105.232719
v -20.263130 -7.140515 -106.634224
v -20.263128 -8.329140 -106.686119
v -20.334669 -7.136689 -106.721840
v -20.334669 -8.325314 -106.773735
v -21.550547 -8.316646 -106.911385
v -22.142885 -8.314386 -106.963165
v -22.142891 -7.106236 -106.910408
v -21.550547 -7.108496 -106.858643
v -22.289770 -8.565674 -105.293541
v -22.282417 -8.668675 -105.382050
v -21.690077 -8.670937 -105.330269
v -21.697435 -8.567934 -105.241776
v -20.476105 -8.570995 -105.166504
v -20.469009 -8.670160 -105.251709
v -20.390404 -8.567770 -105.240372
v -20.341776 -8.606701 -106.705132
v -20.263128 -8.504313 -106.693764
v -20.334669 -8.500487 -106.781387
v -21.550547 -8.494698 -106.919159
v -21.557915 -8.605021 -106.839951
v -22.150249 -8.602761 -106.891716
v -22.142891 -8.492436 -106.970932
v -21.473080 -6.866997 -106.728241
v -21.600317 -6.930455 -105.274818
v -21.607403 -7.027706 -105.198181
v -21.465986 -6.957199 -106.813080
v -21.607407 -7.202879 -105.205841
v -21.607407 -8.391504 -105.257729
v -21.465986 -8.320996 -106.872627
v -21.465986 -7.132372 -106.820732
v -21.607407 -8.566678 -105.265381
v -21.600317 -8.665842 -105.350586
v -21.473080 -8.602384 -106.804024
v -21.465986 -8.496170 -106.880272
v -23.371323 -6.859752 -106.894180
v -23.364223 -6.949954 -106.979004
v -23.449926 -6.953180 -106.905113
v -23.577202 -7.016636 -105.451729
v -23.498554 -6.923211 -105.440742
v -23.505663 -7.020462 -105.364098
v -23.449926 -7.128353 -106.912773
v -23.364223 -7.125127 -106.986649
v -23.364227 -8.313752 -107.038544
v -23.449926 -8.316978 -106.964668
v -23.577202 -7.191810 -105.459373
v -23.577202 -8.380434 -105.511269
v -23.505663 -7.195635 -105.371758
v -23.505659 -8.384260 -105.423653
v -23.364223 -8.488926 -107.046188
v -23.371323 -8.595140 -106.969948
v -23.449926 -8.492151 -106.972313
v -23.498554 -8.658597 -105.516510
v -23.577202 -8.555608 -105.518921
v -23.505663 -8.559434 -105.431297
v -22.367250 -6.927528 -105.341873
v -22.240009 -6.864070 -106.795288
v -22.232924 -6.954271 -106.880112
v -22.374346 -7.024780 -105.265221
v -22.232924 -7.129445 -106.887764
v -22.232924 -8.318070 -106.939667
v -22.374346 -8.388577 -105.324760
v -22.374346 -7.199953 -105.272865
v -22.232924 -8.493243 -106.947304
v -22.240015 -8.599457 -106.871071
v -22.367250 -8.662914 -105.417633
v -22.374346 -8.563751 -105.332420
v -22.367245 -6.927529 -105.341850
v -22.374331 -7.024780 -105.265221
v -22.374331 -7.199953 -105.272865
v -22.374331 -8.388577 -105.324760
v -22.232920 -8.318070 -106.939659
v -22.374331 -8.563751 -105.332413
v -22.367250 -8.662915 -105.417618
v -22.240009 -8.599458 -106.871040
v -22.232920 -8.493243 -106.947304
v -23.333071 -8.664571 -107.604874
v -24.656591 -8.664571 -106.987671
v -23.851278 -8.664571 -105.260719
v -22.527758 -8.664571 -105.877937
v -24.689941 -8.758387 -107.059227
v -24.730093 -8.758387 -106.953400
v -23.924809 -8.758387 -105.226456
v -22.454233 -8.758387 -105.912201
v -23.259531 -8.758387 -107.639168
v -23.366411 -8.758387 -107.676407
v -24.689941 -10.298824 -107.059227
v -24.730093 -10.298824 -106.953400
v -23.924809 -10.298824 -105.226456
v -22.454233 -10.298824 -105.912201
v -23.259531 -10.298824 -107.639168
v -23.366411 -10.298824 -107.676407
v -24.656591 -10.401611 -106.987671
v -23.851278 -10.401611 -105.260719
v -22.527758 -10.401611 -105.877937
v -23.333071 -10.401611 -107.604874
v -22.047802 -8.664571 -104.848709
v -22.014452 -8.758387 -104.777153
v -21.974300 -8.758387 -104.882988
v -23.371328 -8.664571 -104.231514
v -23.444868 -8.758387 -104.197212
v -23.337982 -8.758387 -104.159981
v -22.014452 -10.298824 -104.777153
v -21.974300 -10.298824 -104.882988
v -23.444868 -10.298824 -104.197212
v -23.337982 -10.298824 -104.159981
v -22.047802 -10.401611 -104.848709
v -23.371328 -10.401611 -104.231514
v -82.454384 -10.401610 -33.677059
v -81.053062 -10.401610 -33.266018
v -82.476608 -10.298823 -33.601341
v -82.532242 -10.298823 -33.699902
v -80.975243 -10.298823 -33.243187
v -81.075302 -10.298823 -33.190269
v -82.476608 -8.758387 -33.601341
v -82.532242 -8.758387 -33.699902
v -82.454384 -8.664571 -33.677059
v -80.975243 -8.758387 -33.243187
v -81.075302 -8.758387 -33.190269
v -81.053062 -8.664571 -33.266018
v -80.197075 -10.401610 -36.184170
v -80.733414 -10.401610 -34.355732
v -82.134735 -10.401610 -34.766766
v -81.598396 -10.401610 -36.595219
v -80.174850 -10.298823 -36.259895
v -80.119217 -10.298823 -36.161331
v -80.655586 -10.298823 -34.332886
v -82.212578 -10.298823 -34.789619
v -81.676208 -10.298823 -36.618046
v -81.576149 -10.298823 -36.670967
v -80.174850 -8.758387 -36.259895
v -80.119217 -8.758387 -36.161331
v -80.655586 -8.758387 -34.332886
v -82.212578 -8.758387 -34.789619
v -81.676208 -8.758387 -36.618046
v -81.576149 -8.758387 -36.670967
v -80.733414 -8.664571 -34.355732
v -82.134735 -8.664571 -34.766766
v -81.598396 -8.664571 -36.595219
v -80.197075 -8.664571 -36.184170
v -79.805611 -8.493242 -34.963730
v -79.861313 -8.599457 -34.911160
v -80.917030 -8.662915 -33.904140
v -80.978630 -8.563751 -33.844849
v -79.810661 -8.318069 -34.957989
v -80.983688 -8.388577 -33.839108
v -81.017975 -7.199953 -33.800144
v -81.023026 -7.024780 -33.794407
v -80.967087 -6.927529 -33.847256
v -80.978638 -8.563751 -33.844864
v -80.917015 -8.662914 -33.904148
v -79.861298 -8.599456 -34.911182
v -79.805611 -8.493242 -34.963734
v -81.017990 -7.199953 -33.800159
v -80.983696 -8.388577 -33.839119
v -79.810661 -8.318069 -34.957993
v -79.844948 -7.129446 -34.919033
v -81.023033 -7.024780 -33.794418
v -79.849998 -6.954272 -34.913292
v -79.911362 -6.864071 -34.854290
v -80.967079 -6.927528 -33.847275
v -81.762596 -8.559433 -34.666489
v -81.758415 -8.555608 -34.779530
v -81.700966 -8.658597 -34.725765
v -80.702698 -8.492151 -35.786507
v -80.645248 -8.595139 -35.732803
v -80.589554 -8.488926 -35.785351
v -81.767654 -8.384260 -34.660748
v -81.801933 -7.195636 -34.621792
v -81.763474 -8.380434 -34.773788
v -81.797752 -7.191811 -34.734829
v -80.707748 -8.316978 -35.780769
v -80.594604 -8.313752 -35.779610
v -80.628891 -7.125128 -35.740650
v -80.742027 -7.128354 -35.741806
v -81.806992 -7.020463 -34.616043
v -81.751022 -6.923211 -34.668880
v -81.802811 -7.016636 -34.729088
v -80.747086 -6.953180 -35.736065
v -80.633942 -6.949955 -35.734905
v -80.695312 -6.859753 -35.675922
v -79.274155 -8.496170 -34.406738
v -79.329865 -8.602384 -34.354179
v -80.385582 -8.665842 -33.347149
v -80.447189 -8.566678 -33.287865
v -79.313492 -7.132372 -34.362041
v -79.279213 -8.320996 -34.400997
v -80.452248 -8.391504 -33.282124
v -80.486534 -7.202880 -33.243164
v -79.318550 -6.957199 -34.356297
v -80.491577 -7.027707 -33.237423
v -80.435631 -6.930456 -33.290268
v -79.379921 -6.866997 -34.297298
v -79.722412 -8.492436 -34.921986
v -79.780273 -8.602761 -34.867386
v -79.369804 -8.605021 -34.437195
v -79.311943 -8.494697 -34.491791
v -78.490211 -8.500487 -33.585106
v -78.494385 -8.504313 -33.472065
v -78.545914 -8.606701 -33.532562
v -79.550102 -8.567770 -32.465088
v -79.601631 -8.670160 -32.525528
v -79.663254 -8.570996 -32.466248
v -80.530380 -8.567934 -33.329624
v -80.466377 -8.670936 -33.391197
v -80.876846 -8.668675 -33.821384
v -80.940842 -8.565673 -33.759808
v -79.351929 -7.108496 -34.446358
v -79.762398 -7.106236 -34.876553
v -79.727547 -8.314385 -34.916153
v -79.317078 -8.316646 -34.485958
v -78.495262 -8.325314 -33.579369
v -78.529541 -7.136690 -33.540409
v -78.499435 -8.329139 -33.466328
v -78.533730 -7.140515 -33.427372
v -79.555161 -8.392597 -32.459347
v -79.668304 -8.395823 -32.460506
v -79.702583 -7.207198 -32.421547
v -79.589439 -7.203972 -32.420383
v -80.980820 -7.179472 -33.714375
v -80.570358 -7.181733 -33.284187
v -80.535507 -8.389882 -33.323784
v -80.945976 -8.387623 -33.753975
v -79.767532 -6.928185 -34.870716
v -79.357063 -6.930445 -34.440521
v -78.534599 -6.961516 -33.534668
v -78.595970 -6.871315 -33.475681
v -78.538780 -6.965342 -33.421631
v -79.594498 -7.028799 -32.414642
v -79.707642 -7.032024 -32.415806
v -79.651680 -6.934772 -32.468647
v -80.575493 -7.003682 -33.278355
v -80.985954 -7.001421 -33.708534
v -79.420807 -6.836753 -34.379246
v -80.517387 -6.902667 -33.333241
v -80.927849 -6.900407 -33.763432
v -79.831268 -6.834492 -34.809437
v -78.834908 -10.401611 -32.723274
v -79.972267 -10.401610 -33.639290
v -78.771736 -10.298824 -32.672367
v -80.035431 -10.298823 -33.690182
v -78.771736 -8.758388 -32.672367
v -78.834908 -8.664572 -32.723274
v -79.547241 -10.401611 -31.838842
v -80.684616 -10.401610 -32.754852
v -79.484093 -10.298824 -31.787930
v -79.596779 -10.298824 -31.777367
v -80.734093 -10.298824 -32.693386
v -80.747772 -10.298823 -32.805756
v -79.484093 -8.758388 -31.787930
v -79.547241 -8.664572 -31.838842
v -79.596779 -8.758388 -31.777367
v -80.734093 -8.758388 -32.693386
v -80.747772 -8.758387 -32.805756
v -80.684616 -8.664571 -32.754852
v -80.035431 -10.298823 -33.690186
v -79.972244 -10.401610 -33.639278
v -78.840157 -10.298823 -35.174194
v -78.727470 -10.298823 -35.184753
v -78.777008 -10.401610 -35.123280
v -77.590164 -10.298823 -34.268730
v -77.576485 -10.298823 -34.156368
v -77.639633 -10.401610 -34.207272
v -78.834892 -10.401611 -32.723267
v -78.771729 -10.298824 -32.672379
v -80.035431 -8.933727 -33.690186
v -80.035431 -10.123484 -33.690186
v -78.840157 -10.123484 -35.174194
v -78.840157 -8.933726 -35.174194
v -78.727470 -10.123484 -35.184753
v -78.727470 -8.933726 -35.184753
v -77.590164 -10.123484 -34.268730
v -77.590164 -8.933726 -34.268730
v -78.771729 -8.933727 -32.672379
v -77.576485 -8.933726 -34.156368
v -77.576485 -10.123484 -34.156368
v -78.771729 -10.123485 -32.672379
v -80.035431 -8.758387 -33.690186
v -78.840157 -8.758387 -35.174194
v -78.727470 -8.758387 -35.184753
v -77.590164 -8.758387 -34.268730
v -77.576485 -8.758387 -34.156368
v -78.771729 -8.758388 -32.672379
v -78.777008 -8.664571 -35.123280
v -77.639633 -8.664571 -34.207272
v -78.834892 -8.664572 -32.723267
v -79.972252 -8.664571 -33.639282
v -78.955963 -10.401611 -31.276646
v -77.779747 -10.401611 -30.411112
v -79.002754 -10.298824 -31.213091
v -79.021324 -10.298824 -31.324741
v -77.714424 -10.298824 -30.363041
v -77.826546 -10.298824 -30.347534
v -79.002754 -8.758388 -31.213091
v -79.021324 -8.758388 -31.324741
v -78.955963 -8.664572 -31.276646
v -77.714424 -8.758388 -30.363041
v -77.826546 -8.758388 -30.347534
v -77.779747 -8.664572 -30.411112
v -75.977303 -10.401610 -32.860508
v -77.106667 -10.401611 -31.325781
v -78.282898 -10.401611 -32.191307
v -77.153526 -10.401610 -33.726044
v -75.930527 -10.298823 -32.924061
v -75.911949 -10.298823 -32.812416
v -77.041344 -10.298824 -31.277689
v -78.348228 -10.298824 -32.239407
v -77.218849 -10.298823 -33.774117
v -77.106728 -10.298823 -33.789619
v -75.930527 -8.758387 -32.924061
v -75.911949 -8.758387 -32.812416
v -77.041344 -8.758388 -31.277689
v -78.348228 -8.758388 -32.239407
v -77.218849 -8.758387 -33.774117
v -77.106728 -8.758387 -33.789619
v -77.106667 -8.664572 -31.325781
v -78.282898 -8.664572 -32.191307
v -77.153526 -8.664571 -33.726044
v -75.977303 -8.664571 -32.860508
v -58.700779 -8.664571 -127.055840
v -59.876999 -8.664571 -127.921387
v -61.006374 -8.664571 -126.386635
v -59.830139 -8.664571 -125.521111
v -59.830204 -8.758387 -127.984955
v -59.942322 -8.758387 -127.969452
v -61.071709 -8.758387 -126.434746
v -59.764816 -8.758387 -125.473022
v -58.635429 -8.758387 -127.007751
v -58.653999 -8.758387 -127.119392
v -59.830204 -10.298824 -127.984955
v -59.942322 -10.298824 -127.969452
v -61.071709 -10.298824 -126.434746
v -59.764816 -10.298824 -125.473022
v -58.635429 -10.298824 -127.007751
v -58.653999 -10.298824 -127.119392
v -59.876999 -10.401610 -127.921387
v -61.006374 -10.401610 -126.386635
v -59.830139 -10.401610 -125.521111
v -58.700779 -10.401610 -127.055840
v -60.503220 -8.664571 -124.606445
v -60.550022 -8.758387 -124.542870
v -60.437901 -8.758387 -124.558372
v -61.679443 -8.664571 -125.471977
v -61.744797 -8.758387 -125.520073
v -61.726231 -8.758387 -125.408424
v -60.550022 -10.298824 -124.542870
v -60.437901 -10.298824 -124.558372
v -61.744797 -10.298824 -125.520073
v -61.726231 -10.298824 -125.408424
v -60.503220 -10.401610 -124.606445
v -61.679443 -10.401610 -125.471977
v -62.695732 -8.664571 -127.834618
v -61.558369 -8.664571 -126.918602
v -60.363113 -8.664571 -128.402603
v -61.500488 -8.664571 -129.318604
v -61.495205 -8.758387 -126.867714
v -60.299961 -8.758387 -128.351700
v -60.313641 -8.758387 -128.464066
v -61.450947 -8.758387 -129.380096
v -61.563637 -8.758387 -129.369522
v -62.758904 -8.758387 -127.885521
v -61.495205 -10.123484 -126.867714
v -60.299961 -10.123484 -128.351700
v -60.299961 -8.933727 -128.351700
v -61.495205 -8.933727 -126.867714
v -60.313641 -8.933727 -128.464066
v -60.313641 -10.123484 -128.464066
v -61.450947 -8.933727 -129.380096
v -61.450947 -10.123484 -129.380096
v -61.563637 -8.933727 -129.369522
v -61.563637 -10.123484 -129.369522
v -62.758904 -10.123484 -127.885521
v -62.758904 -8.933727 -127.885521
v -61.495205 -10.298824 -126.867714
v -61.558369 -10.401610 -126.918602
v -60.363113 -10.401610 -128.402603
v -60.299961 -10.298824 -128.351700
v -60.313641 -10.298824 -128.464066
v -61.500488 -10.401611 -129.318604
v -61.450947 -10.298824 -129.380096
v -61.563637 -10.298824 -129.369522
v -62.695721 -10.401610 -127.834610
v -62.758904 -10.298824 -127.885521
v -63.408089 -8.664571 -126.950195
v -63.471249 -8.758387 -127.001091
v -63.457565 -8.758387 -126.888725
v -62.320251 -8.758387 -125.972702
v -62.270721 -8.664571 -126.034180
v -62.207565 -8.758387 -125.983261
v -63.471249 -10.298824 -127.001091
v -63.457565 -10.298824 -126.888725
v -62.320251 -10.298824 -125.972702
v -62.207565 -10.298824 -125.983261
v -63.408089 -10.401610 -126.950195
v -62.270721 -10.401610 -126.034180
v -61.558388 -8.664571 -126.918610
v -61.495213 -8.758387 -126.867699
v -62.758904 -10.298824 -127.885513
v -61.495213 -10.298824 -126.867699
v -62.695747 -10.401610 -127.834625
v -61.558388 -10.401610 -126.918610
v -62.554745 -6.834492 -129.004776
v -63.651325 -6.900407 -127.958763
v -63.240864 -6.902666 -127.528572
v -62.144287 -6.836753 -128.574585
v -63.709431 -7.001421 -127.903862
v -63.298973 -7.003682 -127.473686
v -62.375160 -6.934772 -126.663979
v -62.431122 -7.032024 -126.611137
v -62.317978 -7.028799 -126.609978
v -61.262253 -6.965342 -127.616966
v -61.319447 -6.871314 -127.671013
v -61.258076 -6.961516 -127.729996
v -62.080540 -6.930445 -128.635849
v -62.491009 -6.928184 -129.066055
v -63.669453 -8.387622 -127.949310
v -63.258987 -8.389883 -127.519119
v -63.293835 -7.181732 -127.479530
v -63.704296 -7.179471 -127.909706
v -62.312920 -7.203972 -126.615723
v -62.426064 -7.207198 -126.616882
v -62.391781 -8.395822 -126.655838
v -62.278637 -8.392596 -126.654686
v -61.257206 -7.140515 -127.622711
v -61.222912 -8.329140 -127.661659
v -61.253021 -7.136690 -127.735741
v -61.218739 -8.325314 -127.774704
v -62.040554 -8.316647 -128.681290
v -62.451023 -8.314385 -129.111481
v -62.485874 -7.106236 -129.071884
v -62.075409 -7.108496 -128.641693
v -63.664314 -8.565674 -127.955147
v -63.600323 -8.668675 -128.016708
v -63.189854 -8.670936 -127.586533
v -63.253857 -8.567934 -127.524956
v -62.386726 -8.570995 -126.661583
v -62.325108 -8.670159 -126.720856
v -62.273582 -8.567770 -126.660423
v -61.269394 -8.606701 -127.727898
v -61.217861 -8.504313 -127.667397
v -61.213684 -8.500487 -127.780449
v -62.035419 -8.494698 -128.687119
v -62.093281 -8.605022 -128.632538
v -62.503750 -8.602761 -129.062729
v -62.445889 -8.492436 -129.117325
v -62.103397 -6.866997 -128.492630
v -63.159111 -6.930456 -127.485603
v -63.215057 -7.027707 -127.432755
v -62.042030 -6.957199 -128.551636
v -63.210007 -7.202880 -127.438492
v -63.175720 -8.391504 -127.477455
v -62.002689 -8.320996 -128.596329
v -62.036972 -7.132372 -128.557373
v -63.170666 -8.566678 -127.483200
v -63.109055 -8.665842 -127.542480
v -62.053337 -8.602385 -128.549515
v -61.997635 -8.496170 -128.602066
v -63.418789 -6.859753 -129.871262
v -63.357422 -6.949954 -129.930237
v -63.470566 -6.953180 -129.931396
v -64.526291 -7.016636 -128.924423
v -64.474503 -6.923211 -128.864212
v -64.530464 -7.020462 -128.811386
v -63.465508 -7.128354 -129.937149
v -63.352371 -7.125127 -129.935989
v -63.318085 -8.313752 -129.974945
v -63.431229 -8.316978 -129.976105
v -64.521233 -7.191811 -128.930161
v -64.486954 -8.380435 -128.969116
v -64.525406 -7.195635 -128.817123
v -64.491135 -8.384260 -128.856079
v -63.313030 -8.488926 -129.980682
v -63.368729 -8.595140 -129.928146
v -63.426174 -8.492151 -129.981842
v -64.424438 -8.658598 -128.921097
v -64.481895 -8.555608 -128.974854
v -64.486076 -8.559434 -128.861816
v -63.690556 -6.927528 -128.042618
v -62.634842 -6.864070 -129.049622
v -62.573475 -6.954271 -129.108627
v -63.746513 -7.024779 -127.989754
v -62.568428 -7.129445 -129.114365
v -62.534138 -8.318069 -129.153320
v -63.707176 -8.388578 -128.034454
v -63.741463 -7.199953 -127.995499
v -62.529091 -8.493243 -129.159073
v -62.584774 -8.599457 -129.106522
v -63.640491 -8.662914 -128.099487
v -63.702118 -8.563751 -128.040192
v -63.690559 -6.927528 -128.042587
v -63.746502 -7.024779 -127.989746
v -63.741447 -7.199953 -127.995483
v -63.707165 -8.388578 -128.034439
v -62.534138 -8.318069 -129.153320
v -63.702106 -8.563751 -128.040176
v -63.640507 -8.662915 -128.099472
v -62.584793 -8.599458 -129.106506
v -62.529091 -8.493243 -129.159058
v -62.920551 -8.664571 -130.379501
v -64.321877 -8.664571 -130.790558
v -64.858215 -8.664571 -128.962112
v -63.456894 -8.664571 -128.551071
v -64.299629 -8.758387 -130.866302
v -64.399689 -8.758387 -130.813370
v -64.936050 -8.758387 -128.984955
v -63.379063 -8.758387 -128.528214
v -62.842693 -8.758387 -130.356674
v -62.898323 -8.758387 -130.455231
v -64.299629 -10.298824 -130.866302
v -64.399689 -10.298824 -130.813370
v -64.936050 -10.298824 -128.984955
v -63.379063 -10.298824 -128.528214
v -62.842693 -10.298824 -130.356674
v -62.898323 -10.298824 -130.455231
v -64.321877 -10.401611 -130.790558
v -64.858215 -10.401611 -128.962112
v -63.456894 -10.401611 -128.551071
v -62.920551 -10.401611 -130.379501
v -63.776543 -8.664571 -127.461357
v -63.798779 -8.758387 -127.385605
v -63.698719 -8.758387 -127.438522
v -65.177856 -8.664571 -127.872398
v -65.255722 -8.758387 -127.895233
v -65.200089 -8.758387 -127.796677
v -63.798779 -10.298824 -127.385605
v -63.698719 -10.298824 -127.438522
v -65.255722 -10.298824 -127.895233
v -65.200089 -10.298824 -127.796677
v -63.776543 -10.401611 -127.461357
v -65.177856 -10.401611 -127.872398
vn 0.3317 0.8533 -0.4023
vn -0.3967 0.8533 -0.3384
vn -0.4142 0.9094 0.0362
vn -0.4143 0.9094 0.0360
vn 0.4143 0.9094 -0.0363
vn 0.3318 0.8533 -0.4022
vn -0.3968 0.8533 -0.3384
vn -0.4170 0.3072 -0.8554
vn -0.9103 0.3112 -0.2728
vn -0.3967 0.8533 -0.3385
vn -0.9103 0.3113 -0.2729
vn -0.9335 0.3491 0.0816
vn -0.9335 0.3490 0.0816
vn -0.4144 0.9094 0.0363
vn 0.4144 0.9094 -0.0363
vn 0.9335 0.3491 -0.0817
vn 0.8490 0.3113 -0.4269
vn 0.8490 0.3113 -0.4270
vn 0.3318 0.8533 -0.4023
vn 0.8490 0.3114 -0.4270
vn 0.2619 0.3071 -0.9149
vn 0.2620 0.3071 -0.9149
vn -0.4170 0.3071 -0.8555
vn -0.9103 0.3112 -0.2730
vn -0.4169 0.3072 -0.8555
vn -0.4198 -0.2886 -0.8605
vn -0.4199 -0.2886 -0.8604
vn -0.9158 -0.2927 -0.2749
vn -0.9158 -0.2927 -0.2750
vn -0.9411 -0.3278 0.0823
vn -0.9336 0.3489 0.0817
vn -0.9103 0.3112 -0.2729
vn 0.9411 -0.3278 -0.0823
vn 0.8541 -0.2928 -0.4299
vn 0.9336 0.3489 -0.0817
vn 0.9411 -0.3278 -0.0824
vn 0.8540 -0.2928 -0.4300
vn 0.2641 -0.2885 -0.9203
vn 0.2621 0.3071 -0.9149
vn 0.2620 0.3070 -0.9149
vn 0.2640 -0.2886 -0.9204
vn -0.4199 -0.2886 -0.8605
vn -0.4200 -0.2887 -0.8604
vn -0.5573 -0.6811 -0.4749
vn -0.9158 -0.2928 -0.2750
vn -0.5572 -0.6811 -0.4750
vn -0.7821 -0.6194 0.0684
vn -0.7820 -0.6196 0.0684
vn -0.9411 -0.3280 0.0823
vn 0.9411 -0.3279 -0.0823
vn 0.7820 -0.6195 -0.0684
vn 0.4662 -0.6811 -0.5646
vn 0.4661 -0.6812 -0.5646
vn 0.9411 -0.3280 -0.0824
vn 0.8540 -0.2929 -0.4299
vn 0.2640 -0.2886 -0.9203
vn 0.4661 -0.6811 -0.5646
vn -0.5572 -0.6811 -0.4749
vn -0.4199 -0.2887 -0.8604
vn 0.3967 0.8533 0.3384
vn 0.4169 0.3072 0.8554
vn 0.9103 0.3113 0.2729
vn -0.3317 0.8533 0.4023
vn -0.8490 0.3113 0.4269
vn -0.2620 0.3072 0.9149
vn -0.3318 0.8533 0.4023
vn -0.2619 0.3071 0.9149
vn 0.4170 0.3071 0.8555
vn 0.4170 0.3072 0.8554
vn -0.3318 0.8533 0.4022
vn 0.9103 0.3112 0.2729
vn 0.4170 0.3071 0.8554
vn 0.4199 -0.2886 0.8604
vn 0.4198 -0.2887 0.8605
vn 0.9158 -0.2927 0.2750
vn -0.2620 0.3071 0.9149
vn -0.8541 -0.2928 0.4299
vn -0.2639 -0.2886 0.9204
vn -0.2620 0.3070 0.9149
vn -0.2640 -0.2886 0.9203
vn 0.4199 -0.2886 0.8605
vn 0.4199 -0.2887 0.8604
vn 0.5573 -0.6811 0.4750
vn 0.9158 -0.2928 0.2750
vn -0.8540 -0.2929 0.4300
vn -0.4661 -0.6811 0.5646
vn -0.2640 -0.2887 0.9203
vn 0.5573 -0.6811 0.4749
vn 0.5572 -0.6811 0.4749
vn 0.4143 0.9094 -0.0362
vn -0.4142 0.9094 0.0363
vn 0.3967 0.8533 0.3385
vn 0.9335 0.3491 -0.0816
vn 0.4144 0.9094 -0.0362
vn -0.8490 0.3113 0.4270
vn -0.4143 0.9094 0.0363
vn -0.9335 0.3491 0.0817
vn 0.9411 -0.3279 -0.0824
vn -0.4661 -0.6812 0.5646
vn -0.9411 -0.3280 0.0824
vn -0.7820 -0.6195 0.0684
vn -0.4154 0.9094 0.0179
vn 0.4155 0.9094 -0.0182
vn 0.3491 0.8532 -0.3875
vn 0.3490 0.8532 -0.3875
vn -0.3815 0.8533 -0.3554
vn -0.4154 0.9094 0.0181
vn 0.4155 0.9094 -0.0181
vn 0.9362 0.3490 -0.0409
vn 0.8669 0.3112 -0.3895
vn 0.3490 0.8533 -0.3875
vn 0.4156 0.9094 -0.0182
vn 0.8668 0.3113 -0.3895
vn 0.3016 0.3071 -0.9026
vn 0.3491 0.8532 -0.3874
vn 0.3017 0.3071 -0.9026
vn -0.3791 0.3072 -0.8729
vn -0.3792 0.3072 -0.8729
vn 0.3491 0.8533 -0.3874
vn -0.3814 0.8533 -0.3554
vn -0.8974 0.3113 -0.3126
vn -0.8975 0.3113 -0.3125
vn -0.9362 0.3491 0.0408
vn -0.4155 0.9094 0.0181
vn 0.9990 -0.0000 -0.0436
vn 0.9034 -0.0000 -0.4288
vn 0.3357 -0.0000 -0.9420
vn 0.9033 -0.0000 -0.4290
vn 0.3356 -0.0000 -0.9420
vn -0.4162 -0.0001 -0.9093
vn 0.3354 -0.0000 -0.9421
vn 0.3355 0.0002 -0.9421
vn -0.4162 -0.0000 -0.9093
vn -0.9373 -0.0000 -0.3486
vn -0.4164 -0.0000 -0.9092
vn -0.4163 0.0001 -0.9092
vn -0.9372 -0.0000 -0.3487
vn -0.9373 -0.0000 -0.3485
vn -0.9990 -0.0000 0.0436
vn 0.9438 -0.3280 -0.0412
vn 0.7843 -0.6195 -0.0342
vn 0.4904 -0.6810 -0.5438
vn 0.8721 -0.2927 -0.3922
vn 0.9438 -0.3279 -0.0412
vn 0.8720 -0.2928 -0.3923
vn 0.3039 -0.2886 -0.9079
vn -0.5359 -0.6812 -0.4988
vn -0.5359 -0.6812 -0.4987
vn -0.3818 -0.2887 -0.8780
vn 0.3039 -0.2885 -0.9080
vn -0.9028 -0.2928 -0.3149
vn -0.9029 -0.2928 -0.3148
vn -0.7842 -0.6195 0.0342
vn -0.7842 -0.6196 0.0342
vn -0.9438 -0.3280 0.0412
vn -0.3490 0.8533 0.3875
vn -0.8668 0.3113 0.3896
vn -0.3016 0.3071 0.9026
vn -0.3491 0.8532 0.3874
vn -0.3017 0.3070 0.9026
vn 0.3791 0.3071 0.8729
vn 0.3792 0.3072 0.8729
vn 0.3815 0.8533 0.3554
vn -0.3491 0.8533 0.3874
vn 0.3814 0.8533 0.3554
vn 0.3790 0.3072 0.8729
vn 0.8974 0.3114 0.3126
vn -0.8668 0.3112 0.3895
vn -0.8720 -0.2927 0.3923
vn -0.8720 -0.2928 0.3922
vn -0.3039 -0.2885 0.9080
vn 0.3791 0.3072 0.8729
vn -0.3039 -0.2886 0.9080
vn 0.3818 -0.2887 0.8780
vn 0.8974 0.3113 0.3126
vn 0.3817 -0.2886 0.8780
vn 0.3820 -0.2887 0.8779
vn 0.9029 -0.2928 0.3147
vn 0.8975 0.3113 0.3124
vn -0.8720 -0.2928 0.3923
vn -0.4904 -0.6810 0.5438
vn -0.3039 -0.2886 0.9079
vn -0.3039 -0.2885 0.9079
vn 0.5359 -0.6812 0.4988
vn 0.5359 -0.6812 0.4987
vn 0.3817 -0.2887 0.8780
vn 0.9028 -0.2929 0.3149
vn 0.4154 0.9094 -0.0181
vn -0.4154 0.9094 0.0182
vn -0.3491 0.8532 0.3875
vn -0.8669 0.3112 0.3895
vn -0.4155 0.9094 0.0182
vn -0.9362 0.3491 0.0409
vn -0.8669 0.3113 0.3895
vn 0.8975 0.3113 0.3125
vn 0.9362 0.3491 -0.0409
vn 0.9362 0.3491 -0.0408
vn -0.8669 0.3112 0.3894
vn -0.9363 0.3489 0.0409
vn -0.9439 -0.3278 0.0412
vn -0.8721 -0.2927 0.3922
vn -0.8669 0.3113 0.3894
vn 0.9029 -0.2928 0.3148
vn 0.9363 0.3489 -0.0409
vn -0.4904 -0.6811 0.5438
vn -0.9438 -0.3279 0.0412
vn -0.9438 -0.3279 0.0413
vn -0.7843 -0.6195 0.0342
vn 0.7842 -0.6195 -0.0342
vn 0.7842 -0.6196 -0.0342
vn 0.9439 -0.3278 -0.0412
vn 0.8669 0.3112 -0.3894
vn 0.9363 0.3488 -0.0409
vn 0.3018 0.3071 -0.9026
vn 0.9033 -0.0000 -0.4289
vn 0.8720 -0.2927 -0.3923
vn 0.8721 -0.2927 -0.3921
vn 0.3017 0.3070 -0.9026
vn 0.3354 -0.0001 -0.9421
vn 0.3038 -0.2885 -0.9080
vn -0.3790 0.3072 -0.8729
vn -0.4163 -0.0000 -0.9092
vn -0.9372 -0.0001 -0.3487
vn -0.3817 -0.2887 -0.8780
vn -0.9363 0.3489 0.0408
vn -0.1570 0.9041 -0.3975
vn -0.2305 0.8675 0.4409
vn 0.1570 0.8660 0.4748
vn 0.2305 0.9026 -0.3636
vn -0.2305 0.8674 0.4410
vn -0.2758 0.3136 0.9086
vn 0.1163 0.3120 0.9429
vn 0.1163 0.3121 0.9429
vn 0.3387 0.8351 0.4335
vn 0.2730 0.2712 0.9230
vn 0.8556 0.2885 0.4299
vn 0.3386 0.8351 0.4336
vn 0.8555 0.2885 0.4299
vn 0.9149 0.3183 -0.2483
vn 0.4021 0.8670 -0.2943
vn 0.3385 0.8351 0.4335
vn 0.4022 0.8669 -0.2943
vn 0.4270 0.3480 -0.8346
vn 0.2304 0.9026 -0.3636
vn 0.2758 0.3917 -0.8778
vn -0.1163 0.3931 -0.9121
vn -0.1571 0.9040 -0.3975
vn -0.2563 -0.0422 0.9657
vn 0.0845 -0.0435 0.9955
vn 0.0846 -0.0434 0.9955
vn 0.0847 -0.0434 0.9955
vn 0.8902 -0.0199 0.4552
vn 0.3074 -0.0415 0.9507
vn 0.3072 -0.0415 0.9508
vn 0.8900 -0.0199 0.4554
vn 0.8901 -0.0199 0.4554
vn 0.9558 0.0128 -0.2937
vn 0.8902 -0.0199 0.4551
vn 0.8902 -0.0198 0.4551
vn 0.4680 0.0385 -0.8829
vn 0.9558 0.0128 -0.2938
vn 0.9558 0.0129 -0.2938
vn 0.9557 0.0128 -0.2939
vn 0.4679 0.0386 -0.8829
vn 0.4679 0.0385 -0.8829
vn 0.2563 0.0421 -0.9657
vn -0.0846 0.0435 -0.9955
vn -0.0845 0.0435 -0.9955
vn 0.2563 0.0422 -0.9657
vn -0.2395 -0.3545 0.9039
vn -0.2109 -0.6457 0.7339
vn 0.0755 -0.6468 0.7590
vn 0.0755 -0.6467 0.7590
vn 0.0764 -0.3557 0.9315
vn 0.2750 -0.3324 0.9022
vn 0.4751 -0.7046 0.5271
vn 0.8605 -0.3066 0.4070
vn 0.8605 -0.3066 0.4068
vn 0.4751 -0.7047 0.5270
vn 0.5644 -0.6602 -0.4955
vn 0.9203 -0.2769 -0.2763
vn 0.9203 -0.2770 -0.2764
vn 0.5645 -0.6602 -0.4955
vn 0.4299 -0.2553 -0.8660
vn 0.2395 -0.2744 -0.9313
vn 0.2109 -0.5793 -0.7873
vn -0.0755 -0.5783 -0.8124
vn -0.0764 -0.2732 -0.9589
vn 0.0363 0.9266 -0.3742
vn -0.0362 0.8905 0.4536
vn 0.3386 0.8351 0.4335
vn 0.4022 0.8670 -0.2943
vn -0.0363 0.8904 0.4536
vn -0.0362 0.8904 0.4536
vn -0.0817 0.3080 0.9479
vn 0.2729 0.2713 0.9230
vn 0.4269 0.3480 -0.8346
vn 0.0817 0.3895 -0.9174
vn 0.0815 0.3895 -0.9174
vn 0.0362 0.9266 -0.3742
vn 0.4021 0.8670 -0.2942
vn 0.3072 -0.0415 0.9507
vn -0.0872 -0.0435 0.9952
vn 0.4678 0.0386 -0.8830
vn 0.0872 0.0435 -0.9952
vn 0.4678 0.0385 -0.8830
vn -0.0823 -0.3686 0.9259
vn -0.0824 -0.3687 0.9259
vn -0.0684 -0.6530 0.7543
vn 0.4751 -0.7046 0.5270
vn 0.4300 -0.2552 -0.8660
vn 0.0684 -0.5848 -0.8083
vn 0.0823 -0.2866 -0.9545
vn 0.4299 -0.2552 -0.8660
vn -0.3387 0.8697 -0.3591
vn -0.2731 0.3506 -0.8958
vn -0.8555 0.3249 -0.4031
vn -0.3386 0.8697 -0.3591
vn -0.9149 0.2954 0.2751
vn -0.9149 0.2955 0.2751
vn -0.4022 0.8380 0.3688
vn -0.4021 0.8380 0.3688
vn -0.9148 0.2955 0.2752
vn -0.4269 0.2740 0.8618
vn -0.8901 0.0199 -0.4553
vn -0.3073 0.0415 -0.9507
vn -0.3073 0.0413 -0.9507
vn -0.8901 0.0198 -0.4553
vn -0.9558 -0.0130 0.2937
vn -0.8902 0.0199 -0.4551
vn -0.9558 -0.0128 0.2937
vn -0.4679 -0.0386 0.8830
vn -0.9557 -0.0129 0.2940
vn -0.9557 -0.0128 0.2940
vn -0.9558 -0.0128 0.2938
vn -0.4680 -0.0385 0.8829
vn -0.4680 -0.0386 0.8829
vn -0.2749 -0.2525 -0.9277
vn -0.4750 -0.6560 -0.5865
vn -0.8604 -0.2701 -0.4322
vn -0.8605 -0.2700 -0.4320
vn -0.4751 -0.6560 -0.5864
vn -0.5645 -0.7009 0.4361
vn -0.9203 -0.2999 0.2511
vn -0.8606 -0.2699 -0.4320
vn -0.9203 -0.3000 0.2511
vn -0.5645 -0.7008 0.4361
vn -0.4300 -0.3298 0.8404
vn -0.0363 0.8905 0.4535
vn -0.2730 0.3507 -0.8958
vn -0.3386 0.8698 -0.3590
vn 0.0362 0.9266 -0.3743
vn 0.0365 0.9266 -0.3743
vn 0.0817 0.3894 -0.9174
vn -0.2730 0.3506 -0.8959
vn -0.4022 0.8380 0.3687
vn -0.4269 0.2739 0.8618
vn -0.0817 0.3081 0.9478
vn -0.0362 0.8905 0.4535
vn -0.4021 0.8381 0.3687
vn -0.3072 0.0415 -0.9507
vn -0.4678 -0.0385 0.8830
vn -0.0871 -0.0435 0.9952
vn -0.4678 -0.0386 0.8830
vn -0.4751 -0.6561 -0.5864
vn -0.2750 -0.2525 -0.9277
vn 0.0824 -0.2865 -0.9545
vn 0.0684 -0.5847 -0.8083
vn -0.4751 -0.6560 -0.5865
vn -0.0684 -0.6530 0.7542
vn -0.0823 -0.3687 0.9259
vn -0.4300 -0.3297 0.8405
vn -0.3593 0.8691 -0.3400
vn -0.4194 0.8391 0.3464
vn -0.2306 0.8674 0.4409
vn -0.1571 0.9041 -0.3975
vn -0.3592 0.8691 -0.3400
vn 0.3592 0.8361 0.4145
vn 0.4194 0.8661 -0.2719
vn 0.1571 0.8660 0.4748
vn 0.3593 0.8361 0.4145
vn -0.4195 0.8390 0.3466
vn -0.4700 0.2551 0.8450
vn -0.2759 0.3136 0.9086
vn -0.2305 0.8674 0.4409
vn -0.4194 0.8390 0.3466
vn 0.3182 0.2521 0.9139
vn 0.3593 0.8361 0.4146
vn 0.3180 0.2521 0.9139
vn 0.4193 0.8661 -0.2720
vn 0.4699 0.3279 -0.8196
vn 0.2760 0.3916 -0.8777
vn 0.2306 0.9026 -0.3636
vn 0.4195 0.8660 -0.2720
vn -0.3180 0.3308 -0.8885
vn -0.3592 0.8690 -0.3402
vn -0.1164 0.3931 -0.9121
vn -0.3181 0.3308 -0.8885
vn -0.4182 -0.0396 0.9075
vn -0.2566 -0.0422 0.9656
vn -0.2565 -0.0422 0.9656
vn -0.2565 -0.0421 0.9656
vn -0.4181 -0.0396 0.9075
vn 0.2539 -0.0422 0.9663
vn 0.0846 -0.0435 0.9955
vn 0.0850 -0.0434 0.9954
vn 0.2542 -0.0422 0.9662
vn 0.4180 0.0396 -0.9076
vn 0.2566 0.0422 -0.9656
vn 0.4182 0.0396 -0.9075
vn -0.2539 0.0422 -0.9663
vn -0.0847 0.0435 -0.9955
vn -0.0848 0.0435 -0.9955
vn -0.2540 0.0422 -0.9663
vn -0.3950 -0.3702 0.8408
vn -0.3371 -0.6273 0.7021
vn -0.2112 -0.6456 0.7339
vn -0.2111 -0.6457 0.7339
vn -0.2396 -0.3545 0.9038
vn -0.3949 -0.3703 0.8408
vn 0.2054 -0.6293 0.7495
vn 0.2403 -0.3726 0.8963
vn 0.0765 -0.3557 0.9315
vn 0.0757 -0.6467 0.7590
vn 0.2053 -0.6293 0.7495
vn 0.3950 -0.2955 -0.8699
vn 0.3370 -0.5638 -0.7540
vn 0.2111 -0.5793 -0.7873
vn 0.3948 -0.2956 -0.8699
vn -0.2052 -0.5617 -0.8015
vn -0.2402 -0.2932 -0.9254
vn -0.0756 -0.5782 -0.8124
vn -0.2052 -0.5618 -0.8014
vn -0.2395 -0.3544 0.9039
vn 0.0764 -0.3556 0.9315
vn -0.2563 -0.0421 0.9657
vn -0.2758 0.3135 0.9087
vn 0.8555 0.2886 0.4300
vn 0.2729 0.2712 0.9230
vn 0.3073 -0.0415 0.9507
vn 0.8555 0.2886 0.4299
vn 0.2751 -0.3324 0.9021
vn 0.8901 -0.0199 0.4552
vn 0.3072 -0.0416 0.9507
vn 0.2749 -0.3324 0.9022
vn 0.8902 -0.0200 0.4551
vn 0.9558 0.0130 -0.2937
vn 0.9558 0.0128 -0.2939
vn 0.9557 0.0128 -0.2940
vn 0.4269 0.3480 -0.8347
vn 0.4300 -0.2553 -0.8660
vn 0.4680 0.0383 -0.8829
vn 0.2395 -0.2743 -0.9313
vn -0.0764 -0.2731 -0.9590
vn -0.0846 0.0434 -0.9955
vn -0.1163 0.3930 -0.9121
vn 0.2758 0.3916 -0.8778
vn -0.1163 0.3930 -0.9122
vn -0.0815 0.3077 0.9480
vn -0.0872 -0.0434 0.9952
vn -0.0823 -0.3685 0.9260
vn 0.0823 -0.2865 -0.9545
vn 0.0871 0.0434 -0.9952
vn 0.0872 0.0434 -0.9952
vn 0.4679 0.0385 -0.8830
vn 0.0817 0.3893 -0.9175
vn 0.4678 0.0387 -0.8830
vn -0.8556 0.3249 -0.4029
vn -0.2732 0.3506 -0.8958
vn -0.3075 0.0415 -0.9506
vn -0.3073 0.0416 -0.9507
vn -0.8555 0.3250 -0.4032
vn -0.2751 -0.2525 -0.9277
vn -0.8605 -0.2699 -0.4320
vn -0.8555 0.3250 -0.4031
vn -0.9558 -0.0129 0.2937
vn -0.8902 0.0199 -0.4552
vn -0.4268 0.2740 0.8618
vn -0.9149 0.2954 0.2753
vn -0.9558 -0.0127 0.2938
vn -0.4270 0.2739 0.8618
vn -0.9203 -0.2999 0.2512
vn -0.4299 -0.3297 0.8405
vn -0.4681 -0.0386 0.8829
vn -0.9558 -0.0129 0.2938
vn -0.9203 -0.2999 0.2510
vn -0.2730 0.3506 -0.8958
vn 0.0816 0.3893 -0.9175
vn -0.3072 0.0415 -0.9508
vn -0.2729 0.3506 -0.8959
vn 0.0823 -0.2864 -0.9546
vn -0.3072 0.0414 -0.9507
vn 0.0871 0.0434 -0.9953
vn -0.4300 -0.3298 0.8405
vn -0.0825 -0.3686 0.9259
vn -0.0817 0.3079 0.9479
vn -0.4679 -0.0385 0.8830
vn -0.4180 -0.0396 0.9076
vn -0.3949 -0.3701 0.8409
vn -0.2396 -0.3543 0.9039
vn -0.4699 0.2549 0.8451
vn -0.4698 0.2550 0.8451
vn -0.2564 -0.0422 0.9657
vn 0.3180 0.2519 0.9140
vn 0.1163 0.3119 0.9429
vn 0.0847 -0.0435 0.9955
vn 0.3181 0.2518 0.9140
vn 0.0763 -0.3556 0.9315
vn 0.2401 -0.3725 0.8964
vn 0.2541 -0.0422 0.9663
vn 0.0849 -0.0434 0.9954
vn 0.0766 -0.3555 0.9315
vn 0.4184 0.0396 -0.9074
vn 0.3952 -0.2955 -0.8698
vn 0.2399 -0.2742 -0.9313
vn 0.2394 -0.2743 -0.9314
vn 0.4179 0.0396 -0.9076
vn 0.2565 0.0422 -0.9656
vn 0.2759 0.3915 -0.8778
vn 0.4700 0.3277 -0.8196
vn 0.4698 0.3277 -0.8197
vn -0.3180 0.3306 -0.8886
vn -0.0847 0.0434 -0.9955
vn -0.0766 -0.2730 -0.9589
vn -0.2404 -0.2931 -0.9254
vn -0.2541 0.0422 -0.9663
vn -0.0848 0.0435 -0.9954
vn -0.0766 -0.2731 -0.9589
vn 0.1741 0.8533 -0.4915
vn -0.4885 0.8533 -0.1823
vn -0.3769 0.9094 0.1757
vn -0.3769 0.9094 0.1758
vn 0.3769 0.9094 -0.1758
vn 0.1742 0.8533 -0.4915
vn -0.4886 0.8533 -0.1824
vn -0.6845 0.3071 -0.6612
vn -0.9487 0.3112 0.0549
vn -0.4886 0.8532 -0.1824
vn -0.9488 0.3112 0.0549
vn -0.8493 0.3491 0.3960
vn -0.8493 0.3490 0.3960
vn -0.4885 0.8533 -0.1824
vn 0.3770 0.9094 -0.1758
vn 0.8493 0.3491 -0.3960
vn 0.6518 0.3113 -0.6915
vn 0.6518 0.3113 -0.6916
vn 0.1743 0.8533 -0.4915
vn 0.6519 0.3113 -0.6914
vn -0.0665 0.3072 -0.9493
vn -0.0667 0.3071 -0.9493
vn -0.6844 0.3072 -0.6612
vn -0.6889 -0.2886 -0.6649
vn -0.6888 -0.2887 -0.6650
vn -0.9546 -0.2927 0.0548
vn -0.8562 -0.3278 0.3992
vn -0.8494 0.3489 0.3960
vn -0.8493 0.3489 0.3961
vn 0.8562 -0.3278 -0.3993
vn 0.6555 -0.2928 -0.6961
vn 0.8494 0.3489 -0.3961
vn -0.0666 0.3071 -0.9493
vn -0.0668 -0.2886 -0.9551
vn -0.0668 0.3071 -0.9493
vn -0.0667 -0.2886 -0.9551
vn -0.6844 0.3071 -0.6612
vn -0.6889 -0.2887 -0.6649
vn -0.6861 -0.6810 -0.2557
vn -0.6861 -0.6811 -0.2557
vn -0.7113 -0.6197 0.3317
vn -0.7114 -0.6195 0.3317
vn -0.8562 -0.3280 0.3993
vn -0.9546 -0.2927 0.0549
vn 0.8562 -0.3280 -0.3992
vn 0.7114 -0.6195 -0.3318
vn 0.2449 -0.6812 -0.6899
vn 0.8562 -0.3279 -0.3993
vn 0.6556 -0.2928 -0.6961
vn 0.2450 -0.6811 -0.6900
vn -0.0666 -0.2887 -0.9551
vn 0.2450 -0.6812 -0.6899
vn -0.6889 -0.2886 -0.6650
vn 0.4886 0.8532 0.1824
vn 0.6845 0.3071 0.6612
vn 0.9488 0.3112 -0.0550
vn -0.1742 0.8533 0.4915
vn -0.6518 0.3114 0.6915
vn 0.0667 0.3071 0.9493
vn 0.0668 0.3071 0.9493
vn 0.6844 0.3072 0.6612
vn 0.4885 0.8533 0.1824
vn 0.9487 0.3112 -0.0549
vn 0.6889 -0.2886 0.6649
vn 0.6888 -0.2887 0.6650
vn 0.9546 -0.2927 -0.0548
vn 0.9488 0.3112 -0.0549
vn 0.0666 0.3071 0.9493
vn -0.6519 0.3113 0.6914
vn -0.6556 -0.2928 0.6960
vn -0.6554 -0.2928 0.6962
vn 0.0668 -0.2886 0.9551
vn 0.0667 0.3070 0.9494
vn 0.0667 -0.2886 0.9551
vn 0.6844 0.3071 0.6612
vn 0.6862 -0.6810 0.2557
vn 0.9546 -0.2927 -0.0549
vn -0.6555 -0.2929 0.6961
vn -0.2450 -0.6811 0.6900
vn 0.0666 -0.2887 0.9551
vn -0.2449 -0.6812 0.6899
vn 0.6861 -0.6811 0.2557
vn 0.4885 0.8533 0.1823
vn 0.3769 0.9094 -0.1757
vn 0.8493 0.3490 -0.3960
vn -0.6517 0.3113 0.6916
vn -0.1741 0.8533 0.4915
vn -0.6518 0.3113 0.6916
vn 0.8494 0.3489 -0.3960
vn 0.9487 0.3113 -0.0549
vn -0.8562 -0.3278 0.3993
vn -0.6555 -0.2928 0.6961
vn -0.6518 0.3113 0.6915
vn 0.7115 -0.6194 -0.3318
vn 0.7114 -0.6195 -0.3317
vn 0.9546 -0.2928 -0.0548
vn -0.8561 -0.3280 0.3993
vn -0.7114 -0.6195 0.3318
vn -0.2449 -0.6812 0.6900
vn -0.9065 -0.3280 -0.2659
vn -0.7532 -0.6195 -0.2209
vn -0.6397 -0.6812 0.3562
vn -0.6396 -0.6812 0.3561
vn -0.9520 -0.2928 0.0895
vn 0.7533 -0.6195 0.2210
vn 0.9065 -0.3280 0.2659
vn 0.7529 -0.2927 0.5895
vn 0.7528 -0.2928 0.5895
vn 0.3461 -0.6811 0.6452
vn -0.9065 -0.3278 -0.2659
vn -0.9462 0.3113 0.0885
vn -0.9462 0.3113 0.0886
vn -0.8993 0.3489 -0.2638
vn 0.7485 0.3112 0.5856
vn 0.9065 -0.3278 0.2659
vn 0.9066 -0.3278 0.2659
vn 0.8993 0.3489 0.2638
vn 0.7485 0.3113 0.5855
vn -0.3991 0.9094 -0.1170
vn -0.8992 0.3491 -0.2638
vn -0.4554 0.8533 0.2539
vn -0.3991 0.9094 -0.1171
vn 0.8992 0.3491 0.2638
vn 0.3991 0.9094 0.1171
vn 0.2462 0.8533 0.4597
vn 0.2463 0.8533 0.4597
vn -0.4555 0.8533 0.2539
vn 0.2463 0.8533 0.4596
vn 0.3990 0.9094 0.1171
vn 0.0778 -0.2886 0.9543
vn -0.5809 -0.2886 0.7611
vn -0.6397 -0.6812 0.3561
vn 0.3462 -0.6811 0.6452
vn -0.9519 -0.2929 0.0895
vn -0.6397 -0.6811 0.3561
vn -0.5810 -0.2887 0.7610
vn 0.0779 -0.2887 0.9543
vn 0.3462 -0.6810 0.6453
vn 0.0779 -0.2886 0.9543
vn 0.0770 0.3071 0.9486
vn -0.5771 0.3071 0.7568
vn -0.5771 0.3070 0.7568
vn -0.5771 0.3071 0.7567
vn -0.9520 -0.2928 0.0894
vn 0.0778 -0.2887 0.9543
vn 0.0769 0.3072 0.9485
vn 0.0770 0.3072 0.9485
vn -0.4554 0.8533 0.2538
vn 0.0769 0.3071 0.9486
vn 0.2463 0.8532 0.4597
vn -0.3462 -0.6811 -0.6452
vn -0.0778 -0.2886 -0.9543
vn 0.5809 -0.2886 -0.7611
vn 0.6397 -0.6812 -0.3561
vn 0.9520 -0.2928 -0.0895
vn 0.6398 -0.6811 -0.3561
vn 0.5810 -0.2887 -0.7610
vn 0.9065 -0.3279 0.2659
vn 0.9065 -0.3280 0.2658
vn 0.7532 -0.6195 0.2209
vn 0.6396 -0.6812 -0.3562
vn -0.7532 -0.6195 -0.2210
vn -0.7529 -0.2927 -0.5895
vn -0.7531 -0.6198 -0.2209
vn -0.3461 -0.6810 -0.6453
vn -0.7528 -0.2927 -0.5896
vn -0.0779 -0.2886 -0.9543
vn -0.0770 0.3071 -0.9486
vn 0.5771 0.3071 -0.7567
vn 0.9462 0.3113 -0.0885
vn 0.9462 0.3113 -0.0886
vn -0.7485 0.3112 -0.5856
vn -0.8992 0.3489 -0.2638
vn -0.7484 0.3112 -0.5856
vn -0.0769 0.3072 -0.9485
vn -0.2463 0.8533 -0.4596
vn 0.4555 0.8533 -0.2539
vn 0.4555 0.8533 -0.2538
vn 0.3992 0.9094 0.1171
vn 0.3991 0.9094 0.1172
vn -0.3990 0.9094 -0.1170
vn -0.2462 0.8533 -0.4596
vn -0.2464 0.8532 -0.4597
vn -0.7485 0.3111 -0.5856
vn -0.2463 0.8532 -0.4597
vn 0.3991 0.9094 0.1170
vn 0.4554 0.8533 -0.2539
vn 0.4477 0.0422 -0.8932
vn 0.5940 0.0435 -0.8033
vn 0.5761 -0.2731 -0.7704
vn 0.5761 -0.2731 -0.7705
vn 0.4309 -0.2931 -0.8535
vn 0.3482 0.3307 -0.8772
vn 0.3483 0.3306 -0.8771
vn 0.5153 0.3930 -0.7616
vn 0.5941 0.0434 -0.8032
vn 0.8942 0.3277 -0.3049
vn 0.9134 0.0396 -0.4052
vn 0.8304 0.0422 -0.5555
vn 0.8305 0.0422 -0.5554
vn 0.7870 0.3916 -0.4767
vn 0.8943 0.3277 -0.3048
vn 0.7951 -0.2744 -0.5408
vn 0.8305 0.0421 -0.5555
vn 0.9134 0.0396 -0.4051
vn 0.8712 -0.2955 -0.3921
vn 0.7952 -0.2742 -0.5408
vn -0.4477 -0.0422 0.8932
vn -0.5940 -0.0434 0.8033
vn -0.5580 -0.3555 0.7498
vn -0.4119 -0.3725 0.8316
vn -0.5940 -0.0435 0.8033
vn -0.3650 0.2519 0.8963
vn -0.3651 0.2519 0.8962
vn -0.5356 0.3120 0.7847
vn -0.5941 -0.0434 0.8033
vn -0.9111 0.2550 0.3240
vn -0.9134 -0.0396 0.4051
vn -0.8305 -0.0422 0.5555
vn -0.8305 -0.0422 0.5554
vn -0.8074 0.3134 0.4999
vn -0.9111 0.2549 0.3239
vn -0.7770 -0.3544 0.5202
vn -0.9134 -0.0397 0.4051
vn -0.8520 -0.3702 0.3703
vn -0.9345 -0.0385 0.3538
vn -0.7229 -0.0434 0.6895
vn -0.6875 0.3079 0.6576
vn -0.6876 0.3078 0.6576
vn -0.8899 0.2738 0.3649
vn -0.9345 -0.0386 0.3538
vn -0.7229 -0.0434 0.6896
vn -0.8780 -0.3297 0.3469
vn -0.8780 -0.3299 0.3469
vn -0.6736 -0.3687 0.6406
vn -0.7229 -0.0435 0.6896
vn 0.3975 0.0415 -0.9167
vn 0.7229 0.0435 -0.6896
vn 0.6924 -0.2864 -0.6622
vn 0.4064 -0.2525 -0.8781
vn 0.7229 0.0434 -0.6896
vn 0.3869 0.3506 -0.8528
vn 0.6674 0.3893 -0.6348
vn -0.9346 -0.0386 0.3537
vn -0.9116 -0.0128 -0.4108
vn -0.8568 -0.2999 -0.4195
vn -0.8568 -0.3000 -0.4195
vn -0.8780 -0.3298 0.3469
vn -0.9116 -0.0127 -0.4108
vn -0.9346 -0.0386 0.3536
vn -0.8899 0.2739 0.3648
vn -0.8898 0.2740 0.3649
vn -0.8686 0.2954 -0.3978
vn -0.9117 -0.0128 -0.4107
vn -0.9116 -0.0131 -0.4110
vn -0.3676 0.0198 -0.9298
vn -0.3606 -0.2700 -0.8928
vn -0.9116 -0.0129 -0.4110
vn -0.8686 0.2954 -0.3979
vn -0.3759 0.3249 -0.8678
vn -0.3676 0.0199 -0.9298
vn -0.3674 0.0199 -0.9298
vn 0.3974 0.0415 -0.9167
vn 0.4063 -0.2525 -0.8781
vn -0.3675 0.0198 -0.9298
vn 0.9345 0.0386 -0.3538
vn 0.7229 0.0435 -0.6895
vn 0.8719 0.3480 -0.3444
vn 0.9345 0.0385 -0.3538
vn 0.8949 -0.2553 -0.3661
vn 0.8949 -0.2552 -0.3661
vn 0.6924 -0.2865 -0.6622
vn -0.3975 -0.0417 0.9167
vn -0.6735 -0.3685 0.6407
vn -0.3895 -0.3323 0.8590
vn -0.3975 -0.0415 0.9167
vn -0.4049 0.2712 0.8732
vn -0.6876 0.3078 0.6577
vn -0.7229 -0.0435 0.6895
vn 0.8304 0.0421 -0.5556
vn 0.5942 0.0434 -0.8032
vn 0.5153 0.3929 -0.7616
vn 0.7870 0.3915 -0.4768
vn 0.5941 0.0435 -0.8032
vn 0.8304 0.0422 -0.5556
vn 0.7951 -0.2743 -0.5409
vn 0.7951 -0.2742 -0.5409
vn 0.5762 -0.2730 -0.7704
vn 0.9346 0.0385 -0.3536
vn 0.9116 0.0128 0.4108
vn 0.8734 -0.2769 0.4006
vn 0.8735 -0.2768 0.4005
vn 0.9346 0.0386 -0.3537
vn 0.9346 0.0385 -0.3537
vn 0.8719 0.3480 -0.3445
vn 0.8509 0.3182 0.4180
vn 0.9116 0.0128 0.4110
vn 0.3676 -0.0199 0.9298
vn 0.3772 -0.3066 0.8739
vn 0.3772 -0.3065 0.8739
vn 0.8734 -0.2768 0.4006
vn 0.9116 0.0129 0.4110
vn 0.8508 0.3183 0.4180
vn 0.8509 0.3183 0.4180
vn 0.3582 0.2885 0.8879
vn 0.3676 -0.0198 0.9298
vn 0.3674 -0.0199 0.9298
vn -0.3973 -0.0415 0.9167
vn -0.3895 -0.3324 0.8590
vn -0.3896 -0.3324 0.8589
vn -0.3974 -0.0415 0.9167
vn 0.3674 -0.0199 0.9299
vn 0.3581 0.2886 0.8880
vn 0.3582 0.2886 0.8880
vn -0.8304 -0.0422 0.5556
vn -0.5942 -0.0435 0.8032
vn -0.5357 0.3120 0.7847
vn -0.8073 0.3135 0.5000
vn -0.5942 -0.0435 0.8031
vn -0.8304 -0.0421 0.5556
vn -0.7770 -0.3543 0.5203
vn -0.5581 -0.3555 0.7498
vn -0.5941 -0.0434 0.8032
vn 0.5760 -0.2732 -0.7704
vn 0.4798 -0.5782 -0.6599
vn 0.3753 -0.5617 -0.7373
vn 0.4310 -0.2932 -0.8534
vn 0.5761 -0.2732 -0.7704
vn 0.6785 -0.5794 -0.4516
vn 0.7951 -0.2745 -0.5408
vn 0.8711 -0.2957 -0.3921
vn 0.8711 -0.2956 -0.3921
vn 0.7511 -0.5638 -0.3434
vn 0.6786 -0.5793 -0.4516
vn -0.5580 -0.3557 0.7497
vn -0.4446 -0.6467 0.6197
vn -0.3410 -0.6294 0.6983
vn -0.4117 -0.3727 0.8316
vn -0.5579 -0.3557 0.7498
vn -0.6433 -0.6456 0.4115
vn -0.7770 -0.3545 0.5202
vn -0.8520 -0.3703 0.3702
vn -0.8519 -0.3703 0.3703
vn -0.7168 -0.6274 0.3044
vn -0.6433 -0.6457 0.4115
vn 0.4478 0.0422 -0.8932
vn -0.5941 -0.0435 0.8032
vn -0.8305 -0.0421 0.5555
vn 0.1447 0.9040 -0.4023
vn 0.5152 0.3931 -0.7616
vn 0.3482 0.3309 -0.8771
vn -0.0450 0.8691 -0.4927
vn 0.1447 0.9041 -0.4021
vn 0.7871 0.3915 -0.4767
vn 0.4134 0.9025 -0.1207
vn 0.4947 0.8660 0.0728
vn 0.4946 0.8661 0.0729
vn 0.8942 0.3278 -0.3047
vn -0.1958 0.8659 0.4603
vn -0.5355 0.3121 0.7848
vn -0.3650 0.2520 0.8963
vn -0.3650 0.2521 0.8962
vn -0.0042 0.8361 0.5486
vn -0.1958 0.8660 0.4602
vn -0.8073 0.3137 0.4998
vn -0.4643 0.8675 0.1787
vn -0.5438 0.8391 -0.0169
vn -0.5438 0.8390 -0.0170
vn -0.9110 0.2551 0.3239
vn -0.8073 0.3136 0.4998
vn 0.4132 0.9026 -0.1207
vn -0.0041 0.8361 0.5485
vn -0.0042 0.8361 0.5485
vn 0.4945 0.8661 0.0729
vn 0.1447 0.9041 -0.4022
vn -0.0450 0.8691 -0.4926
vn -0.5437 0.8391 -0.0170
vn -0.5496 -0.6531 0.5210
vn -0.6735 -0.3687 0.6407
vn -0.8780 -0.3297 0.3468
vn -0.7119 -0.7008 -0.0455
vn -0.5496 -0.6530 0.5210
vn 0.6924 -0.2866 -0.6621
vn 0.5853 -0.5848 -0.5616
vn 0.0307 -0.6560 -0.7541
vn 0.0307 -0.6561 -0.7541
vn -0.6876 0.3080 0.6576
vn -0.3269 0.8905 0.3166
vn -0.5455 0.8380 0.0112
vn -0.5455 0.8380 0.0111
vn -0.6875 0.3081 0.6576
vn 0.2746 0.9266 -0.2569
vn 0.6674 0.3895 -0.6347
vn 0.3869 0.3507 -0.8528
vn 0.3869 0.3506 -0.8529
vn -0.0169 0.8697 -0.4932
vn 0.2745 0.9266 -0.2571
vn -0.0170 0.8697 -0.4933
vn -0.3268 0.8905 0.3165
vn 0.2744 0.9266 -0.2570
vn -0.0169 0.8697 -0.4933
vn -0.8568 -0.2999 -0.4194
vn -0.7120 -0.7007 -0.0455
vn -0.7118 -0.7009 -0.0456
vn -0.3606 -0.2699 -0.8928
vn -0.7118 -0.7009 -0.0455
vn 0.4063 -0.2525 -0.8782
vn -0.3607 -0.2700 -0.8928
vn -0.9346 -0.0385 0.3536
vn -0.9116 -0.0128 -0.4110
vn 0.3974 0.0414 -0.9167
vn -0.3674 0.0199 -0.9299
vn 0.3973 0.0415 -0.9167
vn -0.8685 0.2955 -0.3979
vn -0.0170 0.8697 -0.4932
vn -0.3759 0.3250 -0.8678
vn -0.8685 0.2954 -0.3979
vn 0.5853 -0.5849 -0.5615
vn 0.6924 -0.2867 -0.6621
vn 0.7511 -0.6601 0.0009
vn 0.5854 -0.5848 -0.5616
vn -0.5497 -0.6530 0.5210
vn 0.0085 -0.7046 0.7095
vn 0.0085 -0.7047 0.7095
vn -0.3895 -0.3324 0.8589
vn 0.9345 0.0387 -0.3538
vn 0.6673 0.3895 -0.6348
vn 0.2745 0.9266 -0.2570
vn 0.4963 0.8670 0.0448
vn 0.4964 0.8670 0.0448
vn -0.3269 0.8904 0.3167
vn -0.4048 0.2712 0.8732
vn -0.0322 0.8351 0.5491
vn 0.2744 0.9266 -0.2569
vn -0.3268 0.8905 0.3166
vn -0.0323 0.8351 0.5491
vn 0.4800 -0.5783 -0.6597
vn 0.5761 -0.2732 -0.7703
vn 0.7951 -0.2744 -0.5409
vn 0.6785 -0.5793 -0.4517
vn 0.8734 -0.2770 0.4005
vn 0.7511 -0.6602 0.0009
vn 0.7510 -0.6603 0.0009
vn 0.8734 -0.2770 0.4006
vn 0.3772 -0.3067 0.8739
vn -0.3895 -0.3325 0.8589
vn -0.4447 -0.6467 0.6197
vn -0.7770 -0.3545 0.5203
vn -0.7770 -0.3544 0.5203
vn -0.6432 -0.6456 0.4116
vn -0.4448 -0.6467 0.6196
vn 0.5942 0.0435 -0.8031
vn 0.5942 0.0435 -0.8032
vn 0.9116 0.0129 0.4108
vn 0.9346 0.0386 -0.3536
vn -0.5942 -0.0434 0.8032
vn 0.1447 0.9040 -0.4022
vn 0.4133 0.9026 -0.1207
vn 0.7870 0.3917 -0.4767
vn 0.5153 0.3931 -0.7615
vn 0.4964 0.8670 0.0447
vn 0.4963 0.8670 0.0447
vn 0.8509 0.3182 0.4181
vn -0.4049 0.2713 0.8732
vn 0.3582 0.2886 0.8879
vn -0.5356 0.3121 0.7847
vn -0.4643 0.8674 0.1788
vn -0.8073 0.3136 0.4999
vn -0.4734 -0.0000 -0.8808
vn -0.7788 -0.0000 -0.6273
vn -0.7298 0.3489 -0.5879
vn -0.4672 0.3113 -0.8275
vn -0.4698 -0.2928 -0.8328
vn -0.7357 -0.3279 -0.5926
vn -0.4733 -0.0000 -0.8809
vn 0.2881 -0.0000 -0.9576
vn 0.2934 -0.2887 -0.9114
vn -0.4673 0.3113 -0.8275
vn 0.2920 0.3072 -0.9057
vn 0.2882 -0.0000 -0.9576
vn 0.8742 -0.0000 -0.4856
vn 0.8280 -0.2885 -0.4809
vn 0.2921 0.3072 -0.9057
vn 0.8228 0.3070 -0.4783
vn 0.8742 -0.0000 -0.4855
vn 0.9615 -0.0000 0.2748
vn 0.9138 -0.2927 0.2816
vn 0.8280 -0.2885 -0.4808
vn 0.8743 -0.0000 -0.4854
vn 0.9615 -0.0002 0.2748
vn 0.8228 0.3071 -0.4783
vn 0.8227 0.3071 -0.4783
vn 0.9081 0.3112 0.2803
vn 0.7788 -0.0000 0.6273
vn 0.9615 -0.0000 0.2749
vn 0.9080 0.3112 0.2804
vn 0.9080 0.3112 0.2803
vn 0.7299 0.3488 0.5879
vn 0.7358 -0.3278 0.5926
vn 0.9138 -0.2927 0.2817
vn 0.6113 -0.6195 0.4924
vn 0.7357 -0.3280 0.5926
vn 0.4698 -0.2927 0.8328
vn 0.4698 -0.2928 0.8328
vn 0.0728 -0.6812 0.7285
vn -0.7358 -0.3279 -0.5925
vn -0.6114 -0.6195 -0.4924
vn -0.7275 -0.6810 0.0842
vn -0.7273 -0.6811 0.0843
vn -0.9137 -0.2928 -0.2817
vn -0.7357 -0.3280 -0.5926
vn 0.7299 0.3489 0.5878
vn 0.4672 0.3113 0.8275
vn 0.7357 -0.3279 0.5926
vn -0.7358 -0.3278 -0.5926
vn -0.9138 -0.2927 -0.2817
vn -0.9080 0.3113 -0.2804
vn -0.9080 0.3112 -0.2804
vn -0.7299 0.3489 -0.5878
vn 0.7299 0.3491 0.5877
vn 0.3239 0.9094 0.2608
vn 0.0516 0.8534 0.5188
vn 0.0516 0.8533 0.5189
vn 0.4673 0.3112 0.8275
vn 0.7298 0.3491 0.5878
vn -0.3240 0.9094 -0.2608
vn -0.7298 0.3490 -0.5878
vn -0.9080 0.3112 -0.2803
vn -0.9081 0.3113 -0.2803
vn -0.5180 0.8533 0.0603
vn -0.3239 0.9094 -0.2608
vn -0.5180 0.8532 0.0603
vn 0.3238 0.9094 0.2609
vn 0.3237 0.9095 0.2609
vn -0.5181 0.8532 0.0602
vn -0.2934 -0.2886 0.9114
vn 0.0728 -0.6811 0.7286
vn -0.8280 -0.2885 0.4809
vn -0.8280 -0.2886 0.4808
vn -0.7274 -0.6810 0.0842
vn -0.9138 -0.2927 -0.2816
vn -0.7275 -0.6809 0.0842
vn -0.2934 -0.2887 0.9114
vn 0.4673 0.3113 0.8275
vn -0.2920 0.3072 0.9057
vn -0.8279 -0.2886 0.4809
vn -0.2920 0.3071 0.9057
vn -0.2921 0.3072 0.9057
vn -0.8228 0.3070 0.4783
vn -0.8280 -0.2885 0.4808
vn -0.9138 -0.2928 -0.2816
vn -0.8227 0.3070 0.4783
vn -0.8228 0.3071 0.4783
vn -0.9081 0.3112 -0.2803
vn -0.2921 0.3071 0.9057
vn 0.0516 0.8533 0.5188
vn -0.5180 0.8533 0.0602
vn -0.5181 0.8532 0.0603
vn -0.6113 -0.6196 -0.4923
vn -0.7357 -0.3281 -0.5925
vn -0.4698 -0.2927 -0.8328
vn -0.0728 -0.6811 -0.7285
vn 0.2933 -0.2887 -0.9114
vn -0.0729 -0.6811 -0.7285
vn -0.0728 -0.6812 -0.7285
vn 0.2934 -0.2887 -0.9113
vn 0.8280 -0.2886 -0.4808
vn 0.7274 -0.6810 -0.0842
vn 0.9138 -0.2928 0.2816
vn 0.7275 -0.6810 -0.0842
vn 0.9138 -0.2926 0.2817
vn 0.7358 -0.3279 0.5926
vn 0.7274 -0.6810 -0.0843
vn -0.4732 -0.0000 -0.8809
vn 0.2880 -0.0000 -0.9576
vn 0.9615 0.0001 0.2748
vn 0.8743 -0.0000 -0.4855
vn -0.7298 0.3492 -0.5878
vn -0.3238 0.9094 -0.2608
vn -0.0515 0.8533 -0.5188
vn -0.0516 0.8533 -0.5189
vn -0.7298 0.3491 -0.5878
vn -0.0517 0.8533 -0.5189
vn 0.2920 0.3072 -0.9058
vn -0.4673 0.3112 -0.8275
vn 0.5180 0.8533 -0.0603
vn 0.5181 0.8532 -0.0602
vn 0.5181 0.8532 -0.0603
vn 0.9081 0.3113 0.2803
vn 0.3240 0.9094 0.2609
vn 0.7298 0.3490 0.5878
vn 0.5180 0.8532 -0.0603
vn -0.3237 0.9094 -0.2610
vn -0.7609 -0.3280 -0.5599
vn -0.6322 -0.6195 -0.4652
vn -0.7230 -0.6811 0.1159
vn -0.7229 -0.6812 0.1159
vn -0.9252 -0.2928 -0.2415
vn 0.6322 -0.6196 0.4652
vn 0.7609 -0.3280 0.5599
vn 0.5058 -0.2928 0.8114
vn 0.5058 -0.2927 0.8115
vn 0.1046 -0.6811 0.7247
vn 0.6323 -0.6194 0.4653
vn -0.7609 -0.3278 -0.5600
vn -0.9194 0.3113 -0.2404
vn -0.7548 0.3489 -0.5554
vn 0.5031 0.3112 0.8063
vn 0.5058 -0.2927 0.8114
vn 0.7609 -0.3278 0.5599
vn 0.7548 0.3489 0.5555
vn 0.5031 0.3113 0.8062
vn -0.3350 0.9094 -0.2465
vn -0.7548 0.3491 -0.5554
vn -0.5148 0.8533 0.0828
vn 0.7547 0.3490 0.5555
vn 0.3350 0.9094 0.2465
vn 0.0742 0.8533 0.5162
vn 0.0741 0.8533 0.5161
vn 0.5031 0.3113 0.8063
vn 0.7547 0.3491 0.5554
vn 0.3349 0.9094 0.2465
vn -0.3349 0.9094 -0.2464
vn 0.0743 0.8533 0.5161
vn -0.2532 -0.2886 0.9233
vn -0.8062 -0.2886 0.5165
vn -0.7229 -0.6811 0.1159
vn -0.9251 -0.2929 -0.2415
vn -0.8062 -0.2887 0.5164
vn 0.1046 -0.6810 0.7248
vn -0.2532 -0.2886 0.9234
vn -0.2521 0.3072 0.9176
vn -0.8011 0.3071 0.5138
vn -0.8011 0.3070 0.5137
vn -0.8011 0.3071 0.5137
vn -0.2532 -0.2887 0.9233
vn 0.5059 -0.2927 0.8114
vn 0.5031 0.3112 0.8062
vn -0.2521 0.3072 0.9177
vn -0.2521 0.3071 0.9177
vn 0.0742 0.8533 0.5161
vn 0.0743 0.8532 0.5162
vn 0.5032 0.3112 0.8062
vn -0.1046 -0.6811 -0.7247
vn 0.2532 -0.2886 -0.9233
vn 0.8062 -0.2886 -0.5165
vn 0.7229 -0.6811 -0.1159
vn 0.9252 -0.2928 0.2415
vn 0.7230 -0.6810 -0.1159
vn 0.7229 -0.6812 -0.1159
vn 0.9252 -0.2927 0.2415
vn 0.7609 -0.3279 0.5599
vn 0.6322 -0.6195 0.4652
vn -0.6322 -0.6196 -0.4652
vn -0.5058 -0.2928 -0.8114
vn -0.1045 -0.6811 -0.7247
vn -0.6323 -0.6195 -0.4653
vn 0.2532 -0.2887 -0.9233
vn -0.1046 -0.6810 -0.7247
vn -0.5058 -0.2927 -0.8115
vn 0.2532 -0.2886 -0.9234
vn 0.2521 0.3071 -0.9177
vn 0.8011 0.3071 -0.5138
vn 0.8011 0.3070 -0.5137
vn 0.2533 -0.2886 -0.9233
vn 0.8011 0.3071 -0.5137
vn 0.9194 0.3113 0.2404
vn 0.9252 -0.2928 0.2414
vn 0.7548 0.3489 0.5554
vn 0.7609 -0.3278 0.5600
vn -0.5031 0.3112 -0.8063
vn -0.5058 -0.2927 -0.8114
vn 0.2533 -0.2887 -0.9233
vn -0.5030 0.3112 -0.8063
vn 0.2521 0.3072 -0.9176
vn -0.0742 0.8533 -0.5161
vn 0.5148 0.8533 -0.0828
vn 0.2521 0.3072 -0.9177
vn 0.5149 0.8533 -0.0829
vn 0.9194 0.3114 0.2404
vn 0.3351 0.9094 0.2466
vn 0.7548 0.3490 0.5554
vn 0.9194 0.3112 0.2404
vn -0.7547 0.3491 -0.5554
vn -0.0741 0.8533 -0.5162
vn -0.5031 0.3113 -0.8062
vn -0.0742 0.8533 -0.5162
vn -0.5031 0.3112 -0.8062
vn -0.3349 0.9094 -0.2465
vn -0.0743 0.8533 -0.5161
vn -0.0742 0.8532 -0.5162
vn 0.3351 0.9094 0.2465
vn 0.2522 0.3072 -0.9176
vn -0.5059 -0.2927 -0.8114
vn -0.5032 0.3112 -0.8062
vn -0.5058 -0.2928 -0.8115
vn -0.6323 -0.6194 -0.4653
vn 0.6323 -0.6195 0.4653
vn 0.7230 -0.6811 -0.1159
vn 0.8062 -0.2886 -0.5164
vn 0.8062 -0.2887 -0.5165
vn 0.7229 -0.6812 -0.1158
vn -0.1046 -0.6812 -0.7246
vn -0.5147 0.8534 0.0828
vn -0.9194 0.3114 -0.2404
vn -0.8011 0.3072 0.5137
vn -0.2520 0.3071 0.9177
vn -0.2533 -0.2887 0.9233
vn -0.2533 -0.2886 0.9233
vn -0.7229 -0.6812 0.1158
vn 0.1046 -0.6811 0.7246
vn 0.6322 -0.6195 0.4653
vn -0.7608 -0.3280 -0.5599
vn 0.3239 0.9094 0.2609
vn 0.9080 0.3113 0.2803
vn 0.5182 0.8531 -0.0603
vn 0.9081 0.3111 0.2803
vn 0.8228 0.3069 -0.4783
vn -0.0516 0.8533 -0.5188
vn 0.5180 0.8533 -0.0602
vn -0.0517 0.8533 -0.5188
vn 0.2919 0.3072 -0.9058
vn -0.4674 0.3113 -0.8274
vn -0.4734 -0.0000 -0.8809
vn 0.6114 -0.6195 0.4924
vn 0.7274 -0.6811 -0.0843
vn 0.7275 -0.6809 -0.0843
vn -0.0727 -0.6812 -0.7285
vn -0.4697 -0.2928 -0.8328
vn -0.6112 -0.6197 -0.4923
vn -0.9080 0.3113 -0.2803
vn -0.8279 -0.2885 0.4809
vn -0.8227 0.3070 0.4784
vn -0.8280 -0.2886 0.4809
vn -0.2920 0.3072 0.9058
vn -0.2935 -0.2887 0.9113
vn 0.4697 -0.2928 0.8329
vn -0.8279 -0.2887 0.4808
vn 0.0728 -0.6811 0.7285
vn 0.0515 0.8533 0.5188
vn 0.7298 0.3492 0.5878
vn -0.7358 -0.3278 -0.5925
vn -0.6114 -0.6194 -0.4924
vn 0.6113 -0.6196 0.4923
vn 0.7357 -0.3281 0.5925
vn -0.8073 0.3137 0.4999
vn -0.5356 0.3122 0.7846
vn -0.1959 0.8659 0.4602
vn -0.4644 0.8674 0.1788
vn -0.0322 0.8351 0.5492
vn -0.4048 0.2713 0.8732
vn 0.3583 0.2885 0.8879
vn 0.4965 0.8669 0.0448
vn 0.8719 0.3479 -0.3445
vn 0.4133 0.9026 -0.1208
vn 0.7870 0.3916 -0.4768
vn 0.5152 0.3932 -0.7616
vn 0.3673 -0.0199 0.9299
vn -0.3975 -0.0415 0.9166
vn 0.9116 0.0128 0.4109
vn -0.3894 -0.3324 0.8590
vn 0.0086 -0.7046 0.7095
vn 0.3773 -0.3066 0.8739
vn 0.5762 -0.2732 -0.7703
vn -0.4048 0.2712 0.8733
vn -0.6875 0.3080 0.6576
vn 0.8719 0.3481 -0.3445
vn 0.6674 0.3896 -0.6347
vn -0.6735 -0.3687 0.6406
vn 0.6924 -0.2866 -0.6622
vn 0.3868 0.3506 -0.8529
vn -0.3760 0.3249 -0.8678
vn -0.5454 0.8381 0.0112
vn -0.8685 0.2956 -0.3979
vn -0.8898 0.2741 0.3648
vn 0.3972 0.0415 -0.9168
vn 0.3973 0.0414 -0.9167
vn -0.3675 0.0199 -0.9298
vn -0.9346 -0.0385 0.3537
vn 0.4064 -0.2524 -0.8781
vn 0.0308 -0.6560 -0.7542
vn -0.3605 -0.2700 -0.8928
vn 0.2745 0.9266 -0.2569
vn -0.8899 0.2739 0.3649
vn -0.6875 0.3081 0.6575
vn -0.5454 0.8381 0.0111
vn 0.6924 -0.2865 -0.6621
vn 0.5854 -0.5847 -0.5616
vn 0.0308 -0.6560 -0.7541
vn -0.8781 -0.3297 0.3468
vn -0.6735 -0.3688 0.6407
vn -0.5439 0.8389 -0.0169
vn -0.9111 0.2550 0.3239
vn -0.8074 0.3135 0.4998
vn -0.8073 0.3138 0.4998
vn -0.4642 0.8675 0.1787
vn -0.5437 0.8391 -0.0169
vn -0.0043 0.8360 0.5487
vn -0.1959 0.8659 0.4603
vn -0.1957 0.8660 0.4602
vn -0.5354 0.3122 0.7848
vn -0.3649 0.2521 0.8962
vn 0.8942 0.3278 -0.3048
vn 0.3483 0.3308 -0.8771
vn -0.0449 0.8690 -0.4927
vn 0.1448 0.9041 -0.4021
vn 0.1446 0.9040 -0.4022
vn 0.5151 0.3931 -0.7617
vn 0.3481 0.3308 -0.8772
vn -0.8304 -0.0422 0.5555
vn -0.8304 -0.0421 0.5555
vn -0.5941 -0.0435 0.8033
vn -0.5939 -0.0435 0.8033
vn 0.5939 0.0435 -0.8033
vn 0.4476 0.0422 -0.8932
vn -0.8519 -0.3704 0.3704
vn -0.7167 -0.6274 0.3044
vn -0.6432 -0.6457 0.4115
vn -0.3410 -0.6293 0.6983
vn -0.4118 -0.3726 0.8316
vn -0.5580 -0.3556 0.7498
vn -0.5579 -0.3558 0.7498
vn -0.4445 -0.6468 0.6197
vn -0.3409 -0.6294 0.6983
vn 0.8712 -0.2956 -0.3921
vn 0.4310 -0.2931 -0.8534
vn 0.4799 -0.5782 -0.6598
vn 0.3755 -0.5617 -0.7372
vn -0.5356 0.3119 0.7847
vn -0.3977 -0.0415 0.9166
vn 0.3671 -0.0199 0.9300
vn 0.3579 0.2886 0.8881
vn 0.3675 -0.0199 0.9298
vn -0.3972 -0.0415 0.9168
vn -0.6735 -0.3685 0.6408
vn -0.3975 -0.0416 0.9167
vn -0.6736 -0.3685 0.6407
vn 0.6675 0.3893 -0.6348
vn -0.3673 0.0199 -0.9299
vn -0.3757 0.3249 -0.8679
vn 0.4065 -0.2525 -0.8781
vn -0.3673 0.0198 -0.9299
vn -0.3671 0.0199 -0.9300
vn 0.3977 0.0415 -0.9166
vn 0.4067 -0.2525 -0.8780
vn -0.9117 -0.0129 -0.4108
vn -0.9116 -0.0129 -0.4108
vn -0.6736 -0.3686 0.6406
vn -0.6876 0.3079 0.6576
vn -0.8520 -0.3701 0.3703
vn -0.7771 -0.3543 0.5202
vn -0.8305 -0.0421 0.5554
vn -0.9111 0.2549 0.3240
vn -0.3652 0.2519 0.8962
vn -0.5357 0.3119 0.7847
vn -0.4478 -0.0422 0.8931
vn -0.3651 0.2519 0.8963
vn -0.4118 -0.3725 0.8316
vn -0.4476 -0.0422 0.8932
vn -0.4478 -0.0422 0.8932
vn 0.7952 -0.2743 -0.5408
vn 0.9134 0.0397 -0.4051
vn 0.8305 0.0422 -0.5555
vn 0.3483 0.3307 -0.8771
vn 0.4478 0.0422 -0.8931
vn 0.5762 -0.2731 -0.7704
vn -0.0770 0.3071 -0.9485
vn -0.7485 0.3112 -0.5855
vn -0.8992 0.3490 -0.2638
vn -0.3992 0.9094 -0.1171
vn 0.9462 0.3113 -0.0884
vn 0.5772 0.3071 -0.7567
vn -0.0769 0.3071 -0.9486
vn -0.0770 0.3072 -0.9485
vn -0.7486 0.3112 -0.5855
vn -0.0771 0.3071 -0.9485
vn -0.0780 -0.2886 -0.9543
vn -0.0779 -0.2887 -0.9543
vn 0.9066 -0.3278 0.2660
vn -0.3462 -0.6810 -0.6453
vn -0.7529 -0.2926 -0.5895
vn -0.3462 -0.6810 -0.6452
vn -0.7531 -0.6197 -0.2209
vn 0.7532 -0.6195 0.2210
vn -0.3461 -0.6811 -0.6452
vn 0.7485 0.3112 0.5855
vn -0.4553 0.8534 0.2539
vn -0.9461 0.3114 0.0886
vn -0.5770 0.3072 0.7568
vn 0.2462 0.8533 0.4596
vn 0.7486 0.3112 0.5855
vn 0.0771 0.3071 0.9485
vn 0.0780 -0.2886 0.9543
vn 0.0777 -0.2887 0.9543
vn 0.7528 -0.2927 0.5896
vn 0.7485 0.3112 0.5857
vn -0.9520 -0.2929 0.0895
vn 0.0780 -0.2887 0.9543
vn -0.9519 -0.2930 0.0896
vn -0.6396 -0.6812 0.3562
vn -0.5809 -0.2887 0.7611
vn 0.8992 0.3490 0.2638
vt 0.241310 0.712672
vt 0.241309 0.749908
vt 0.192722 0.749908
vt 0.192723 0.712671
vt 0.244436 0.749908
vt 0.244436 0.752794
vt 0.241309 0.753070
vt 0.192723 0.753070
vt 0.192723 0.709509
vt 0.241310 0.709509
vt 0.244436 0.709785
vt 0.244436 0.712671
vt 0.283714 0.749908
vt 0.283714 0.752794
vt 0.241309 0.792349
vt 0.192723 0.792349
vt 0.192723 0.670230
vt 0.241310 0.670230
vt 0.283714 0.709785
vt 0.283714 0.712671
vt 0.287019 0.749908
vt 0.241309 0.795687
vt 0.192722 0.795687
vt 0.192723 0.666891
vt 0.241310 0.666891
vt 0.287018 0.712672
vt 0.212352 0.749908
vt 0.212353 0.712671
vt 0.212353 0.753070
vt 0.212353 0.709509
vt 0.212353 0.792349
vt 0.212353 0.670230
vt 0.212352 0.795687
vt 0.212353 0.666891
vt 0.163766 0.749908
vt 0.163767 0.712671
vt 0.163767 0.753070
vt 0.160640 0.752794
vt 0.160640 0.749907
vt 0.160640 0.712671
vt 0.160640 0.709785
vt 0.163766 0.709509
vt 0.212353 0.787878
vt 0.163767 0.787878
vt 0.163767 0.757541
vt 0.212353 0.757541
vt 0.156169 0.749907
vt 0.156169 0.752794
vt 0.125833 0.752794
vt 0.125833 0.749907
vt 0.156170 0.712671
vt 0.125833 0.712671
vt 0.156170 0.709785
vt 0.125833 0.709785
vt 0.163766 0.674701
vt 0.212353 0.674701
vt 0.212353 0.705038
vt 0.163766 0.705038
vt 0.163766 0.795687
vt 0.163767 0.792349
vt 0.121362 0.752794
vt 0.118058 0.749908
vt 0.121362 0.749907
vt 0.118057 0.712671
vt 0.121362 0.712671
vt 0.121362 0.709785
vt 0.163766 0.670230
vt 0.163767 0.666891
vt 0.210119 0.712671
vt 0.210118 0.749908
vt 0.194957 0.749908
vt 0.194958 0.712671
vt 0.210118 0.753070
vt 0.194957 0.753070
vt 0.194957 0.709509
vt 0.210119 0.709509
vt 0.210118 0.787878
vt 0.194957 0.787878
vt 0.194957 0.757541
vt 0.210118 0.757541
vt 0.194957 0.674701
vt 0.210119 0.674701
vt 0.210119 0.705038
vt 0.194957 0.705038
vt 0.210118 0.792349
vt 0.210118 0.795687
vt 0.194957 0.795687
vt 0.194957 0.792349
vt 0.194957 0.670230
vt 0.194958 0.666891
vt 0.210119 0.666891
vt 0.210119 0.670230
vt 0.192723 0.757541
vt 0.192723 0.787878
vt 0.192723 0.674701
vt 0.192723 0.705038
s 0
f 1/1/1 2/2/2 3/3/3
f 3/3/4 4/4/5 1/1/6
f 2/2/7 5/5/8 6/6/9
f 2/2/10 6/7/11 7/8/12
f 7/8/13 3/3/14 2/2/2
f 4/4/15 8/9/16 9/10/17
f 9/10/18 1/1/19 4/4/15
f 1/1/1 9/11/20 10/12/21
f 1/1/19 10/12/22 5/5/23
f 5/5/8 2/2/2 1/1/6
f 6/6/24 5/5/25 11/13/26
f 11/13/27 12/14/28 6/6/9
f 12/15/29 13/16/30 7/8/31
f 7/8/31 6/7/32 12/15/29
f 14/17/33 15/18/34 9/10/17
f 9/10/17 8/9/35 14/17/36
f 10/12/21 9/11/18 15/19/37
f 15/19/34 16/20/38 10/12/39
f 10/12/40 16/20/41 11/13/42
f 11/13/42 5/5/23 10/12/22
f 11/13/43 17/21/44 12/14/45
f 12/15/45 17/22/46 18/23/47
f 18/23/48 13/16/49 12/15/29
f 14/17/50 19/24/51 20/25/52
f 20/25/53 15/18/34 14/17/54
f 15/19/55 20/26/52 16/20/56
f 16/20/56 20/26/57 17/21/58
f 17/21/58 11/13/59 16/20/56
f 21/2/60 22/5/61 23/6/62
f 24/1/63 25/11/64 26/12/65
f 24/1/66 26/12/67 22/5/68
f 22/5/69 21/2/60 24/1/70
f 23/6/71 22/5/72 27/13/73
f 27/13/74 28/14/75 23/6/71
f 26/12/76 25/11/64 29/19/77
f 29/19/77 30/20/78 26/12/76
f 26/12/79 30/20/80 27/13/81
f 27/13/81 22/5/69 26/12/76
f 27/13/82 31/21/83 28/14/84
f 29/19/85 32/26/86 30/20/87
f 30/20/80 32/26/86 31/21/88
f 31/21/89 27/13/82 30/20/80
f 24/1/66 21/2/60 4/27/90
f 4/27/90 3/28/91 24/1/66
f 21/2/92 23/7/71 8/29/16
f 8/29/93 4/27/94 21/2/92
f 25/10/95 24/1/63 3/28/96
f 3/28/96 7/30/97 25/10/95
f 14/31/36 8/29/35 23/7/62
f 23/7/71 28/15/75 14/31/36
f 25/10/64 7/30/31 13/32/30
f 13/32/30 29/18/77 25/10/64
f 28/15/84 31/22/89 19/33/51
f 19/33/51 14/31/98 28/15/75
f 32/25/99 29/18/77 13/32/100
f 13/32/49 18/34/101 32/25/86
f 33/28/102 34/27/103 35/35/104
f 35/35/105 36/36/106 33/28/107
f 34/27/108 37/29/109 38/37/110
f 38/37/110 35/35/111 34/27/112
f 35/35/104 38/38/113 39/39/114
f 35/35/115 39/39/116 40/40/117
f 40/40/118 36/36/106 35/35/119
f 36/36/120 40/40/117 41/41/121
f 36/36/106 41/42/122 42/30/123
f 42/30/123 33/28/124 36/36/106
f 43/43/125 44/44/126 45/45/126
f 45/45/126 46/46/125 43/43/125
f 47/47/127 45/48/126 44/49/126
f 44/49/128 48/50/129 47/47/129
f 49/51/130 47/47/131 48/50/131
f 48/50/132 50/52/133 49/51/133
f 51/53/134 49/51/135 50/52/135
f 50/52/136 52/54/137 51/53/137
f 52/55/138 53/56/139 54/57/139
f 54/57/139 51/58/138 52/55/138
f 55/31/140 56/33/141 57/59/142
f 57/59/142 58/60/143 55/31/144
f 58/61/145 57/62/142 59/63/146
f 59/63/146 57/62/142 60/64/147
f 60/64/148 61/65/149 59/63/150
f 61/65/149 60/64/147 62/66/151
f 62/67/152 60/68/147 63/34/153
f 63/34/154 64/32/155 62/67/152
f 65/35/156 66/38/157 67/39/158
f 65/35/159 67/39/160 68/40/161
f 68/40/162 69/36/163 65/35/164
f 69/36/165 68/40/166 70/41/167
f 67/39/158 66/38/168 71/61/169
f 71/61/170 72/63/171 67/39/160
f 68/40/172 67/39/160 72/63/171
f 72/63/173 73/65/174 68/40/161
f 70/41/175 68/40/172 73/65/176
f 73/65/177 74/66/178 70/41/179
f 71/61/180 75/62/181 72/63/182
f 72/63/183 75/62/181 76/64/184
f 76/64/185 73/65/174 72/63/171
f 73/65/186 76/64/184 74/66/187
f 77/4/188 33/3/189 65/35/159
f 65/35/190 69/36/163 77/4/188
f 66/37/191 65/35/164 33/3/192
f 33/3/192 42/8/193 66/37/194
f 69/36/163 70/42/195 78/9/196
f 78/9/197 77/4/108 69/36/163
f 66/37/198 42/8/199 79/16/200
f 79/16/200 71/60/201 66/37/202
f 74/67/203 80/17/144 78/9/204
f 78/9/204 70/42/195 74/67/203
f 75/59/205 71/60/201 79/16/206
f 79/16/207 81/23/208 75/59/181
f 74/67/203 76/68/184 82/24/209
f 82/24/210 80/17/140 74/67/203
f 55/31/211 58/60/143 44/44/126
f 44/44/126 43/43/125 55/31/211
f 38/37/212 37/29/213 46/46/125
f 46/46/125 45/45/126 38/37/212
f 39/39/214 38/38/212 45/48/126
f 45/48/215 47/47/129 39/39/116
f 58/61/216 59/63/150 48/50/129
f 48/50/127 44/49/126 58/61/217
f 40/40/117 39/39/218 47/47/131
f 47/47/219 49/51/133 40/40/117
f 59/63/150 61/65/149 50/52/133
f 50/52/133 48/50/131 59/63/220
f 41/41/121 40/40/221 49/51/222
f 49/51/135 51/53/134 41/41/122
f 61/65/149 62/66/152 52/54/134
f 52/54/223 50/52/222 61/65/224
f 62/67/152 64/32/206 53/56/139
f 53/56/139 52/55/138 62/67/152
f 42/30/199 41/42/122 51/58/138
f 51/58/138 54/57/139 42/30/225
f 83/69/226 84/70/227 85/71/228
f 85/71/228 86/72/229 83/69/226
f 84/70/230 87/73/231 88/74/232
f 88/74/233 85/71/228 84/70/227
f 89/35/234 90/38/235 91/39/236
f 89/35/237 91/39/238 92/40/239
f 92/40/239 93/36/240 89/35/241
f 93/36/242 92/40/239 94/41/243
f 86/72/244 95/75/245 96/76/246
f 96/76/246 83/69/247 86/72/229
f 97/77/248 98/78/249 99/79/250
f 99/79/251 100/80/248 97/77/248
f 101/47/252 102/48/253 103/49/253
f 103/49/254 104/50/255 101/47/256
f 105/51/257 101/47/258 104/50/259
f 104/50/258 106/52/257 105/51/257
f 107/53/260 105/51/261 106/52/262
f 106/52/263 108/54/264 107/53/265
f 109/81/266 110/82/267 111/83/268
f 111/83/267 112/84/269 109/81/266
f 113/85/270 114/86/271 115/87/272
f 115/87/273 116/88/274 113/85/270
f 117/61/275 118/62/276 119/63/277
f 119/63/278 118/62/279 120/64/280
f 120/64/280 121/65/281 119/63/278
f 121/65/282 120/64/283 122/66/284
f 123/89/285 124/90/286 125/91/287
f 125/91/287 126/92/288 123/89/285
f 127/4/289 128/3/290 89/35/237
f 89/35/291 93/36/292 127/4/289
f 90/37/235 89/35/291 128/3/293
f 128/3/294 129/8/295 90/37/296
f 93/36/292 94/42/297 130/9/298
f 130/9/299 127/4/300 93/36/301
f 102/45/302 131/93/303 132/94/303
f 132/94/303 103/44/302 102/45/302
f 108/55/304 133/95/305 134/96/305
f 134/96/305 107/58/306 108/55/304
f 118/59/279 117/60/275 135/16/307
f 135/16/308 136/23/309 118/59/310
f 122/67/311 120/68/283 137/24/312
f 137/24/312 138/17/313 122/67/314
f 139/35/315 140/38/316 141/39/317
f 139/35/318 141/39/317 142/40/319
f 142/40/320 143/36/321 139/35/318
f 143/36/322 142/40/323 144/41/324
f 145/47/325 146/48/326 147/49/326
f 147/49/327 148/50/325 145/47/328
f 149/51/329 145/47/330 148/50/330
f 148/50/330 150/52/331 149/51/331
f 151/53/332 149/51/333 150/52/334
f 150/52/335 152/54/336 151/53/337
f 153/61/338 154/62/339 155/63/340
f 155/63/341 154/62/342 156/64/343
f 156/64/343 157/65/344 155/63/345
f 157/65/346 156/64/347 158/66/348
f 159/4/349 160/3/300 139/35/318
f 139/35/318 143/36/321 159/4/349
f 140/37/350 139/35/351 160/3/352
f 160/3/353 161/8/354 140/37/355
f 143/36/356 144/42/357 162/9/295
f 162/9/358 159/4/359 143/36/360
f 146/45/361 163/93/305 164/94/305
f 164/94/305 147/44/361 146/45/361
f 152/55/362 165/95/363 166/96/363
f 166/96/303 151/58/364 152/55/362
f 154/59/365 153/60/366 167/16/313
f 167/16/367 168/23/368 154/59/369
f 158/67/348 156/68/343 169/24/370
f 169/24/370 170/17/371 158/67/372
f 160/28/373 171/27/374 84/70/375
f 84/70/227 83/69/376 160/28/377
f 128/3/378 127/4/379 86/72/229
f 86/72/229 85/71/380 128/3/381
f 171/27/382 172/29/383 87/73/384
f 87/73/384 84/70/385 171/27/386
f 129/8/387 128/3/388 85/71/380
f 85/71/228 88/74/233 129/8/389
f 127/4/390 130/9/391 95/75/245
f 95/75/392 86/72/393 127/4/394
f 161/30/395 160/28/396 83/69/226
f 83/69/247 96/76/397 161/30/398
f 173/46/399 174/43/399 97/77/400
f 97/77/401 100/80/402 173/46/403
f 131/93/404 99/79/405 98/78/405
f 98/78/406 132/94/407 131/93/407
f 134/96/408 133/95/408 109/81/269
f 109/81/409 112/84/409 134/96/410
f 163/57/411 111/83/267 110/82/412
f 110/82/413 175/56/414 163/57/414
f 176/31/415 177/33/416 114/86/417
f 114/86/418 113/85/419 176/31/420
f 136/23/421 135/16/422 116/88/423
f 116/88/274 115/87/424 136/23/425
f 138/17/426 137/24/427 124/90/428
f 124/90/286 123/89/285 138/17/429
f 178/34/430 179/32/431 126/92/288
f 126/92/288 125/91/432 178/34/433
f 113/85/434 116/88/435 98/78/405
f 98/78/249 97/77/436 113/85/434
f 88/74/232 87/73/437 100/80/248
f 100/80/436 99/79/405 88/74/232
f 91/39/438 90/38/439 102/48/440
f 102/48/253 101/47/252 91/39/441
f 117/61/442 119/63/278 104/50/443
f 104/50/256 103/49/444 117/61/445
f 92/40/239 91/39/238 101/47/259
f 101/47/446 105/51/257 92/40/239
f 119/63/278 121/65/281 106/52/257
f 106/52/447 104/50/259 119/63/278
f 94/41/243 92/40/239 105/51/448
f 105/51/449 107/53/304 94/41/450
f 121/65/281 122/66/451 108/54/260
f 108/54/452 106/52/261 121/65/281
f 123/89/453 126/92/454 110/82/267
f 110/82/455 109/81/269 123/89/453
f 96/76/456 95/75/457 112/84/269
f 112/84/269 111/83/455 96/76/458
f 90/37/235 129/8/459 131/93/363
f 131/93/460 102/45/302 90/37/439
f 135/16/461 117/60/442 103/44/302
f 103/44/302 132/94/460 135/16/461
f 122/67/284 138/17/462 133/95/463
f 133/95/464 108/55/465 122/67/311
f 130/9/466 94/42/243 107/58/306
f 107/58/467 134/96/464 130/9/466
f 141/39/468 140/38/469 146/48/470
f 146/48/471 145/47/325 141/39/472
f 153/61/473 155/63/474 148/50/325
f 148/50/325 147/49/326 153/61/473
f 142/40/319 141/39/475 145/47/330
f 145/47/330 149/51/331 142/40/320
f 155/63/474 157/65/344 150/52/476
f 150/52/329 148/50/477 155/63/341
f 144/41/478 142/40/479 149/51/334
f 149/51/480 151/53/337 144/41/481
f 157/65/482 158/66/483 152/54/362
f 152/54/484 150/52/485 157/65/486
f 140/37/487 161/8/488 163/93/463
f 163/93/464 146/45/489 140/37/490
f 167/16/491 153/60/473 147/44/361
f 147/44/492 164/94/493 167/16/462
f 158/67/494 170/17/495 165/95/363
f 165/95/460 152/55/332 158/67/372
f 162/9/496 144/42/481 151/58/364
f 151/58/497 166/96/460 162/9/496
f 174/43/498 176/31/499 113/85/500
f 113/85/500 97/77/401 174/43/498
f 100/80/401 87/73/437 172/29/501
f 172/29/502 173/46/498 100/80/503
f 129/8/504 88/74/505 99/79/506
f 99/79/506 131/93/404 129/8/507
f 116/88/508 135/16/509 132/94/404
f 132/94/510 98/78/511 116/88/512
f 133/95/513 138/17/514 123/89/515
f 123/89/516 109/81/269 133/95/517
f 112/84/518 95/75/519 130/9/520
f 130/9/521 134/96/517 112/84/266
f 161/30/522 96/76/458 111/83/523
f 111/83/267 163/57/411 161/30/522
f 126/92/524 179/32/525 175/56/526
f 175/56/526 110/82/527 126/92/528
f 180/1/529 181/2/530 182/3/531
f 182/3/532 183/4/533 180/1/534
f 181/2/535 184/5/536 185/6/537
f 181/2/538 185/7/539 186/8/540
f 186/8/541 182/3/532 181/2/542
f 183/4/543 187/9/544 188/10/545
f 188/10/546 180/1/534 183/4/533
f 180/1/547 188/11/548 189/12/549
f 180/1/534 189/12/550 184/5/551
f 184/5/551 181/2/542 180/1/534
f 185/6/537 184/5/536 190/13/552
f 190/13/553 191/14/554 185/6/539
f 191/15/554 192/16/555 186/8/556
f 186/8/557 185/7/539 191/15/554
f 193/17/558 194/18/559 188/10/546
f 188/10/546 187/9/560 193/17/558
f 189/12/561 188/11/545 194/19/559
f 194/19/559 195/20/562 189/12/563
f 189/12/550 195/20/564 190/13/552
f 190/13/552 184/5/565 189/12/550
f 190/13/566 196/21/567 191/14/554
f 191/15/554 196/22/568 197/23/569
f 197/23/570 192/16/571 191/15/572
f 193/17/573 198/24/574 199/25/575
f 199/25/575 194/18/559 193/17/576
f 194/19/577 199/26/578 195/20/579
f 195/20/564 199/26/580 196/21/568
f 196/21/568 190/13/581 195/20/564
f 200/2/582 201/5/583 202/6/584
f 203/1/585 204/11/586 205/12/587
f 203/1/585 205/12/588 201/5/589
f 201/5/589 200/2/590 203/1/585
f 202/6/591 201/5/583 206/13/592
f 206/13/593 207/14/594 202/6/595
f 205/12/596 204/11/597 208/19/598
f 208/19/599 209/20/600 205/12/588
f 205/12/601 209/20/602 206/13/592
f 206/13/592 201/5/603 205/12/587
f 206/13/592 210/21/604 207/14/605
f 208/19/606 211/26/607 209/20/608
f 209/20/602 211/26/609 210/21/610
f 210/21/610 206/13/593 209/20/602
f 203/1/585 200/2/611 183/27/612
f 183/27/612 182/28/532 203/1/585
f 200/2/590 202/7/591 187/29/613
f 187/29/544 183/27/543 200/2/590
f 204/10/614 203/1/615 182/28/532
f 182/28/532 186/30/540 204/10/616
f 193/31/558 187/29/617 202/7/618
f 202/7/595 207/15/594 193/31/558
f 204/10/616 186/30/557 192/32/619
f 192/32/619 208/18/620 204/10/621
f 207/15/594 210/22/610 198/33/622
f 198/33/623 193/31/573 207/15/624
f 211/25/609 208/18/620 192/32/571
f 192/32/625 197/34/626 211/25/627
f 231/32/628 226/34/629 212/25/630
f 212/25/631 215/18/632 231/32/628
f 225/33/633 230/31/634 216/15/635
f 216/15/636 213/22/637 225/33/633
f 231/32/638 215/18/632 219/10/639
f 219/10/640 237/30/641 231/32/638
f 221/7/642 216/15/635 230/31/643
f 230/31/644 236/29/645 221/7/646
f 241/28/647 237/30/648 219/10/640
f 219/10/640 220/1/649 241/28/650
f 236/29/651 240/27/652 223/2/653
f 223/2/654 221/7/642 236/29/651
f 240/27/652 241/28/647 220/1/655
f 220/1/655 223/2/656 240/27/657
f 213/21/637 217/13/658 214/20/659
f 214/20/659 212/26/660 213/21/661
f 215/19/662 212/26/663 214/20/664
f 217/13/665 213/21/666 216/14/635
f 217/13/667 222/5/668 218/12/669
f 218/12/670 214/20/659 217/13/658
f 215/19/632 214/20/659 218/12/669
f 218/12/671 219/11/639 215/19/672
f 217/13/673 216/14/635 221/6/642
f 221/6/642 222/5/674 217/13/658
f 222/5/675 223/2/656 220/1/676
f 220/1/655 218/12/669 222/5/677
f 220/1/649 219/11/640 218/12/671
f 223/2/678 222/5/668 221/6/642
f 227/21/679 233/13/680 228/20/681
f 228/20/681 224/26/682 227/21/679
f 229/19/683 224/26/684 228/20/685
f 224/25/682 229/18/683 230/17/686
f 230/17/687 225/24/688 224/25/689
f 226/23/690 231/16/628 232/15/691
f 232/15/691 227/22/679 226/23/692
f 233/13/680 227/21/693 232/14/694
f 233/13/695 239/5/696 234/12/697
f 234/12/697 228/20/681 233/13/680
f 229/19/683 228/20/681 234/12/697
f 234/12/697 235/11/698 229/19/683
f 235/10/698 236/9/645 230/17/644
f 230/17/644 229/18/683 235/10/699
f 237/8/641 238/7/700 232/15/691
f 232/15/691 231/16/638 237/8/701
f 233/13/695 232/14/691 238/6/700
f 238/6/702 239/5/703 233/13/680
f 239/5/703 242/2/704 243/1/705
f 243/1/706 234/12/697 239/5/703
f 243/1/705 235/11/698 234/12/697
f 235/10/699 243/1/705 240/4/707
f 240/4/708 236/9/651 235/10/698
f 237/8/648 241/3/709 242/2/710
f 242/2/711 238/7/712 237/8/701
f 242/2/713 239/5/696 238/6/700
f 241/3/650 240/4/714 243/1/715
f 243/1/715 242/2/704 241/3/650
f 248/56/716 313/82/717 297/92/718
f 297/92/719 244/32/720 248/56/716
f 312/83/717 260/57/716 262/30/721
f 262/30/722 327/76/723 312/83/724
f 293/9/725 289/96/726 311/84/727
f 311/84/728 328/75/729 293/9/730
f 300/89/731 314/81/732 290/95/733
f 290/95/733 285/17/734 300/89/735
f 291/94/736 325/78/737 307/88/738
f 307/88/738 288/16/739 291/94/736
f 324/79/740 292/93/736 294/8/741
f 294/8/742 335/74/743 324/79/744
f 251/29/745 250/46/746 323/80/747
f 323/80/748 336/73/749 251/29/750
f 310/85/751 326/77/748 249/43/752
f 249/43/752 247/31/753 310/85/751
f 272/58/754 257/96/755 261/9/756
f 261/9/757 279/42/758 272/58/759
f 258/95/760 271/55/754 265/67/761
f 265/67/762 253/17/763 258/95/764
f 276/44/765 259/94/766 256/16/767
f 256/16/767 270/60/768 276/44/765
f 260/93/769 277/45/765 283/37/770
f 283/37/770 262/8/771 260/93/769
f 271/54/772 273/52/773 266/65/774
f 266/65/775 265/66/776 271/54/772
f 274/51/777 272/53/778 279/41/779
f 279/41/780 281/40/781 274/51/782
f 273/52/783 275/50/784 268/63/785
f 268/63/785 266/65/774 273/52/786
f 278/47/784 274/51/786 281/40/787
f 281/40/787 282/39/788 278/47/789
f 275/50/790 276/49/791 270/61/768
f 270/61/792 268/63/785 275/50/793
f 277/48/791 278/47/790 282/39/788
f 282/39/788 283/38/770 277/48/791
f 316/58/794 289/96/795 293/9/771
f 293/9/771 329/42/796 316/58/797
f 290/95/769 315/55/797 301/67/798
f 301/67/799 285/17/800 290/95/795
f 320/44/801 291/94/764 288/16/802
f 288/16/802 306/60/803 320/44/804
f 292/93/764 321/45/804 333/37/805
f 333/37/805 294/8/806 292/93/807
f 311/84/808 312/83/809 327/76/810
f 327/76/723 328/75/811 311/84/808
f 313/82/812 314/81/813 300/89/814
f 300/89/815 297/92/816 313/82/812
f 315/54/817 317/52/818 302/65/819
f 302/65/820 301/66/799 315/54/821
f 318/51/818 316/53/822 329/41/796
f 329/41/823 331/40/824 318/51/818
f 317/52/825 319/50/826 304/63/827
f 304/63/828 302/65/829 317/52/830
f 322/47/826 318/51/825 331/40/831
f 331/40/832 332/39/833 322/47/834
f 319/50/835 320/49/836 306/61/837
f 306/61/838 304/63/827 319/50/835
f 321/48/839 322/47/840 332/39/841
f 332/39/842 333/38/805 321/48/839
f 323/80/843 324/79/844 335/74/845
f 335/74/743 336/73/846 323/80/843
f 325/78/847 326/77/848 310/85/849
f 310/85/849 307/88/850 325/78/851
f 297/92/852 298/91/853 245/34/854
f 245/34/854 244/32/855 297/92/856
f 299/90/857 300/89/858 285/17/859
f 285/17/860 286/24/861 299/90/862
f 307/88/863 308/87/864 287/23/865
f 287/23/865 288/16/866 307/88/867
f 309/86/868 310/85/869 247/31/870
f 247/31/871 246/33/872 309/86/873
f 313/82/717 248/56/716 260/57/716
f 260/57/874 312/83/812 313/82/717
f 314/81/727 311/84/727 289/96/726
f 289/96/733 290/95/733 314/81/728
f 325/78/740 291/94/736 292/93/736
f 292/93/736 324/79/875 325/78/875
f 326/77/747 323/80/876 250/46/746
f 250/46/746 249/43/746 326/77/747
f 340/69/877 327/76/878 262/30/721
f 262/30/879 263/28/880 340/69/881
f 328/75/882 337/72/883 296/4/884
f 296/4/885 293/9/886 328/75/729
f 338/71/887 335/74/888 294/8/889
f 294/8/890 295/3/891 338/71/892
f 336/73/893 339/70/894 252/27/895
f 252/27/896 251/29/897 336/73/898
f 337/72/899 338/71/892 295/3/900
f 295/3/901 296/4/902 337/72/899
f 339/70/894 340/69/903 263/28/904
f 263/28/904 252/27/905 339/70/894
f 254/24/906 253/17/907 265/67/761
f 265/67/908 267/68/909 254/24/910
f 256/16/911 255/23/912 269/59/913
f 269/59/914 270/60/768 256/16/800
f 257/96/755 272/58/759 271/55/754
f 271/55/754 258/95/764 257/96/764
f 259/94/766 276/44/765 277/45/765
f 277/45/765 260/93/766 259/94/766
f 261/9/915 264/4/916 280/36/917
f 280/36/918 279/42/780 261/9/919
f 263/3/920 262/8/921 283/37/922
f 283/37/923 284/35/924 263/3/925
f 284/35/926 280/36/918 264/4/927
f 264/4/927 263/3/928 284/35/929
f 266/65/930 267/64/931 265/66/761
f 267/64/932 266/65/774 268/63/933
f 268/63/785 269/62/913 267/64/934
f 270/61/935 269/62/913 268/63/936
f 273/52/777 271/54/937 272/53/778
f 272/53/778 274/51/773 273/52/773
f 275/50/789 273/52/938 274/51/938
f 274/51/938 278/47/789 275/50/789
f 276/49/939 275/50/940 278/47/940
f 278/47/790 277/48/941 276/49/941
f 280/36/917 281/40/942 279/41/780
f 281/40/942 280/36/917 284/35/943
f 284/35/929 282/39/944 281/40/945
f 284/35/926 283/38/923 282/39/788
f 286/24/946 285/17/947 301/67/798
f 301/67/799 303/68/948 286/24/949
f 288/16/907 287/23/950 305/59/951
f 305/59/952 306/60/953 288/16/907
f 289/96/795 316/58/797 315/55/794
f 315/55/954 290/95/766 289/96/766
f 291/94/764 320/44/804 321/45/804
f 321/45/804 292/93/764 291/94/764
f 293/9/955 296/4/956 330/36/957
f 330/36/958 329/42/823 293/9/921
f 295/3/959 294/8/756 333/37/805
f 333/37/960 334/35/961 295/3/916
f 334/35/961 330/36/958 296/4/962
f 296/4/962 295/3/963 334/35/964
f 298/91/965 297/92/966 300/89/967
f 300/89/967 299/90/968 298/91/965
f 302/65/969 303/64/970 301/66/798
f 303/64/971 302/65/972 304/63/827
f 304/63/973 305/62/952 303/64/970
f 306/61/974 305/62/951 304/63/827
f 308/87/975 307/88/863 310/85/976
f 310/85/977 309/86/978 308/87/979
f 312/83/980 311/84/813 314/81/813
f 314/81/808 313/82/812 312/83/981
f 317/52/982 315/54/983 316/53/817
f 316/53/983 318/51/818 317/52/982
f 319/50/826 317/52/825 318/51/825
f 318/51/825 322/47/826 319/50/834
f 320/49/839 319/50/835 322/47/835
f 322/47/835 321/48/839 320/49/839
f 324/79/844 323/80/843 326/77/843
f 326/77/843 325/78/844 324/79/984
f 327/76/878 340/69/985 337/72/986
f 337/72/899 328/75/987 327/76/988
f 330/36/989 331/40/832 329/41/823
f 331/40/831 330/36/990 334/35/961
f 334/35/961 332/39/833 331/40/991
f 334/35/961 333/38/992 332/39/993
f 335/74/994 338/71/892 339/70/894
f 339/70/995 336/73/996 335/74/994
f 338/71/892 337/72/899 340/69/903
f 340/69/903 339/70/894 338/71/892
f 372/58/997 369/57/998 381/30/999
f 381/30/999 382/42/1000 372/58/997
f 370/56/998 371/55/997 361/67/1001
f 361/67/1001 359/32/1002 370/56/998
f 371/54/1003 373/52/1004 362/65/1005
f 362/65/1005 361/66/1001 371/54/1003
f 374/51/1004 372/53/1003 382/41/1006
f 382/41/1000 383/40/1007 374/51/1004
f 373/52/1008 375/50/1009 364/63/1010
f 364/63/1010 362/65/1005 373/52/1008
f 376/47/1009 374/51/1008 383/40/1011
f 383/40/1011 384/39/1012 376/47/1009
f 375/50/1013 379/49/1014 365/61/1015
f 365/61/1015 364/63/1016 375/50/1017
f 378/48/1018 376/47/1017 384/39/1019
f 384/39/1020 385/38/1021 378/48/1014
f 377/46/1022 378/45/1023 385/37/1024
f 385/37/1025 386/29/1026 377/46/1022
f 379/44/1023 380/43/1022 368/31/1027
f 368/31/1027 365/60/1028 379/44/1023
f 341/24/1029 343/17/1030 349/67/1031
f 349/67/1032 347/68/1033 341/24/1029
f 344/16/1034 342/23/1035 348/59/1036
f 348/59/1037 352/60/1038 344/16/1039
f 345/9/1040 353/42/1041 349/67/1032
f 349/67/1032 343/17/1042 345/9/1040
f 344/16/1043 352/60/1044 357/37/1045
f 357/37/1046 381/8/1047 344/16/1043
f 345/9/1048 346/4/1049 354/36/1050
f 354/36/1051 353/42/1052 345/9/1053
f 390/3/1054 381/8/1055 357/37/1056
f 357/37/1057 358/35/1058 390/3/1059
f 358/35/1060 354/36/1051 346/4/1061
f 346/4/1062 390/3/1059 358/35/1063
f 350/65/1064 347/64/1065 349/66/1031
f 347/64/1033 350/65/1064 351/63/1066
f 351/63/1067 348/62/1068 347/64/1033
f 352/61/1069 348/62/1070 351/63/1067
f 350/65/1071 349/66/1032 353/41/1072
f 353/41/1072 355/40/1073 350/65/1064
f 351/63/1074 350/65/1071 355/40/1075
f 355/40/1076 356/39/1077 351/63/1078
f 352/61/1079 351/63/1066 356/39/1080
f 356/39/1081 357/38/1082 352/61/1069
f 354/36/1051 355/40/1083 353/41/1072
f 355/40/1073 354/36/1084 358/35/1085
f 358/35/1063 356/39/1077 355/40/1083
f 358/35/1086 357/38/1082 356/39/1077
f 360/34/1087 359/32/1088 361/67/1001
f 361/67/1089 363/68/1090 360/34/1035
f 362/65/1091 363/64/1092 361/66/1001
f 363/64/1093 362/65/1094 364/63/1010
f 364/63/1095 366/62/1096 363/64/1093
f 365/61/1097 366/62/1098 364/63/1095
f 366/59/1096 365/60/1099 368/31/1100
f 368/31/1030 367/33/1029 366/59/1101
f 369/57/998 372/58/997 371/55/997
f 371/55/997 370/56/998 369/57/998
f 373/52/1004 371/54/1102 372/53/1102
f 372/53/1003 374/51/1103 373/52/1103
f 375/50/1009 373/52/1008 374/51/1008
f 374/51/1008 376/47/1009 375/50/1009
f 379/49/1104 375/50/1017 376/47/1017
f 376/47/1105 378/48/1014 379/49/1014
f 378/45/1023 377/46/1022 380/43/1022
f 380/43/1022 379/44/1023 378/45/1023
f 381/30/1106 390/28/1107 387/36/1108
f 387/36/1109 382/42/1006 381/30/1110
f 387/36/1111 383/40/1112 382/41/1113
f 383/40/1007 387/36/1109 388/35/1114
f 388/35/1115 384/39/1019 383/40/1007
f 388/35/1116 385/38/1021 384/39/1020
f 385/37/1117 388/35/1114 389/27/1118
f 389/27/1118 386/29/1119 385/37/1021
f 388/35/1120 387/36/1109 390/28/1107
f 390/28/1121 389/27/1049 388/35/1120
f 410/32/1122 405/34/1123 391/25/1124
f 391/25/1125 394/18/1126 410/32/1122
f 404/33/1127 409/31/1128 395/15/1129
f 395/15/1130 392/22/1131 404/33/1132
f 410/32/1133 394/18/1126 398/10/1134
f 398/10/1134 416/30/1135 410/32/1133
f 400/7/1136 395/15/1137 409/31/1138
f 409/31/1138 415/29/1139 400/7/1140
f 420/28/1141 416/30/1142 398/10/1134
f 398/10/1134 399/1/1143 420/28/1141
f 415/29/1144 419/27/1145 402/2/1146
f 402/2/1147 400/7/1148 415/29/1149
f 419/27/1150 420/28/1151 399/1/1143
f 399/1/1143 402/2/1152 419/27/1150
f 392/21/1131 396/13/1153 393/20/1154
f 393/20/1154 391/26/1155 392/21/1131
f 394/19/1156 391/26/1155 393/20/1157
f 396/13/1153 392/21/1158 395/14/1130
f 396/13/1159 401/5/1160 397/12/1161
f 397/12/1162 393/20/1154 396/13/1153
f 394/19/1126 393/20/1154 397/12/1163
f 397/12/1163 398/11/1134 394/19/1126
f 396/13/1164 395/14/1165 400/6/1166
f 400/6/1136 401/5/1167 396/13/1153
f 401/5/1168 402/2/1169 399/1/1143
f 399/1/1143 397/12/1161 401/5/1168
f 399/1/1143 398/11/1134 397/12/1163
f 402/2/1170 401/5/1168 400/6/1171
f 406/21/1172 412/13/1173 407/20/1174
f 407/20/1174 403/26/1175 406/21/1172
f 408/19/1176 403/26/1177 407/20/1174
f 403/25/1178 408/18/1179 409/17/1180
f 409/17/1128 404/24/1181 403/25/1175
f 405/23/1182 410/16/1122 411/15/1183
f 411/15/1183 406/22/1184 405/23/1185
f 412/13/1186 406/21/1187 411/14/1188
f 412/13/1189 418/5/1190 413/12/1191
f 413/12/1192 407/20/1174 412/13/1193
f 408/19/1176 407/20/1174 413/12/1194
f 413/12/1191 414/11/1195 408/19/1196
f 414/10/1195 415/9/1197 409/17/1138
f 409/17/1198 408/18/1176 414/10/1195
f 416/8/1135 417/7/1199 411/15/1200
f 411/15/1200 410/16/1133 416/8/1135
f 412/13/1201 411/14/1188 417/6/1199
f 417/6/1202 418/5/1203 412/13/1193
f 418/5/1190 421/2/1204 422/1/1205
f 422/1/1205 413/12/1191 418/5/1206
f 422/1/1207 414/11/1195 413/12/1194
f 414/10/1208 422/1/1205 419/4/1145
f 419/4/1209 415/9/1210 414/10/1211
f 416/8/1212 420/3/1141 421/2/1204
f 421/2/1213 417/7/1214 416/8/1212
f 421/2/1215 418/5/1190 417/6/1216
f 420/3/1217 419/4/1145 422/1/1205
f 422/1/1205 421/2/1218 420/3/1217
f 423/1/1205 424/2/1218 425/3/1217
f 425/3/1217 426/4/1145 423/1/1205
f 424/2/1219 427/5/1190 428/6/1199
f 424/2/1219 428/7/1216 429/8/1212
f 429/8/1212 425/3/1141 424/2/1204
f 426/4/1209 430/9/1210 431/10/1211
f 431/10/1195 423/1/1205 426/4/1220
f 423/1/1205 431/11/1195 432/12/1194
f 423/1/1205 432/12/1191 427/5/1190
f 427/5/1206 424/2/1204 423/1/1205
f 428/6/1202 427/5/1221 433/13/1193
f 433/13/1189 434/14/1222 428/6/1223
f 434/15/1200 435/16/1133 429/8/1135
f 429/8/1135 428/7/1199 434/15/1200
f 436/17/1198 437/18/1176 431/10/1195
f 431/10/1195 430/9/1197 436/17/1138
f 432/12/1194 431/11/1195 437/19/1176
f 437/19/1176 438/20/1174 432/12/1194
f 432/12/1192 438/20/1174 433/13/1193
f 433/13/1189 427/5/1190 432/12/1191
f 433/13/1186 439/21/1172 434/14/1224
f 434/15/1200 439/22/1184 440/23/1225
f 440/23/1182 435/16/1122 434/15/1183
f 436/17/1180 441/24/1226 442/25/1227
f 442/25/1178 437/18/1179 436/17/1180
f 437/19/1176 442/26/1227 438/20/1228
f 438/20/1229 442/26/1230 439/21/1231
f 439/21/1184 433/13/1193 438/20/1174
f 443/2/1170 444/5/1168 445/6/1166
f 446/1/1232 447/11/1233 448/12/1234
f 446/1/1143 448/12/1161 444/5/1167
f 444/5/1168 443/2/1169 446/1/1143
f 445/6/1166 444/5/1235 449/13/1159
f 449/13/1236 450/14/1130 445/6/1136
f 448/12/1163 447/11/1134 451/19/1126
f 451/19/1126 452/20/1154 448/12/1163
f 448/12/1162 452/20/1154 449/13/1237
f 449/13/1159 444/5/1160 448/12/1161
f 449/13/1153 453/21/1158 450/14/1137
f 451/19/1156 454/26/1125 452/20/1157
f 452/20/1154 454/26/1238 453/21/1239
f 453/21/1131 449/13/1236 452/20/1154
f 446/1/1143 443/2/1152 426/27/1150
f 426/27/1150 425/28/1151 446/1/1143
f 443/2/1147 445/7/1140 430/29/1149
f 430/29/1144 426/27/1145 443/2/1146
f 447/10/1134 446/1/1143 425/28/1141
f 425/28/1141 429/30/1212 447/10/1134
f 436/31/1138 430/29/1139 445/7/1140
f 445/7/1136 450/15/1137 436/31/1138
f 447/10/1134 429/30/1135 435/32/1133
f 435/32/1133 451/18/1126 447/10/1134
f 450/15/1130 453/22/1131 441/33/1132
f 441/33/1240 436/31/1128 450/15/1129
f 454/25/1125 451/18/1126 435/32/1122
f 435/32/1241 440/34/1182 454/25/1155
f 455/28/1121 456/27/1049 457/35/1120
f 457/35/1120 458/36/1109 455/28/1107
f 456/27/1242 459/29/1119 460/37/1243
f 460/37/1117 457/35/1114 456/27/1118
f 457/35/1244 460/38/1245 461/39/1246
f 457/35/1115 461/39/1012 462/40/1007
f 462/40/1007 458/36/1247 457/35/1248
f 458/36/1249 462/40/1250 463/41/1251
f 458/36/1109 463/42/1006 464/30/1110
f 464/30/1106 455/28/1107 458/36/1108
f 465/43/1022 466/44/1023 467/45/1023
f 467/45/1023 468/46/1022 465/43/1022
f 469/47/1017 467/48/1014 466/49/1014
f 466/49/1104 470/50/1105 469/47/1105
f 471/51/1008 469/47/1009 470/50/1009
f 470/50/1009 472/52/1008 471/51/1008
f 473/53/1252 471/51/1103 472/52/1103
f 472/52/1004 474/54/1003 473/53/1003
f 474/55/997 475/56/998 476/57/998
f 476/57/998 473/58/997 474/55/997
f 477/31/1030 478/33/1253 479/59/1101
f 479/59/1254 480/60/1028 477/31/1030
f 480/61/1015 479/62/1255 481/63/1016
f 481/63/1016 479/62/1096 482/64/1090
f 482/64/1093 483/65/1094 481/63/1010
f 483/65/1094 482/64/1256 484/66/1257
f 484/67/1001 482/68/1093 485/34/1035
f 485/34/1258 486/32/1088 484/67/1001
f 487/35/1085 488/38/1259 489/39/1081
f 487/35/1063 489/39/1077 490/40/1083
f 490/40/1073 491/36/1084 487/35/1085
f 491/36/1051 490/40/1076 492/41/1072
f 489/39/1081 488/38/1082 493/61/1069
f 493/61/1079 494/63/1260 489/39/1261
f 490/40/1073 489/39/1077 494/63/1066
f 494/63/1262 495/65/1071 490/40/1075
f 492/41/1072 490/40/1263 495/65/1064
f 495/65/1264 496/66/1265 492/41/1041
f 493/61/1079 497/62/1068 494/63/1266
f 494/63/1067 497/62/1068 498/64/1033
f 498/64/1033 495/65/1064 494/63/1066
f 495/65/1071 498/64/1267 496/66/1032
f 499/4/1062 455/3/1059 487/35/1063
f 487/35/1060 491/36/1051 499/4/1061
f 488/37/1259 487/35/1058 455/3/1059
f 455/3/1054 464/8/1055 488/37/1082
f 491/36/1268 492/42/1072 500/9/1269
f 500/9/1048 499/4/1049 491/36/1050
f 488/37/1056 464/8/1047 501/16/1043
f 501/16/1043 493/60/1044 488/37/1045
f 496/67/1032 502/17/1042 500/9/1040
f 500/9/1040 492/42/1041 496/67/1032
f 497/59/1037 493/60/1038 501/16/1039
f 501/16/1270 503/23/1271 497/59/1070
f 496/67/1032 498/68/1033 504/24/1029
f 504/24/1272 502/17/1273 496/67/1032
f 477/31/1027 480/60/1028 466/44/1023
f 466/44/1023 465/43/1022 477/31/1027
f 460/37/1024 459/29/1026 468/46/1022
f 468/46/1022 467/45/1023 460/37/1024
f 461/39/1019 460/38/1021 467/48/1014
f 467/48/1018 469/47/1105 461/39/1019
f 480/61/1015 481/63/1010 470/50/1105
f 470/50/1013 466/49/1014 480/61/1015
f 462/40/1011 461/39/1012 469/47/1009
f 469/47/1009 471/51/1008 462/40/1011
f 481/63/1010 483/65/1005 472/52/1008
f 472/52/1008 470/50/1009 481/63/1010
f 463/41/1006 462/40/1112 471/51/1103
f 471/51/1103 473/53/1003 463/41/1006
f 483/65/1091 484/66/1001 474/54/1003
f 474/54/1003 472/52/1103 483/65/1091
f 484/67/1001 486/32/1002 475/56/998
f 475/56/998 474/55/997 484/67/1001
f 464/30/999 463/42/1000 473/58/997
f 473/58/997 476/57/998 464/30/999
f 505/69/903 506/70/894 507/71/892
f 507/71/892 508/72/899 505/69/903
f 506/70/894 509/73/1274 510/74/1275
f 510/74/994 507/71/1276 506/70/1277
f 511/35/1278 512/38/1279 513/39/1280
f 511/35/964 513/39/993 514/40/831
f 514/40/832 515/36/957 511/35/961
f 515/36/1281 514/40/824 516/41/1282
f 508/72/1283 517/75/1284 518/76/723
f 518/76/1285 505/69/903 508/72/899
f 519/77/843 520/78/847 521/79/984
f 521/79/875 522/80/843 519/77/843
f 523/47/1286 524/48/1287 525/49/804
f 525/49/839 526/50/835 523/47/835
f 527/51/1288 523/47/826 526/50/826
f 526/50/826 528/52/830 527/51/825
f 529/53/817 527/51/818 528/52/982
f 528/52/982 530/54/983 529/53/817
f 531/81/808 532/82/812 533/83/981
f 533/83/980 534/84/813 531/81/808
f 535/85/977 536/86/978 537/87/979
f 537/87/975 538/88/863 535/85/976
f 539/61/1289 540/62/1290 541/63/1291
f 541/63/827 540/62/951 542/64/970
f 542/64/970 543/65/819 541/63/1291
f 543/65/969 542/64/970 544/66/798
f 545/89/967 546/90/968 547/91/965
f 547/91/965 548/92/1292 545/89/967
f 549/4/962 550/3/963 511/35/964
f 511/35/961 515/36/958 549/4/962
f 512/37/1293 511/35/961 550/3/916
f 550/3/963 551/8/1294 512/37/805
f 515/36/957 516/42/1295 552/9/1296
f 552/9/955 549/4/956 515/36/957
f 524/45/804 553/93/764 554/94/764
f 554/94/760 525/44/804 524/45/804
f 530/55/954 555/95/769 556/96/769
f 556/96/795 529/58/797 530/55/794
f 540/59/952 539/60/953 557/16/907
f 557/16/1297 558/23/950 540/59/951
f 544/67/799 542/68/970 559/24/912
f 559/24/912 560/17/1298 544/67/799
f 561/35/926 562/38/1299 563/39/1300
f 561/35/924 563/39/944 564/40/945
f 564/40/942 565/36/917 561/35/943
f 565/36/1301 564/40/1302 566/41/1303
f 567/47/789 568/48/1304 569/49/1304
f 569/49/1305 570/50/1306 567/47/790
f 571/51/938 567/47/789 570/50/789
f 570/50/789 572/52/938 571/51/938
f 573/53/1307 571/51/773 572/52/773
f 572/52/777 574/54/937 573/53/778
f 575/61/1308 576/62/1309 577/63/1310
f 577/63/785 576/62/913 578/64/934
f 578/64/932 579/65/774 577/63/933
f 579/65/930 578/64/931 580/66/761
f 581/4/927 582/3/928 561/35/929
f 561/35/926 565/36/918 581/4/927
f 562/37/923 561/35/943 582/3/925
f 582/3/1311 583/8/921 562/37/922
f 565/36/918 566/42/1312 584/9/1294
f 584/9/1313 581/4/927 565/36/1314
f 568/45/765 585/93/795 586/94/795
f 586/94/795 569/44/765 568/45/765
f 574/55/754 587/95/764 588/96/764
f 588/96/760 573/58/759 574/55/754
f 576/59/913 575/60/1308 589/16/800
f 589/16/1315 590/23/1316 576/59/1317
f 580/67/1318 578/68/909 591/24/950
f 591/24/906 592/17/1319 580/67/776
f 582/28/904 593/27/905 506/70/894
f 506/70/894 505/69/903 582/28/904
f 550/3/901 549/4/902 508/72/899
f 508/72/899 507/71/892 550/3/900
f 593/27/1320 594/29/1321 509/73/1322
f 509/73/1323 506/70/1324 593/27/1325
f 551/8/889 550/3/1326 507/71/1327
f 507/71/1328 510/74/1329 551/8/1330
f 549/4/885 552/9/1331 517/75/987
f 517/75/882 508/72/883 549/4/884
f 583/30/1332 582/28/1333 505/69/1334
f 505/69/1335 518/76/1336 583/30/1337
f 595/46/746 596/43/746 519/77/747
f 519/77/1338 522/80/1339 595/46/746
f 553/93/736 521/79/1340 520/78/875
f 520/78/1341 554/94/736 553/93/736
f 556/96/733 555/95/733 531/81/732
f 531/81/727 534/84/727 556/96/726
f 585/57/716 533/83/717 532/82/717
f 532/82/1342 597/56/1343 585/57/1343
f 598/31/1344 599/33/1345 536/86/1346
f 536/86/868 535/85/869 598/31/753
f 558/23/1347 557/16/1348 538/88/1349
f 538/88/1350 537/87/1351 558/23/1352
f 560/17/1353 559/24/861 546/90/862
f 546/90/857 545/89/858 560/17/859
f 600/34/854 601/32/1354 548/92/718
f 548/92/1292 547/91/1355 600/34/1356
f 535/85/849 538/88/738 520/78/875
f 520/78/847 519/77/848 535/85/849
f 510/74/743 509/73/846 522/80/843
f 522/80/843 521/79/844 510/74/1357
f 513/39/993 512/38/805 524/48/839
f 524/48/1358 523/47/1359 513/39/1360
f 539/61/953 541/63/827 526/50/1361
f 526/50/834 525/49/1362 539/61/1289
f 514/40/832 513/39/833 523/47/826
f 523/47/826 527/51/825 514/40/831
f 541/63/827 543/65/819 528/52/825
f 528/52/825 526/50/834 541/63/827
f 516/41/823 514/40/824 527/51/818
f 527/51/818 529/53/983 516/41/796
f 543/65/820 544/66/799 530/54/821
f 530/54/817 528/52/818 543/65/819
f 545/89/815 548/92/816 532/82/812
f 532/82/809 531/81/808 545/89/814
f 518/76/723 517/75/1284 534/84/813
f 534/84/813 533/83/981 518/76/723
f 512/37/805 551/8/806 553/93/760
f 553/93/764 524/45/804 512/37/805
f 557/16/1363 539/60/803 525/44/804
f 525/44/1364 554/94/755 557/16/1365
f 544/67/798 560/17/800 555/95/769
f 555/95/769 530/55/797 544/67/799
f 552/9/1366 516/42/796 529/58/797
f 529/58/794 556/96/795 552/9/1366
f 563/39/788 562/38/770 568/48/791
f 568/48/765 567/47/1367 563/39/1368
f 575/61/1369 577/63/1310 570/50/1370
f 570/50/1371 569/49/1372 575/61/1373
f 564/40/787 563/39/1300 567/47/784
f 567/47/789 571/51/938 564/40/942
f 577/63/785 579/65/774 572/52/786
f 572/52/783 570/50/784 577/63/785
f 566/41/780 564/40/781 571/51/1374
f 571/51/777 573/53/778 566/41/779
f 579/65/774 580/66/761 574/54/772
f 574/54/778 572/52/1375 579/65/774
f 562/37/770 583/8/771 585/93/769
f 585/93/769 568/45/765 562/37/923
f 589/16/767 575/60/768 569/44/765
f 569/44/765 586/94/769 589/16/767
f 580/67/776 592/17/1376 587/95/807
f 587/95/764 574/55/759 580/67/776
f 584/9/1377 566/42/779 573/58/754
f 573/58/754 588/96/807 584/9/1377
f 596/43/752 598/31/1378 535/85/751
f 535/85/1379 519/77/1380 596/43/746
f 522/80/1380 509/73/1322 594/29/1321
f 594/29/1381 595/46/752 522/80/747
f 551/8/1382 510/74/1383 521/79/847
f 521/79/875 553/93/1384 551/8/1385
f 538/88/1349 557/16/1386 554/94/1387
f 554/94/1388 520/78/740 538/88/738
f 555/95/733 560/17/734 545/89/1389
f 545/89/814 531/81/727 555/95/1390
f 534/84/1391 517/75/729 552/9/730
f 552/9/725 556/96/726 534/84/727
f 583/30/1392 518/76/723 533/83/812
f 533/83/812 585/57/1393 583/30/722
f 548/92/718 601/32/1354 597/56/1393
f 597/56/716 532/82/812 548/92/1394
f 602/1/715 603/2/704 604/3/650
f 604/3/650 605/4/714 602/1/715
f 603/2/704 606/5/1395 607/6/1396
f 603/2/713 607/7/700 608/8/1397
f 608/8/701 604/3/1398 603/2/704
f 605/4/708 609/9/651 610/10/698
f 610/10/699 602/1/705 605/4/707
f 602/1/706 610/11/1399 611/12/1400
f 602/1/705 611/12/697 606/5/1401
f 606/5/1402 603/2/704 602/1/706
f 607/6/1403 606/5/1404 612/13/1405
f 612/13/1406 613/14/691 607/6/700
f 613/15/691 614/16/638 608/8/701
f 608/8/641 607/7/700 613/15/691
f 615/17/1407 616/18/683 610/10/699
f 610/10/698 609/9/645 615/17/644
f 611/12/1400 610/11/698 616/19/683
f 616/19/683 617/20/681 611/12/697
f 611/12/697 617/20/681 612/13/680
f 612/13/680 606/5/1401 611/12/697
f 612/13/695 618/21/1408 613/14/691
f 613/15/1409 618/22/1410 619/23/1411
f 619/23/690 614/16/628 613/15/691
f 615/17/687 620/24/1412 621/25/689
f 621/25/682 616/18/683 615/17/686
f 616/19/683 621/26/684 617/20/685
f 617/20/681 621/26/682 618/21/679
f 618/21/1413 612/13/680 617/20/681
f 622/2/656 623/5/675 624/6/1414
f 625/1/1415 626/11/1416 627/12/1417
f 625/1/655 627/12/669 623/5/677
f 623/5/675 622/2/1418 625/1/676
f 624/6/1419 623/5/1420 628/13/1421
f 628/13/1422 629/14/1423 624/6/1424
f 627/12/671 626/11/639 630/19/632
f 630/19/1425 631/20/659 627/12/669
f 627/12/670 631/20/659 628/13/658
f 628/13/658 623/5/677 627/12/669
f 628/13/1426 632/21/666 629/14/635
f 630/19/1427 633/26/1428 631/20/1429
f 631/20/659 633/26/660 632/21/661
f 632/21/637 628/13/658 631/20/659
f 625/1/655 622/2/656 605/27/657
f 605/27/652 604/28/647 625/1/655
f 622/2/1418 624/7/646 609/29/651
f 609/29/1430 605/27/707 622/2/654
f 626/10/640 625/1/649 604/28/647
f 604/28/647 608/30/648 626/10/640
f 615/31/644 609/29/645 624/7/646
f 624/7/642 629/15/635 615/31/643
f 626/10/640 608/30/641 614/32/638
f 614/32/638 630/18/632 626/10/639
f 629/15/636 632/22/637 620/33/633
f 620/33/633 615/31/634 629/15/635
f 633/25/631 630/18/632 614/32/628
f 614/32/628 619/34/629 633/25/630
