# Blender 5.2.0 LTS
# www.blender.org
o hangar_midorian_x3_WELDED
v 57.903671 0.590115 -114.128815
v 58.570759 0.556814 -115.099434
v 57.872849 0.556814 -115.306160
v 57.186699 0.556813 -115.063210
v 56.774395 0.556814 -114.463318
v 56.793495 0.556814 -113.735672
v 57.236580 0.556814 -113.158188
v 57.835075 -0.965790 -116.750313
v 57.854237 0.046618 -116.014999
v 58.972382 0.046616 -115.683777
v 59.388985 -0.965790 -116.289986
v 56.307285 -0.965790 -116.209305
v 56.755058 0.046613 -115.625771
v 55.389317 -0.965790 -114.873604
v 56.094551 0.046614 -114.664703
v 55.431717 -0.965790 -113.253433
v 56.125038 0.046615 -113.498970
v 56.418358 -0.965790 -111.967621
v 56.834980 0.046616 -112.573837
v 57.835075 -9.022940 -116.750313
v 59.388985 -9.022940 -116.289986
v 56.307285 -9.022940 -116.209305
v 55.389317 -9.022940 -114.873604
v 55.431717 -9.022940 -113.253433
v 56.418358 -9.022940 -111.967621
v 57.861267 -10.401613 -115.748985
v 58.821678 -10.401613 -115.464478
v 56.917049 -10.401613 -115.414658
v 56.349686 -10.401613 -114.589127
v 56.375957 -10.401613 -113.587799
v 56.985683 -10.401613 -112.793144
v 57.934471 0.556814 -112.951462
v 58.620605 0.556813 -113.194412
v 59.032928 0.556814 -113.794312
v 59.013828 0.556814 -114.521950
v 57.972263 -0.965790 -111.507309
v 57.953083 0.046617 -112.242622
v 59.500076 -0.965790 -112.048347
v 59.052265 0.046613 -112.631866
v 60.418045 -0.965790 -113.384033
v 59.712791 0.046614 -113.592918
v 60.375645 -0.965790 -115.004189
v 59.682285 0.046615 -114.758652
v 57.972263 -9.022940 -111.507309
v 59.500076 -9.022940 -112.048347
v 60.418045 -9.022940 -113.384033
v 60.375645 -9.022940 -115.004189
v 57.946072 -10.401613 -112.508636
v 58.890270 -10.401613 -112.842979
v 59.457653 -10.401613 -113.668495
v 59.431404 -10.401613 -114.669830
v 57.266872 -2.194993 -108.152702
v 57.256405 -2.370978 -109.363403
v 56.546677 -2.370978 -109.125954
v 56.112186 -2.370978 -108.516785
v 56.118710 -2.370978 -107.768517
v 56.563847 -2.370978 -107.167023
v 57.277458 -2.370978 -106.941986
v 56.101601 -3.400895 -109.727455
v 57.249825 -3.400895 -110.111656
v 55.398575 -3.400895 -108.741768
v 55.409119 -3.400895 -107.531075
v 56.129295 -3.400895 -106.557808
v 57.283943 -3.400896 -106.193756
v 56.101601 -9.419870 -109.727455
v 57.249825 -9.419870 -110.111656
v 55.398575 -9.419870 -108.741768
v 55.409119 -9.419870 -107.531075
v 56.129295 -9.419870 -106.557808
v 57.283943 -9.419870 -106.193756
v 56.546677 -10.449787 -109.125954
v 57.256405 -10.449787 -109.363403
v 56.112186 -10.449787 -108.516785
v 56.118710 -10.449787 -107.768517
v 56.563847 -10.449787 -107.167023
v 57.277458 -10.449787 -106.941986
v 57.987049 -2.370978 -107.179474
v 58.421562 -2.370978 -107.788643
v 58.415020 -2.370978 -108.536903
v 57.969959 -2.370978 -109.138397
v 58.432167 -3.400895 -106.577965
v 59.135254 -3.400895 -107.563622
v 59.124668 -3.400895 -108.774315
v 58.404510 -3.400895 -109.747589
v 58.432167 -9.419870 -106.577965
v 59.135254 -9.419870 -107.563622
v 59.124668 -9.419870 -108.774315
v 58.404510 -9.419870 -109.747589
v 57.987049 -10.449787 -107.179474
v 58.421562 -10.449787 -107.788643
v 58.415020 -10.449787 -108.536903
v 57.969959 -10.449787 -109.138397
v 56.525799 -7.644119 -105.308777
v 56.525799 -10.976737 -105.308777
v 56.825447 -10.976737 -105.312050
v 56.825447 -7.644119 -105.312050
v 56.336407 -7.690693 -105.541016
v 56.336407 -10.976737 -105.541016
v 56.399902 -7.748771 -105.833885
v 56.399902 -10.976737 -105.833885
v 56.668457 -7.774619 -105.966843
v 56.668457 -10.976737 -105.966843
v 56.523750 -7.191022 -105.496323
v 56.823399 -7.191022 -105.499596
v 56.334843 -7.341799 -105.685440
v 56.398907 -7.529816 -105.924522
v 56.667732 -7.613492 -106.033531
v 56.518669 -6.852309 -105.963249
v 56.818317 -6.852309 -105.966522
v 56.330994 -7.086003 -106.038055
v 56.396622 -7.377416 -106.134598
v 56.513592 -6.848674 -106.427147
v 56.813240 -6.848674 -106.430420
v 56.326756 -7.082956 -106.426949
v 56.393398 -7.375101 -106.429970
v 56.663418 -7.505118 -106.435555
v 56.174198 -10.452917 -105.921280
v 56.174198 -9.666483 -105.921280
v 56.700878 -9.666483 -106.225327
v 56.174198 -10.452917 -105.313126
v 56.174198 -9.666483 -105.313126
v 56.700859 -10.452916 -105.009041
v 56.700859 -9.666483 -105.009041
v 57.227539 -9.666483 -105.921265
v 56.801033 -7.644119 -105.312050
v 56.801033 -10.976737 -105.312050
v 56.990429 -7.690693 -105.544281
v 56.990429 -10.976737 -105.544281
v 56.926933 -7.748771 -105.837158
v 56.926933 -10.976737 -105.837158
v 56.658379 -7.774619 -105.970116
v 56.658379 -10.976737 -105.970116
v 56.803085 -7.191022 -105.499596
v 56.991989 -7.341799 -105.688705
v 56.927929 -7.529816 -105.927788
v 56.659100 -7.613492 -106.036804
v 56.808163 -6.852309 -105.966522
v 56.995838 -7.086003 -106.041328
v 56.930214 -7.377416 -106.137871
v 56.663418 -7.507106 -106.181816
v 57.000076 -7.082956 -106.430222
v 56.933437 -7.375101 -106.433243
v 57.227539 -10.452916 -105.313103
v 57.227539 -9.666483 -105.313110
v 57.227539 -10.452917 -105.921257
v 56.700878 -10.452917 -106.225327
v 57.903671 0.590115 -63.795624
v 58.570759 0.556814 -64.766235
v 57.872849 0.556814 -64.972969
v 57.186699 0.556813 -64.730019
v 56.774395 0.556814 -64.130127
v 56.793495 0.556814 -63.402477
v 57.236580 0.556814 -62.824997
v 57.835075 -0.965790 -66.417114
v 57.854237 0.046618 -65.681808
v 58.972382 0.046617 -65.350586
v 59.388985 -0.965790 -65.956795
v 56.307285 -0.965790 -65.876114
v 56.755058 0.046613 -65.292580
v 55.389317 -0.965790 -64.540405
v 56.094551 0.046614 -64.331512
v 55.431717 -0.965790 -62.920242
v 56.125038 0.046615 -63.165779
v 56.418358 -0.965790 -61.634434
v 56.834980 0.046616 -62.240643
v 57.835075 -9.022940 -66.417114
v 59.388985 -9.022940 -65.956795
v 56.307285 -9.022940 -65.876114
v 55.389317 -9.022940 -64.540405
v 55.431717 -9.022940 -62.920242
v 56.418358 -9.022940 -61.634434
v 57.861267 -10.401613 -65.415787
v 58.821678 -10.401613 -65.131287
v 56.917049 -10.401613 -65.081467
v 56.349686 -10.401613 -64.255936
v 56.375957 -10.401613 -63.254608
v 56.985683 -10.401613 -62.459949
v 57.934471 0.556814 -62.618271
v 58.620605 0.556813 -62.861217
v 59.032928 0.556814 -63.461121
v 59.013828 0.556814 -64.188759
v 57.972263 -0.965790 -61.174118
v 57.953083 0.046618 -61.909431
v 59.500076 -0.965790 -61.715157
v 59.052265 0.046613 -62.298672
v 60.418045 -0.965790 -63.050838
v 59.712791 0.046614 -63.259724
v 60.375645 -0.965790 -64.670998
v 59.682285 0.046615 -64.425461
v 57.972263 -9.022940 -61.174118
v 59.500076 -9.022940 -61.715157
v 60.418045 -9.022940 -63.050838
v 60.375645 -9.022940 -64.670998
v 57.946072 -10.401613 -62.175449
v 58.890270 -10.401613 -62.509785
v 59.457653 -10.401613 -63.335300
v 59.431404 -10.401613 -64.336639
v -96.302956 0.590115 -53.599510
v -95.635864 0.556814 -54.570126
v -96.333778 0.556814 -54.776855
v -97.019928 0.556813 -54.533905
v -97.432236 0.556814 -53.934013
v -97.413132 0.556814 -53.206367
v -96.970047 0.556814 -52.628887
v -96.371552 -0.965790 -56.221004
v -96.352394 0.046617 -55.485691
v -95.234245 0.046616 -55.154472
v -94.817642 -0.965790 -55.760681
v -97.899345 -0.965790 -55.680000
v -97.451569 0.046613 -55.096462
v -98.817314 -0.965790 -54.344296
v -98.112076 0.046614 -54.135399
v -98.774910 -0.965790 -52.724129
v -98.081589 0.046615 -52.969666
v -97.788269 -0.965790 -51.438320
v -97.371651 0.046616 -52.044529
v -96.371552 -9.022940 -56.221004
v -94.817642 -9.022940 -55.760681
v -97.899345 -9.022940 -55.680000
v -98.817314 -9.022941 -54.344296
v -98.774910 -9.022941 -52.724129
v -97.788269 -9.022941 -51.438320
v -96.345360 -10.401612 -55.219677
v -95.384949 -10.401612 -54.935173
v -97.289581 -10.401612 -54.885349
v -97.856941 -10.401613 -54.059822
v -97.830673 -10.401613 -53.058495
v -97.220947 -10.401613 -52.263836
v -96.272156 0.556814 -52.422157
v -95.586021 0.556813 -52.665108
v -95.173698 0.556814 -53.265007
v -95.192802 0.556814 -53.992645
v -96.234360 -0.965790 -50.978008
v -96.253540 0.046617 -51.713318
v -94.706551 -0.965790 -51.519043
v -95.154366 0.046612 -52.102558
v -93.788582 -0.965790 -52.854725
v -94.493835 0.046614 -53.063614
v -93.830986 -0.965790 -54.474880
v -94.524345 0.046615 -54.229343
v -96.234360 -9.022941 -50.978008
v -94.706551 -9.022941 -51.519043
v -93.788582 -9.022941 -52.854725
v -93.830986 -9.022941 -54.474880
v -96.260551 -10.401613 -51.979336
v -95.316353 -10.401613 -52.313671
v -94.748970 -10.401613 -53.139187
v -94.775223 -10.401613 -54.140526
v -35.501171 0.590114 -11.322187
v -34.834080 0.556813 -12.292803
v -35.531990 0.556813 -12.499531
v -36.218143 0.556812 -12.256581
v -36.630447 0.556813 -11.656690
v -36.611347 0.556813 -10.929043
v -36.168262 0.556813 -10.351562
v -35.569763 -0.965790 -13.943682
v -35.550606 0.046617 -13.208369
v -34.432461 0.046616 -12.877148
v -34.015858 -0.965790 -13.483359
v -37.097557 -0.965790 -13.402676
v -36.649784 0.046612 -12.819140
v -38.015526 -0.965790 -12.066973
v -37.310291 0.046613 -11.858076
v -37.973125 -0.965790 -10.446806
v -37.279804 0.046614 -10.692344
v -36.986485 -0.965790 -9.160995
v -36.569862 0.046615 -9.767207
v -35.569763 -9.022940 -13.943682
v -34.015858 -9.022940 -13.483359
v -37.097557 -9.022940 -13.402676
v -38.015526 -9.022940 -12.066973
v -37.973125 -9.022941 -10.446806
v -36.986485 -9.022941 -9.160995
v -35.543575 -10.401612 -12.942353
v -34.583164 -10.401612 -12.657851
v -36.487793 -10.401612 -12.608027
v -37.055157 -10.401612 -11.782499
v -37.028885 -10.401613 -10.781172
v -36.419159 -10.401613 -9.986513
v -35.470371 0.556813 -10.144834
v -34.784237 0.556812 -10.387783
v -34.371914 0.556813 -10.987685
v -34.391014 0.556813 -11.715322
v -35.432579 -0.965790 -8.700684
v -35.451756 0.046617 -9.435996
v -33.904766 -0.965790 -9.241718
v -34.352577 0.046612 -9.825234
v -32.986797 -0.965790 -10.577402
v -33.692051 0.046613 -10.786289
v -33.029198 -0.965790 -12.197558
v -33.722557 0.046614 -11.952022
v -35.432579 -9.022941 -8.700684
v -33.904766 -9.022941 -9.241718
v -32.986797 -9.022941 -10.577402
v -33.029198 -9.022940 -12.197558
v -35.458767 -10.401613 -9.702011
v -34.514568 -10.401613 -10.036347
v -33.947186 -10.401613 -10.861865
v -33.973438 -10.401612 -11.863203
v -54.893894 -2.194993 -41.483902
v -56.040462 -2.370978 -41.872864
v -56.050076 -2.370978 -41.124535
v -55.618057 -2.370979 -40.513611
v -54.909405 -2.370979 -40.273262
v -54.194843 -2.370979 -40.495396
v -53.747284 -2.370978 -41.095039
v -56.764633 -3.400895 -40.902462
v -56.749111 -3.400895 -42.113152
v -56.065567 -3.400895 -39.913956
v -54.918983 -3.400895 -39.525063
v -53.762798 -3.400895 -39.884403
v -53.038681 -3.400895 -40.854664
v -56.764633 -9.419871 -40.902462
v -56.749111 -9.419871 -42.113152
v -56.065567 -9.419871 -39.913956
v -54.918983 -9.419871 -39.525063
v -53.762802 -9.419871 -39.884403
v -53.038681 -9.419871 -40.854664
v -56.050076 -10.449788 -41.124535
v -56.040462 -10.449788 -41.872864
v -55.618057 -10.449788 -40.513611
v -54.909405 -10.449788 -40.273262
v -54.194843 -10.449788 -40.495396
v -53.747284 -10.449788 -41.095039
v -53.737740 -2.370978 -41.843250
v -54.169758 -2.370978 -42.454189
v -54.878407 -2.370978 -42.694519
v -55.592937 -2.370978 -42.472462
v -53.023174 -3.400895 -42.065361
v -53.722183 -3.400895 -43.053917
v -54.868778 -3.400895 -43.442764
v -56.024963 -3.400895 -43.083447
v -53.023174 -9.419871 -42.065361
v -53.722183 -9.419871 -43.053917
v -54.868778 -9.419871 -43.442764
v -56.024963 -9.419871 -43.083447
v -53.737743 -10.449788 -41.843250
v -54.169758 -10.449788 -42.454189
v -54.878407 -10.449788 -42.694519
v -55.592937 -10.449788 -42.472462
v -52.452869 -7.644119 -39.847290
v -52.452869 -10.976737 -39.847290
v -52.357239 -10.976737 -40.131294
v -52.357239 -7.644119 -40.131294
v -52.734531 -7.690694 -39.744980
v -52.734535 -10.976737 -39.744976
v -52.990135 -7.748771 -39.901413
v -52.990135 -10.976737 -39.901413
v -53.027203 -7.774618 -40.198780
v -53.027203 -10.976737 -40.198780
v -52.630623 -7.191022 -39.907143
v -52.534992 -7.191022 -40.191143
v -52.871410 -7.341800 -39.791084
v -53.076042 -7.529816 -39.930332
v -53.090408 -7.613493 -40.220066
v -53.073154 -6.852309 -40.056171
v -52.977528 -6.852309 -40.340172
v -53.205608 -7.086004 -39.903614
v -53.275146 -7.377416 -39.997383
v -53.512825 -6.848675 -40.204205
v -53.417194 -6.848675 -40.488201
v -53.574192 -7.082957 -40.027733
v -53.555088 -7.375102 -40.091644
v -53.471416 -7.505119 -40.348434
v -53.147007 -10.452916 -39.717098
v -53.147007 -9.666483 -39.717098
v -53.260586 -9.666483 -40.314548
v -52.572800 -10.452916 -39.516750
v -52.572800 -9.666483 -39.516750
v -52.112198 -10.452916 -39.913841
v -52.112198 -9.666483 -39.913841
v -52.799988 -9.666483 -40.711636
v -52.365280 -7.644119 -40.108238
v -52.365280 -10.976736 -40.108242
v -52.522163 -7.690694 -40.363567
v -52.522163 -10.976736 -40.363567
v -52.819603 -7.748771 -40.400101
v -52.819603 -10.976736 -40.400101
v -53.033611 -7.774618 -40.190338
v -53.033611 -10.976736 -40.190338
v -52.541687 -7.191022 -40.171963
v -52.658005 -7.341800 -40.412624
v -52.904846 -7.529816 -40.430901
v -53.096336 -7.613493 -40.212994
v -52.980873 -6.852309 -40.330582
v -52.989670 -7.086004 -40.532425
v -53.102451 -7.377416 -40.502266
v -53.231834 -7.507106 -40.264843
v -53.355469 -7.082957 -40.664543
v -53.380268 -7.375102 -40.602615
v -52.225777 -10.452916 -40.511284
v -52.225784 -9.666483 -40.511288
v -52.799980 -10.452916 -40.711632
v -53.260586 -10.452916 -40.314548
v 56.604248 -2.194993 -53.595425
v 56.615116 -2.370978 -52.384724
v 57.324764 -2.370978 -52.622410
v 57.759052 -2.370978 -53.231728
v 57.752285 -2.370978 -53.979996
v 57.306953 -2.370978 -54.581337
v 56.593262 -2.370978 -54.806133
v 57.770039 -3.400895 -52.021053
v 56.621941 -3.400895 -51.636475
v 58.472744 -3.400895 -53.006981
v 58.461796 -3.400895 -54.217670
v 57.741299 -3.400895 -55.190693
v 56.586533 -3.400895 -55.554363
v 57.770039 -9.419871 -52.021053
v 56.621941 -9.419871 -51.636475
v 58.472744 -9.419871 -53.006981
v 58.461796 -9.419871 -54.217667
v 57.741299 -9.419870 -55.190693
v 56.586533 -9.419870 -55.554363
v 57.324764 -10.449788 -52.622410
v 56.615116 -10.449788 -52.384724
v 57.759052 -10.449788 -53.231724
v 57.752285 -10.449788 -53.979988
v 57.306953 -10.449787 -54.581337
v 56.593262 -10.449787 -54.806133
v 55.883747 -2.370978 -54.568417
v 55.449444 -2.370978 -53.959106
v 55.456230 -2.370978 -53.210850
v 55.901482 -2.370978 -52.609501
v 55.438435 -3.400895 -55.169773
v 54.735672 -3.400895 -54.183891
v 54.746658 -3.400895 -52.973202
v 55.467136 -3.400895 -52.000164
v 55.438435 -9.419870 -55.169773
v 54.735672 -9.419871 -54.183891
v 54.746658 -9.419871 -52.973202
v 55.467136 -9.419871 -52.000164
v 55.883747 -10.449787 -54.568417
v 55.449444 -10.449788 -53.959106
v 55.456230 -10.449788 -53.210850
v 55.901482 -10.449788 -52.609501
v 57.344383 -7.644119 -56.439594
v 57.344383 -10.976736 -56.439594
v 57.044735 -10.976736 -56.436226
v 57.044735 -7.644119 -56.436226
v 57.533855 -7.690693 -56.207420
v 57.533855 -10.976736 -56.207420
v 57.470459 -7.748771 -55.914532
v 57.470459 -10.976736 -55.914532
v 57.201942 -7.774619 -55.781483
v 57.201942 -10.976736 -55.781483
v 57.346493 -7.191022 -56.252048
v 57.046844 -7.191022 -56.248676
v 57.535469 -7.341799 -56.062996
v 57.471481 -7.529816 -55.823895
v 57.202682 -7.613492 -55.714794
v 57.351727 -6.852309 -55.785126
v 57.052078 -6.852309 -55.781757
v 57.539421 -7.086003 -55.710381
v 57.473835 -7.377416 -55.613815
v 57.356960 -6.848674 -55.321228
v 57.057312 -6.848674 -55.317860
v 57.543797 -7.082956 -55.321484
v 57.477158 -7.375101 -55.318447
v 57.207138 -7.505118 -55.312767
v 57.696190 -10.452917 -55.827209
v 57.696190 -9.666483 -55.827209
v 57.169609 -9.666483 -55.522976
v 57.695984 -10.452917 -56.435364
v 57.695984 -9.666483 -56.435364
v 57.169228 -10.452917 -56.739265
v 57.169228 -9.666483 -56.739265
v 56.642849 -9.666483 -55.826870
v 57.069149 -7.644119 -56.436230
v 57.069149 -10.976736 -56.436230
v 56.879833 -7.690693 -56.203934
v 56.879833 -10.976736 -56.203934
v 56.943428 -7.748771 -55.911083
v 56.943428 -10.976736 -55.911083
v 57.212021 -7.774619 -55.778214
v 57.212021 -10.976736 -55.778214
v 57.067158 -7.191022 -56.248680
v 56.878319 -7.341799 -56.059509
v 56.942459 -7.529816 -55.820450
v 57.211319 -7.613492 -55.711521
v 57.062237 -6.852309 -55.781757
v 56.874588 -7.086003 -55.706894
v 56.940243 -7.377416 -55.610371
v 57.207050 -7.507106 -55.566509
v 56.870476 -7.082956 -55.317993
v 56.937119 -7.375101 -55.314999
v 56.642647 -10.452917 -56.435032
v 56.642647 -9.666483 -56.435024
v 56.642849 -10.452917 -55.826878
v 57.169609 -10.452917 -55.522976
v -97.637306 -2.194993 -145.972702
v -97.647774 -2.370979 -147.183411
v -98.357498 -2.370979 -146.945953
v -98.791992 -2.370979 -146.336777
v -98.785469 -2.370979 -145.588516
v -98.340332 -2.370979 -144.987015
v -97.626717 -2.370979 -144.761993
v -98.802574 -3.400896 -147.547455
v -97.654350 -3.400896 -147.931656
v -99.505600 -3.400896 -146.561768
v -99.495056 -3.400896 -145.351074
v -98.774879 -3.400896 -144.377808
v -97.620232 -3.400896 -144.013763
v -98.802574 -9.419870 -147.547455
v -97.654350 -9.419870 -147.931656
v -99.505600 -9.419870 -146.561768
v -99.495056 -9.419870 -145.351074
v -98.774879 -9.419870 -144.377808
v -97.620232 -9.419870 -144.013763
v -98.357498 -10.449787 -146.945953
v -97.647774 -10.449787 -147.183411
v -98.791992 -10.449787 -146.336777
v -98.785469 -10.449787 -145.588516
v -98.340332 -10.449787 -144.987015
v -97.626717 -10.449787 -144.761993
v -96.917130 -2.370979 -144.999466
v -96.482613 -2.370979 -145.608643
v -96.489159 -2.370979 -146.356903
v -96.934219 -2.370979 -146.958389
v -96.472008 -3.400896 -144.397964
v -95.768921 -3.400896 -145.383621
v -95.779510 -3.400896 -146.594315
v -96.499664 -3.400896 -147.567581
v -96.472008 -9.419870 -144.397964
v -95.768921 -9.419870 -145.383621
v -95.779510 -9.419870 -146.594315
v -96.499664 -9.419870 -147.567581
v -96.917130 -10.449787 -144.999466
v -96.482613 -10.449787 -145.608643
v -96.489159 -10.449787 -146.356903
v -96.934219 -10.449787 -146.958389
v -98.378380 -7.644120 -143.128769
v -98.378380 -10.976736 -143.128769
v -98.078728 -10.976736 -143.132050
v -98.078728 -7.644120 -143.132050
v -98.567772 -7.690693 -143.361008
v -98.567772 -10.976736 -143.361008
v -98.504272 -7.748772 -143.653885
v -98.504272 -10.976736 -143.653885
v -98.235718 -7.774619 -143.786850
v -98.235718 -10.976736 -143.786850
v -98.380424 -7.191023 -143.316330
v -98.080780 -7.191023 -143.319595
v -98.569336 -7.341799 -143.505432
v -98.505272 -7.529817 -143.744522
v -98.236443 -7.613492 -143.853531
v -98.385506 -6.852309 -143.783249
v -98.085854 -6.852309 -143.786514
v -98.573181 -7.086003 -143.858047
v -98.507553 -7.377416 -143.954590
v -98.390587 -6.848674 -144.247147
v -98.090935 -6.848674 -144.250412
v -98.577423 -7.082956 -144.246948
v -98.510780 -7.375101 -144.249969
v -98.240761 -7.505118 -144.255554
v -98.729980 -10.452917 -143.741272
v -98.729980 -9.666482 -143.741272
v -98.203300 -9.666482 -144.045334
v -98.729980 -10.452917 -143.133118
v -98.729980 -9.666482 -143.133118
v -98.203316 -10.452917 -142.829041
v -98.203316 -9.666482 -142.829041
v -97.676636 -9.666482 -143.741272
v -98.103142 -7.644120 -143.132050
v -98.103142 -10.976736 -143.132050
v -97.913750 -7.690693 -143.364288
v -97.913750 -10.976736 -143.364288
v -97.977242 -7.748772 -143.657150
v -97.977242 -10.976736 -143.657150
v -98.245796 -7.774619 -143.790115
v -98.245796 -10.976736 -143.790115
v -98.101089 -7.191023 -143.319595
v -97.912186 -7.341799 -143.508713
v -97.976250 -7.529817 -143.747787
v -98.245079 -7.613492 -143.856796
v -98.096016 -6.852309 -143.786514
v -97.908340 -7.086003 -143.861328
v -97.973961 -7.377416 -143.957870
v -98.240761 -7.507105 -144.001816
v -97.904099 -7.082956 -144.250229
v -97.970741 -7.375101 -144.253235
v -97.676636 -10.452917 -143.133102
v -97.676636 -9.666482 -143.133118
v -97.676636 -10.452917 -143.741257
v -98.203300 -10.452917 -144.045334
vn -0.0159 0.9998 -0.0109
vn 0.1099 0.9221 -0.3710
vn -0.0097 0.9288 -0.3705
vn -0.2257 0.9287 -0.2941
vn -0.0158 0.9998 -0.0109
vn -0.3554 0.9287 -0.1053
vn -0.3494 0.9288 0.1237
vn -0.3070 0.9221 0.2356
vn -0.0250 0.2925 -0.9559
vn -0.0188 0.6933 -0.7204
vn 0.2095 0.6750 -0.7074
vn 0.2096 0.6750 -0.7074
vn 0.2727 0.2794 -0.9206
vn -0.0249 0.2925 -0.9559
vn -0.5821 0.2926 -0.7587
vn -0.4386 0.6933 -0.5718
vn -0.0189 0.6933 -0.7204
vn -0.0190 0.6933 -0.7204
vn -0.0251 0.2925 -0.9559
vn -0.5821 0.2925 -0.7587
vn -0.9169 0.2925 -0.2717
vn -0.6910 0.6933 -0.2048
vn -0.4388 0.6933 -0.5717
vn -0.5822 0.2925 -0.7586
vn -0.9169 0.2925 -0.2716
vn -0.9014 0.2925 0.3192
vn -0.6793 0.6933 0.2405
vn -0.6910 0.6933 -0.2046
vn -0.9014 0.2925 0.3191
vn -0.7617 0.2794 0.5846
vn -0.5853 0.6750 0.4492
vn -0.6793 0.6933 0.2407
vn -0.6793 0.6933 0.2406
vn -0.7618 0.2794 0.5845
vn -0.0250 -0.2924 -0.9560
vn -0.0249 0.2924 -0.9560
vn 0.2727 0.2792 -0.9207
vn 0.2727 -0.2792 -0.9207
vn -0.5821 -0.2924 -0.7587
vn -0.5821 0.2924 -0.7587
vn -0.0251 0.2924 -0.9560
vn -0.0251 -0.2924 -0.9560
vn -0.9169 -0.2924 -0.2717
vn -0.5822 0.2924 -0.7586
vn -0.5822 0.2924 -0.7587
vn -0.5822 -0.2925 -0.7586
vn -0.9169 -0.2924 -0.2716
vn -0.9014 -0.2924 0.3192
vn -0.9015 0.2924 0.3191
vn -0.9169 0.2924 -0.2716
vn -0.9169 0.2924 -0.2715
vn -0.9169 -0.2925 -0.2716
vn -0.9015 -0.2924 0.3192
vn -0.7618 -0.2792 0.5845
vn -0.7618 0.2792 0.5845
vn -0.9014 0.2924 0.3193
vn -0.9014 0.2924 0.3192
vn -0.9014 -0.2925 0.3192
vn -0.7618 -0.2792 0.5846
vn -0.0211 -0.5878 -0.8088
vn -0.0250 -0.2925 -0.9559
vn 0.2727 -0.2794 -0.9206
vn 0.2337 -0.5685 -0.7888
vn -0.0211 -0.5878 -0.8087
vn -0.4924 -0.5878 -0.6419
vn -0.5821 -0.2925 -0.7587
vn -0.0251 -0.2925 -0.9559
vn -0.0251 -0.2926 -0.9559
vn -0.0213 -0.5878 -0.8087
vn -0.7757 -0.5878 -0.2299
vn -0.5821 -0.2925 -0.7586
vn -0.4926 -0.5878 -0.6418
vn -0.7757 -0.5878 -0.2298
vn -0.7626 -0.5878 0.2700
vn -0.9169 -0.2925 -0.2715
vn -0.7758 -0.5877 -0.2296
vn -0.7627 -0.5878 0.2699
vn -0.6527 -0.5685 0.5008
vn -0.7617 -0.2794 0.5845
vn -0.7626 -0.5878 0.2701
vn 0.1100 0.9220 -0.3712
vn 0.2095 0.6752 -0.7073
vn -0.0188 0.6934 -0.7203
vn -0.0097 0.9287 -0.3707
vn 0.1099 0.9220 -0.3712
vn -0.0189 0.6934 -0.7203
vn -0.4386 0.6934 -0.5717
vn -0.2257 0.9287 -0.2942
vn -0.0098 0.9287 -0.3707
vn -0.2258 0.9287 -0.2942
vn -0.4387 0.6934 -0.5716
vn -0.6909 0.6934 -0.2048
vn -0.6909 0.6934 -0.2047
vn -0.3556 0.9287 -0.1054
vn -0.3556 0.9287 -0.1053
vn -0.6909 0.6934 -0.2046
vn -0.6793 0.6934 0.2404
vn -0.6793 0.6934 0.2405
vn -0.3496 0.9287 0.1238
vn -0.3495 0.9287 0.1239
vn -0.6792 0.6934 0.2406
vn -0.5852 0.6751 0.4491
vn -0.5852 0.6752 0.4491
vn -0.3072 0.9220 0.2357
vn -0.3495 0.9287 0.1238
vn 0.0159 0.9998 0.0109
vn -0.1099 0.9221 0.3710
vn 0.0097 0.9288 0.3705
vn 0.2256 0.9288 0.2941
vn 0.0158 0.9998 0.0109
vn 0.2257 0.9287 0.2941
vn 0.3554 0.9287 0.1053
vn 0.3494 0.9288 -0.1237
vn 0.3070 0.9221 -0.2356
vn 0.0250 0.2926 0.9559
vn 0.0188 0.6933 0.7204
vn -0.2095 0.6750 0.7074
vn -0.2727 0.2794 0.9206
vn 0.0250 0.2925 0.9559
vn 0.5821 0.2926 0.7586
vn 0.4386 0.6933 0.5718
vn 0.0190 0.6933 0.7204
vn 0.0251 0.2925 0.9559
vn 0.5821 0.2925 0.7587
vn 0.9169 0.2926 0.2716
vn 0.6909 0.6933 0.2048
vn 0.4388 0.6933 0.5717
vn 0.5822 0.2925 0.7586
vn 0.9169 0.2925 0.2716
vn 0.9014 0.2926 -0.3192
vn 0.6793 0.6933 -0.2405
vn 0.6910 0.6933 0.2046
vn 0.7617 0.2794 -0.5845
vn 0.5853 0.6750 -0.4491
vn 0.6793 0.6933 -0.2406
vn 0.6793 0.6933 -0.2407
vn 0.9014 0.2925 -0.3193
vn 0.7618 0.2794 -0.5845
vn 0.0250 -0.2924 0.9560
vn -0.2727 0.2792 0.9207
vn -0.2727 -0.2792 0.9207
vn 0.5821 -0.2924 0.7587
vn 0.5821 0.2924 0.7587
vn 0.0251 0.2924 0.9560
vn 0.0251 -0.2924 0.9560
vn 0.9169 -0.2925 0.2716
vn 0.9169 0.2924 0.2717
vn 0.5822 0.2924 0.7587
vn 0.5822 -0.2925 0.7586
vn 0.9169 -0.2924 0.2716
vn 0.9014 -0.2924 -0.3192
vn 0.9014 0.2925 -0.3192
vn 0.9169 0.2924 0.2716
vn 0.9169 0.2924 0.2715
vn 0.9169 -0.2924 0.2715
vn 0.9015 -0.2924 -0.3192
vn 0.7618 -0.2792 -0.5846
vn 0.7618 0.2792 -0.5845
vn 0.9014 0.2924 -0.3193
vn 0.9014 -0.2924 -0.3193
vn 0.0211 -0.5878 0.8087
vn 0.0250 -0.2925 0.9559
vn -0.2727 -0.2794 0.9206
vn -0.2337 -0.5685 0.7888
vn 0.4924 -0.5878 0.6419
vn 0.5821 -0.2925 0.7587
vn 0.0251 -0.2925 0.9559
vn 0.0213 -0.5878 0.8088
vn 0.7757 -0.5878 0.2299
vn 0.4926 -0.5878 0.6418
vn 0.7757 -0.5878 0.2298
vn 0.7627 -0.5878 -0.2700
vn 0.9014 -0.2925 -0.3192
vn 0.9169 -0.2925 0.2715
vn 0.9169 -0.2926 0.2716
vn 0.7758 -0.5878 0.2297
vn 0.6527 -0.5685 -0.5008
vn 0.7617 -0.2794 -0.5845
vn 0.9014 -0.2925 -0.3193
vn 0.7626 -0.5878 -0.2701
vn -0.1100 0.9220 0.3712
vn -0.2095 0.6752 0.7073
vn 0.0188 0.6934 0.7203
vn 0.0097 0.9287 0.3707
vn -0.1099 0.9220 0.3712
vn 0.0189 0.6934 0.7203
vn 0.4386 0.6934 0.5717
vn 0.2257 0.9287 0.2942
vn 0.2258 0.9287 0.2942
vn 0.4387 0.6934 0.5716
vn 0.6909 0.6934 0.2047
vn 0.3555 0.9287 0.1054
vn 0.3556 0.9287 0.1053
vn 0.6909 0.6934 0.2046
vn 0.6793 0.6934 -0.2404
vn 0.6792 0.6934 -0.2405
vn 0.3496 0.9287 -0.1238
vn 0.3495 0.9287 -0.1239
vn 0.6792 0.6934 -0.2406
vn 0.5852 0.6752 -0.4491
vn 0.5852 0.6751 -0.4491
vn 0.3072 0.9220 -0.2357
vn 0.3495 0.9287 -0.1238
vn -0.0984 0.9951 0.0008
vn -0.1868 0.8084 -0.5582
vn -0.3387 0.8221 -0.4577
vn -0.0985 0.9951 0.0008
vn -0.3386 0.8221 -0.4577
vn -0.5430 0.8221 -0.1713
vn -0.0984 0.9951 0.0009
vn -0.5430 0.8221 -0.1712
vn -0.5399 0.8221 0.1807
vn -0.3306 0.8221 0.4635
vn -0.1770 0.8084 0.5614
vn -0.5688 0.2926 -0.7687
vn -0.1868 0.8083 -0.5583
vn -0.3047 0.2794 -0.9106
vn -0.5688 0.2925 -0.7687
vn -0.9120 0.2926 -0.2876
vn -0.5431 0.8220 -0.1713
vn -0.3387 0.8220 -0.4577
vn -0.5689 0.2925 -0.7687
vn -0.9120 0.2925 -0.2876
vn -0.9068 0.2926 0.3034
vn -0.5400 0.8221 0.1806
vn -0.5431 0.8220 -0.1712
vn -0.9120 0.2925 -0.2875
vn -0.9069 0.2925 0.3034
vn -0.5553 0.2925 0.7785
vn -0.3306 0.8221 0.4636
vn -0.5400 0.8221 0.1807
vn -0.5400 0.8220 0.1807
vn -0.9068 0.2925 0.3035
vn -0.2887 0.2794 0.9157
vn -0.1771 0.8083 0.5615
vn -0.3306 0.8220 0.4636
vn -0.5552 0.2925 0.7786
vn -0.2888 0.2794 0.9157
vn -0.5688 -0.2924 -0.7687
vn -0.3047 0.2792 -0.9106
vn -0.3047 -0.2792 -0.9106
vn -0.9120 -0.2924 -0.2876
vn -0.9120 0.2924 -0.2876
vn -0.5689 0.2924 -0.7687
vn -0.5689 -0.2925 -0.7687
vn -0.9120 -0.2924 -0.2875
vn -0.9069 -0.2924 0.3034
vn -0.9069 0.2924 0.3034
vn -0.9120 0.2924 -0.2875
vn -0.5553 -0.2925 0.7785
vn -0.9068 -0.2925 0.3035
vn -0.5553 -0.2924 0.7785
vn -0.2887 -0.2792 0.9158
vn -0.2888 0.2792 0.9158
vn -0.5553 0.2924 0.7786
vn -0.5553 -0.2924 0.7786
vn -0.4811 -0.5878 -0.6504
vn -0.5688 -0.2925 -0.7687
vn -0.3047 -0.2794 -0.9105
vn -0.3046 -0.2794 -0.9106
vn -0.2610 -0.5685 -0.7802
vn -0.4812 -0.5878 -0.6504
vn -0.7716 -0.5878 -0.2433
vn -0.9120 -0.2925 -0.2876
vn -0.4813 -0.5878 -0.6503
vn -0.7716 -0.5878 -0.2434
vn -0.7672 -0.5878 0.2566
vn -0.9069 -0.2925 0.3034
vn -0.9120 -0.2925 -0.2875
vn -0.9120 -0.2926 -0.2875
vn -0.7716 -0.5878 -0.2432
vn -0.7673 -0.5878 0.2566
vn -0.4699 -0.5878 0.6586
vn -0.5554 -0.2925 0.7785
vn -0.7672 -0.5878 0.2568
vn -0.2474 -0.5685 0.7846
vn -0.2887 -0.2794 0.9157
vn -0.5553 -0.2926 0.7785
vn -0.4698 -0.5878 0.6587
vn 0.0984 0.9951 -0.0008
vn 0.1868 0.8084 0.5582
vn 0.3387 0.8221 0.4577
vn 0.3386 0.8221 0.4577
vn 0.5430 0.8221 0.1712
vn 0.0984 0.9951 -0.0009
vn 0.5399 0.8221 -0.1806
vn 0.3306 0.8221 -0.4635
vn 0.3307 0.8221 -0.4635
vn 0.1770 0.8084 -0.5614
vn 0.5688 0.2926 0.7687
vn 0.3387 0.8220 0.4577
vn 0.1868 0.8083 0.5583
vn 0.1869 0.8083 0.5583
vn 0.3047 0.2794 0.9106
vn 0.9120 0.2925 0.2876
vn 0.5430 0.8221 0.1713
vn 0.5689 0.2925 0.7687
vn 0.9120 0.2926 0.2876
vn 0.9069 0.2925 -0.3034
vn 0.5400 0.8221 -0.1806
vn 0.5431 0.8221 0.1712
vn 0.9120 0.2926 0.2875
vn 0.5553 0.2926 -0.7785
vn 0.5400 0.8221 -0.1807
vn 0.5400 0.8220 -0.1807
vn 0.9068 0.2925 -0.3035
vn 0.5553 0.2925 -0.7785
vn 0.2887 0.2794 -0.9157
vn 0.1771 0.8083 -0.5615
vn 0.3306 0.8220 -0.4636
vn 0.2888 0.2794 -0.9157
vn 0.5688 -0.2925 0.7687
vn 0.5688 0.2925 0.7687
vn 0.3047 0.2792 0.9106
vn 0.3047 -0.2792 0.9106
vn 0.9120 -0.2925 0.2875
vn 0.5689 -0.2924 0.7687
vn 0.9069 -0.2924 -0.3034
vn 0.9069 0.2924 -0.3034
vn 0.9120 0.2924 0.2876
vn 0.9069 -0.2925 -0.3034
vn 0.5554 -0.2924 -0.7785
vn 0.5554 0.2924 -0.7785
vn 0.9068 0.2924 -0.3035
vn 0.9069 -0.2924 -0.3035
vn 0.5553 -0.2924 -0.7785
vn 0.2887 -0.2792 -0.9158
vn 0.2888 0.2792 -0.9158
vn 0.5553 0.2924 -0.7785
vn 0.5553 -0.2924 -0.7786
vn 0.4812 -0.5878 0.6504
vn 0.3047 -0.2794 0.9105
vn 0.3047 -0.2794 0.9106
vn 0.2611 -0.5685 0.7802
vn 0.7715 -0.5878 0.2434
vn 0.9120 -0.2926 0.2876
vn 0.5689 -0.2925 0.7687
vn 0.5688 -0.2926 0.7687
vn 0.4813 -0.5878 0.6503
vn 0.7672 -0.5878 -0.2566
vn 0.9120 -0.2926 0.2875
vn 0.7716 -0.5878 0.2432
vn 0.4699 -0.5878 -0.6586
vn 0.5553 -0.2925 -0.7785
vn 0.9068 -0.2925 -0.3035
vn 0.9068 -0.2925 -0.3034
vn 0.7672 -0.5878 -0.2568
vn 0.2474 -0.5685 -0.7846
vn 0.2887 -0.2794 -0.9157
vn 0.4698 -0.5878 -0.6587
vn -0.4083 0.1771 0.8955
vn -0.4240 -0.0000 0.9057
vn 0.0109 -0.0000 0.9999
vn 0.0110 -0.0000 0.9999
vn 0.0107 0.1949 0.9808
vn -0.4082 0.1772 0.8955
vn -0.9600 0.0525 0.2749
vn -0.9724 -0.0000 0.2332
vn -0.4241 -0.0000 0.9056
vn -0.8185 -0.1138 -0.5632
vn -0.7886 -0.0000 -0.6149
vn -0.9724 -0.0000 0.2331
vn -0.9600 0.0526 0.2749
vn -0.8185 -0.1137 -0.5632
vn -0.4503 -0.1749 -0.8756
vn -0.4436 -0.0000 -0.8962
vn -0.7885 -0.0000 -0.6150
vn -0.4515 -0.1748 -0.8750
vn -0.4067 0.5636 0.7190
vn 0.0107 0.1951 0.9807
vn 0.0086 0.6192 0.7851
vn -0.4066 0.5636 0.7190
vn -0.9559 0.1768 0.2346
vn -0.9559 0.1767 0.2346
vn -0.8312 -0.3487 -0.4330
vn -0.8184 -0.1138 -0.5632
vn -0.9559 0.1767 0.2345
vn -0.8313 -0.3486 -0.4330
vn -0.4552 -0.5538 -0.6972
vn -0.4504 -0.1751 -0.8755
vn -0.8184 -0.1138 -0.5633
vn -0.4551 -0.5537 -0.6973
vn -0.4102 0.8650 0.2890
vn -0.4066 0.5636 0.7191
vn 0.0086 0.6194 0.7851
vn 0.0085 0.6194 0.7851
vn 0.0034 0.9499 0.3124
vn -0.4102 0.8650 0.2889
vn -0.9555 0.2770 0.1015
vn -0.9559 0.1768 0.2345
vn -0.9555 0.2770 0.1016
vn -0.8348 -0.5256 -0.1638
vn -0.9559 0.1767 0.2344
vn -0.9559 0.1768 0.2344
vn -0.4543 -0.8477 -0.2740
vn -0.4552 -0.5539 -0.6972
vn -0.8312 -0.3486 -0.4331
vn -0.8348 -0.5257 -0.1637
vn -0.4542 -0.8477 -0.2739
vn -0.4338 0.9009 0.0118
vn 0.0034 0.9500 0.3123
vn 0.0035 0.9500 0.3123
vn 0.0001 1.0000 0.0078
vn -0.9748 0.2226 0.0124
vn -0.9555 0.2771 0.1015
vn -0.4101 0.8650 0.2890
vn -0.4339 0.9009 0.0120
vn -0.9748 0.2225 0.0124
vn -0.7819 -0.6234 0.0036
vn -0.8348 -0.5256 -0.1637
vn -0.9555 0.2770 0.1014
vn -0.9555 0.2769 0.1015
vn -0.9749 0.2225 0.0125
vn -0.7819 -0.6235 0.0037
vn -0.4339 -0.9010 -0.0023
vn -0.4542 -0.8478 -0.2738
vn -0.8348 -0.5257 -0.1638
vn -0.7818 -0.6235 0.0036
vn -0.5000 -0.0000 -0.8660
vn -0.8660 -0.0000 -0.5000
vn -0.8660 -0.0000 0.5000
vn -0.5000 -0.0000 0.8660
vn -0.0000 1.0000 -0.0000
vn 0.9321 0.0038 0.3622
vn 0.7750 -0.0000 0.6320
vn 0.9970 -0.0000 0.0778
vn 0.7749 -0.0000 0.6320
vn 0.9321 0.0038 0.3623
vn 0.7788 0.0495 0.6253
vn 0.8697 -0.0171 -0.4933
vn 0.6818 -0.0000 -0.7316
vn 0.4445 -0.0091 -0.8957
vn 0.6817 -0.0000 -0.7316
vn 0.4437 -0.0000 -0.8962
vn 0.6816 -0.0000 -0.7317
vn 0.4443 -0.0091 -0.8958
vn 0.8696 -0.0171 -0.4935
vn 0.9626 0.1259 0.2401
vn 0.7789 0.0496 0.6252
vn 0.9321 0.0039 0.3622
vn 0.9626 0.1259 0.2400
vn 0.7871 0.4231 0.4489
vn 0.8330 -0.3628 -0.4178
vn 0.8697 -0.0172 -0.4933
vn 0.4536 -0.4744 -0.7544
vn 0.8696 -0.0172 -0.4934
vn 0.4443 -0.0092 -0.8958
vn 0.8696 -0.0171 -0.4934
vn 0.8329 -0.3629 -0.4178
vn 0.9616 0.2303 0.1491
vn 0.7870 0.4233 0.4488
vn 0.9626 0.1260 0.2400
vn 0.7871 0.4233 0.4488
vn 0.9616 0.2303 0.1490
vn 0.7941 0.5858 0.1621
vn 0.8256 -0.5475 -0.1365
vn 0.8256 -0.5475 -0.1366
vn 0.9617 0.2302 0.1490
vn 0.4537 -0.8213 -0.3460
vn 0.8329 -0.3628 -0.4178
vn 0.4536 -0.4746 -0.7543
vn 0.8255 -0.5476 -0.1365
vn 0.9200 0.3917 0.0131
vn 0.7941 0.5859 0.1619
vn 0.9200 0.3917 0.0129
vn 0.7817 0.6235 0.0134
vn 0.8850 -0.4655 0.0060
vn 0.4339 -0.9009 -0.0023
vn 0.4537 -0.8213 -0.3458
vn 0.8256 -0.5476 -0.1365
vn 0.4339 -0.9010 -0.0023
vn 0.8850 -0.4655 0.0061
vn 0.5000 -0.0000 0.8660
vn 0.8660 -0.0000 0.5000
vn 0.8660 -0.0000 -0.5000
vn 0.5000 -0.0000 -0.8660
vn -0.5821 0.2926 -0.7586
vn -0.5822 -0.2924 -0.7587
vn -0.0250 0.2924 -0.9560
vn -0.0212 -0.5878 -0.8087
vn -0.5821 -0.2926 -0.7586
vn -0.7627 -0.5878 0.2700
vn -0.7618 -0.2794 0.5845
vn 0.7618 0.2792 -0.5846
vn 0.3556 0.9287 0.1054
vn 0.5853 0.6751 -0.4491
vn -0.5821 0.2925 -0.7586
vn -0.6910 0.6933 -0.2047
vn -0.7757 -0.5877 -0.2299
vn 0.2095 0.6751 -0.7073
vn -0.6792 0.6934 0.2405
vn 0.7758 -0.5877 0.2297
vn 0.0211 -0.5878 0.8088
vn -0.0317 0.9951 0.0932
vn -0.5886 0.8084 -0.0075
vn -0.5437 0.8221 0.1690
vn -0.3406 0.8221 0.4563
vn -0.0316 0.9951 0.0932
vn -0.0073 0.8221 0.5693
vn 0.3287 0.8221 0.4649
vn -0.0315 0.9951 0.0932
vn 0.4718 0.8084 0.3521
vn -0.9132 0.2926 0.2838
vn -0.5887 0.8083 -0.0075
vn -0.5887 0.8083 -0.0076
vn -0.9601 0.2794 -0.0123
vn -0.5720 0.2926 0.7663
vn -0.3406 0.8220 0.4563
vn -0.5438 0.8220 0.1690
vn -0.9131 0.2925 0.2839
vn -0.5720 0.2925 0.7663
vn -0.0123 0.2926 0.9562
vn -0.3405 0.8221 0.4563
vn -0.5719 0.2925 0.7664
vn -0.0123 0.2925 0.9562
vn 0.5521 0.2925 0.7808
vn -0.0073 0.8221 0.5694
vn -0.0073 0.8220 0.5694
vn -0.0122 0.2925 0.9562
vn 0.7695 0.2794 0.5743
vn 0.4718 0.8083 0.3522
vn 0.3288 0.8220 0.4649
vn 0.3288 0.8221 0.4649
vn 0.5522 0.2925 0.7807
vn -0.9132 -0.2924 0.2838
vn -0.9132 0.2925 0.2838
vn -0.9601 0.2792 -0.0123
vn -0.9601 -0.2792 -0.0123
vn -0.5720 -0.2924 0.7664
vn -0.5720 0.2924 0.7664
vn -0.9132 0.2924 0.2839
vn -0.9132 -0.2925 0.2839
vn -0.5719 -0.2924 0.7664
vn -0.0123 -0.2924 0.9562
vn -0.0124 0.2924 0.9562
vn -0.5719 0.2924 0.7664
vn 0.5521 -0.2925 0.7808
vn -0.0123 0.2924 0.9562
vn -0.0122 -0.2925 0.9562
vn 0.5521 -0.2924 0.7808
vn 0.7695 -0.2792 0.5743
vn 0.7695 0.2792 0.5743
vn 0.5522 0.2924 0.7808
vn 0.5522 0.2924 0.7807
vn 0.5522 -0.2924 0.7808
vn -0.7726 -0.5878 0.2400
vn -0.9132 -0.2925 0.2838
vn -0.9601 -0.2794 -0.0123
vn -0.8226 -0.5685 -0.0106
vn -0.4839 -0.5878 0.6483
vn -0.5720 -0.2925 0.7663
vn -0.7725 -0.5878 0.2402
vn -0.4840 -0.5878 0.6483
vn -0.0104 -0.5878 0.8090
vn -0.0123 -0.2925 0.9562
vn -0.5719 -0.2925 0.7664
vn -0.5719 -0.2926 0.7664
vn -0.4838 -0.5878 0.6484
vn 0.4670 -0.5878 0.6606
vn 0.5520 -0.2925 0.7808
vn -0.0122 -0.2926 0.9562
vn -0.0103 -0.5878 0.8090
vn 0.6593 -0.5685 0.4921
vn 0.7695 -0.2794 0.5743
vn 0.5521 -0.2925 0.7807
vn 0.5521 -0.2926 0.7807
vn 0.4672 -0.5878 0.6605
vn 0.0317 0.9951 -0.0932
vn 0.5886 0.8084 0.0076
vn 0.5437 0.8221 -0.1690
vn 0.3405 0.8221 -0.4563
vn 0.0316 0.9951 -0.0932
vn 0.3406 0.8221 -0.4563
vn 0.0073 0.8221 -0.5693
vn -0.3287 0.8221 -0.4649
vn 0.0315 0.9951 -0.0932
vn -0.4718 0.8084 -0.3521
vn 0.9132 0.2926 -0.2838
vn 0.5438 0.8220 -0.1690
vn 0.5887 0.8083 0.0075
vn 0.9601 0.2794 0.0123
vn 0.5720 0.2925 -0.7663
vn 0.5437 0.8221 -0.1691
vn 0.9132 0.2925 -0.2839
vn 0.5720 0.2926 -0.7663
vn 0.0123 0.2925 -0.9562
vn 0.0073 0.8221 -0.5694
vn 0.3406 0.8220 -0.4564
vn 0.3405 0.8221 -0.4564
vn 0.5719 0.2926 -0.7664
vn -0.5521 0.2926 -0.7808
vn 0.0072 0.8221 -0.5694
vn 0.0122 0.2925 -0.9562
vn -0.5521 0.2925 -0.7808
vn -0.7695 0.2794 -0.5743
vn -0.4718 0.8083 -0.3522
vn -0.3288 0.8220 -0.4649
vn -0.3288 0.8221 -0.4649
vn -0.5521 0.2925 -0.7807
vn 0.9132 -0.2925 -0.2838
vn 0.9132 0.2925 -0.2838
vn 0.9601 0.2792 0.0123
vn 0.9601 -0.2792 0.0123
vn 0.5719 -0.2925 -0.7664
vn 0.9132 -0.2924 -0.2839
vn 0.0123 -0.2924 -0.9562
vn 0.0123 0.2924 -0.9562
vn 0.5720 0.2925 -0.7664
vn 0.5720 0.2924 -0.7664
vn 0.0123 -0.2925 -0.9562
vn -0.5521 -0.2924 -0.7808
vn -0.5520 0.2924 -0.7808
vn 0.0122 0.2924 -0.9562
vn 0.0122 -0.2924 -0.9562
vn -0.7695 -0.2792 -0.5743
vn -0.7695 0.2792 -0.5743
vn -0.5521 0.2924 -0.7808
vn -0.5522 -0.2924 -0.7808
vn 0.7726 -0.5878 -0.2400
vn 0.9132 -0.2925 -0.2837
vn 0.9601 -0.2794 0.0123
vn 0.8226 -0.5685 0.0105
vn 0.4840 -0.5878 -0.6483
vn 0.5720 -0.2926 -0.7663
vn 0.9132 -0.2925 -0.2839
vn 0.9132 -0.2926 -0.2838
vn 0.7725 -0.5878 -0.2402
vn 0.4839 -0.5878 -0.6483
vn 0.0105 -0.5878 -0.8089
vn 0.5719 -0.2926 -0.7664
vn 0.5719 -0.2926 -0.7663
vn 0.4838 -0.5878 -0.6484
vn -0.4670 -0.5878 -0.6606
vn -0.5521 -0.2925 -0.7808
vn 0.0122 -0.2925 -0.9562
vn 0.0103 -0.5878 -0.8089
vn -0.6593 -0.5685 -0.4921
vn -0.7695 -0.2794 -0.5743
vn -0.5521 -0.2925 -0.7807
vn -0.4671 -0.5878 -0.6605
vn 0.7110 0.1771 0.6805
vn 0.7154 -0.0000 0.6987
vn 0.9477 -0.0000 0.3191
vn 0.9295 0.1949 0.3130
vn 0.7110 0.1772 0.6805
vn -0.0567 0.0525 0.9970
vn -0.1002 -0.0000 0.9950
vn -0.8014 -0.1138 0.5872
vn -0.8404 -0.0000 0.5420
vn -0.0568 0.0526 0.9970
vn -0.8014 -0.1137 0.5872
vn -0.9750 -0.1749 0.1367
vn -0.9923 -0.0000 0.1237
vn -0.9749 -0.1748 0.1380
vn 0.5449 0.5636 0.6208
vn 0.9295 0.1950 0.3130
vn 0.9295 0.1951 0.3130
vn 0.7441 0.6192 0.2506
vn -0.0934 0.1767 0.9798
vn -0.0567 0.0526 0.9970
vn -0.0935 0.1767 0.9798
vn -0.6826 -0.3487 0.6422
vn -0.0568 0.0525 0.9970
vn -0.6826 -0.3486 0.6423
vn -0.8083 -0.5538 0.2000
vn -0.9750 -0.1751 0.1368
vn -0.6827 -0.3486 0.6422
vn -0.8083 -0.5537 0.2000
vn 0.1377 0.8650 0.4825
vn 0.5450 0.5636 0.6208
vn 0.7441 0.6194 0.2505
vn 0.2961 0.9499 0.0997
vn -0.2189 0.2770 0.9356
vn -0.0935 0.1768 0.9798
vn -0.2188 0.2770 0.9356
vn -0.4296 -0.5256 0.7343
vn -0.0936 0.1767 0.9798
vn -0.0936 0.1768 0.9798
vn -0.2190 0.2770 0.9356
vn -0.4083 -0.8477 0.3386
vn -0.8082 -0.5539 0.2000
vn -0.4296 -0.5257 0.7343
vn -0.1318 0.9009 0.4134
vn 0.1376 0.8650 0.4825
vn 0.2960 0.9500 0.0997
vn 0.2960 0.9500 0.0995
vn 0.0074 1.0000 0.0025
vn -0.1317 0.9009 0.4135
vn -0.3094 0.2225 0.9245
vn -0.2189 0.2771 0.9356
vn 0.1377 0.8650 0.4824
vn -0.1316 0.9009 0.4135
vn -0.3095 0.2226 0.9245
vn -0.2542 -0.6234 0.7394
vn -0.3093 0.2225 0.9246
vn -0.2541 -0.6234 0.7394
vn -0.1452 -0.9009 0.4089
vn -0.4082 -0.8478 0.3387
vn -0.4297 -0.5257 0.7342
vn -0.2541 -0.6235 0.7394
vn -0.1451 -0.9010 0.4089
vn -0.9824 -0.0000 0.1868
vn -0.7574 -0.0000 0.6530
vn -0.7574 -0.0000 0.6529
vn 0.1868 -0.0000 0.9824
vn 0.6530 -0.0000 0.7574
vn 0.6491 0.0038 -0.7607
vn 0.8520 -0.0000 -0.5235
vn 0.4019 -0.0000 -0.9157
vn 0.8469 0.0495 -0.5294
vn -0.1793 -0.0171 -0.9836
vn -0.4661 -0.0000 -0.8847
vn 0.4020 -0.0000 -0.9157
vn -0.1793 -0.0171 -0.9837
vn -0.6994 -0.0091 -0.7147
vn -0.4662 -0.0000 -0.8847
vn -0.7000 -0.0000 -0.7141
vn -0.1794 -0.0171 -0.9836
vn 0.5438 0.1260 -0.8297
vn 0.8469 0.0496 -0.5294
vn 0.6491 0.0039 -0.7607
vn 0.6831 0.4231 -0.5952
vn -0.1200 -0.3628 -0.9241
vn 0.6490 0.0038 -0.7608
vn -0.1793 -0.0172 -0.9836
vn 0.6490 0.0038 -0.7607
vn -0.1201 -0.3628 -0.9241
vn 0.5438 0.1259 -0.8297
vn -0.5629 -0.4744 -0.6768
vn -0.6994 -0.0092 -0.7147
vn -0.5629 -0.4745 -0.6768
vn -0.1201 -0.3629 -0.9241
vn 0.4575 0.2303 -0.8589
vn 0.6830 0.4233 -0.5953
vn 0.5437 0.1260 -0.8298
vn 0.4146 0.5858 -0.6963
vn 0.1431 -0.5475 -0.8245
vn 0.5437 0.1259 -0.8298
vn 0.1430 -0.5475 -0.8245
vn 0.4575 0.2302 -0.8589
vn -0.1772 -0.8212 -0.5424
vn -0.5628 -0.4746 -0.6768
vn -0.1772 -0.8213 -0.5423
vn 0.1431 -0.5476 -0.8244
vn 0.3155 0.3917 -0.8643
vn 0.4145 0.5859 -0.6964
vn 0.4145 0.5858 -0.6964
vn 0.3153 0.3917 -0.8644
vn 0.2702 0.6234 -0.7337
vn 0.2972 -0.4655 -0.8336
vn 0.2972 -0.4655 -0.8337
vn 0.1407 -0.9009 -0.4105
vn 0.1430 -0.5476 -0.8244
vn -0.1770 -0.8213 -0.5423
vn 0.1407 -0.9010 -0.4104
vn 0.2973 -0.4655 -0.8336
vn 0.9824 -0.0000 -0.1868
vn 0.7574 -0.0000 -0.6530
vn 0.7574 -0.0000 -0.6529
vn -0.1868 -0.0000 -0.9824
vn -0.6530 -0.0000 -0.7574
vn 0.1870 0.8084 0.5582
vn 0.3388 0.8221 0.4576
vn 0.5431 0.8221 0.1711
vn 0.5430 0.8221 0.1711
vn 0.5399 0.8221 -0.1808
vn 0.3305 0.8221 -0.4636
vn 0.0984 0.9951 -0.0010
vn 0.1768 0.8084 -0.5615
vn 0.5690 0.2926 0.7685
vn 0.1870 0.8083 0.5582
vn 0.1870 0.8083 0.5583
vn 0.3050 0.2794 0.9104
vn 0.9121 0.2926 0.2873
vn 0.5431 0.8220 0.1711
vn 0.3389 0.8220 0.4576
vn 0.3389 0.8221 0.4576
vn 0.5691 0.2925 0.7685
vn 0.9121 0.2925 0.2873
vn 0.9067 0.2926 -0.3037
vn 0.5431 0.8221 0.1710
vn 0.9121 0.2926 0.2872
vn 0.9068 0.2925 -0.3037
vn 0.5551 0.2925 -0.7787
vn 0.3305 0.8221 -0.4637
vn 0.5399 0.8220 -0.1809
vn 0.9067 0.2925 -0.3038
vn 0.2884 0.2794 -0.9158
vn 0.1769 0.8083 -0.5616
vn 0.5550 0.2925 -0.7787
vn 0.2885 0.2794 -0.9158
vn 0.5691 -0.2924 0.7685
vn 0.5690 0.2925 0.7685
vn 0.3050 0.2792 0.9105
vn 0.3050 -0.2792 0.9105
vn 0.9121 -0.2924 0.2873
vn 0.9121 0.2924 0.2873
vn 0.5691 0.2924 0.7685
vn 0.5691 -0.2925 0.7685
vn 0.9121 -0.2924 0.2872
vn 0.9068 -0.2924 -0.3037
vn 0.9068 0.2924 -0.3037
vn 0.9121 0.2925 0.2872
vn 0.9121 0.2924 0.2872
vn 0.5551 -0.2925 -0.7787
vn 0.9067 -0.2925 -0.3038
vn 0.5551 -0.2924 -0.7787
vn 0.2884 -0.2792 -0.9159
vn 0.2884 0.2792 -0.9159
vn 0.5550 0.2924 -0.7787
vn 0.5550 0.2924 -0.7788
vn 0.5550 -0.2924 -0.7788
vn 0.4814 -0.5878 0.6502
vn 0.5690 -0.2925 0.7685
vn 0.3050 -0.2794 0.9104
vn 0.3049 -0.2794 0.9105
vn 0.2613 -0.5685 0.7801
vn 0.7716 -0.5878 0.2431
vn 0.9121 -0.2925 0.2873
vn 0.4815 -0.5878 0.6501
vn 0.7672 -0.5878 -0.2569
vn 0.9068 -0.2925 -0.3037
vn 0.9121 -0.2925 0.2872
vn 0.9121 -0.2926 0.2872
vn 0.7717 -0.5878 0.2429
vn 0.4697 -0.5878 -0.6587
vn 0.5551 -0.2925 -0.7786
vn 0.7671 -0.5878 -0.2571
vn 0.2471 -0.5685 -0.7847
vn 0.2884 -0.2794 -0.9158
vn 0.5550 -0.2925 -0.7787
vn 0.5550 -0.2926 -0.7787
vn 0.4695 -0.5878 -0.6588
vn 0.2472 -0.5685 -0.7847
vn -0.1870 0.8084 -0.5582
vn -0.3388 0.8221 -0.4576
vn -0.5431 0.8221 -0.1710
vn -0.5431 0.8221 -0.1711
vn -0.5399 0.8221 0.1808
vn -0.3305 0.8221 0.4636
vn -0.0984 0.9951 0.0010
vn -0.1768 0.8084 0.5615
vn -0.5690 0.2926 -0.7685
vn -0.3389 0.8221 -0.4576
vn -0.1870 0.8083 -0.5583
vn -0.1871 0.8083 -0.5583
vn -0.3050 0.2794 -0.9105
vn -0.9121 0.2925 -0.2873
vn -0.3389 0.8220 -0.4576
vn -0.5691 0.2925 -0.7685
vn -0.9068 0.2925 0.3037
vn -0.9121 0.2926 -0.2872
vn -0.5551 0.2926 0.7787
vn -0.5399 0.8221 0.1809
vn -0.9067 0.2925 0.3038
vn -0.5551 0.2925 0.7787
vn -0.2884 0.2794 0.9158
vn -0.1769 0.8083 0.5616
vn -0.3305 0.8220 0.4637
vn -0.5550 0.2925 0.7787
vn -0.2885 0.2794 0.9158
vn -0.5691 -0.2925 -0.7685
vn -0.3050 0.2792 -0.9105
vn -0.3050 -0.2792 -0.9105
vn -0.5690 -0.2925 -0.7685
vn -0.9121 -0.2925 -0.2872
vn -0.5691 -0.2924 -0.7685
vn -0.9068 -0.2924 0.3037
vn -0.9068 0.2924 0.3037
vn -0.9121 0.2924 -0.2873
vn -0.9068 -0.2925 0.3037
vn -0.5551 -0.2924 0.7787
vn -0.5551 0.2924 0.7787
vn -0.9067 0.2924 0.3038
vn -0.9068 -0.2924 0.3038
vn -0.2885 -0.2792 0.9159
vn -0.2885 0.2792 0.9159
vn -0.5550 -0.2924 0.7787
vn -0.2884 -0.2792 0.9159
vn -0.4814 -0.5878 -0.6502
vn -0.5690 -0.2925 -0.7686
vn -0.3050 -0.2794 -0.9104
vn -0.3050 -0.2794 -0.9105
vn -0.2614 -0.5685 -0.7801
vn -0.7716 -0.5878 -0.2431
vn -0.9121 -0.2926 -0.2873
vn -0.5691 -0.2926 -0.7685
vn -0.4815 -0.5878 -0.6501
vn -0.7672 -0.5878 0.2569
vn -0.9121 -0.2926 -0.2872
vn -0.7717 -0.5878 -0.2429
vn -0.7671 -0.5878 0.2569
vn -0.4697 -0.5878 0.6587
vn -0.5551 -0.2925 0.7787
vn -0.9067 -0.2925 0.3038
vn -0.7671 -0.5878 0.2570
vn -0.2471 -0.5685 0.7847
vn -0.2884 -0.2794 0.9158
vn -0.5550 -0.2925 0.7787
vn -0.4695 -0.5878 0.6588
vn -0.2472 -0.5685 0.7847
vn 0.4080 0.1771 -0.8957
vn 0.4237 -0.0000 -0.9058
vn -0.0112 -0.0000 -0.9999
vn -0.0110 0.1949 -0.9808
vn 0.4079 0.1772 -0.8957
vn 0.9599 0.0525 -0.2753
vn 0.9724 -0.0000 -0.2335
vn 0.4238 -0.0000 -0.9058
vn 0.9599 0.0525 -0.2752
vn 0.8186 -0.1138 0.5629
vn 0.7888 -0.0000 0.6146
vn 0.9600 0.0526 -0.2752
vn 0.8186 -0.1137 0.5629
vn 0.4506 -0.1749 0.8754
vn 0.4440 -0.0000 0.8960
vn 0.7888 -0.0000 0.6147
vn 0.8186 -0.1137 0.5630
vn 0.4517 -0.1748 0.8749
vn 0.4064 0.5636 -0.7192
vn 0.4080 0.1771 -0.8956
vn -0.0110 0.1950 -0.9807
vn -0.0110 0.1951 -0.9807
vn -0.0088 0.6193 -0.7851
vn 0.4063 0.5636 -0.7192
vn 0.9558 0.1767 -0.2349
vn 0.9599 0.0526 -0.2752
vn 0.4080 0.1772 -0.8956
vn 0.8314 -0.3486 0.4327
vn 0.9559 0.1767 -0.2348
vn 0.4553 -0.5538 0.6972
vn 0.4506 -0.1751 0.8754
vn 0.8186 -0.1138 0.5630
vn 0.8314 -0.3487 0.4327
vn 0.4553 -0.5537 0.6972
vn 0.4101 0.8650 -0.2891
vn -0.0088 0.6194 -0.7851
vn -0.0035 0.9499 -0.3124
vn 0.9554 0.2771 -0.1018
vn 0.9558 0.1768 -0.2348
vn 0.9555 0.2770 -0.1019
vn 0.8349 -0.5256 0.1635
vn 0.9558 0.1768 -0.2347
vn 0.9555 0.2770 -0.1018
vn 0.4543 -0.8477 0.2738
vn 0.4554 -0.5539 0.6970
vn 0.8314 -0.3486 0.4328
vn 0.8348 -0.5257 0.1634
vn 0.4338 0.9009 -0.0119
vn 0.4101 0.8650 -0.2890
vn -0.0035 0.9500 -0.3123
vn -0.0036 0.9500 -0.3123
vn -0.0001 1.0000 -0.0078
vn 0.4338 0.9009 -0.0120
vn 0.9748 0.2225 -0.0128
vn 0.4338 0.9009 -0.0122
vn 0.9748 0.2226 -0.0127
vn 0.7819 -0.6234 -0.0039
vn 0.9748 0.2225 -0.0129
vn 0.4339 -0.9009 0.0022
vn 0.4544 -0.8478 0.2736
vn 0.8349 -0.5256 0.1634
vn 0.8348 -0.5257 0.1635
vn 0.7818 -0.6235 -0.0039
vn 0.4339 -0.9010 0.0022
vn 0.5002 -0.0000 0.8659
vn 0.8662 -0.0000 0.4997
vn 0.5003 -0.0000 0.8659
vn 0.8659 -0.0000 -0.5003
vn 0.4997 -0.0000 -0.8662
vn -0.9322 0.0038 -0.3620
vn -0.7752 -0.0000 -0.6318
vn -0.9970 -0.0000 -0.0776
vn -0.7752 -0.0000 -0.6317
vn -0.9322 0.0038 -0.3619
vn -0.7791 0.0495 -0.6250
vn -0.8695 -0.0171 0.4936
vn -0.9970 -0.0000 -0.0775
vn -0.6815 -0.0000 0.7318
vn -0.4442 -0.0091 0.8959
vn -0.6815 -0.0000 0.7319
vn -0.4434 -0.0000 0.8963
vn -0.4441 -0.0091 0.8959
vn -0.8695 -0.0171 0.4937
vn -0.9626 0.1260 -0.2398
vn -0.7791 0.0496 -0.6250
vn -0.9322 0.0039 -0.3619
vn -0.9626 0.1259 -0.2397
vn -0.7872 0.4231 -0.4486
vn -0.8328 -0.3628 0.4180
vn -0.8695 -0.0172 0.4936
vn -0.8328 -0.3628 0.4181
vn -0.4534 -0.4744 0.7546
vn -0.4441 -0.0092 0.8959
vn -0.8328 -0.3629 0.4180
vn -0.9617 0.2302 -0.1487
vn -0.7872 0.4232 -0.4485
vn -0.7872 0.4233 -0.4485
vn -0.7941 0.5858 -0.1618
vn -0.8255 -0.5475 0.1368
vn -0.4536 -0.8212 0.3461
vn -0.4534 -0.4746 0.7545
vn -0.8255 -0.5476 0.1367
vn -0.9200 0.3917 -0.0128
vn -0.7941 0.5858 -0.1616
vn -0.7941 0.5859 -0.1616
vn -0.9200 0.3917 -0.0126
vn -0.7817 0.6235 -0.0132
vn -0.8850 -0.4655 -0.0057
vn -0.8256 -0.5475 0.1368
vn -0.9617 0.2302 -0.1486
vn -0.4339 -0.9010 0.0025
vn -0.8254 -0.5476 0.1368
vn -0.4536 -0.8213 0.3460
vn -0.8255 -0.5476 0.1368
vn -0.4338 -0.9010 0.0025
vn -0.8850 -0.4655 -0.0058
vn -0.5003 -0.0000 -0.8659
vn -0.8662 -0.0000 -0.4997
vn -0.8659 -0.0000 0.5003
vn -0.4997 -0.0000 0.8662
vn -0.8658 -0.0000 0.5003
vn -0.3307 0.8221 0.4636
vn -0.5689 -0.2924 -0.7687
vn -0.2887 0.2792 0.9158
vn -0.2888 -0.2792 0.9158
vn -0.7715 -0.5878 -0.2433
vn -0.5689 -0.2925 -0.7686
vn 0.1868 0.8084 0.5583
vn 0.9068 0.2926 -0.3034
vn 0.5399 0.8221 -0.1807
vn 0.9068 0.2925 -0.3034
vn 0.9068 -0.2924 -0.3035
vn 0.2887 0.2792 -0.9158
vn 0.2611 -0.5684 0.7802
vn 0.5553 -0.2926 -0.7785
vn 0.0108 -0.0000 0.9999
vn 0.0108 0.1949 0.9808
vn -0.4081 0.1772 0.8956
vn -0.4240 -0.0000 0.9056
vn 0.0107 0.1950 0.9807
vn 0.0086 0.6192 0.7852
vn -0.9600 0.0526 0.2750
vn -0.9601 0.0525 0.2748
vn -0.4552 -0.5538 -0.6973
vn -0.8312 -0.3486 -0.4330
vn -0.8313 -0.3487 -0.4330
vn -0.8313 -0.3486 -0.4329
vn -0.4338 0.9009 0.0120
vn -0.8349 -0.5255 -0.1637
vn -0.9555 0.2771 0.1014
vn -0.9748 0.2225 0.0125
vn -0.7819 -0.6234 0.0037
vn -0.4340 -0.9009 -0.0024
vn -0.4543 -0.8477 -0.2738
vn -0.4338 -0.9010 -0.0023
vn -0.4999 -0.0000 -0.8661
vn 0.9970 -0.0000 0.0779
vn 0.9625 0.1260 0.2401
vn 0.4444 -0.0092 -0.8958
vn 0.7941 0.5858 0.1619
vn 0.8851 -0.4654 0.0060
vn 0.9617 0.2303 0.1490
vn 0.4338 -0.9010 -0.0023
vt 0.573585 0.341054
vt 0.573585 0.326338
vt 0.595069 0.326338
vt 0.601175 0.341054
vt 0.622134 0.326338
vt 0.628240 0.341054
vt 0.648148 0.326338
vt 0.654254 0.341054
vt 0.673195 0.326338
vt 0.680318 0.341054
vt 0.700146 0.326338
vt 0.601175 0.288049
vt 0.601175 0.312733
vt 0.573585 0.312733
vt 0.573585 0.288049
vt 0.628240 0.288049
vt 0.628240 0.312733
vt 0.654254 0.288049
vt 0.654254 0.312733
vt 0.680318 0.288049
vt 0.680318 0.312733
vt 0.705234 0.288049
vt 0.705234 0.312733
vt 0.601175 0.167035
vt 0.573585 0.167035
vt 0.628240 0.167035
vt 0.654254 0.167035
vt 0.680318 0.167035
vt 0.705234 0.167035
vt 0.601175 0.133732
vt 0.573585 0.133732
vt 0.628240 0.133732
vt 0.654254 0.133732
vt 0.680318 0.133732
vt 0.705234 0.133732
vt 0.625952 0.500495
vt 0.616958 0.483897
vt 0.633556 0.483897
vt 0.642551 0.500495
vt 0.650155 0.483897
vt 0.659149 0.500495
vt 0.666754 0.483897
vt 0.675748 0.500495
vt 0.686118 0.483897
vt 0.694729 0.500495
vt 0.704004 0.483897
vt 0.633556 0.458999
vt 0.616958 0.458999
vt 0.650155 0.458999
vt 0.666754 0.458999
vt 0.686118 0.458999
vt 0.704004 0.458999
vt 0.633556 0.374583
vt 0.616958 0.374583
vt 0.650155 0.374583
vt 0.666754 0.374583
vt 0.686118 0.374583
vt 0.704004 0.374583
vt 0.633556 0.349026
vt 0.616958 0.349026
vt 0.650155 0.349026
vt 0.666754 0.349026
vt 0.686118 0.349026
vt 0.704004 0.349026
vt 0.447415 0.955833
vt 0.447423 0.871621
vt 0.454997 0.871621
vt 0.454992 0.955849
vt 0.439865 0.954633
vt 0.439850 0.871621
vt 0.432277 0.953157
vt 0.432277 0.871621
vt 0.424734 0.952513
vt 0.424705 0.871621
vt 0.447409 0.967681
vt 0.454983 0.967712
vt 0.439880 0.963711
vt 0.432278 0.959099
vt 0.424763 0.956613
vt 0.447412 0.981516
vt 0.454980 0.981546
vt 0.439880 0.974957
vt 0.432278 0.966469
vt 0.424763 0.961057
vt 0.447415 0.992629
vt 0.454977 0.992660
vt 0.439880 0.984234
vt 0.432278 0.973764
vt 0.424763 0.966978
vt 0.050626 0.430308
vt 0.082007 0.430308
vt 0.082007 0.472027
vt 0.050626 0.472027
vt 0.113388 0.430308
vt 0.113388 0.472027
vt 0.144770 0.430308
vt 0.144770 0.472027
vt 0.140292 0.502760
vt 0.140292 0.487354
vt 0.153634 0.479651
vt 0.166977 0.487354
vt 0.166977 0.502760
vt 0.153634 0.510464
s 0
f 1/1/1 2/2/2 3/3/3
f 1/4/1 3/3/3 4/5/4
f 1/6/5 4/5/4 5/7/6
f 1/8/1 5/7/6 6/9/7
f 1/10/5 6/9/7 7/11/8
f 8/12/9 9/13/10 10/14/11
f 10/14/12 11/15/13 8/12/14
f 12/16/15 13/17/16 9/13/17
f 9/13/18 8/12/19 12/16/20
f 14/18/21 15/19/22 13/17/23
f 13/17/23 12/16/24 14/18/25
f 16/20/26 17/21/27 15/19/28
f 15/19/28 14/18/25 16/20/29
f 18/22/30 19/23/31 17/21/32
f 17/21/33 16/20/26 18/22/34
f 20/24/35 8/12/36 11/15/37
f 11/15/37 21/25/38 20/24/35
f 22/26/39 12/16/40 8/12/41
f 8/12/41 20/24/42 22/26/39
f 23/27/43 14/18/25 12/16/44
f 12/16/45 22/26/46 23/27/47
f 24/28/48 16/20/49 14/18/50
f 14/18/51 23/27/52 24/28/53
f 25/29/54 18/22/55 16/20/56
f 16/20/57 24/28/58 25/29/59
f 26/30/60 20/24/61 21/25/62
f 21/25/62 27/31/63 26/30/64
f 28/32/65 22/26/66 20/24/67
f 20/24/68 26/30/69 28/32/65
f 29/33/70 23/27/52 22/26/46
f 22/26/71 28/32/72 29/33/73
f 30/34/74 24/28/58 23/27/75
f 23/27/75 29/33/76 30/34/77
f 31/35/78 25/29/79 24/28/58
f 24/28/58 30/34/80 31/35/78
f 2/2/81 10/14/82 9/13/83
f 9/13/83 3/3/84 2/2/85
f 3/3/84 9/13/86 13/17/87
f 13/17/87 4/5/88 3/3/89
f 4/5/90 13/17/91 15/19/92
f 15/19/93 5/7/94 4/5/90
f 5/7/95 15/19/96 17/21/97
f 17/21/98 6/9/99 5/7/95
f 6/9/100 17/21/101 19/23/102
f 19/23/103 7/11/104 6/9/105
f 1/1/106 7/2/107 32/3/108
f 1/4/106 32/3/108 33/5/109
f 1/6/110 33/5/111 34/7/112
f 1/8/106 34/7/112 35/9/113
f 1/10/110 35/9/113 2/11/114
f 36/12/115 37/13/116 19/14/117
f 19/14/117 18/15/118 36/12/119
f 38/16/120 39/17/121 37/13/122
f 37/13/122 36/12/123 38/16/124
f 40/18/125 41/19/126 39/17/127
f 39/17/127 38/16/128 40/18/129
f 42/20/130 43/21/131 41/19/132
f 41/19/132 40/18/129 42/20/130
f 11/22/133 10/23/134 43/21/135
f 43/21/136 42/20/137 11/22/138
f 44/24/139 36/12/119 18/15/140
f 18/15/140 25/25/141 44/24/139
f 45/26/142 38/16/143 36/12/144
f 36/12/144 44/24/145 45/26/142
f 46/27/146 40/18/147 38/16/148
f 38/16/148 45/26/149 46/27/150
f 47/28/151 42/20/152 40/18/153
f 40/18/154 46/27/155 47/28/156
f 21/29/157 11/22/158 42/20/159
f 42/20/159 47/28/160 21/29/157
f 48/30/161 44/24/162 25/25/163
f 25/25/163 31/31/164 48/30/161
f 49/32/165 45/26/166 44/24/167
f 44/24/167 48/30/168 49/32/165
f 50/33/169 46/27/146 45/26/149
f 45/26/149 49/32/170 50/33/171
f 51/34/172 47/28/173 46/27/174
f 46/27/175 50/33/176 51/34/172
f 27/35/177 21/29/178 47/28/179
f 47/28/173 51/34/180 27/35/177
f 7/2/181 19/14/182 37/13/183
f 37/13/183 32/3/184 7/2/185
f 32/3/184 37/13/186 39/17/187
f 39/17/187 33/5/188 32/3/184
f 33/5/189 39/17/190 41/19/191
f 41/19/191 34/7/192 33/5/189
f 34/7/193 41/19/194 43/21/195
f 43/21/196 35/9/197 34/7/193
f 35/9/198 43/21/199 10/23/200
f 10/23/201 2/11/202 35/9/203
f 52/36/204 53/37/205 54/38/206
f 52/39/207 54/38/208 55/40/209
f 52/41/210 55/40/211 56/42/212
f 52/43/210 56/42/212 57/44/213
f 52/45/210 57/44/213 58/46/214
f 59/47/215 54/38/206 53/37/216
f 53/37/216 60/48/217 59/47/218
f 61/49/219 55/40/220 54/38/221
f 54/38/206 59/47/222 61/49/223
f 62/50/224 56/42/225 55/40/211
f 55/40/226 61/49/227 62/50/228
f 63/51/229 57/44/230 56/42/231
f 56/42/232 62/50/233 63/51/229
f 64/52/234 58/46/235 57/44/236
f 57/44/230 63/51/237 64/52/238
f 65/53/239 59/47/218 60/48/240
f 60/48/240 66/54/241 65/53/239
f 67/55/242 61/49/243 59/47/244
f 59/47/244 65/53/245 67/55/246
f 68/56/247 62/50/248 61/49/227
f 61/49/249 67/55/246 68/56/247
f 69/57/250 63/51/229 62/50/248
f 62/50/248 68/56/251 69/57/252
f 70/58/253 64/52/254 63/51/255
f 63/51/255 69/57/256 70/58/253
f 71/59/257 65/53/258 66/54/259
f 66/54/260 72/60/261 71/59/262
f 73/61/263 67/55/264 65/53/245
f 65/53/245 71/59/265 73/61/266
f 74/62/267 68/56/268 67/55/269
f 67/55/270 73/61/271 74/62/272
f 75/63/273 69/57/274 68/56/251
f 68/56/251 74/62/275 75/63/273
f 76/64/276 70/58/277 69/57/250
f 69/57/278 75/63/279 76/64/276
f 52/36/280 58/37/281 77/38/282
f 52/39/280 77/38/283 78/40/284
f 52/41/285 78/40/284 79/42/286
f 52/43/285 79/42/286 80/44/287
f 52/45/285 80/44/288 53/46/289
f 81/47/290 77/38/291 58/37/292
f 58/37/293 64/48/294 81/47/290
f 82/49/295 78/40/296 77/38/282
f 77/38/282 81/47/297 82/49/298
f 83/50/299 79/42/300 78/40/301
f 78/40/301 82/49/302 83/50/299
f 84/51/303 80/44/288 79/42/304
f 79/42/305 83/50/306 84/51/307
f 60/52/308 53/46/309 80/44/310
f 80/44/310 84/51/307 60/52/311
f 85/53/312 81/47/313 64/48/314
f 64/48/314 70/54/315 85/53/312
f 86/55/316 82/49/295 81/47/297
f 81/47/313 85/53/317 86/55/316
f 87/56/318 83/50/319 82/49/295
f 82/49/320 86/55/316 87/56/321
f 88/57/322 84/51/323 83/50/306
f 83/50/324 87/56/325 88/57/326
f 66/58/327 60/52/328 84/51/329
f 84/51/329 88/57/330 66/58/327
f 89/59/331 85/53/312 70/54/332
f 70/54/333 76/60/334 89/59/331
f 90/61/335 86/55/336 85/53/337
f 85/53/338 89/59/339 90/61/335
f 91/62/340 87/56/321 86/55/341
f 86/55/341 90/61/342 91/62/340
f 92/63/343 88/57/344 87/56/345
f 87/56/346 91/62/347 92/63/343
f 72/64/348 66/58/349 88/57/344
f 88/57/344 92/63/350 72/64/348
f 93/65/351 94/66/352 95/67/353
f 95/67/354 96/68/355 93/65/356
f 97/69/357 98/70/358 94/66/359
f 94/66/359 93/65/351 97/69/357
f 99/71/360 100/72/361 98/70/362
f 98/70/362 97/69/363 99/71/364
f 101/73/365 102/74/366 100/72/367
f 100/72/361 99/71/364 101/73/368
f 103/75/369 93/65/351 96/68/370
f 96/68/370 104/76/371 103/75/372
f 105/77/373 97/69/363 93/65/356
f 93/65/351 103/75/372 105/77/374
f 106/78/375 99/71/376 97/69/363
f 97/69/363 105/77/377 106/78/378
f 107/79/379 101/73/380 99/71/360
f 99/71/381 106/78/375 107/79/382
f 108/80/383 103/75/384 104/76/385
f 104/76/386 109/81/387 108/80/388
f 110/82/389 105/77/390 103/75/372
f 103/75/372 108/80/383 110/82/391
f 111/83/392 106/78/375 105/77/393
f 105/77/394 110/82/389 111/83/392
f 140/84/395 107/79/396 106/78/378
f 106/78/397 111/83/398 140/84/399
f 112/85/400 108/80/388 109/81/401
f 109/81/402 113/86/403 112/85/400
f 114/87/404 110/82/405 108/80/406
f 108/80/388 112/85/407 114/87/408
f 115/88/409 111/83/410 110/82/411
f 110/82/412 114/87/413 115/88/414
f 116/89/415 140/84/416 111/83/398
f 111/83/417 115/88/418 116/89/415
f 146/90/419 117/91/420 118/92/420
f 118/92/420 119/93/419 146/90/419
f 117/91/420 120/94/421 121/95/421
f 121/95/421 118/92/420 117/91/420
f 120/94/421 122/96/422 123/97/422
f 123/97/422 121/95/421 120/94/421
f 124/98/423 119/99/423 118/100/423
f 118/100/423 121/101/423 123/102/423
f 124/98/423 118/100/423 123/102/423
f 144/103/423 124/98/423 123/102/423
f 127/69/424 126/66/425 128/70/426
f 126/66/427 127/69/428 125/65/429
f 129/71/430 128/70/426 130/72/431
f 128/70/426 129/71/430 127/69/424
f 131/73/432 130/72/433 132/74/434
f 130/72/435 131/73/436 129/71/437
f 134/77/438 125/65/439 127/69/440
f 125/65/439 134/77/441 133/75/442
f 135/78/443 127/69/424 129/71/444
f 127/69/440 135/78/443 134/77/441
f 136/79/445 129/71/446 131/73/447
f 129/71/448 136/79/445 135/78/449
f 138/82/450 133/75/451 134/77/452
f 133/75/453 138/82/454 137/80/455
f 139/83/456 134/77/452 135/78/443
f 134/77/441 139/83/457 138/82/458
f 140/84/459 135/78/460 136/79/461
f 135/78/460 140/84/459 139/83/462
f 141/87/463 137/80/464 138/82/458
f 137/80/464 141/87/465 113/85/466
f 142/88/467 138/82/458 139/83/456
f 138/82/458 142/88/467 141/87/463
f 116/89/468 139/83/462 140/84/469
f 139/83/470 116/89/471 142/88/472
f 122/90/473 143/91/474 144/92/474
f 144/92/474 123/93/473 122/90/473
f 143/91/474 145/94/475 124/95/475
f 124/95/475 144/92/474 143/91/474
f 145/94/475 146/96/476 119/97/476
f 119/97/476 124/95/475 145/94/475
f 147/1/1 148/2/2 149/3/3
f 147/4/1 149/3/3 150/5/4
f 147/6/5 150/5/4 151/7/6
f 147/8/1 151/7/6 152/9/7
f 147/10/5 152/9/7 153/11/8
f 154/12/9 155/13/10 156/14/11
f 156/14/12 157/15/13 154/12/9
f 158/16/477 159/17/16 155/13/18
f 155/13/18 154/12/19 158/16/20
f 160/18/21 161/19/22 159/17/23
f 159/17/23 158/16/24 160/18/25
f 162/20/26 163/21/27 161/19/28
f 161/19/28 160/18/25 162/20/29
f 164/22/30 165/23/31 163/21/33
f 163/21/33 162/20/26 164/22/34
f 166/24/35 154/12/36 157/15/37
f 157/15/37 167/25/38 166/24/35
f 168/26/478 158/16/40 154/12/41
f 154/12/479 166/24/42 168/26/39
f 169/27/43 160/18/25 158/16/44
f 158/16/45 168/26/46 169/27/47
f 170/28/48 162/20/49 160/18/50
f 160/18/51 169/27/52 170/28/53
f 171/29/54 164/22/55 162/20/56
f 162/20/57 170/28/58 171/29/59
f 172/30/60 166/24/61 167/25/62
f 167/25/62 173/31/63 172/30/64
f 174/32/65 168/26/66 166/24/67
f 166/24/68 172/30/480 174/32/65
f 175/33/70 169/27/52 168/26/46
f 168/26/481 174/32/72 175/33/73
f 176/34/482 170/28/58 169/27/75
f 169/27/75 175/33/76 176/34/77
f 177/35/78 171/29/483 170/28/58
f 170/28/58 176/34/80 177/35/78
f 148/2/81 156/14/82 155/13/83
f 155/13/83 149/3/84 148/2/85
f 149/3/84 155/13/86 159/17/87
f 159/17/87 150/5/88 149/3/89
f 150/5/90 159/17/91 161/19/92
f 161/19/93 151/7/94 150/5/90
f 151/7/95 161/19/96 163/21/97
f 163/21/98 152/9/99 151/7/95
f 152/9/100 163/21/101 165/23/102
f 165/23/103 153/11/104 152/9/105
f 147/1/106 153/2/107 178/3/108
f 147/4/106 178/3/108 179/5/109
f 147/6/110 179/5/111 180/7/112
f 147/8/106 180/7/112 181/9/113
f 147/10/106 181/9/113 148/11/114
f 182/12/115 183/13/116 165/14/117
f 165/14/117 164/15/118 182/12/119
f 184/16/120 185/17/121 183/13/122
f 183/13/122 182/12/123 184/16/124
f 186/18/129 187/19/126 185/17/127
f 185/17/127 184/16/128 186/18/129
f 188/20/130 189/21/131 187/19/132
f 187/19/132 186/18/129 188/20/130
f 157/22/133 156/23/134 189/21/135
f 189/21/135 188/20/137 157/22/138
f 190/24/139 182/12/119 164/15/140
f 164/15/140 171/25/141 190/24/139
f 191/26/142 184/16/143 182/12/144
f 182/12/144 190/24/145 191/26/142
f 192/27/146 186/18/147 184/16/148
f 184/16/148 191/26/149 192/27/150
f 193/28/151 188/20/152 186/18/153
f 186/18/154 192/27/155 193/28/156
f 167/29/157 157/22/484 188/20/159
f 188/20/159 193/28/160 167/29/157
f 194/30/161 190/24/162 171/25/163
f 171/25/163 177/31/164 194/30/161
f 195/32/165 191/26/166 190/24/167
f 190/24/167 194/30/168 195/32/165
f 196/33/169 192/27/175 191/26/149
f 191/26/149 195/32/170 196/33/171
f 197/34/172 193/28/173 192/27/174
f 192/27/175 196/33/176 197/34/172
f 173/35/177 167/29/178 193/28/179
f 193/28/173 197/34/180 173/35/177
f 153/2/181 165/14/182 183/13/183
f 183/13/183 178/3/184 153/2/185
f 178/3/184 183/13/186 185/17/187
f 185/17/187 179/5/188 178/3/184
f 179/5/189 185/17/190 187/19/191
f 187/19/191 180/7/485 179/5/189
f 180/7/193 187/19/194 189/21/195
f 189/21/196 181/9/197 180/7/193
f 181/9/198 189/21/199 156/23/200
f 156/23/486 148/11/202 181/9/197
f 198/1/1 199/2/2 200/3/3
f 198/4/1 200/3/3 201/5/4
f 198/6/5 201/5/4 202/7/6
f 198/8/1 202/7/6 203/9/7
f 198/10/5 203/9/7 204/11/8
f 205/12/9 206/13/10 207/14/11
f 207/14/11 208/15/13 205/12/9
f 209/16/487 210/17/16 206/13/18
f 206/13/18 205/12/19 209/16/20
f 211/18/21 212/19/488 210/17/23
f 210/17/23 209/16/24 211/18/25
f 213/20/26 214/21/27 212/19/28
f 212/19/28 211/18/25 213/20/29
f 215/22/30 216/23/31 214/21/33
f 214/21/33 213/20/26 215/22/34
f 217/24/35 205/12/36 208/15/37
f 208/15/37 218/25/38 217/24/35
f 219/26/478 209/16/40 205/12/41
f 205/12/41 217/24/42 219/26/39
f 220/27/43 211/18/25 209/16/44
f 209/16/45 219/26/46 220/27/47
f 221/28/48 213/20/49 211/18/50
f 211/18/51 220/27/52 221/28/53
f 222/29/54 215/22/55 213/20/56
f 213/20/57 221/28/58 222/29/59
f 223/30/60 217/24/61 218/25/62
f 218/25/62 224/31/63 223/30/64
f 225/32/65 219/26/66 217/24/67
f 217/24/68 223/30/480 225/32/65
f 226/33/489 220/27/52 219/26/46
f 219/26/481 225/32/72 226/33/73
f 227/34/482 221/28/58 220/27/75
f 220/27/75 226/33/76 227/34/77
f 228/35/78 222/29/79 221/28/58
f 221/28/58 227/34/80 228/35/78
f 199/2/81 207/14/490 206/13/83
f 206/13/83 200/3/84 199/2/85
f 200/3/84 206/13/86 210/17/87
f 210/17/87 201/5/88 200/3/89
f 201/5/90 210/17/91 212/19/92
f 212/19/93 202/7/94 201/5/90
f 202/7/95 212/19/96 214/21/97
f 214/21/491 203/9/99 202/7/95
f 203/9/100 214/21/101 216/23/102
f 216/23/103 204/11/104 203/9/105
f 198/1/106 204/2/107 229/3/108
f 198/4/106 229/3/108 230/5/109
f 198/6/110 230/5/111 231/7/112
f 198/8/106 231/7/112 232/9/113
f 198/10/106 232/9/113 199/11/114
f 233/12/115 234/13/116 216/14/117
f 216/14/117 215/15/118 233/12/119
f 235/16/120 236/17/121 234/13/122
f 234/13/122 233/12/123 235/16/124
f 237/18/125 238/19/126 236/17/127
f 236/17/127 235/16/128 237/18/129
f 239/20/130 240/21/131 238/19/132
f 238/19/132 237/18/129 239/20/152
f 208/22/133 207/23/134 240/21/135
f 240/21/135 239/20/137 208/22/138
f 241/24/139 233/12/119 215/15/140
f 215/15/140 222/25/141 241/24/139
f 242/26/142 235/16/143 233/12/144
f 233/12/144 241/24/145 242/26/142
f 243/27/146 237/18/147 235/16/148
f 235/16/143 242/26/149 243/27/150
f 244/28/151 239/20/152 237/18/153
f 237/18/154 243/27/155 244/28/156
f 218/29/157 208/22/158 239/20/159
f 239/20/159 244/28/160 218/29/157
f 245/30/161 241/24/162 222/25/163
f 222/25/163 228/31/164 245/30/161
f 246/32/165 242/26/166 241/24/167
f 241/24/167 245/30/168 246/32/165
f 247/33/169 243/27/175 242/26/149
f 242/26/149 246/32/170 247/33/171
f 248/34/172 244/28/173 243/27/174
f 243/27/146 247/33/492 248/34/172
f 224/35/177 218/29/178 244/28/179
f 244/28/173 248/34/180 224/35/177
f 204/2/181 216/14/182 234/13/183
f 234/13/183 229/3/184 204/2/185
f 229/3/184 234/13/186 236/17/187
f 236/17/187 230/5/188 229/3/184
f 230/5/189 236/17/190 238/19/191
f 238/19/191 231/7/192 230/5/189
f 231/7/193 238/19/194 240/21/195
f 240/21/196 232/9/197 231/7/193
f 232/9/198 240/21/199 207/23/201
f 207/23/200 199/11/202 232/9/203
f 249/1/1 250/2/2 251/3/3
f 249/4/1 251/3/3 252/5/4
f 249/6/5 252/5/4 253/7/6
f 249/8/1 253/7/6 254/9/7
f 249/10/5 254/9/7 255/11/8
f 256/12/9 257/13/10 258/14/11
f 258/14/12 259/15/13 256/12/9
f 260/16/477 261/17/16 257/13/18
f 257/13/18 256/12/19 260/16/20
f 262/18/21 263/19/22 261/17/23
f 261/17/23 260/16/24 262/18/25
f 264/20/26 265/21/27 263/19/28
f 263/19/28 262/18/25 264/20/29
f 266/22/30 267/23/31 265/21/33
f 265/21/33 264/20/26 266/22/34
f 268/24/35 256/12/36 259/15/37
f 259/15/37 269/25/38 268/24/35
f 270/26/478 260/16/40 256/12/41
f 256/12/479 268/24/42 270/26/39
f 271/27/43 262/18/25 260/16/44
f 260/16/45 270/26/46 271/27/47
f 272/28/48 264/20/49 262/18/50
f 262/18/51 271/27/52 272/28/53
f 273/29/54 266/22/55 264/20/56
f 264/20/57 272/28/58 273/29/59
f 274/30/60 268/24/61 269/25/62
f 269/25/62 275/31/63 274/30/64
f 276/32/65 270/26/66 268/24/67
f 268/24/68 274/30/480 276/32/65
f 277/33/489 271/27/52 270/26/46
f 270/26/481 276/32/72 277/33/73
f 278/34/482 272/28/58 271/27/75
f 271/27/75 277/33/76 278/34/77
f 279/35/78 273/29/483 272/28/58
f 272/28/58 278/34/80 279/35/78
f 250/2/85 258/14/82 257/13/83
f 257/13/83 251/3/84 250/2/85
f 251/3/84 257/13/86 261/17/87
f 261/17/87 252/5/88 251/3/89
f 252/5/90 261/17/91 263/19/92
f 263/19/93 253/7/94 252/5/90
f 253/7/95 263/19/96 265/21/97
f 265/21/491 254/9/99 253/7/95
f 254/9/100 265/21/101 267/23/102
f 267/23/102 255/11/104 254/9/105
f 249/1/106 255/2/107 280/3/108
f 249/4/106 280/3/108 281/5/109
f 249/6/110 281/5/111 282/7/112
f 249/8/106 282/7/112 283/9/113
f 249/10/106 283/9/113 250/11/114
f 284/12/115 285/13/116 267/14/117
f 267/14/117 266/15/118 284/12/119
f 286/16/120 287/17/121 285/13/122
f 285/13/122 284/12/123 286/16/124
f 288/18/125 289/19/126 287/17/127
f 287/17/127 286/16/128 288/18/129
f 290/20/130 291/21/131 289/19/132
f 289/19/132 288/18/129 290/20/130
f 259/22/133 258/23/134 291/21/135
f 291/21/135 290/20/137 259/22/138
f 292/24/139 284/12/119 266/15/140
f 266/15/140 273/25/141 292/24/139
f 293/26/142 286/16/143 284/12/144
f 284/12/144 292/24/145 293/26/142
f 294/27/146 288/18/147 286/16/148
f 286/16/148 293/26/149 294/27/150
f 295/28/151 290/20/152 288/18/153
f 288/18/154 294/27/155 295/28/156
f 269/29/157 259/22/484 290/20/159
f 290/20/159 295/28/160 269/29/157
f 296/30/493 292/24/162 273/25/163
f 273/25/163 279/31/164 296/30/161
f 297/32/165 293/26/166 292/24/167
f 292/24/167 296/30/168 297/32/165
f 298/33/169 294/27/175 293/26/149
f 293/26/149 297/32/170 298/33/171
f 299/34/172 295/28/173 294/27/174
f 294/27/146 298/33/492 299/34/172
f 275/35/177 269/29/178 295/28/179
f 295/28/173 299/34/180 275/35/177
f 255/2/185 267/14/182 285/13/183
f 285/13/183 280/3/184 255/2/185
f 280/3/184 285/13/186 287/17/187
f 287/17/187 281/5/188 280/3/184
f 281/5/189 287/17/190 289/19/191
f 289/19/191 282/7/485 281/5/189
f 282/7/193 289/19/194 291/21/195
f 291/21/196 283/9/197 282/7/193
f 283/9/198 291/21/199 258/23/200
f 258/23/201 250/11/202 283/9/203
f 300/36/494 301/37/495 302/38/496
f 300/39/494 302/38/496 303/40/497
f 300/41/498 303/40/497 304/42/499
f 300/43/498 304/42/499 305/44/500
f 300/45/501 305/44/500 306/46/502
f 307/47/503 302/38/496 301/37/504
f 301/37/505 308/48/506 307/47/503
f 309/49/507 303/40/508 302/38/509
f 302/38/496 307/47/510 309/49/511
f 310/50/512 304/42/499 303/40/513
f 303/40/508 309/49/514 310/50/515
f 311/51/516 305/44/500 304/42/517
f 304/42/518 310/50/519 311/51/516
f 312/52/520 306/46/521 305/44/522
f 305/44/523 311/51/524 312/52/520
f 313/53/525 307/47/526 308/48/527
f 308/48/527 314/54/528 313/53/525
f 315/55/529 309/49/530 307/47/531
f 307/47/531 313/53/532 315/55/533
f 316/56/534 310/50/535 309/49/514
f 309/49/536 315/55/533 316/56/534
f 317/57/537 311/51/516 310/50/538
f 310/50/538 316/56/539 317/57/540
f 318/58/541 312/52/542 311/51/543
f 311/51/544 317/57/545 318/58/541
f 319/59/546 313/53/547 314/54/548
f 314/54/548 320/60/549 319/59/546
f 321/61/550 315/55/551 313/53/532
f 313/53/532 319/59/552 321/61/553
f 322/62/554 316/56/555 315/55/556
f 315/55/557 321/61/558 322/62/554
f 323/63/559 317/57/560 316/56/539
f 316/56/561 322/62/562 323/63/559
f 324/64/563 318/58/564 317/57/565
f 317/57/566 323/63/567 324/64/563
f 300/36/568 306/37/569 325/38/570
f 300/39/568 325/38/570 326/40/571
f 300/41/572 326/40/573 327/42/574
f 300/43/572 327/42/574 328/44/575
f 300/45/576 328/44/575 301/46/577
f 329/47/578 325/38/579 306/37/580
f 306/37/580 312/48/581 329/47/578
f 330/49/582 326/40/573 325/38/583
f 325/38/579 329/47/584 330/49/585
f 331/50/586 327/42/587 326/40/588
f 326/40/589 330/49/590 331/50/586
f 332/51/591 328/44/575 327/42/592
f 327/42/587 331/50/593 332/51/594
f 308/52/595 301/46/596 328/44/597
f 328/44/598 332/51/599 308/52/595
f 333/53/600 329/47/601 312/48/602
f 312/48/602 318/54/603 333/53/600
f 334/55/604 330/49/582 329/47/584
f 329/47/601 333/53/605 334/55/604
f 335/56/606 331/50/607 330/49/608
f 330/49/609 334/55/604 335/56/610
f 336/57/611 332/51/612 331/50/593
f 331/50/613 335/56/614 336/57/611
f 314/58/615 308/52/616 332/51/617
f 332/51/617 336/57/618 314/58/615
f 337/59/619 333/53/620 318/54/621
f 318/54/621 324/60/622 337/59/619
f 338/61/623 334/55/624 333/53/625
f 333/53/626 337/59/627 338/61/628
f 339/62/629 335/56/610 334/55/630
f 334/55/631 338/61/632 339/62/629
f 340/63/633 336/57/634 335/56/635
f 335/56/635 339/62/636 340/63/633
f 320/64/637 314/58/638 336/57/639
f 336/57/634 340/63/640 320/64/637
f 341/65/641 342/66/642 343/67/643
f 343/67/643 344/68/644 341/65/645
f 345/69/646 346/70/647 342/66/642
f 342/66/642 341/65/641 345/69/646
f 347/71/648 348/72/649 346/70/647
f 346/70/647 345/69/650 347/71/651
f 349/73/652 350/74/653 348/72/649
f 348/72/649 347/71/651 349/73/654
f 351/75/655 341/65/641 344/68/656
f 344/68/657 352/76/658 351/75/655
f 353/77/659 345/69/660 341/65/645
f 341/65/641 351/75/655 353/77/661
f 354/78/662 347/71/648 345/69/663
f 345/69/660 353/77/661 354/78/664
f 355/79/665 349/73/666 347/71/648
f 347/71/648 354/78/667 355/79/668
f 356/80/669 351/75/670 352/76/671
f 352/76/671 357/81/672 356/80/669
f 358/82/673 353/77/674 351/75/655
f 351/75/655 356/80/669 358/82/675
f 359/83/676 354/78/662 353/77/677
f 353/77/678 358/82/679 359/83/676
f 388/84/680 355/79/681 354/78/662
f 354/78/667 359/83/682 388/84/680
f 360/85/683 356/80/684 357/81/685
f 357/81/686 361/86/687 360/85/688
f 362/87/689 358/82/690 356/80/669
f 356/80/691 360/85/692 362/87/693
f 363/88/694 359/83/676 358/82/679
f 358/82/679 362/87/695 363/88/696
f 364/89/697 388/84/698 359/83/676
f 359/83/699 363/88/700 364/89/701
f 394/90/702 365/91/703 366/92/703
f 366/92/703 367/93/702 394/90/702
f 365/91/704 368/94/705 369/95/705
f 369/95/705 366/92/704 365/91/704
f 368/94/705 370/96/706 371/97/706
f 371/97/706 369/95/705 368/94/705
f 372/98/423 367/99/423 366/100/423
f 366/100/423 369/101/423 371/102/423
f 372/98/423 366/100/423 371/102/423
f 392/103/423 372/98/423 371/102/423
f 375/69/707 374/66/708 376/70/709
f 374/66/708 375/69/707 373/65/710
f 377/71/711 376/70/709 378/72/712
f 376/70/713 377/71/714 375/69/707
f 379/73/715 378/72/716 380/74/717
f 378/72/716 379/73/715 377/71/718
f 382/77/719 373/65/720 375/69/721
f 373/65/720 382/77/719 381/75/722
f 383/78/723 375/69/724 377/71/725
f 375/69/726 383/78/727 382/77/728
f 384/79/729 377/71/711 379/73/730
f 377/71/718 384/79/731 383/78/732
f 386/82/733 381/75/734 382/77/735
f 381/75/734 386/82/733 385/80/736
f 387/83/737 382/77/719 383/78/723
f 382/77/738 387/83/739 386/82/740
f 388/84/741 383/78/727 384/79/742
f 383/78/727 388/84/743 387/83/744
f 389/87/745 385/80/746 386/82/740
f 385/80/747 389/87/748 361/85/749
f 390/88/750 386/82/740 387/83/737
f 386/82/740 390/88/751 389/87/745
f 364/89/752 387/83/753 388/84/754
f 387/83/744 364/89/755 390/88/756
f 370/90/757 391/91/758 392/92/758
f 392/92/758 371/93/757 370/90/757
f 391/91/759 393/94/760 372/95/760
f 372/95/760 392/92/759 391/91/759
f 393/94/760 394/96/761 367/97/761
f 367/97/761 372/95/760 393/94/760
f 395/36/280 396/37/762 397/38/763
f 395/39/280 397/38/763 398/40/764
f 395/41/285 398/40/765 399/42/766
f 395/43/285 399/42/766 400/44/767
f 395/45/768 400/44/767 401/46/769
f 402/47/770 397/38/763 396/37/771
f 396/37/772 403/48/773 402/47/770
f 404/49/774 398/40/775 397/38/776
f 397/38/777 402/47/778 404/49/779
f 405/50/780 399/42/766 398/40/781
f 398/40/781 404/49/782 405/50/783
f 406/51/784 400/44/785 399/42/786
f 399/42/786 405/50/787 406/51/784
f 407/52/788 401/46/789 400/44/785
f 400/44/785 406/51/790 407/52/791
f 408/53/792 402/47/793 403/48/794
f 403/48/794 409/54/795 408/53/792
f 410/55/796 404/49/797 402/47/798
f 402/47/798 408/53/799 410/55/800
f 411/56/801 405/50/802 404/49/803
f 404/49/804 410/55/800 411/56/801
f 412/57/805 406/51/784 405/50/802
f 405/50/802 411/56/806 412/57/807
f 413/58/808 407/52/809 406/51/810
f 406/51/811 412/57/812 413/58/808
f 414/59/813 408/53/814 409/54/815
f 409/54/816 415/60/817 414/59/813
f 416/61/818 410/55/819 408/53/799
f 408/53/799 414/59/820 416/61/818
f 417/62/821 411/56/822 410/55/823
f 410/55/824 416/61/825 417/62/821
f 418/63/826 412/57/827 411/56/806
f 411/56/806 417/62/828 418/63/826
f 419/64/829 413/58/830 412/57/831
f 412/57/832 418/63/833 419/64/834
f 395/36/204 401/37/835 420/38/836
f 395/39/207 420/38/836 421/40/837
f 395/41/210 421/40/838 422/42/839
f 395/43/210 422/42/839 423/44/840
f 395/45/841 423/44/840 396/46/842
f 424/47/843 420/38/844 401/37/845
f 401/37/846 407/48/847 424/47/843
f 425/49/848 421/40/838 420/38/844
f 420/38/849 424/47/850 425/49/848
f 426/50/851 422/42/839 421/40/837
f 421/40/837 425/49/852 426/50/851
f 427/51/853 423/44/230 422/42/854
f 422/42/854 426/50/855 427/51/856
f 403/52/857 396/46/858 423/44/859
f 423/44/859 427/51/860 403/52/861
f 428/53/862 424/47/850 407/48/863
f 407/48/863 413/54/864 428/53/865
f 429/55/866 425/49/848 424/47/850
f 424/47/850 428/53/867 429/55/866
f 430/56/868 426/50/869 425/49/848
f 425/49/870 429/55/866 430/56/871
f 431/57/872 427/51/873 426/50/855
f 426/50/874 430/56/875 431/57/872
f 409/58/876 403/52/877 427/51/873
f 427/51/873 431/57/878 409/58/879
f 432/59/880 428/53/881 413/54/882
f 413/54/883 419/60/884 432/59/880
f 433/61/885 429/55/886 428/53/862
f 428/53/887 432/59/888 433/61/885
f 434/62/889 430/56/871 429/55/890
f 429/55/890 433/61/891 434/62/892
f 435/63/893 431/57/894 430/56/895
f 430/56/895 434/62/896 435/63/893
f 415/64/897 409/58/898 431/57/899
f 431/57/899 435/63/900 415/64/901
f 436/65/902 437/66/903 438/67/904
f 438/67/904 439/68/905 436/65/906
f 440/69/907 441/70/908 437/66/903
f 437/66/909 436/65/902 440/69/910
f 442/71/911 443/72/912 441/70/908
f 441/70/908 440/69/913 442/71/914
f 444/73/915 445/74/916 443/72/917
f 443/72/917 442/71/918 444/73/919
f 446/75/920 436/65/921 439/68/922
f 439/68/923 447/76/924 446/75/925
f 448/77/926 440/69/927 436/65/928
f 436/65/902 446/75/920 448/77/926
f 449/78/929 442/71/911 440/69/913
f 440/69/913 448/77/930 449/78/929
f 450/79/931 444/73/932 442/71/933
f 442/71/933 449/78/934 450/79/935
f 451/80/936 446/75/920 447/76/937
f 447/76/937 452/81/938 451/80/936
f 453/82/939 448/77/940 446/75/920
f 446/75/920 451/80/936 453/82/941
f 454/83/942 449/78/929 448/77/940
f 448/77/943 453/82/944 454/83/942
f 483/84/945 450/79/946 449/78/934
f 449/78/947 454/83/948 483/84/945
f 455/85/949 451/80/950 452/81/951
f 452/81/952 456/86/953 455/85/954
f 457/87/955 453/82/939 451/80/936
f 451/80/950 455/85/956 457/87/957
f 458/88/958 454/83/942 453/82/944
f 453/82/944 457/87/959 458/88/958
f 459/89/960 483/84/961 454/83/962
f 454/83/963 458/88/964 459/89/965
f 489/90/966 460/91/967 461/92/967
f 461/92/967 462/93/968 489/90/968
f 460/91/967 463/94/969 464/95/969
f 464/95/969 461/92/967 460/91/967
f 463/94/969 465/96/970 466/97/970
f 466/97/970 464/95/969 463/94/969
f 467/98/423 462/99/423 461/100/423
f 461/100/423 464/101/423 466/102/423
f 467/98/423 461/100/423 466/102/423
f 487/103/423 467/98/423 466/102/423
f 470/69/971 469/66/972 471/70/973
f 469/66/974 470/69/975 468/65/976
f 472/71/977 471/70/978 473/72/979
f 471/70/978 472/71/977 470/69/975
f 474/73/980 473/72/981 475/74/982
f 473/72/981 474/73/983 472/71/984
f 477/77/985 468/65/986 470/69/987
f 468/65/986 477/77/988 476/75/989
f 478/78/990 470/69/975 472/71/991
f 470/69/987 478/78/992 477/77/988
f 479/79/993 472/71/991 474/73/994
f 472/71/984 479/79/993 478/78/995
f 481/82/996 476/75/997 477/77/988
f 476/75/998 481/82/996 480/80/999
f 482/83/1000 477/77/988 478/78/990
f 477/77/988 482/83/1000 481/82/996
f 483/84/1001 478/78/992 479/79/1002
f 478/78/992 483/84/1001 482/83/1003
f 484/87/1004 480/80/1005 481/82/996
f 480/80/1006 484/87/1007 456/85/1008
f 485/88/1009 481/82/996 482/83/1010
f 481/82/1011 485/88/1009 484/87/1004
f 459/89/1012 482/83/1013 483/84/1014
f 482/83/1015 459/89/1016 485/88/1017
f 465/90/1018 486/91/1019 487/92/1019
f 487/92/1019 466/93/1018 465/90/1018
f 486/91/1019 488/94/1020 467/95/1020
f 467/95/1020 487/92/1019 486/91/1019
f 488/94/1020 489/96/1021 462/97/1021
f 462/97/1021 467/95/1022 488/94/1022
f 490/36/204 491/37/205 492/38/206
f 490/39/207 492/38/208 493/40/209
f 490/41/210 493/40/211 494/42/212
f 490/43/210 494/42/212 495/44/213
f 490/45/210 495/44/213 496/46/214
f 497/47/215 492/38/206 491/37/216
f 491/37/216 498/48/217 497/47/218
f 499/49/219 493/40/220 492/38/221
f 492/38/206 497/47/222 499/49/223
f 500/50/224 494/42/225 493/40/211
f 493/40/226 499/49/227 500/50/228
f 501/51/229 495/44/1023 494/42/232
f 494/42/232 500/50/233 501/51/229
f 502/52/234 496/46/235 495/44/236
f 495/44/230 501/51/237 502/52/234
f 503/53/1024 497/47/218 498/48/240
f 498/48/240 504/54/241 503/53/239
f 505/55/242 499/49/243 497/47/244
f 497/47/244 503/53/245 505/55/246
f 506/56/247 500/50/248 499/49/227
f 499/49/249 505/55/246 506/56/247
f 507/57/250 501/51/229 500/50/248
f 500/50/248 506/56/251 507/57/252
f 508/58/253 502/52/1025 501/51/255
f 501/51/255 507/57/256 508/58/1026
f 509/59/257 503/53/258 504/54/259
f 504/54/260 510/60/261 509/59/262
f 511/61/1027 505/55/264 503/53/245
f 503/53/1028 509/59/265 511/61/266
f 512/62/267 506/56/268 505/55/269
f 505/55/270 511/61/271 512/62/272
f 513/63/273 507/57/274 506/56/251
f 506/56/251 512/62/275 513/63/273
f 514/64/276 508/58/277 507/57/250
f 507/57/278 513/63/279 514/64/276
f 490/36/280 496/37/1029 515/38/282
f 490/39/280 515/38/283 516/40/284
f 490/41/285 516/40/284 517/42/300
f 490/43/285 517/42/286 518/44/287
f 490/45/285 518/44/288 491/46/289
f 519/47/290 515/38/291 496/37/292
f 496/37/293 502/48/294 519/47/290
f 520/49/295 516/40/296 515/38/282
f 515/38/282 519/47/297 520/49/298
f 521/50/1030 517/42/300 516/40/301
f 516/40/301 520/49/302 521/50/299
f 522/51/303 518/44/288 517/42/1031
f 517/42/305 521/50/306 522/51/307
f 498/52/308 491/46/309 518/44/310
f 518/44/310 522/51/307 498/52/311
f 523/53/312 519/47/313 502/48/314
f 502/48/314 508/54/315 523/53/312
f 524/55/316 520/49/295 519/47/297
f 519/47/313 523/53/317 524/55/316
f 525/56/318 521/50/319 520/49/295
f 520/49/320 524/55/316 525/56/321
f 526/57/322 522/51/323 521/50/1032
f 521/50/324 525/56/1033 526/57/326
f 504/58/327 498/52/1034 522/51/329
f 522/51/329 526/57/330 504/58/327
f 527/59/331 523/53/312 508/54/332
f 508/54/333 514/60/1035 527/59/331
f 528/61/335 524/55/336 523/53/337
f 523/53/338 527/59/339 528/61/335
f 529/62/340 525/56/321 524/55/341
f 524/55/341 528/61/342 529/62/340
f 530/63/343 526/57/1036 525/56/345
f 525/56/346 529/62/347 530/63/343
f 510/64/348 504/58/349 526/57/344
f 526/57/344 530/63/826 510/64/348
f 531/65/351 532/66/359 533/67/1037
f 533/67/354 534/68/1038 531/65/1039
f 535/69/357 536/70/358 532/66/352
f 532/66/1040 531/65/351 535/69/357
f 537/71/360 538/72/361 536/70/362
f 536/70/362 535/69/363 537/71/364
f 539/73/365 540/74/366 538/72/367
f 538/72/361 537/71/364 539/73/368
f 541/75/369 531/65/351 534/68/370
f 534/68/1041 542/76/1042 541/75/372
f 543/77/373 535/69/1043 531/65/356
f 531/65/351 541/75/372 543/77/374
f 544/78/375 537/71/376 535/69/1044
f 535/69/363 543/77/377 544/78/378
f 545/79/1045 539/73/380 537/71/376
f 537/71/376 544/78/1046 545/79/382
f 546/80/383 541/75/384 542/76/385
f 542/76/385 547/81/387 546/80/406
f 548/82/389 543/77/390 541/75/372
f 541/75/372 546/80/383 548/82/391
f 549/83/392 544/78/1047 543/77/394
f 543/77/394 548/82/389 549/83/392
f 578/84/395 545/79/396 544/78/1048
f 544/78/397 549/83/398 578/84/399
f 550/85/400 546/80/388 547/81/401
f 547/81/402 551/86/403 550/85/400
f 552/87/408 548/82/405 546/80/383
f 546/80/388 550/85/1049 552/87/404
f 553/88/409 549/83/1050 548/82/1051
f 548/82/389 552/87/1052 553/88/1053
f 554/89/1054 578/84/1055 549/83/410
f 549/83/417 553/88/418 554/89/1056
f 584/90/1057 555/91/420 556/92/420
f 556/92/420 557/93/419 584/90/419
f 555/91/420 558/94/421 559/95/421
f 559/95/421 556/92/420 555/91/420
f 558/94/421 560/96/422 561/97/422
f 561/97/422 559/95/421 558/94/421
f 562/98/423 557/99/423 556/100/423
f 556/100/423 559/101/423 561/102/423
f 562/98/423 556/100/423 561/102/423
f 582/103/423 562/98/423 561/102/423
f 565/69/428 564/66/427 566/70/1058
f 564/66/425 565/69/428 563/65/429
f 567/71/430 566/70/426 568/72/431
f 566/70/426 567/71/430 565/69/424
f 569/73/432 568/72/433 570/74/434
f 568/72/435 569/73/436 567/71/437
f 572/77/438 563/65/439 565/69/424
f 563/65/439 572/77/1059 571/75/442
f 573/78/443 565/69/424 567/71/444
f 565/69/440 573/78/443 572/77/441
f 574/79/445 567/71/448 569/73/1060
f 567/71/448 574/79/445 573/78/449
f 576/82/450 571/75/451 572/77/452
f 571/75/451 576/82/454 575/80/455
f 577/83/456 572/77/452 573/78/443
f 572/77/441 577/83/457 576/82/458
f 578/84/459 573/78/449 574/79/461
f 573/78/460 578/84/459 577/83/462
f 579/87/463 575/80/1061 576/82/458
f 575/80/464 579/87/465 551/85/466
f 580/88/1062 576/82/1063 577/83/456
f 576/82/458 580/88/467 579/87/463
f 554/89/468 577/83/462 578/84/469
f 577/83/462 554/89/1064 580/88/472
f 560/90/473 581/91/474 582/92/474
f 582/92/474 561/93/473 560/90/473
f 581/91/474 583/94/475 562/95/475
f 562/95/475 582/92/474 581/91/474
f 583/94/475 584/96/476 557/97/476
f 557/97/476 562/95/475 583/94/475
