# Blender 5.2.0 LTS
# www.blender.org
o hangar_midorian_x2_shadow_alpha_WELDED
v 54.019871 -10.337363 -124.873192
v 62.851990 -10.337363 -124.873192
v 62.851990 -10.337363 -134.488007
v 54.019871 -10.337363 -134.488007
v 53.714794 -10.337363 -120.085854
v 61.998348 -10.337363 -120.085854
v 61.998348 -10.337363 -128.790802
v 53.714794 -10.337363 -128.790802
v 54.019871 -10.337363 -130.184998
v 62.851990 -10.337363 -130.184998
v 62.851990 -10.337363 -139.799805
v 54.019871 -10.337363 -139.799805
v 60.404724 -13.097465 -126.786560
v 60.404724 2.352505 -126.786560
v 60.404724 2.352506 -141.197540
v 60.404724 -13.097465 -141.197540
v 60.553349 -12.673632 -120.118126
v 60.553349 1.928673 -120.118126
v 60.553349 1.928674 -132.661774
v 60.553349 -12.673632 -132.661774
v 60.632000 -1.772483 -125.770096
v 60.632000 3.642607 -125.770096
v 60.632000 3.642607 -131.497726
v 60.632000 -1.772483 -131.497726
v -63.799431 -10.337363 -15.606469
v -63.798710 -10.337364 -6.774351
v -54.183895 -10.337364 -6.775132
v -54.184608 -10.337363 -15.607250
v -67.197342 -13.097465 -9.221338
v -67.197342 2.352505 -9.221337
v -52.786366 2.352505 -9.222509
v -52.786366 -13.097463 -9.222510
v -68.213791 -1.772483 -8.993979
v -68.213791 3.642606 -8.993979
v -62.486160 3.642606 -8.994448
v -62.486160 -1.772483 -8.994448
v -93.272858 -10.337363 -48.979092
v -102.104980 -10.337363 -48.979126
v -102.105011 -10.337362 -39.364311
v -93.272888 -10.337362 -39.364273
v -99.657692 -13.097464 -52.377548
v -99.657700 2.352506 -52.377552
v -99.657753 2.352505 -37.966576
v -99.657753 -13.097461 -37.966572
v -99.884972 -1.772484 -53.394016
v -99.884972 3.642606 -53.394016
v -99.884987 3.642606 -47.666389
v -99.884987 -1.772483 -47.666389
v -99.807693 -12.872460 -97.957169
v -99.807693 5.667503 -97.957176
v -99.807762 5.667502 -80.664001
v -99.807762 -12.872459 -80.663994
v -93.272858 -10.337363 -89.621376
v -102.104980 -10.337363 -89.621414
v -102.105011 -10.337361 -80.006599
v -93.272888 -10.337361 -80.006561
v -93.272858 -10.337364 -97.875160
v -102.104980 -10.337364 -97.875206
v -102.105011 -10.337363 -88.260391
v -93.272888 -10.337363 -88.260353
v -93.272858 -10.337363 -129.921173
v -102.104980 -10.337363 -129.921204
v -102.105011 -10.337362 -120.306396
v -93.272888 -10.337362 -120.306358
v -93.272858 -10.337363 -134.784836
v -102.104980 -10.337363 -134.784882
v -102.105011 -10.337362 -125.170059
v -93.272888 -10.337362 -125.170013
v -93.272858 -10.337363 -140.494843
v -102.104980 -10.337363 -140.494873
v -102.105011 -10.337362 -130.880051
v -93.272888 -10.337362 -130.880020
vn -0.0000 1.0000 -0.0000
vn -1.0000 -0.0000 -0.0000
vn -0.0001 -0.0000 -1.0000
vn 1.0000 -0.0000 -0.0000
vt 0.509067 0.426105
vt 0.536711 0.426105
vt 0.536711 0.460229
vt 0.509067 0.460229
s 0
f 1/1/1 2/2/1 3/3/1
f 3/3/1 4/4/1 1/1/1
f 5/1/1 6/2/1 7/3/1
f 7/3/1 8/4/1 5/1/1
f 9/1/1 10/2/1 11/3/1
f 11/3/1 12/4/1 9/1/1
f 13/1/2 14/2/2 15/3/2
f 15/3/2 16/4/2 13/1/2
f 17/1/2 18/2/2 19/3/2
f 19/3/2 20/4/2 17/1/2
f 21/1/2 22/2/2 23/3/2
f 23/3/2 24/4/2 21/1/2
f 25/1/1 26/2/1 27/3/1
f 27/3/1 28/4/1 25/1/1
f 29/1/3 30/2/3 31/3/3
f 31/3/3 32/4/3 29/1/3
f 33/1/3 34/2/3 35/3/3
f 35/3/3 36/4/3 33/1/3
f 37/1/1 38/2/1 39/3/1
f 39/3/1 40/4/1 37/1/1
f 41/1/4 42/2/4 43/3/4
f 43/3/4 44/4/4 41/1/4
f 45/1/4 46/2/4 47/3/4
f 47/3/4 48/4/4 45/1/4
f 49/1/4 50/2/4 51/3/4
f 51/3/4 52/4/4 49/1/4
f 53/1/1 54/2/1 55/3/1
f 55/3/1 56/4/1 53/1/1
f 57/1/1 58/2/1 59/3/1
f 59/3/1 60/4/1 57/1/1
f 61/1/1 62/2/1 63/3/1
f 63/3/1 64/4/1 61/1/1
f 65/1/1 66/2/1 67/3/1
f 67/3/1 68/4/1 65/1/1
f 69/1/1 70/2/1 71/3/1
f 71/3/1 72/4/1 69/1/1
