# Blender 5.2.0 LTS
# www.blender.org
o hangar_midorian_x5_shadow_alpha_WELDED
v -28.085793 -10.337366 -72.771973
v -23.667826 -10.337366 -72.771973
v -23.667826 -10.337365 -81.674034
v -28.085793 -10.337365 -81.674034
v -26.985405 -10.337365 -80.274719
v -23.777763 -10.337365 -80.274719
v -23.777763 -10.337365 -83.645538
v -26.985405 -10.337365 -83.645538
v -60.351028 -10.337366 -52.941208
v -61.508789 -10.337366 -48.677647
v -52.917831 -10.337366 -46.344795
v -51.760071 -10.337366 -50.608368
vn -0.0000 1.0000 -0.0000
vt 0.505765 0.426105
vt 0.536711 0.426105
vt 0.536711 0.460229
vt 0.505765 0.460229
s 0
f 1/1/1 2/2/1 3/3/1
f 3/3/1 4/4/1 1/1/1
f 5/1/1 6/2/1 7/3/1
f 7/3/1 8/4/1 5/1/1
f 9/1/1 10/2/1 11/3/1
f 11/3/1 12/4/1 9/1/1
