# Blender 5.2.0 LTS
# www.blender.org
o station_078_midorian_emissive.001_WELDED
v 14.379039 -1.738105 -45.565159
v 13.548412 -2.223652 -40.664364
v 14.134808 -1.685823 -40.664383
v -13.738783 -2.387127 -45.565521
v -13.555393 -2.223655 -40.667084
v -14.111496 1.702452 -40.666973
v 13.721450 2.367803 -45.565517
v 13.554166 2.223569 -40.664993
v -14.110571 -1.649799 -40.667122
v -14.399288 -1.737103 -45.565472
v -13.546144 2.223570 -40.666893
v -14.399137 1.718828 -45.565159
v -13.749108 2.368819 -45.565113
v 14.133617 1.665548 -40.664856
v 14.378895 1.717779 -45.565468
v 13.729069 -2.388139 -45.565113
vn -0.6753 0.7363 -0.0415
vn 0.7178 0.6944 -0.0500
vn 0.6772 -0.7346 -0.0422
vn -0.6930 -0.7196 -0.0448
vn 0.7004 0.7117 -0.0540
vn 0.7062 -0.7062 -0.0502
vn -0.7024 -0.7105 -0.0427
vn -0.7063 0.7062 -0.0497
vn -0.0001 -0.0000 1.0000
vn -0.9988 -0.0004 -0.0498
vn -0.9987 -0.0000 -0.0500
vn -0.0000 0.9994 -0.0334
vn 0.9983 0.0003 -0.0586
vn -0.0000 0.9994 -0.0335
vn 0.9983 -0.0000 -0.0588
vn -0.0000 -0.9996 -0.0294
vn -0.0000 -0.9996 -0.0296
vn 0.0001 -0.0001 -1.0000
vt 0.729212 0.055176
vt 0.729942 0.058280
vt 0.729212 0.058280
vt 0.729942 0.055176
vt 0.171080 0.458332
vt 0.171080 0.457915
vt 0.171003 0.458408
vt 0.171004 0.457839
vt 0.727068 0.055176
vt 0.727111 0.058280
vt 0.727801 0.058280
vt 0.727843 0.055176
vt 0.727071 0.055176
vt 0.727071 0.058280
vt 0.727055 0.055176
vt 0.727098 0.058280
vt 0.727788 0.058280
vt 0.727830 0.055176
vt 0.167979 0.457840
vt 0.167978 0.458408
vt 0.167902 0.457916
vt 0.167902 0.458332
s 0
f 1/1/1 2/2/1 3/3/1
f 4/1/2 9/2/2 5/3/2
f 12/1/3 11/2/3 6/3/3
f 7/1/4 14/2/4 8/3/4
f 9/2/5 4/1/5 10/4/5
f 11/2/6 12/1/6 13/4/6
f 14/2/7 7/1/7 15/4/7
f 2/2/8 1/1/8 16/4/8
f 6/5/9 9/6/9 11/7/9
f 5/8/9 11/7/9 9/6/9
f 1/9/10 3/10/10 14/11/10
f 14/11/11 15/12/11 1/9/11
f 4/13/12 5/14/12 2/2/12
f 12/15/13 6/16/13 9/17/13
f 2/2/14 16/4/14 4/13/14
f 9/17/15 10/18/15 12/15/15
f 7/13/16 8/14/16 11/2/16
f 11/2/17 13/4/17 7/13/17
f 2/19/18 8/20/18 3/21/18
f 3/21/18 8/20/18 14/22/18
f 5/8/18 8/20/18 2/19/18
f 5/8/9 8/20/9 11/7/9
