# Blender 5.2.0 LTS
# www.blender.org
o station_078_midorian_emissive
v 122.541679 0.551741 -5.195460
v 63.703533 0.550607 -5.195455
v 63.703533 5.503267 -5.195456
v 63.703533 5.503267 -5.195456
v 122.541679 5.503267 -5.195446
v 122.541679 0.551741 -5.195460
v 122.541679 0.554281 3.510775
v 122.541679 5.504763 3.510775
v 63.703514 5.505313 3.510766
v 63.703514 5.505313 3.510766
v 63.703533 0.553348 3.510765
v 122.541679 0.554281 3.510775
v 123.517479 5.504844 -5.195459
v 182.355637 5.505968 -5.195435
v 182.355637 0.553308 -5.195437
v 182.355637 0.553308 -5.195437
v 123.517479 0.553317 -5.195446
v 123.517479 5.504844 -5.195459
v 123.517479 5.502302 3.510775
v 123.517479 0.551821 3.510775
v 182.355667 0.551261 3.510785
v 182.355667 0.551261 3.510785
v 182.355637 5.503226 3.510785
v 123.517479 5.502302 3.510775
v 242.169586 0.552012 -5.195441
v 183.331406 0.550878 -5.195435
v 183.331406 5.503538 -5.195436
v 183.331406 5.503538 -5.195436
v 242.169586 5.503538 -5.195426
v 242.169586 0.552012 -5.195441
v 242.169586 0.554552 3.510794
v 242.169586 5.505034 3.510795
v 183.331375 5.505585 3.510785
v 183.331375 5.505585 3.510785
v 183.331406 0.553619 3.510785
v 242.169586 0.554552 3.510794
v 31.816093 67.106651 11.153229
v 31.856672 67.106651 -11.254863
v 31.856668 71.425888 -11.254869
v 31.856668 71.425888 -11.254869
v 31.816093 71.425888 11.153229
v 31.816093 67.106651 11.153229
v 33.257118 67.106651 -13.943786
v 33.401901 67.106651 -23.434849
v 33.401901 71.425888 -23.434849
v 33.401901 71.425888 -23.434849
v 33.257114 71.425888 -13.943788
v 33.257118 67.106651 -13.943786
v 33.401901 67.106651 -23.434849
v 23.405012 67.106651 -33.433926
v 23.405012 71.425888 -33.433929
v 23.405012 71.425888 -33.433929
v 33.401901 71.425888 -23.434849
v 33.401901 67.106651 -23.434849
v 23.405012 67.106651 -33.433926
v 13.912346 67.106667 -33.288822
v 13.912347 71.425888 -33.288818
v 13.912347 71.425888 -33.288818
v 23.405012 71.425888 -33.433929
v 23.405012 67.106651 -33.433926
v 11.213545 67.106651 -31.891781
v -11.196274 67.106628 -31.944109
v -11.196262 71.425888 -31.944111
v -11.196262 71.425888 -31.944111
v 11.213545 71.425888 -31.891777
v 11.213545 67.106651 -31.891781
v -31.831879 67.106628 -11.302385
v -31.870819 67.106651 11.118025
v -31.870817 71.425888 11.118019
v -31.870817 71.425888 11.118019
v -31.831882 71.425888 -11.302387
v -31.831879 67.106628 -11.302385
v -11.228687 67.106651 31.754812
v 11.179428 67.106651 31.795372
v 11.179428 71.425888 31.795372
v 11.179428 71.425888 31.795372
v -11.228687 71.425888 31.754812
v -11.228687 67.106651 31.754812
v -13.883909 67.106651 -33.344414
v -23.374969 67.106651 -33.489193
v -23.374969 71.425888 -33.489193
v -23.374969 71.425888 -33.489193
v -13.883909 71.425888 -33.344414
v -13.883909 67.106651 -33.344414
v -23.374969 67.106651 -33.489193
v -33.374050 67.106651 -23.492308
v -33.374050 71.425888 -23.492308
v -33.374050 71.425888 -23.492308
v -23.374969 71.425888 -33.489193
v -23.374969 67.106651 -33.489193
v -33.374050 67.106651 -23.492308
v -33.228943 67.106667 -13.999641
v -33.228939 71.425888 -13.999644
v -33.228939 71.425888 -13.999644
v -33.374050 71.425888 -23.492308
v -33.374050 67.106651 -23.492308
v -33.271336 67.106651 13.806772
v -33.416111 67.106651 23.297832
v -33.416111 71.425888 23.297832
v -33.416111 71.425888 23.297832
v -33.271336 71.425888 13.806772
v -33.271336 67.106651 13.806772
v -33.416111 67.106651 23.297832
v -23.419226 67.106651 33.296913
v -23.419226 71.425888 33.296917
v -23.419226 71.425888 33.296917
v -33.416111 71.425888 23.297832
v -33.416111 67.106651 23.297832
v -23.419226 67.106651 33.296913
v -13.926559 67.106667 33.151806
v -13.926562 71.425888 33.151802
v -13.926562 71.425888 33.151802
v -23.419226 71.425888 33.296917
v -23.419226 67.106651 33.296913
v 13.868135 67.106651 33.195686
v 23.359194 67.106651 33.340462
v 23.359194 71.425888 33.340462
v 23.359194 71.425888 33.340462
v 13.868135 71.425888 33.195686
v 13.868135 67.106651 33.195686
v 23.359194 67.106651 33.340462
v 33.358276 67.106651 23.343575
v 33.358280 71.425888 23.343575
v 33.358280 71.425888 23.343575
v 23.359194 71.425888 33.340462
v 23.359194 67.106651 33.340462
v 33.358276 67.106651 23.343575
v 33.213169 67.106667 13.850908
v 33.213161 71.425888 13.850911
v 33.213161 71.425888 13.850911
v 33.358280 71.425888 23.343575
v 33.358276 67.106651 23.343575
v 22.648506 185.056366 -31.932665
v 31.886902 185.053299 -22.688007
v 31.888102 180.437958 -22.682989
v 31.888102 180.437958 -22.682989
v 22.647480 180.441055 -31.922174
v 22.648506 185.056366 -31.932665
v 31.886902 185.053299 -22.688007
v 31.847160 185.055679 -13.506501
v 31.847124 180.434189 -13.506502
v 31.847124 180.434189 -13.506502
v 31.888102 180.437958 -22.682989
v 31.886902 185.053299 -22.688007
v 31.847160 185.055679 -13.506501
v 30.511015 185.053741 -11.887720
v 30.516510 180.432266 -11.887389
v 30.516510 180.432266 -11.887389
v 31.847124 180.434189 -13.506502
v 31.847160 185.055679 -13.506501
v -11.102105 185.047028 -26.972483
v 11.114288 185.059891 -26.952555
v 11.115443 180.444565 -26.942575
v 11.115443 180.444565 -26.942575
v -11.101193 180.433258 -26.978882
v -11.102105 185.047028 -26.972483
v 11.114288 185.059891 -26.952555
v 11.848886 185.059769 -30.556393
v 11.849558 180.438293 -30.545397
v 11.849558 180.438293 -30.545397
v 11.115443 180.444565 -26.942575
v 11.114288 185.059891 -26.952555
v 11.848886 185.059769 -30.556393
v 13.466066 185.059784 -31.889965
v 13.467109 180.438309 -31.879879
v 13.467109 180.438309 -31.879879
v 11.849558 180.438293 -30.545397
v 11.848886 185.059769 -30.556393
v 13.466066 185.059784 -31.889965
v 22.648506 185.056366 -31.932665
v 22.647480 180.441055 -31.922174
v 22.647480 180.441055 -31.922174
v 13.467109 180.438309 -31.879879
v 13.466066 185.059784 -31.889965
v 26.897358 180.433258 -11.161800
v 30.516510 180.432266 -11.887389
v 30.511015 185.053741 -11.887720
v 30.511015 185.053741 -11.887720
v 26.890959 185.047043 -11.162710
v 26.897358 180.433258 -11.161800
v -31.872833 185.056320 -22.735920
v -22.628176 185.053253 -31.974300
v -22.623146 180.437927 -31.975504
v -22.623146 180.437927 -31.975504
v -31.862345 180.441010 -22.734892
v -31.872833 185.056320 -22.735920
v -22.628176 185.053253 -31.974300
v -13.446667 185.055634 -31.934574
v -13.446667 180.434158 -31.934536
v -13.446667 180.434158 -31.934536
v -22.623146 180.437927 -31.975504
v -22.628176 185.053253 -31.974300
v -13.446667 185.055634 -31.934574
v -11.827887 185.053711 -30.598425
v -11.827551 180.432220 -30.603920
v -11.827551 180.432220 -30.603920
v -13.446667 180.434158 -31.934536
v -13.446667 185.055634 -31.934574
v -26.906010 185.047028 11.019828
v -26.892729 185.059860 -11.201698
v -26.882744 180.444534 -11.202867
v -26.882744 180.444534 -11.202867
v -26.912399 180.433243 11.018915
v -26.906010 185.047028 11.019828
v -26.892729 185.059860 -11.201698
v -30.496559 185.059738 -11.936299
v -30.485565 180.438278 -11.936963
v -30.485565 180.438278 -11.936963
v -26.882744 180.444534 -11.202867
v -26.892729 185.059860 -11.201698
v -30.496559 185.059738 -11.936299
v -31.830133 185.059738 -13.553482
v -31.820044 180.438278 -13.554517
v -31.820044 180.438278 -13.554517
v -30.485565 180.438278 -11.936963
v -30.496559 185.059738 -11.936299
v -31.830133 185.059738 -13.553482
v -31.872833 185.056320 -22.735920
v -31.862345 180.441010 -22.734892
v -31.862345 180.441010 -22.734892
v -31.820044 180.438278 -13.554517
v -31.830133 185.059738 -13.553482
v -11.101193 180.433258 -26.978882
v -11.827551 180.432220 -30.603920
v -11.827887 185.053711 -30.598425
v -11.827887 185.053711 -30.598425
v -11.102105 185.047028 -26.972483
v -11.101193 180.433258 -26.978882
v -22.662781 185.056351 31.795675
v -31.901184 185.053284 22.551003
v -31.902384 180.437943 22.545980
v -31.902384 180.437943 22.545980
v -22.661757 180.441025 31.785185
v -22.662781 185.056351 31.795675
v -31.901184 185.053284 22.551003
v -31.861443 185.055664 13.369502
v -31.861406 180.434174 13.369502
v -31.861406 180.434174 13.369502
v -31.902384 180.437943 22.545980
v -31.901184 185.053284 22.551003
v -31.861443 185.055664 13.369502
v -30.525303 185.053726 11.750723
v -30.530798 180.432236 11.750393
v -30.530798 180.432236 11.750393
v -31.861406 180.434174 13.369502
v -31.861443 185.055664 13.369502
v 11.087088 185.047028 26.829605
v -11.128580 185.059875 26.815569
v -11.129736 180.444550 26.805580
v -11.129736 180.444550 26.805580
v 11.086174 180.433258 26.836000
v 11.087088 185.047028 26.829605
v -11.128580 185.059875 26.815569
v -11.863161 185.059769 30.419397
v -11.863832 180.438278 30.408400
v -11.863832 180.438278 30.408400
v -11.129736 180.444550 26.805580
v -11.128580 185.059875 26.815569
v -11.863161 185.059769 30.419397
v -13.480342 185.059769 31.752966
v -13.481384 180.438293 31.742878
v -13.481384 180.438293 31.742878
v -11.863832 180.438278 30.408400
v -11.863161 185.059769 30.419397
v -13.480342 185.059769 31.752966
v -22.662781 185.056351 31.795675
v -22.661757 180.441025 31.785185
v -22.661757 180.441025 31.785185
v -13.481384 180.438293 31.742878
v -13.480342 185.059769 31.752966
v -26.912399 180.433243 11.018915
v -30.530798 180.432236 11.750393
v -30.525303 185.053726 11.750723
v -30.525303 185.053726 11.750723
v -26.906010 185.047028 11.019828
v -26.912399 180.433243 11.018915
v 31.857042 185.056351 22.587139
v 22.612362 185.053284 31.825529
v 22.607334 180.437943 31.826731
v 22.607334 180.437943 31.826731
v 31.846554 180.441025 22.586111
v 31.857042 185.056351 22.587139
v 22.612362 185.053284 31.825529
v 13.430856 185.055664 31.785805
v 13.430856 180.434174 31.785769
v 13.430856 180.434174 31.785769
v 22.607334 180.437943 31.826731
v 22.612362 185.053284 31.825529
v 13.430856 185.055664 31.785805
v 11.812075 185.053726 30.449659
v 11.811741 180.432236 30.455156
v 11.811741 180.432236 30.455156
v 13.430856 180.434174 31.785769
v 13.430856 185.055664 31.785805
v 26.890959 185.047043 -11.162710
v 26.876923 185.059875 11.052921
v 26.866947 180.444550 11.054090
v 26.866947 180.444550 11.054090
v 26.897358 180.433258 -11.161800
v 26.890959 185.047043 -11.162710
v 26.876923 185.059875 11.052921
v 30.480761 185.059769 11.787527
v 30.469770 180.438278 11.788191
v 30.469770 180.438278 11.788191
v 26.866947 180.444550 11.054090
v 26.876923 185.059875 11.052921
v 30.480761 185.059769 11.787527
v 31.814335 185.059769 13.404710
v 31.804239 180.438293 13.405747
v 31.804239 180.438293 13.405747
v 30.469770 180.438278 11.788191
v 30.480761 185.059769 11.787527
v 31.814335 185.059769 13.404710
v 31.857042 185.056351 22.587139
v 31.846554 180.441025 22.586111
v 31.846554 180.441025 22.586111
v 31.804239 180.438293 13.405747
v 31.814335 185.059769 13.404710
v 11.086174 180.433258 26.836000
v 11.811741 180.432236 30.455156
v 11.812075 185.053726 30.449659
v 11.812075 185.053726 30.449659
v 11.087088 185.047028 26.829605
v 11.086174 180.433258 26.836000
v 21.810390 -121.804840 -57.538445
v -21.704672 -121.804840 -57.541931
v -21.704672 -118.438744 -57.541931
v -21.704672 -118.438744 -57.541931
v 21.810390 -118.438744 -57.538445
v 21.810390 -121.804840 -57.538445
v -25.124208 -121.804840 -56.125507
v -55.905777 -121.804840 -25.363728
v -55.905777 -118.438744 -25.363728
v -55.905777 -118.438744 -25.363728
v -25.124208 -118.438744 -56.125507
v -25.124208 -121.804840 -56.125507
v 57.405174 -121.804840 21.575783
v 57.408661 -121.804840 -21.939285
v 57.408661 -118.438744 -21.939285
v 57.408661 -118.438744 -21.939285
v 57.405174 -118.438744 21.575783
v 57.405174 -121.804840 21.575783
v 55.992233 -121.804840 -25.358816
v 25.230459 -121.804840 -56.140388
v 25.219980 -118.438744 -56.126141
v 25.219980 -118.438744 -56.126141
v 55.992233 -118.438744 -25.358816
v 55.992233 -121.804840 -25.358816
v -57.303837 -121.804840 -21.943661
v -57.307312 -121.804840 21.571407
v -57.307312 -118.438744 21.571407
v -57.307312 -118.438744 21.571407
v -57.303837 -118.438744 -21.943661
v -57.303837 -121.804840 -21.943661
v -55.890896 -121.804840 24.990938
v -25.129120 -121.804840 55.772499
v -25.129120 -118.438744 55.772499
v -25.129120 -118.438744 55.772499
v -55.890896 -118.438744 24.990938
v -55.890896 -121.804840 24.990938
v -21.709042 -121.804840 57.170567
v 21.806025 -121.804840 57.174084
v 21.806025 -118.438744 57.174084
v 21.806025 -118.438744 57.174084
v -21.709042 -118.438744 57.170567
v -21.709042 -121.804840 57.170567
v 25.225565 -121.804840 55.757637
v 56.007118 -121.804840 24.995840
v 56.007118 -118.438744 24.995840
v 56.007118 -118.438744 24.995840
v 25.225565 -118.438744 55.757637
v 25.225565 -121.804840 55.757637
v 122.541679 0.551741 -5.195460
v 63.703533 0.550607 -5.195455
v 63.703533 5.503267 -5.195456
v 63.703533 5.503267 -5.195456
v 122.541679 5.503267 -5.195446
v 122.541679 0.551741 -5.195460
v 122.541679 0.554281 3.510775
v 122.541679 5.504763 3.510775
v 63.703514 5.505313 3.510766
v 63.703514 5.505313 3.510766
v 63.703533 0.553348 3.510765
v 122.541679 0.554281 3.510775
v 123.517479 5.504844 -5.195459
v 182.355637 5.505968 -5.195435
v 182.355637 0.553308 -5.195437
v 182.355637 0.553308 -5.195437
v 123.517479 0.553317 -5.195446
v 123.517479 5.504844 -5.195459
v 123.517479 5.502302 3.510775
v 123.517479 0.551821 3.510775
v 182.355667 0.551261 3.510785
v 182.355667 0.551261 3.510785
v 182.355637 5.503226 3.510785
v 123.517479 5.502302 3.510775
v 242.169586 0.552012 -5.195441
v 183.331406 0.550878 -5.195435
v 183.331406 5.503538 -5.195436
v 183.331406 5.503538 -5.195436
v 242.169586 5.503538 -5.195426
v 242.169586 0.552012 -5.195441
v 242.169586 0.554552 3.510794
v 242.169586 5.505034 3.510795
v 183.331375 5.505585 3.510785
v 183.331375 5.505585 3.510785
v 183.331406 0.553619 3.510785
v 242.169586 0.554552 3.510794
v 31.816093 67.106651 11.153229
v 31.856672 67.106651 -11.254863
v 31.856668 71.425888 -11.254869
v 31.856668 71.425888 -11.254869
v 31.816093 71.425888 11.153229
v 31.816093 67.106651 11.153229
v 33.257118 67.106651 -13.943786
v 33.401901 67.106651 -23.434849
v 33.401901 71.425888 -23.434849
v 33.401901 71.425888 -23.434849
v 33.257114 71.425888 -13.943788
v 33.257118 67.106651 -13.943786
v 33.401901 67.106651 -23.434849
v 23.405012 67.106651 -33.433926
v 23.405012 71.425888 -33.433929
v 23.405012 71.425888 -33.433929
v 33.401901 71.425888 -23.434849
v 33.401901 67.106651 -23.434849
v 23.405012 67.106651 -33.433926
v 13.912346 67.106667 -33.288822
v 13.912347 71.425888 -33.288818
v 13.912347 71.425888 -33.288818
v 23.405012 71.425888 -33.433929
v 23.405012 67.106651 -33.433926
v 11.213545 67.106651 -31.891781
v -11.196274 67.106628 -31.944109
v -11.196262 71.425888 -31.944111
v -11.196262 71.425888 -31.944111
v 11.213545 71.425888 -31.891777
v 11.213545 67.106651 -31.891781
v -31.831879 67.106628 -11.302385
v -31.870819 67.106651 11.118025
v -31.870817 71.425888 11.118019
v -31.870817 71.425888 11.118019
v -31.831882 71.425888 -11.302387
v -31.831879 67.106628 -11.302385
v -11.228687 67.106651 31.754812
v 11.179428 67.106651 31.795372
v 11.179428 71.425888 31.795372
v 11.179428 71.425888 31.795372
v -11.228687 71.425888 31.754812
v -11.228687 67.106651 31.754812
v -13.883909 67.106651 -33.344414
v -23.374969 67.106651 -33.489193
v -23.374969 71.425888 -33.489193
v -23.374969 71.425888 -33.489193
v -13.883909 71.425888 -33.344414
v -13.883909 67.106651 -33.344414
v -23.374969 67.106651 -33.489193
v -33.374050 67.106651 -23.492308
v -33.374050 71.425888 -23.492308
v -33.374050 71.425888 -23.492308
v -23.374969 71.425888 -33.489193
v -23.374969 67.106651 -33.489193
v -33.374050 67.106651 -23.492308
v -33.228943 67.106667 -13.999641
v -33.228939 71.425888 -13.999644
v -33.228939 71.425888 -13.999644
v -33.374050 71.425888 -23.492308
v -33.374050 67.106651 -23.492308
v -33.271336 67.106651 13.806772
v -33.416111 67.106651 23.297832
v -33.416111 71.425888 23.297832
v -33.416111 71.425888 23.297832
v -33.271336 71.425888 13.806772
v -33.271336 67.106651 13.806772
v -33.416111 67.106651 23.297832
v -23.419226 67.106651 33.296913
v -23.419226 71.425888 33.296917
v -23.419226 71.425888 33.296917
v -33.416111 71.425888 23.297832
v -33.416111 67.106651 23.297832
v -23.419226 67.106651 33.296913
v -13.926559 67.106667 33.151806
v -13.926562 71.425888 33.151802
v -13.926562 71.425888 33.151802
v -23.419226 71.425888 33.296917
v -23.419226 67.106651 33.296913
v 13.868135 67.106651 33.195686
v 23.359194 67.106651 33.340462
v 23.359194 71.425888 33.340462
v 23.359194 71.425888 33.340462
v 13.868135 71.425888 33.195686
v 13.868135 67.106651 33.195686
v 23.359194 67.106651 33.340462
v 33.358276 67.106651 23.343575
v 33.358280 71.425888 23.343575
v 33.358280 71.425888 23.343575
v 23.359194 71.425888 33.340462
v 23.359194 67.106651 33.340462
v 33.358276 67.106651 23.343575
v 33.213169 67.106667 13.850908
v 33.213161 71.425888 13.850911
v 33.213161 71.425888 13.850911
v 33.358280 71.425888 23.343575
v 33.358276 67.106651 23.343575
v 22.648506 185.056366 -31.932665
v 31.886902 185.053299 -22.688007
v 31.888102 180.437958 -22.682989
v 31.888102 180.437958 -22.682989
v 22.647480 180.441055 -31.922174
v 22.648506 185.056366 -31.932665
v 31.886902 185.053299 -22.688007
v 31.847160 185.055679 -13.506501
v 31.847124 180.434189 -13.506502
v 31.847124 180.434189 -13.506502
v 31.888102 180.437958 -22.682989
v 31.886902 185.053299 -22.688007
v 31.847160 185.055679 -13.506501
v 30.511015 185.053741 -11.887720
v 30.516510 180.432266 -11.887389
v 30.516510 180.432266 -11.887389
v 31.847124 180.434189 -13.506502
v 31.847160 185.055679 -13.506501
v -11.102105 185.047028 -26.972483
v 11.114288 185.059891 -26.952555
v 11.115443 180.444565 -26.942575
v 11.115443 180.444565 -26.942575
v -11.101193 180.433258 -26.978882
v -11.102105 185.047028 -26.972483
v 11.114288 185.059891 -26.952555
v 11.848886 185.059769 -30.556393
v 11.849558 180.438293 -30.545397
v 11.849558 180.438293 -30.545397
v 11.115443 180.444565 -26.942575
v 11.114288 185.059891 -26.952555
v 11.848886 185.059769 -30.556393
v 13.466066 185.059784 -31.889965
v 13.467109 180.438309 -31.879879
v 13.467109 180.438309 -31.879879
v 11.849558 180.438293 -30.545397
v 11.848886 185.059769 -30.556393
v 13.466066 185.059784 -31.889965
v 22.648506 185.056366 -31.932665
v 22.647480 180.441055 -31.922174
v 22.647480 180.441055 -31.922174
v 13.467109 180.438309 -31.879879
v 13.466066 185.059784 -31.889965
v 26.897358 180.433258 -11.161800
v 30.516510 180.432266 -11.887389
v 30.511015 185.053741 -11.887720
v 30.511015 185.053741 -11.887720
v 26.890959 185.047043 -11.162710
v 26.897358 180.433258 -11.161800
v -31.872833 185.056320 -22.735920
v -22.628176 185.053253 -31.974300
v -22.623146 180.437927 -31.975504
v -22.623146 180.437927 -31.975504
v -31.862345 180.441010 -22.734892
v -31.872833 185.056320 -22.735920
v -22.628176 185.053253 -31.974300
v -13.446667 185.055634 -31.934574
v -13.446667 180.434158 -31.934536
v -13.446667 180.434158 -31.934536
v -22.623146 180.437927 -31.975504
v -22.628176 185.053253 -31.974300
v -13.446667 185.055634 -31.934574
v -11.827887 185.053711 -30.598425
v -11.827551 180.432220 -30.603920
v -11.827551 180.432220 -30.603920
v -13.446667 180.434158 -31.934536
v -13.446667 185.055634 -31.934574
v -26.906010 185.047028 11.019828
v -26.892729 185.059860 -11.201698
v -26.882744 180.444534 -11.202867
v -26.882744 180.444534 -11.202867
v -26.912399 180.433243 11.018915
v -26.906010 185.047028 11.019828
v -26.892729 185.059860 -11.201698
v -30.496559 185.059738 -11.936299
v -30.485565 180.438278 -11.936963
v -30.485565 180.438278 -11.936963
v -26.882744 180.444534 -11.202867
v -26.892729 185.059860 -11.201698
v -30.496559 185.059738 -11.936299
v -31.830133 185.059738 -13.553482
v -31.820044 180.438278 -13.554517
v -31.820044 180.438278 -13.554517
v -30.485565 180.438278 -11.936963
v -30.496559 185.059738 -11.936299
v -31.830133 185.059738 -13.553482
v -31.872833 185.056320 -22.735920
v -31.862345 180.441010 -22.734892
v -31.862345 180.441010 -22.734892
v -31.820044 180.438278 -13.554517
v -31.830133 185.059738 -13.553482
v -11.101193 180.433258 -26.978882
v -11.827551 180.432220 -30.603920
v -11.827887 185.053711 -30.598425
v -11.827887 185.053711 -30.598425
v -11.102105 185.047028 -26.972483
v -11.101193 180.433258 -26.978882
v -22.662781 185.056351 31.795675
v -31.901184 185.053284 22.551003
v -31.902384 180.437943 22.545980
v -31.902384 180.437943 22.545980
v -22.661757 180.441025 31.785185
v -22.662781 185.056351 31.795675
v -31.901184 185.053284 22.551003
v -31.861443 185.055664 13.369502
v -31.861406 180.434174 13.369502
v -31.861406 180.434174 13.369502
v -31.902384 180.437943 22.545980
v -31.901184 185.053284 22.551003
v -31.861443 185.055664 13.369502
v -30.525303 185.053726 11.750723
v -30.530798 180.432236 11.750393
v -30.530798 180.432236 11.750393
v -31.861406 180.434174 13.369502
v -31.861443 185.055664 13.369502
v 11.087088 185.047028 26.829605
v -11.128580 185.059875 26.815569
v -11.129736 180.444550 26.805580
v -11.129736 180.444550 26.805580
v 11.086174 180.433258 26.836000
v 11.087088 185.047028 26.829605
v -11.128580 185.059875 26.815569
v -11.863161 185.059769 30.419397
v -11.863832 180.438278 30.408400
v -11.863832 180.438278 30.408400
v -11.129736 180.444550 26.805580
v -11.128580 185.059875 26.815569
v -11.863161 185.059769 30.419397
v -13.480342 185.059769 31.752966
v -13.481384 180.438293 31.742878
v -13.481384 180.438293 31.742878
v -11.863832 180.438278 30.408400
v -11.863161 185.059769 30.419397
v -13.480342 185.059769 31.752966
v -22.662781 185.056351 31.795675
v -22.661757 180.441025 31.785185
v -22.661757 180.441025 31.785185
v -13.481384 180.438293 31.742878
v -13.480342 185.059769 31.752966
v -26.912399 180.433243 11.018915
v -30.530798 180.432236 11.750393
v -30.525303 185.053726 11.750723
v -30.525303 185.053726 11.750723
v -26.906010 185.047028 11.019828
v -26.912399 180.433243 11.018915
v 31.857042 185.056351 22.587139
v 22.612362 185.053284 31.825529
v 22.607334 180.437943 31.826731
v 22.607334 180.437943 31.826731
v 31.846554 180.441025 22.586111
v 31.857042 185.056351 22.587139
v 22.612362 185.053284 31.825529
v 13.430856 185.055664 31.785805
v 13.430856 180.434174 31.785769
v 13.430856 180.434174 31.785769
v 22.607334 180.437943 31.826731
v 22.612362 185.053284 31.825529
v 13.430856 185.055664 31.785805
v 11.812075 185.053726 30.449659
v 11.811741 180.432236 30.455156
v 11.811741 180.432236 30.455156
v 13.430856 180.434174 31.785769
v 13.430856 185.055664 31.785805
v 26.890959 185.047043 -11.162710
v 26.876923 185.059875 11.052921
v 26.866947 180.444550 11.054090
v 26.866947 180.444550 11.054090
v 26.897358 180.433258 -11.161800
v 26.890959 185.047043 -11.162710
v 26.876923 185.059875 11.052921
v 30.480761 185.059769 11.787527
v 30.469770 180.438278 11.788191
v 30.469770 180.438278 11.788191
v 26.866947 180.444550 11.054090
v 26.876923 185.059875 11.052921
v 30.480761 185.059769 11.787527
v 31.814335 185.059769 13.404710
v 31.804239 180.438293 13.405747
v 31.804239 180.438293 13.405747
v 30.469770 180.438278 11.788191
v 30.480761 185.059769 11.787527
v 31.814335 185.059769 13.404710
v 31.857042 185.056351 22.587139
v 31.846554 180.441025 22.586111
v 31.846554 180.441025 22.586111
v 31.804239 180.438293 13.405747
v 31.814335 185.059769 13.404710
v 11.086174 180.433258 26.836000
v 11.811741 180.432236 30.455156
v 11.812075 185.053726 30.449659
v 11.812075 185.053726 30.449659
v 11.087088 185.047028 26.829605
v 11.086174 180.433258 26.836000
v 21.810390 -121.804840 -57.538445
v -21.704672 -121.804840 -57.541931
v -21.704672 -118.438744 -57.541931
v -21.704672 -118.438744 -57.541931
v 21.810390 -118.438744 -57.538445
v 21.810390 -121.804840 -57.538445
v -25.124208 -121.804840 -56.125507
v -55.905777 -121.804840 -25.363728
v -55.905777 -118.438744 -25.363728
v -55.905777 -118.438744 -25.363728
v -25.124208 -118.438744 -56.125507
v -25.124208 -121.804840 -56.125507
v 57.405174 -121.804840 21.575783
v 57.408661 -121.804840 -21.939285
v 57.408661 -118.438744 -21.939285
v 57.408661 -118.438744 -21.939285
v 57.405174 -118.438744 21.575783
v 57.405174 -121.804840 21.575783
v 55.992233 -121.804840 -25.358816
v 25.230459 -121.804840 -56.140388
v 25.219980 -118.438744 -56.126141
v 25.219980 -118.438744 -56.126141
v 55.992233 -118.438744 -25.358816
v 55.992233 -121.804840 -25.358816
v -57.303837 -121.804840 -21.943661
v -57.307312 -121.804840 21.571407
v -57.307312 -118.438744 21.571407
v -57.307312 -118.438744 21.571407
v -57.303837 -118.438744 -21.943661
v -57.303837 -121.804840 -21.943661
v -55.890896 -121.804840 24.990938
v -25.129120 -121.804840 55.772499
v -25.129120 -118.438744 55.772499
v -25.129120 -118.438744 55.772499
v -55.890896 -118.438744 24.990938
v -55.890896 -121.804840 24.990938
v -21.709042 -121.804840 57.170567
v 21.806025 -121.804840 57.174084
v 21.806025 -118.438744 57.174084
v 21.806025 -118.438744 57.174084
v -21.709042 -118.438744 57.170567
v -21.709042 -121.804840 57.170567
v 25.225565 -121.804840 55.757637
v 56.007118 -121.804840 24.995840
v 56.007118 -118.438744 24.995840
v 56.007118 -118.438744 24.995840
v 25.225565 -118.438744 55.757637
v 25.225565 -121.804840 55.757637
vn -0.0000 -0.0000 -1.0000
vn -0.0000 -0.0000 1.0000
vn 1.0000 -0.0000 0.0018
vn 0.9999 -0.0000 0.0153
vn 0.7072 -0.0000 -0.7070
vn -0.0153 -0.0000 -0.9999
vn 0.0023 -0.0000 -1.0000
vn -1.0000 -0.0000 -0.0017
vn -0.0018 -0.0000 1.0000
vn 0.0153 -0.0000 -0.9999
vn -0.7070 -0.0000 -0.7072
vn -0.9999 -0.0000 0.0153
vn -0.9999 -0.0000 -0.0153
vn -0.7072 -0.0000 0.7070
vn 0.0153 -0.0000 0.9999
vn -0.0153 -0.0000 0.9999
vn 0.7070 -0.0000 0.7072
vn 0.9999 -0.0000 -0.0153
vn 0.3804 -0.0021 -0.9248
vn 0.9247 -0.0002 -0.3808
vn 0.9249 -0.0003 -0.3802
vn 0.9249 -0.0003 -0.3803
vn 0.3807 -0.0022 -0.9247
vn 0.3804 -0.0020 -0.9248
vn 0.9247 -0.0001 -0.3806
vn 0.9405 0.0004 0.3398
vn 0.9407 -0.0000 0.3393
vn 0.9407 0.0001 0.3393
vn 0.9249 -0.0003 -0.3801
vn 0.9247 -0.0002 -0.3806
vn 0.9404 0.0003 0.3400
vn 0.5137 0.0007 0.8580
vn 0.5144 0.0003 0.8576
vn 0.5144 0.0003 0.8575
vn 0.9406 -0.0000 0.3395
vn 0.9404 0.0004 0.3400
vn 0.0015 0.0009 -1.0000
vn 0.0009 -0.0022 -1.0000
vn 0.0010 -0.0016 -1.0000
vn 0.0016 0.0014 -1.0000
vn 0.0016 0.0011 -1.0000
vn -0.9799 -0.0006 -0.1997
vn -0.8570 -0.0013 -0.5154
vn -0.8573 -0.0014 -0.5148
vn -0.8573 -0.0012 -0.5147
vn -0.9799 -0.0007 -0.1997
vn -0.8569 -0.0014 -0.5155
vn -0.3402 -0.0022 -0.9404
vn -0.3405 -0.0022 -0.9403
vn -0.8573 -0.0013 -0.5149
vn -0.8569 -0.0013 -0.5155
vn -0.3400 -0.0021 -0.9404
vn 0.3803 -0.0021 -0.9249
vn 0.3806 -0.0022 -0.9248
vn 0.3806 -0.0021 -0.9248
vn -0.3403 -0.0022 -0.9403
vn 0.1966 0.0003 0.9805
vn 0.5143 0.0003 0.8576
vn 0.5135 0.0007 0.8581
vn 0.1964 0.0005 0.9805
vn -0.9248 -0.0021 -0.3804
vn -0.3808 -0.0002 -0.9247
vn -0.3802 -0.0003 -0.9249
vn -0.3803 -0.0003 -0.9249
vn -0.9247 -0.0022 -0.3807
vn -0.9248 -0.0020 -0.3804
vn -0.3806 -0.0001 -0.9247
vn 0.3398 0.0003 -0.9405
vn 0.3393 -0.0000 -0.9407
vn 0.3393 0.0001 -0.9407
vn -0.3801 -0.0003 -0.9249
vn -0.3806 -0.0002 -0.9247
vn 0.3400 0.0003 -0.9404
vn 0.8580 0.0007 -0.5136
vn 0.8576 0.0003 -0.5144
vn 0.3395 -0.0000 -0.9406
vn 0.3400 0.0004 -0.9404
vn -1.0000 0.0009 -0.0012
vn -1.0000 -0.0022 -0.0006
vn -1.0000 -0.0017 -0.0007
vn -1.0000 0.0014 -0.0013
vn -1.0000 0.0007 -0.0012
vn -0.1997 -0.0006 0.9799
vn -0.5154 -0.0013 0.8570
vn -0.5148 -0.0014 0.8573
vn -0.5147 -0.0014 0.8574
vn -0.1997 -0.0007 0.9799
vn -0.5155 -0.0014 0.8569
vn -0.9404 -0.0022 0.3402
vn -0.9403 -0.0022 0.3404
vn -0.9402 -0.0022 0.3405
vn -0.5149 -0.0013 0.8573
vn -0.5155 -0.0013 0.8569
vn -0.9404 -0.0021 0.3400
vn -0.9249 -0.0021 -0.3803
vn -0.9248 -0.0022 -0.3806
vn -0.9403 -0.0022 0.3403
vn 0.9805 0.0003 -0.1965
vn 0.8577 0.0003 -0.5142
vn 0.8581 0.0007 -0.5135
vn 0.9805 0.0005 -0.1963
vn -0.3804 -0.0021 0.9248
vn -0.9247 -0.0002 0.3808
vn -0.9249 -0.0003 0.3802
vn -0.9249 -0.0003 0.3803
vn -0.3807 -0.0022 0.9247
vn -0.3804 -0.0020 0.9248
vn -0.9247 -0.0001 0.3806
vn -0.9405 0.0003 -0.3398
vn -0.9407 -0.0000 -0.3393
vn -0.9249 -0.0003 0.3801
vn -0.9247 -0.0002 0.3806
vn -0.9404 0.0004 -0.3400
vn -0.5143 0.0007 -0.8576
vn -0.5151 0.0003 -0.8571
vn -0.9406 -0.0000 -0.3395
vn -0.0013 0.0009 1.0000
vn -0.0006 -0.0022 1.0000
vn -0.0007 -0.0017 1.0000
vn -0.0014 0.0014 1.0000
vn 0.9799 -0.0006 0.1997
vn 0.8570 -0.0013 0.5154
vn 0.8573 -0.0014 0.5148
vn 0.8574 -0.0012 0.5147
vn 0.9799 -0.0007 0.1997
vn 0.8569 -0.0014 0.5155
vn 0.3402 -0.0022 0.9404
vn 0.3404 -0.0022 0.9403
vn 0.3405 -0.0021 0.9403
vn 0.8573 -0.0013 0.5149
vn 0.8569 -0.0013 0.5155
vn 0.3400 -0.0021 0.9404
vn -0.3803 -0.0021 0.9249
vn -0.3806 -0.0022 0.9248
vn 0.3403 -0.0022 0.9403
vn -0.1981 0.0003 -0.9802
vn -0.5149 0.0003 -0.8572
vn -0.5142 0.0007 -0.8577
vn -0.1979 0.0005 -0.9802
vn 0.9248 -0.0021 0.3804
vn 0.3808 -0.0002 0.9247
vn 0.3802 -0.0003 0.9249
vn 0.3803 -0.0003 0.9249
vn 0.9247 -0.0022 0.3807
vn 0.9248 -0.0020 0.3804
vn 0.3806 -0.0001 0.9247
vn -0.3398 0.0003 0.9405
vn -0.3393 -0.0000 0.9407
vn -0.3393 0.0001 0.9407
vn 0.3801 -0.0003 0.9249
vn 0.3807 -0.0002 0.9247
vn -0.3400 0.0003 0.9404
vn -0.8580 0.0007 0.5137
vn -0.8576 0.0003 0.5144
vn -0.8575 0.0003 0.5144
vn -0.3395 -0.0000 0.9406
vn -0.3400 0.0004 0.9404
vn 1.0000 0.0009 0.0013
vn 1.0000 -0.0022 0.0006
vn 1.0000 -0.0016 0.0007
vn 1.0000 -0.0017 0.0007
vn 1.0000 0.0014 0.0014
vn 0.1997 -0.0006 -0.9799
vn 0.5154 -0.0013 -0.8570
vn 0.5148 -0.0014 -0.8573
vn 0.5147 -0.0014 -0.8574
vn 0.1997 -0.0007 -0.9799
vn 0.5155 -0.0014 -0.8569
vn 0.9404 -0.0022 -0.3402
vn 0.9403 -0.0022 -0.3404
vn 0.9403 -0.0021 -0.3405
vn 0.5149 -0.0013 -0.8573
vn 0.5155 -0.0013 -0.8569
vn 0.9404 -0.0021 -0.3400
vn 0.9249 -0.0021 0.3803
vn 0.9248 -0.0022 0.3806
vn 0.9403 -0.0022 -0.3403
vn -0.9805 0.0003 0.1966
vn -0.8576 0.0003 0.5143
vn -0.8581 0.0007 0.5135
vn -0.9805 0.0005 0.1964
vn 0.0001 -0.0000 -1.0000
vn -0.7069 -0.0000 -0.7073
vn 1.0000 -0.0000 0.0001
vn 0.7071 0.0002 -0.7072
vn 0.7073 0.0052 -0.7069
vn 0.7073 0.0047 -0.7069
vn 0.7073 0.0049 -0.7069
vn 0.7070 -0.0000 -0.7072
vn -1.0000 -0.0000 -0.0001
vn -0.7073 -0.0000 0.7069
vn -0.0001 -0.0000 1.0000
vn 0.7069 -0.0000 0.7073
vt 0.003906 0.500000
vt 0.496094 0.500000
vt 0.496094 0.441406
vt 0.003906 0.441406
vt 0.274589 0.439390
vt 0.397386 0.439390
vt 0.397386 0.494776
vt 0.274589 0.494776
vt 0.033177 0.439390
vt 0.114993 0.439390
vt 0.114993 0.494776
vt 0.033177 0.494776
vt 0.002816 0.439390
vt 0.114222 0.439390
vt 0.114221 0.494776
vt 0.002816 0.494776
vt 0.149725 0.439390
vt 0.225149 0.439390
vt 0.225149 0.494776
vt 0.149725 0.494776
vt 0.397386 0.494776
vt 0.397386 0.439390
vt 0.397386 0.494776
vt 0.274589 0.494776
vt 0.345206 0.499070
vt 0.159407 0.499030
vt 0.159355 0.438658
vt 0.345111 0.438699
vt 0.028862 0.499043
vt 0.028889 0.438632
vt -0.000946 0.499053
vt -0.000906 0.438622
vt 0.395595 0.499241
vt 0.104934 0.499348
vt 0.104919 0.438997
vt 0.395593 0.438969
vt 0.073488 0.498673
vt 0.025394 0.498672
vt 0.025533 0.438240
vt 0.073612 0.438322
vt 0.505536 0.498840
vt 0.475738 0.498908
vt 0.475591 0.438496
vt 0.505396 0.438408
vt 0.000754 0.448099
vt 0.499779 0.448099
vt 0.499779 0.492177
vt 0.000754 0.492177
s 1
f 1/1/1 2/2/1 3/3/1
f 4/3/1 5/4/1 6/1/1
f 7/1/2 8/4/2 9/3/2
f 10/3/2 11/2/2 12/1/2
f 13/1/1 14/2/1 15/3/1
f 16/3/1 17/4/1 18/1/1
f 19/1/2 20/4/2 21/3/2
f 22/3/2 23/2/2 24/1/2
f 25/1/1 26/2/1 27/3/1
f 28/3/1 29/4/1 30/1/1
f 31/1/2 32/4/2 33/3/2
f 34/3/2 35/2/2 36/1/2
f 37/5/3 38/6/3 39/7/3
f 40/7/3 41/8/3 42/5/3
f 43/9/4 44/10/4 45/11/4
f 46/11/4 47/12/4 48/9/4
f 49/13/5 50/14/5 51/15/5
f 52/15/5 53/16/5 54/13/5
f 55/17/6 56/18/6 57/19/6
f 58/19/6 59/20/6 60/17/6
f 61/5/7 62/6/7 63/21/7
f 64/21/7 65/8/7 66/5/7
f 67/5/8 68/22/8 69/23/8
f 70/23/8 71/24/8 72/5/8
f 73/5/9 74/6/9 75/7/9
f 76/7/9 77/8/9 78/5/9
f 79/9/10 80/10/10 81/11/10
f 82/11/10 83/12/10 84/9/10
f 85/13/11 86/14/11 87/15/11
f 88/15/11 89/16/11 90/13/11
f 91/17/12 92/18/12 93/19/12
f 94/19/12 95/20/12 96/17/12
f 97/9/13 98/10/13 99/11/13
f 100/11/13 101/12/13 102/9/13
f 103/13/14 104/14/14 105/15/14
f 106/15/14 107/16/14 108/13/14
f 109/17/15 110/18/15 111/19/15
f 112/19/15 113/20/15 114/17/15
f 115/9/16 116/10/16 117/11/16
f 118/11/16 119/12/16 120/9/16
f 121/13/17 122/14/17 123/15/17
f 124/15/17 125/16/17 126/13/17
f 127/17/18 128/18/18 129/19/18
f 130/19/18 131/20/18 132/17/18
f 133/25/19 134/26/20 135/27/21
f 136/27/22 137/28/23 138/25/24
f 139/26/25 140/29/26 141/30/27
f 142/30/28 143/27/29 144/26/30
f 145/29/31 146/31/32 147/32/33
f 148/32/34 149/30/35 150/29/36
f 151/33/37 152/34/38 153/35/38
f 154/35/39 155/36/40 156/33/41
f 157/37/42 158/38/43 159/39/44
f 160/39/45 161/40/46 162/37/46
f 163/41/47 164/42/48 165/43/49
f 166/43/49 167/44/50 168/41/51
f 169/42/52 170/25/53 171/28/54
f 172/28/55 173/43/56 174/42/52
f 175/37/57 176/38/58 177/39/59
f 178/39/59 179/40/60 180/37/57
f 181/25/61 182/26/62 183/27/63
f 184/27/64 185/28/65 186/25/66
f 187/26/67 188/29/68 189/30/69
f 190/30/70 191/27/71 192/26/72
f 193/29/73 194/31/74 195/32/75
f 196/32/75 197/30/76 198/29/77
f 199/33/78 200/34/79 201/35/79
f 202/35/80 203/36/81 204/33/82
f 205/37/83 206/38/84 207/39/85
f 208/39/86 209/40/87 210/37/87
f 211/41/88 212/42/89 213/43/90
f 214/43/91 215/44/92 216/41/93
f 217/42/94 218/25/95 219/28/96
f 220/28/96 221/43/97 222/42/94
f 223/37/98 224/38/99 225/39/100
f 226/39/100 227/40/101 228/37/101
f 229/25/102 230/26/103 231/27/104
f 232/27/105 233/28/106 234/25/107
f 235/26/108 236/29/109 237/30/110
f 238/30/110 239/27/111 240/26/112
f 241/29/113 242/31/114 243/32/115
f 244/32/115 245/30/116 246/29/113
f 247/33/117 248/34/118 249/35/119
f 250/35/119 251/36/120 252/33/120
f 253/37/121 254/38/122 255/39/123
f 256/39/124 257/40/125 258/37/125
f 259/41/126 260/42/127 261/43/128
f 262/43/129 263/44/130 264/41/131
f 265/42/132 266/25/133 267/28/134
f 268/28/134 269/43/135 270/42/132
f 271/37/136 272/38/137 273/39/138
f 274/39/138 275/40/139 276/37/139
f 277/25/140 278/26/141 279/27/142
f 280/27/143 281/28/144 282/25/145
f 283/26/146 284/29/147 285/30/148
f 286/30/149 287/27/150 288/26/151
f 289/29/152 290/31/153 291/32/154
f 292/32/155 293/30/156 294/29/157
f 295/33/158 296/34/159 297/35/160
f 298/35/161 299/36/162 300/33/162
f 301/37/163 302/38/164 303/39/165
f 304/39/166 305/40/167 306/37/167
f 307/41/168 308/42/169 309/43/170
f 310/43/171 311/44/172 312/41/173
f 313/42/174 314/25/175 315/28/176
f 316/28/176 317/43/177 318/42/174
f 319/37/178 320/38/179 321/39/180
f 322/39/180 323/40/181 324/37/181
f 325/45/182 326/46/182 327/47/182
f 328/47/182 329/48/182 330/45/182
f 331/45/183 332/46/183 333/47/183
f 334/47/183 335/48/183 336/45/183
f 337/45/184 338/46/184 339/47/184
f 340/47/184 341/48/184 342/45/184
f 343/45/185 344/46/186 345/47/187
f 346/47/188 347/48/189 348/45/189
f 349/45/190 350/46/190 351/47/190
f 352/47/190 353/48/190 354/45/190
f 355/45/191 356/46/191 357/47/191
f 358/47/191 359/48/191 360/45/191
f 361/45/192 362/46/192 363/47/192
f 364/47/192 365/48/192 366/45/192
f 367/45/193 368/46/193 369/47/193
f 370/47/193 371/48/193 372/45/193
f 373/1/1 374/2/1 375/3/1
f 376/3/1 377/4/1 378/1/1
f 379/1/2 380/4/2 381/3/2
f 382/3/2 383/2/2 384/1/2
f 385/1/1 386/2/1 387/3/1
f 388/3/1 389/4/1 390/1/1
f 391/1/2 392/4/2 393/3/2
f 394/3/2 395/2/2 396/1/2
f 397/1/1 398/2/1 399/3/1
f 400/3/1 401/4/1 402/1/1
f 403/1/2 404/4/2 405/3/2
f 406/3/2 407/2/2 408/1/2
f 409/5/3 410/6/3 411/7/3
f 412/7/3 413/8/3 414/5/3
f 415/9/4 416/10/4 417/11/4
f 418/11/4 419/12/4 420/9/4
f 421/13/5 422/14/5 423/15/5
f 424/15/5 425/16/5 426/13/5
f 427/17/6 428/18/6 429/19/6
f 430/19/6 431/20/6 432/17/6
f 433/5/7 434/6/7 435/21/7
f 436/21/7 437/8/7 438/5/7
f 439/5/8 440/22/8 441/23/8
f 442/23/8 443/24/8 444/5/8
f 445/5/9 446/6/9 447/7/9
f 448/7/9 449/8/9 450/5/9
f 451/9/10 452/10/10 453/11/10
f 454/11/10 455/12/10 456/9/10
f 457/13/11 458/14/11 459/15/11
f 460/15/11 461/16/11 462/13/11
f 463/17/12 464/18/12 465/19/12
f 466/19/12 467/20/12 468/17/12
f 469/9/13 470/10/13 471/11/13
f 472/11/13 473/12/13 474/9/13
f 475/13/14 476/14/14 477/15/14
f 478/15/14 479/16/14 480/13/14
f 481/17/15 482/18/15 483/19/15
f 484/19/15 485/20/15 486/17/15
f 487/9/16 488/10/16 489/11/16
f 490/11/16 491/12/16 492/9/16
f 493/13/17 494/14/17 495/15/17
f 496/15/17 497/16/17 498/13/17
f 499/17/18 500/18/18 501/19/18
f 502/19/18 503/20/18 504/17/18
f 505/25/19 506/26/20 507/27/21
f 508/27/22 509/28/23 510/25/24
f 511/26/25 512/29/26 513/30/27
f 514/30/28 515/27/29 516/26/30
f 517/29/31 518/31/32 519/32/33
f 520/32/34 521/30/35 522/29/36
f 523/33/37 524/34/38 525/35/38
f 526/35/39 527/36/40 528/33/41
f 529/37/42 530/38/43 531/39/44
f 532/39/45 533/40/46 534/37/46
f 535/41/47 536/42/48 537/43/49
f 538/43/49 539/44/50 540/41/51
f 541/42/52 542/25/53 543/28/54
f 544/28/55 545/43/56 546/42/52
f 547/37/57 548/38/58 549/39/59
f 550/39/59 551/40/60 552/37/57
f 553/25/61 554/26/62 555/27/63
f 556/27/64 557/28/65 558/25/66
f 559/26/67 560/29/68 561/30/69
f 562/30/70 563/27/71 564/26/72
f 565/29/73 566/31/74 567/32/75
f 568/32/75 569/30/76 570/29/77
f 571/33/78 572/34/79 573/35/79
f 574/35/80 575/36/81 576/33/82
f 577/37/83 578/38/84 579/39/85
f 580/39/86 581/40/87 582/37/87
f 583/41/88 584/42/89 585/43/90
f 586/43/91 587/44/92 588/41/93
f 589/42/94 590/25/95 591/28/96
f 592/28/96 593/43/97 594/42/94
f 595/37/98 596/38/99 597/39/100
f 598/39/100 599/40/101 600/37/101
f 601/25/102 602/26/103 603/27/104
f 604/27/105 605/28/106 606/25/107
f 607/26/108 608/29/109 609/30/110
f 610/30/110 611/27/111 612/26/112
f 613/29/113 614/31/114 615/32/115
f 616/32/115 617/30/116 618/29/113
f 619/33/117 620/34/118 621/35/119
f 622/35/119 623/36/120 624/33/120
f 625/37/121 626/38/122 627/39/123
f 628/39/124 629/40/125 630/37/125
f 631/41/126 632/42/127 633/43/128
f 634/43/129 635/44/130 636/41/131
f 637/42/132 638/25/133 639/28/134
f 640/28/134 641/43/135 642/42/132
f 643/37/136 644/38/137 645/39/138
f 646/39/138 647/40/139 648/37/139
f 649/25/140 650/26/141 651/27/142
f 652/27/143 653/28/144 654/25/145
f 655/26/146 656/29/147 657/30/148
f 658/30/149 659/27/150 660/26/151
f 661/29/152 662/31/153 663/32/154
f 664/32/155 665/30/156 666/29/157
f 667/33/158 668/34/159 669/35/160
f 670/35/161 671/36/162 672/33/162
f 673/37/163 674/38/164 675/39/165
f 676/39/166 677/40/167 678/37/167
f 679/41/168 680/42/169 681/43/170
f 682/43/171 683/44/172 684/41/173
f 685/42/174 686/25/175 687/28/176
f 688/28/176 689/43/177 690/42/174
f 691/37/178 692/38/179 693/39/180
f 694/39/180 695/40/181 696/37/181
f 697/45/182 698/46/182 699/47/182
f 700/47/182 701/48/182 702/45/182
f 703/45/183 704/46/183 705/47/183
f 706/47/183 707/48/183 708/45/183
f 709/45/184 710/46/184 711/47/184
f 712/47/184 713/48/184 714/45/184
f 715/45/185 716/46/186 717/47/187
f 718/47/188 719/48/189 720/45/189
f 721/45/190 722/46/190 723/47/190
f 724/47/190 725/48/190 726/45/190
f 727/45/191 728/46/191 729/47/191
f 730/47/191 731/48/191 732/45/191
f 733/45/192 734/46/192 735/47/192
f 736/47/192 737/48/192 738/45/192
f 739/45/193 740/46/193 741/47/193
f 742/47/193 743/48/193 744/45/193
